<?xml version="1.0" encoding="UTF-8" standalone="no"?>
<!DOCTYPE svg PUBLIC "-//W3C//DTD SVG 1.1//EN" "http://www.w3.org/Graphics/SVG/1.1/DTD/svg11.dtd">
<svg width="100%" height="100%" viewBox="0 0 306 657" version="1.1" xmlns="http://www.w3.org/2000/svg" xmlns:xlink="http://www.w3.org/1999/xlink" xml:space="preserve" xmlns:serif="http://www.serif.com/" style="fill-rule:evenodd;clip-rule:evenodd;stroke-linejoin:round;stroke-miterlimit:2;">
    <g id="Diver-down-flag" serif:id="Diver down flag">
    </g>
    <g id="g186">
    </g>
    <rect id="Artboard22" x="0" y="0" width="305.122" height="656.989" style="fill:none;"/>
    <clipPath id="_clip1">
        <rect x="0" y="0" width="305.122" height="656.989"/>
    </clipPath>
    <g clip-path="url(#_clip1)">
        <g>
            <path d="M0.77,521.065L0.749,521.05L9.022,477.045C72.726,477.045 114.677,477.46 152.561,477.46C190.445,477.46 233.051,477.045 295.705,477.045L303.978,521.05L303.639,521.294C303.127,596.678 235.464,657.745 152.195,657.745C68.843,657.745 1.127,596.555 0.749,521.065L0.77,521.065ZM152.561,456.084C152.561,456.084 61.821,455.119 20.305,455.119L20.305,400.413L20.285,400.409L20.305,400.298L20.305,400.225L20.318,400.225L63.326,160.69L63.326,114.657L122.379,114.657L122.379,74.866L121.476,74.038L120.776,73.362C117.52,70.152 114.784,66.448 112.7,62.378L112.16,61.286L111.747,60.39C111.448,59.723 111.167,59.047 110.903,58.363L110.412,57.02L110.049,55.923L109.744,54.912L109.678,54.676L109.454,53.846L109.118,52.445L108.831,51.034L108.649,49.978L108.532,49.188L108.382,47.972L108.248,46.489L108.172,45.126L108.143,44.028L108.139,43.476C108.139,19.898 127.955,0.756 152.363,0.756C176.771,0.756 196.588,19.898 196.588,43.476L196.569,44.732L196.498,46.218L196.386,47.572L196.266,48.646L196.099,49.84L195.847,51.297L195.575,52.601L195.327,53.634L195.265,53.876L195.04,54.709L194.716,55.799L194.349,56.923L193.994,57.912L193.824,58.363C193.56,59.047 193.279,59.723 192.98,60.39L192.454,61.521L192.027,62.378C189.942,66.448 187.206,70.153 183.951,73.362L183.061,74.216L182.348,74.866L182.348,114.657L241.401,114.657L241.401,160.69L284.409,400.225L284.422,400.225L284.422,400.298L284.442,400.409L284.422,400.413L284.422,455.119C242.486,455.119 152.561,456.084 152.561,456.084ZM152.363,321.797L73.936,400.225L230.791,400.225L152.363,321.797ZM125.678,294.684L77.094,246.099L50.166,396.073L138.403,307.837L125.464,294.898L125.678,294.684ZM179.048,294.684L179.263,294.898L166.324,307.837L254.561,396.073L227.633,246.099L179.048,294.684ZM152.363,293.448L211.133,234.679L93.594,234.679L152.363,293.448ZM222.038,214.936L82.689,214.936L90.838,169.552L213.889,169.552L222.038,214.936Z" style="fill:#de2726;"/>
        </g>
    </g>
    <g id="Filigree">
    </g>
</svg>
