<?xml version="1.0" encoding="UTF-8" standalone="no"?>
<!DOCTYPE svg PUBLIC "-//W3C//DTD SVG 1.1//EN" "http://www.w3.org/Graphics/SVG/1.1/DTD/svg11.dtd">
<svg width="100%" height="100%" viewBox="0 0 840 2334" version="1.1" xmlns="http://www.w3.org/2000/svg" xmlns:xlink="http://www.w3.org/1999/xlink" xml:space="preserve" xmlns:serif="http://www.serif.com/" style="fill-rule:evenodd;clip-rule:evenodd;stroke-linejoin:round;stroke-miterlimit:2;">
    <rect id="Artboard4" x="0" y="0" width="839.795" height="2333.42" style="fill:none;"/>
    <clipPath id="_clip1">
        <rect x="0" y="0" width="839.795" height="2333.42"/>
    </clipPath>
    <g clip-path="url(#_clip1)">
        <path d="M421.809,2326.98C395.796,2306.3 397.435,2288.42 373.474,2269.11L386.751,2271.51L396.466,2272.63C389.093,2271.72 381.719,2270.5 374.362,2268.93L372.892,2268.61C295.815,2254.31 218.365,2211.21 135.634,2152.52C55.173,2095.44 55.641,2049.68 53.582,2004.46C52.257,1975.52 51.514,1940.99 52.152,1919.58L52.16,1919.08C28.659,1926.14 10.343,1939.13 6.474,1935.96C-0.229,1930.47 60.761,1729.04 77.447,1729.04C94.124,1729.04 156.697,1930.07 148.411,1935.96C142.935,1939.85 125.652,1925 102.062,1918.11L100.932,1917.79C100.035,1940.04 101.594,1971.3 103.136,1993.11C105.365,2024.55 104.582,2060.83 247.673,2132.39C282.788,2149.96 321.795,2161.73 363.096,2166.53L363.548,2166.59C381.291,2168.87 399.462,2169.75 417.932,2169.27L418.102,2169.27L419.951,2169.21C420.565,2169.2 421.187,2169.18 421.809,2169.16L419.951,2169.21L418.078,2169.27L417.932,2169.27C399.301,2169.75 380.968,2168.84 363.112,2166.33L395.303,1681.67L448.322,1681.67L480.513,2166.33C461.414,2169.02 441.773,2169.87 421.809,2169.16C441.773,2169.87 461.397,2169.02 480.53,2166.53L481.014,2166.48C522.129,2161.64 560.975,2149.89 595.952,2132.39C739.044,2060.83 738.26,2024.55 740.489,1993.11C742.032,1971.3 743.59,1940.04 742.694,1917.79C718.522,1924.53 700.779,1939.92 695.215,1935.96C686.921,1930.07 749.502,1729.04 766.179,1729.04C782.856,1729.04 843.854,1930.47 837.143,1935.96C833.275,1939.13 814.966,1926.14 791.457,1919.08L790.278,1918.71C790.674,1918.83 791.069,1918.95 791.457,1919.08C792.119,1940.45 791.376,1975.29 790.044,2004.46C787.984,2049.68 788.453,2095.44 707.991,2152.52C625.422,2211.1 548.118,2254.13 471.186,2268.52L470.733,2268.61C462.883,2270.34 455.026,2271.67 447.159,2272.63L456.875,2271.51L470.152,2269.11C446.19,2288.42 447.83,2306.3 421.809,2326.98ZM407.159,2273.85L400.536,2273.09C404.445,2273.51 408.362,2273.83 412.271,2274.07L407.159,2273.85ZM443.089,2273.09C439.18,2273.51 435.263,2273.83 431.355,2274.07L436.467,2273.85L443.089,2273.09ZM471.638,2267.85C471.501,2267.96 471.363,2268.07 471.234,2268.18C471.097,2268.3 470.968,2268.41 470.83,2268.52C471.097,2268.3 471.363,2268.07 471.638,2267.85ZM371.398,2267.38C371.56,2267.51 371.721,2267.64 371.883,2267.76C372.036,2267.89 372.19,2268.02 372.351,2268.15C372.036,2267.89 371.721,2267.64 371.398,2267.38ZM370.776,2266.88C370.857,2266.94 370.938,2267.01 371.019,2267.07C371.099,2267.14 371.18,2267.2 371.261,2267.26C371.099,2267.14 370.938,2267.01 370.776,2266.88ZM472.373,2267.25L472.397,2267.23L472.373,2267.25ZM473.439,2266.41C473.342,2266.49 473.245,2266.56 473.148,2266.64C473.059,2266.71 472.962,2266.79 472.865,2266.86C473.051,2266.71 473.245,2266.56 473.439,2266.41ZM369.848,2266.15C369.985,2266.26 370.122,2266.36 370.251,2266.47C370.082,2266.33 369.912,2266.2 369.734,2266.06L369.848,2266.15ZM475.692,2264.72C475.329,2264.99 474.973,2265.24 474.626,2265.5C474.279,2265.77 473.932,2266.03 473.592,2266.3C474.271,2265.77 474.973,2265.24 475.692,2264.72ZM477.17,2263.67C477.606,2263.37 478.042,2263.07 478.494,2262.77C478.042,2263.07 477.606,2263.37 477.17,2263.67L477.081,2263.74C476.621,2264.06 476.169,2264.38 475.716,2264.7C476.193,2264.36 476.677,2264.02 477.17,2263.67ZM366.892,2263.99C367.021,2264.07 367.142,2264.16 367.263,2264.24C367.384,2264.33 367.505,2264.41 367.619,2264.5C367.384,2264.33 367.142,2264.16 366.892,2263.99ZM365.155,2262.78C365.22,2262.83 365.293,2262.88 365.357,2262.92C365.43,2262.97 365.495,2263.02 365.567,2263.07C365.43,2262.97 365.293,2262.88 365.155,2262.78ZM479.124,2262.35C479.044,2262.39 478.963,2262.45 478.89,2262.5C478.809,2262.56 478.729,2262.61 478.648,2262.66C478.809,2262.56 478.963,2262.45 479.124,2262.35ZM364.243,2262.18C364.332,2262.23 364.412,2262.29 364.501,2262.35C364.582,2262.4 364.671,2262.46 364.752,2262.52C364.582,2262.4 364.412,2262.29 364.243,2262.18ZM479.924,2261.82C479.811,2261.89 479.698,2261.97 479.585,2262.04C479.472,2262.11 479.367,2262.18 479.254,2262.26C479.472,2262.11 479.698,2261.97 479.924,2261.82ZM480.546,2261.42L480.344,2261.55C480.408,2261.51 480.481,2261.46 480.546,2261.42ZM480.828,2261.23L480.683,2261.33L480.828,2261.23ZM481.216,2260.99L481.006,2261.13L481.216,2260.99ZM482.573,2260.14C482.371,2260.27 482.177,2260.39 481.975,2260.51C481.781,2260.63 481.588,2260.76 481.394,2260.88C481.781,2260.63 482.169,2260.39 482.573,2260.14ZM483.146,2259.79L482.88,2259.96C482.969,2259.9 483.057,2259.84 483.146,2259.79ZM483.687,2259.46L483.34,2259.67C483.453,2259.6 483.566,2259.54 483.687,2259.46ZM484.535,2258.95L484.253,2259.12L484.826,2258.78L484.535,2258.95ZM485.254,2258.53L484.883,2258.75L485.254,2258.53ZM486.288,2257.94L485.852,2258.19C485.997,2258.11 486.142,2258.02 486.288,2257.94ZM789.85,1918.57L790.052,1918.64C789.979,1918.61 789.915,1918.6 789.85,1918.57ZM55.472,1918.07C55.278,1918.13 55.092,1918.19 54.898,1918.24C54.712,1918.29 54.527,1918.35 54.333,1918.4C54.712,1918.29 55.092,1918.19 55.472,1918.07ZM788.509,1918.18L788.719,1918.24L788.509,1918.18ZM788.089,1918.06L788.372,1918.14L788.089,1918.06ZM56.037,1917.91L55.746,1917.99C55.843,1917.97 55.94,1917.94 56.037,1917.91ZM743.962,1917.41C743.808,1917.46 743.655,1917.5 743.493,1917.55C743.34,1917.6 743.187,1917.64 743.033,1917.68C743.34,1917.6 743.655,1917.5 743.962,1917.41ZM99.446,1917.35C99.607,1917.39 99.769,1917.44 99.93,1917.49C100.084,1917.54 100.245,1917.59 100.407,1917.64C100.092,1917.54 99.769,1917.44 99.446,1917.35ZM785.747,1917.41L785.949,1917.47C785.885,1917.45 785.812,1917.43 785.747,1917.41ZM744.576,1917.23L744.713,1917.2L744.576,1917.23ZM745.803,1916.9C745.642,1916.94 745.48,1916.99 745.311,1917.03C745.149,1917.08 744.988,1917.12 744.826,1917.17C745.149,1917.08 745.48,1916.99 745.803,1916.9ZM98.533,1917.1L98.751,1917.15C98.678,1917.14 98.606,1917.11 98.533,1917.1ZM97.297,1916.76C97.467,1916.81 97.645,1916.85 97.822,1916.9C98,1916.95 98.17,1917 98.347,1917.04C98,1916.95 97.645,1916.85 97.297,1916.76ZM779.747,1916.05C780.369,1916.17 780.991,1916.29 781.604,1916.42C782.218,1916.55 782.84,1916.7 783.446,1916.84C782.226,1916.55 780.991,1916.29 779.747,1916.05ZM96.813,1916.64L97.136,1916.72C97.031,1916.7 96.918,1916.67 96.813,1916.64ZM746.813,1916.64L746.498,1916.72C746.603,1916.69 746.708,1916.67 746.813,1916.64ZM62.094,1916.41C61.9,1916.45 61.706,1916.49 61.513,1916.54C61.319,1916.58 61.125,1916.62 60.931,1916.67C61.319,1916.58 61.706,1916.49 62.094,1916.41ZM95.48,1916.32C95.61,1916.35 95.739,1916.38 95.868,1916.41C95.989,1916.44 96.118,1916.47 96.248,1916.51C95.997,1916.44 95.739,1916.38 95.48,1916.32ZM63.2,1916.17L62.926,1916.23C63.015,1916.22 63.112,1916.2 63.2,1916.17ZM94.22,1916.05C94.35,1916.07 94.479,1916.1 94.608,1916.13C94.737,1916.15 94.867,1916.18 94.996,1916.22C94.737,1916.15 94.479,1916.09 94.22,1916.05ZM64.945,1915.84C64.743,1915.88 64.533,1915.92 64.323,1915.96C64.113,1916 63.903,1916.04 63.701,1916.08C64.113,1916 64.533,1915.92 64.945,1915.84ZM88.915,1915.12C89.754,1915.23 90.586,1915.36 91.418,1915.51C92.242,1915.65 93.066,1915.8 93.881,1915.97C92.25,1915.63 90.594,1915.35 88.915,1915.12ZM778.35,1915.78C778.471,1915.8 778.592,1915.83 778.713,1915.84C778.826,1915.87 778.947,1915.89 779.068,1915.92L778.35,1915.78ZM65.486,1915.75L65.244,1915.79C65.324,1915.77 65.405,1915.76 65.486,1915.75ZM775.967,1915.39C776.339,1915.45 776.718,1915.51 777.09,1915.57C777.461,1915.63 777.833,1915.69 778.204,1915.76C777.461,1915.63 776.718,1915.51 775.967,1915.39ZM67.117,1915.47C66.932,1915.51 66.754,1915.53 66.568,1915.56C66.382,1915.59 66.205,1915.62 66.019,1915.65C66.382,1915.59 66.754,1915.53 67.117,1915.47ZM752.886,1915.39C752.789,1915.41 752.692,1915.42 752.595,1915.44C752.49,1915.46 752.393,1915.47 752.296,1915.49C752.49,1915.46 752.692,1915.42 752.886,1915.39ZM758.16,1914.74C757.699,1914.78 757.239,1914.82 756.779,1914.87C756.318,1914.91 755.858,1914.97 755.406,1915.03C756.318,1914.91 757.239,1914.82 758.16,1914.74ZM84.893,1914.69C85.369,1914.73 85.838,1914.77 86.306,1914.81C86.782,1914.86 87.251,1914.91 87.719,1914.96C86.782,1914.86 85.838,1914.76 84.893,1914.69ZM772.333,1914.92L772.551,1914.95L772.333,1914.92ZM74.644,1914.63C74.321,1914.66 73.998,1914.68 73.675,1914.7C73.352,1914.73 73.029,1914.75 72.714,1914.79C73.352,1914.73 73.998,1914.67 74.644,1914.63ZM770.144,1914.72L770.548,1914.75C770.419,1914.74 770.282,1914.73 770.144,1914.72ZM759.573,1914.62C759.395,1914.64 759.209,1914.65 759.032,1914.66C758.854,1914.68 758.668,1914.69 758.491,1914.7C758.854,1914.68 759.209,1914.65 759.573,1914.62ZM769.2,1914.65L769.862,1914.7L769.2,1914.65ZM83.924,1914.62C84.053,1914.62 84.182,1914.63 84.319,1914.65C84.448,1914.66 84.578,1914.66 84.707,1914.67C84.448,1914.66 84.182,1914.63 83.924,1914.62ZM767.423,1914.55C767.722,1914.56 768.02,1914.58 768.311,1914.59C768.61,1914.61 768.901,1914.63 769.2,1914.65L767.423,1914.55ZM83.221,1914.58L83.576,1914.6C83.455,1914.59 83.342,1914.58 83.221,1914.58ZM760.397,1914.58L760.469,1914.58L760.397,1914.58ZM76.421,1914.54L76.639,1914.54L76.195,1914.55C76.276,1914.54 76.348,1914.54 76.421,1914.54ZM79.99,1914.48C80.435,1914.48 80.879,1914.49 81.315,1914.5C81.759,1914.51 82.195,1914.53 82.631,1914.55C81.759,1914.51 80.879,1914.49 79.99,1914.48ZM763.433,1914.48L763.91,1914.48L763.433,1914.48L763.207,1914.49L763.07,1914.49L762.496,1914.5L762.408,1914.5L761.778,1914.52C761.551,1914.53 761.325,1914.54 761.099,1914.54L762.456,1914.5L762.723,1914.5L763.142,1914.49L763.433,1914.48ZM77.269,1914.51C77.164,1914.51 77.059,1914.52 76.954,1914.52C76.849,1914.53 76.744,1914.53 76.639,1914.54L77.269,1914.51ZM765.913,1914.5C766.042,1914.5 766.179,1914.5 766.316,1914.51C766.454,1914.51 766.591,1914.52 766.72,1914.52C766.454,1914.51 766.179,1914.5 765.913,1914.5ZM79.296,1914.48C78.997,1914.48 78.706,1914.48 78.408,1914.49C78.117,1914.49 77.826,1914.5 77.527,1914.5L79.296,1914.48ZM764.087,1914.48L764.33,1914.48L764.087,1914.48ZM791.061,1909.9L791.077,1910.19L791.061,1909.9ZM791.005,1909.07L791.029,1909.37L791.005,1909.07ZM53.331,1902.53C53.194,1903.32 53.065,1904.25 52.952,1905.31C52.839,1906.35 52.734,1907.53 52.637,1908.82C52.823,1906.24 53.057,1904.12 53.331,1902.53ZM790.649,1905.14L790.69,1905.48L790.803,1906.61C790.771,1906.22 790.73,1905.85 790.69,1905.48L790.69,1905.43L790.649,1905.14L790.585,1904.55L790.561,1904.34L790.649,1905.14ZM790.334,1902.78C790.359,1902.91 790.375,1903.04 790.399,1903.17C790.415,1903.3 790.439,1903.45 790.456,1903.58L790.334,1902.78ZM790.238,1902.2L790.286,1902.51L790.238,1902.2ZM53.388,1902.2L53.348,1902.43L53.388,1902.2ZM398.631,1631.51L403.694,1555.31C366.924,1547.03 339.506,1514.09 339.506,1474.81C339.506,1429.29 376.341,1392.29 421.809,1392.08L421.809,1432C398.372,1432.21 379.426,1451.32 379.426,1474.81C379.426,1498.31 398.372,1517.41 421.809,1517.62L421.809,1681.67L273.605,1681.67L273.605,1694.2C273.605,1699.45 269.349,1703.71 264.108,1703.71L245.105,1703.71C239.864,1703.71 235.608,1699.45 235.608,1694.2L235.608,1618.97C235.608,1613.72 239.864,1609.46 245.105,1609.46L264.108,1609.46C269.349,1609.46 273.605,1613.72 273.605,1618.97L273.605,1631.51L398.631,1631.51ZM598.577,1609.46C603.794,1609.5 608.018,1613.74 608.018,1618.97L608.018,1694.2C608.018,1699.45 603.762,1703.71 598.521,1703.71L579.518,1703.71C574.276,1703.71 570.02,1699.45 570.02,1694.2L570.02,1618.97C570.02,1613.72 574.276,1609.46 579.518,1609.46L598.577,1609.46ZM421.809,1544.52L421.809,1681.67L570.02,1681.67L570.02,1631.51L444.987,1631.51L439.213,1544.52L421.809,1544.52ZM421.809,1392.08L421.809,1432C445.245,1432.21 464.2,1451.32 464.2,1474.81C464.2,1498.31 445.245,1517.41 421.809,1517.62L421.809,1544.52L439.213,1544.52L439.931,1555.31C476.702,1547.03 504.12,1514.09 504.12,1474.81C504.12,1429.29 467.285,1392.29 421.809,1392.08Z" style="fill:#de2726;"/>
        <g>
            <path d="M436.732,122.924C436.953,97.543 416.527,76.758 391.147,76.537C365.767,76.315 344.982,96.741 344.76,122.121L344.274,177.868C344.052,203.248 364.478,224.033 389.858,224.255C415.238,224.476 436.024,204.051 436.245,178.67L436.732,122.924ZM411.777,128.968C411.879,117.33 402.513,107.799 390.875,107.698C379.237,107.596 369.707,116.962 369.605,128.6L369.228,171.824C369.126,183.461 378.492,192.992 390.13,193.094C401.768,193.195 411.299,183.829 411.4,172.192L411.777,128.968Z" style="fill:url(#_Linear2);"/>
            <path d="M435.284,288.771C435.506,263.391 415.08,242.606 389.7,242.384C364.32,242.163 343.534,262.588 343.313,287.969L342.826,343.715C342.605,369.096 363.03,389.881 388.411,390.103C413.791,390.324 434.576,369.898 434.798,344.518L435.284,288.771ZM410.33,294.815C410.432,283.178 401.066,273.647 389.428,273.545C377.79,273.444 368.259,282.81 368.158,294.447L367.781,337.671C367.679,349.309 377.045,358.84 388.683,358.941C400.32,359.043 409.851,349.677 409.953,338.039L410.33,294.815Z" style="fill:url(#_Linear3);"/>
            <path d="M402.44,175.069C402.498,168.362 397.101,162.87 390.394,162.811C383.688,162.753 378.195,168.15 378.137,174.857L377.131,290.116C377.072,296.823 382.47,302.315 389.176,302.374C395.883,302.432 401.375,297.035 401.434,290.328L402.44,175.069Z" style="fill:url(#_Linear4);"/>
            <path d="M400.971,343.365C401.03,336.659 395.632,331.166 388.926,331.108C382.219,331.049 376.726,336.446 376.668,343.153L375.662,458.412C375.603,465.119 381.001,470.611 387.708,470.67C394.414,470.728 399.907,465.331 399.965,458.624L400.971,343.365Z" style="fill:url(#_Linear5);"/>
            <path d="M433.841,454.158C434.062,428.778 413.637,407.992 388.257,407.771C362.876,407.549 342.091,427.975 341.869,453.355L341.383,509.102C341.161,534.482 361.587,555.268 386.967,555.489C412.348,555.711 433.133,535.285 433.354,509.905L433.841,454.158ZM408.887,460.202C408.988,448.564 399.622,439.033 387.985,438.932C376.347,438.83 366.816,448.196 366.714,459.834L366.337,503.058C366.236,514.696 375.602,524.226 387.239,524.328C398.877,524.429 408.408,515.064 408.509,503.426L408.887,460.202Z" style="fill:url(#_Linear6);"/>
            <path d="M432.363,623.513C432.585,598.132 412.159,577.347 386.779,577.125C361.398,576.904 340.613,597.33 340.391,622.71L339.905,678.457C339.684,703.837 360.109,724.622 385.489,724.844C410.87,725.065 431.655,704.64 431.877,679.259L432.363,623.513ZM407.409,629.557C407.51,617.919 398.144,608.388 386.507,608.287C374.869,608.185 365.338,617.551 365.237,629.189L364.859,672.413C364.758,684.05 374.124,693.581 385.761,693.683C397.399,693.784 406.93,684.418 407.032,672.781L407.409,629.557Z" style="fill:url(#_Linear7);"/>
            <path d="M399.514,510.284C399.573,503.578 394.176,498.085 387.469,498.027C380.762,497.968 375.27,503.365 375.211,510.072L374.205,625.331C374.147,632.038 379.544,637.53 386.251,637.589C392.958,637.647 398.45,632.25 398.509,625.543L399.514,510.284Z" style="fill:url(#_Linear8);"/>
            <path d="M398.1,672.419C398.158,665.713 392.761,660.22 386.054,660.162C379.347,660.103 373.855,665.501 373.796,672.207L372.79,787.466C372.732,794.173 378.129,799.665 384.836,799.724C391.543,799.782 397.035,794.385 397.094,787.678L398.1,672.419Z" style="fill:url(#_Linear9);"/>
            <path d="M430.808,786.571C431.029,761.191 410.603,740.406 385.223,740.184C359.843,739.963 339.057,760.388 338.836,785.769L338.349,841.515C338.128,866.896 358.554,887.681 383.934,887.903C409.314,888.124 430.1,867.698 430.321,842.318L430.808,786.571ZM405.853,792.616C405.955,780.978 396.589,771.447 384.951,771.345C373.313,771.244 363.783,780.61 363.681,792.247L363.304,835.471C363.202,847.109 372.568,856.64 384.206,856.741C395.844,856.843 405.374,847.477 405.476,835.839L405.853,792.616Z" style="fill:url(#_Linear10);"/>
            <path d="M429.36,952.419C429.582,927.039 409.156,906.253 383.776,906.032C358.396,905.81 337.61,926.236 337.389,951.616L336.902,1007.36C336.681,1032.74 357.106,1053.53 382.487,1053.75C407.867,1053.97 428.652,1033.55 428.874,1008.17L429.36,952.419ZM404.406,958.463C404.507,946.825 395.142,937.295 383.504,937.193C371.866,937.091 362.335,946.457 362.234,958.095L361.856,1001.32C361.755,1012.96 371.121,1022.49 382.759,1022.59C394.396,1022.69 403.927,1013.33 404.029,1001.69L404.406,958.463Z" style="fill:url(#_Linear11);"/>
            <path d="M396.516,838.717C396.574,832.01 391.177,826.518 384.47,826.459C377.763,826.401 372.271,831.798 372.212,838.505L371.207,953.764C371.148,960.47 376.546,965.963 383.252,966.021C389.959,966.08 395.451,960.682 395.51,953.976L396.516,838.717Z" style="fill:url(#_Linear12);"/>
            <path d="M395.047,1007.01C395.106,1000.31 389.708,994.814 383.001,994.755C376.295,994.697 370.802,1000.09 370.744,1006.8L369.738,1122.06C369.679,1128.77 375.077,1134.26 381.784,1134.32C388.49,1134.38 393.983,1128.98 394.041,1122.27L395.047,1007.01Z" style="fill:url(#_Linear13);"/>
            <path d="M427.917,1117.81C428.138,1092.42 407.713,1071.64 382.332,1071.42C356.952,1071.2 336.167,1091.62 335.945,1117L335.459,1172.75C335.237,1198.13 355.663,1218.91 381.043,1219.14C406.424,1219.36 427.209,1198.93 427.43,1173.55L427.917,1117.81ZM402.963,1123.85C403.064,1112.21 393.698,1102.68 382.061,1102.58C370.423,1102.48 360.892,1111.84 360.79,1123.48L360.413,1166.7C360.312,1178.34 369.678,1187.87 381.315,1187.98C392.953,1188.08 402.484,1178.71 402.585,1167.07L402.963,1123.85Z" style="fill:url(#_Linear14);"/>
            <path d="M426.439,1287.16C426.66,1261.78 406.235,1241 380.855,1240.77C355.474,1240.55 334.689,1260.98 334.467,1286.36L333.981,1342.1C333.759,1367.49 354.185,1388.27 379.565,1388.49C404.946,1388.71 425.731,1368.29 425.952,1342.91L426.439,1287.16ZM401.485,1293.2C401.586,1281.57 392.22,1272.04 380.583,1271.93C368.945,1271.83 359.414,1281.2 359.312,1292.84L358.935,1336.06C358.834,1347.7 368.2,1357.23 379.837,1357.33C391.475,1357.43 401.006,1348.07 401.107,1336.43L401.485,1293.2Z" style="fill:url(#_Linear15);"/>
            <path d="M393.59,1173.93C393.649,1167.23 388.251,1161.73 381.545,1161.67C374.838,1161.62 369.346,1167.01 369.287,1173.72L368.281,1288.98C368.223,1295.68 373.62,1301.18 380.327,1301.24C387.034,1301.3 392.526,1295.9 392.585,1289.19L393.59,1173.93Z" style="fill:url(#_Linear16);"/>
            <path d="M391.634,1340.85C389.898,1334.37 383.229,1330.52 376.75,1332.26C370.272,1333.99 366.422,1340.66 368.157,1347.14L397.99,1458.48C399.726,1464.95 406.395,1468.8 412.873,1467.07C419.351,1465.33 423.202,1458.66 421.466,1452.18L391.634,1340.85Z" style="fill:url(#_Linear17);"/>
            <path d="M401.127,11.762C401.069,5.056 395.576,-0.342 388.87,-0.283C382.163,-0.225 376.766,5.268 376.824,11.974L377.83,127.233C377.889,133.94 383.381,139.337 390.088,139.279C396.794,139.22 402.192,133.728 402.133,127.021L401.127,11.762Z" style="fill:url(#_Linear18);"/>
        </g>
        <g>
            <path d="M504.783,120.121C504.561,94.741 483.776,74.315 458.396,74.537C433.015,74.758 412.59,95.543 412.811,120.924L413.298,176.67C413.519,202.051 434.304,222.476 459.685,222.255C485.065,222.033 505.491,201.248 505.269,175.868L504.783,120.121ZM479.938,126.6C479.836,114.962 470.305,105.596 458.668,105.698C447.03,105.799 437.664,115.33 437.765,126.968L438.143,170.192C438.244,181.829 447.775,191.195 459.413,191.094C471.051,190.992 480.416,181.461 480.315,169.824L479.938,126.6Z" style="fill:url(#_Linear19);"/>
            <path d="M506.23,285.969C506.009,260.588 485.223,240.163 459.843,240.384C434.463,240.606 414.037,261.391 414.258,286.771L414.745,342.518C414.966,367.898 435.752,388.324 461.132,388.103C486.512,387.881 506.938,367.096 506.716,341.715L506.23,285.969ZM481.385,292.447C481.283,280.81 471.753,271.444 460.115,271.545C448.477,271.647 439.111,281.178 439.213,292.815L439.59,336.039C439.692,347.677 449.222,357.043 460.86,356.941C472.498,356.84 481.864,347.309 481.762,335.671L481.385,292.447Z" style="fill:url(#_Linear20);"/>
            <path d="M471.406,172.857C471.348,166.15 465.855,160.753 459.148,160.811C452.442,160.87 447.044,166.362 447.103,173.069L448.109,288.328C448.167,295.035 453.66,300.432 460.366,300.374C467.073,300.315 472.471,294.823 472.412,288.116L471.406,172.857Z" style="fill:url(#_Linear21);"/>
            <path d="M468.689,10.74C468.63,4.033 463.138,-1.365 456.431,-1.306C449.724,-1.248 444.327,4.245 444.386,10.952L445.391,126.211C445.45,132.917 450.942,138.315 457.649,138.256C464.356,138.198 469.753,132.705 469.695,125.998L468.689,10.74Z" style="fill:url(#_Linear22);"/>
            <path d="M472.875,341.153C472.816,334.446 467.324,329.049 460.617,329.108C453.911,329.166 448.513,334.659 448.572,341.365L449.577,456.624C449.636,463.331 455.128,468.728 461.835,468.67C468.542,468.611 473.939,463.119 473.881,456.412L472.875,341.153Z" style="fill:url(#_Linear23);"/>
            <path d="M507.673,451.355C507.452,425.975 486.666,405.549 461.286,405.771C435.906,405.992 415.48,426.778 415.702,452.158L416.188,507.905C416.41,533.285 437.195,553.711 462.575,553.489C487.956,553.268 508.381,532.482 508.16,507.102L507.673,451.355ZM482.828,457.834C482.727,446.196 473.196,436.83 461.558,436.932C449.92,437.033 440.554,446.564 440.656,458.202L441.033,501.426C441.135,513.064 450.666,522.429 462.303,522.328C473.941,522.226 483.307,512.696 483.205,501.058L482.828,457.834Z" style="fill:url(#_Linear24);"/>
            <path d="M509.151,620.71C508.93,595.33 488.144,574.904 462.764,575.125C437.384,575.347 416.958,596.132 417.18,621.513L417.666,677.259C417.888,702.64 438.673,723.065 464.053,722.844C489.434,722.622 509.859,701.837 509.638,676.457L509.151,620.71ZM484.306,627.189C484.205,615.551 474.674,606.185 463.036,606.287C451.398,606.388 442.032,615.919 442.134,627.557L442.511,670.781C442.613,682.418 452.144,691.784 463.781,691.683C475.419,691.581 484.785,682.05 484.683,670.413L484.306,627.189Z" style="fill:url(#_Linear25);"/>
            <path d="M474.332,508.072C474.273,501.365 468.781,495.968 462.074,496.027C455.367,496.085 449.97,501.578 450.028,508.284L451.034,623.543C451.093,630.25 456.585,635.647 463.292,635.589C469.998,635.53 475.396,630.038 475.337,623.331L474.332,508.072Z" style="fill:url(#_Linear26);"/>
            <path d="M475.746,670.207C475.688,663.501 470.195,658.103 463.489,658.162C456.782,658.22 451.385,663.713 451.443,670.419L452.449,785.678C452.508,792.385 458,797.782 464.707,797.724C471.413,797.665 476.811,792.173 476.752,785.466L475.746,670.207Z" style="fill:url(#_Linear27);"/>
            <path d="M510.442,783.771C510.22,758.391 489.435,737.965 464.055,738.187C438.674,738.408 418.249,759.193 418.47,784.574L418.957,840.32C419.178,865.701 439.964,886.126 465.344,885.905C490.724,885.683 511.15,864.898 510.928,839.518L510.442,783.771ZM485.597,790.25C485.495,778.612 475.964,769.246 464.327,769.348C452.689,769.449 443.323,778.98 443.424,790.618L443.802,833.842C443.903,845.479 453.434,854.845 465.072,854.744C476.71,854.642 486.075,845.111 485.974,833.474L485.597,790.25Z" style="fill:url(#_Linear28);"/>
            <path d="M511.889,949.619C511.668,924.238 490.882,903.813 465.502,904.034C440.122,904.256 419.696,925.041 419.918,950.421L420.404,1006.17C420.626,1031.55 441.411,1051.97 466.791,1051.75C492.171,1051.53 512.597,1030.75 512.376,1005.37L511.889,949.619ZM487.044,956.097C486.942,944.46 477.412,935.094 465.774,935.195C454.136,935.297 444.77,944.828 444.872,956.465L445.249,999.689C445.351,1011.33 454.881,1020.69 466.519,1020.59C478.157,1020.49 487.523,1010.96 487.421,999.321L487.044,956.097Z" style="fill:url(#_Linear29);"/>
            <path d="M477.065,836.507C477.007,829.8 471.514,824.403 464.808,824.461C458.101,824.52 452.703,830.012 452.762,836.719L453.768,951.978C453.826,958.685 459.319,964.082 466.026,964.024C472.732,963.965 478.13,958.473 478.071,951.766L477.065,836.507Z" style="fill:url(#_Linear30);"/>
            <path d="M478.534,1004.8C478.475,998.096 472.983,992.699 466.276,992.758C459.57,992.816 454.172,998.309 454.231,1005.01L455.237,1120.27C455.295,1126.98 460.788,1132.38 467.494,1132.32C474.201,1132.26 479.598,1126.77 479.54,1120.06L478.534,1004.8Z" style="fill:url(#_Linear31);"/>
            <path d="M513.332,1115.01C513.111,1089.62 492.326,1069.2 466.945,1069.42C441.565,1069.64 421.139,1090.43 421.361,1115.81L421.847,1171.56C422.069,1196.93 442.854,1217.36 468.234,1217.14C493.615,1216.92 514.04,1196.13 513.819,1170.75L513.332,1115.01ZM488.487,1121.48C488.386,1109.85 478.855,1100.48 467.217,1100.58C455.579,1100.68 446.214,1110.21 446.315,1121.85L446.692,1165.08C446.794,1176.71 456.325,1186.08 467.962,1185.98C479.6,1185.88 488.966,1176.35 488.865,1164.71L488.487,1121.48Z" style="fill:url(#_Linear32);"/>
            <path d="M514.81,1284.36C514.589,1258.98 493.803,1238.55 468.423,1238.78C443.043,1239 422.617,1259.78 422.839,1285.16L423.325,1340.91C423.547,1366.29 444.332,1386.71 469.712,1386.49C495.093,1386.27 515.518,1365.49 515.297,1340.11L514.81,1284.36ZM489.965,1290.84C489.864,1279.2 480.333,1269.84 468.695,1269.94C457.057,1270.04 447.692,1279.57 447.793,1291.21L448.17,1334.43C448.272,1346.07 457.803,1355.43 469.44,1355.33C481.078,1355.23 490.444,1345.7 490.343,1334.06L489.965,1290.84Z" style="fill:url(#_Linear33);"/>
            <path d="M479.991,1171.72C479.932,1165.02 474.44,1159.62 467.733,1159.68C461.026,1159.74 455.629,1165.23 455.687,1171.93L456.693,1287.19C456.752,1293.9 462.244,1299.3 468.951,1299.24C475.658,1299.18 481.055,1293.69 480.996,1286.98L479.991,1171.72Z" style="fill:url(#_Linear34);"/>
            <path d="M477.522,1346.14C479.258,1339.66 475.408,1332.99 468.93,1331.26C462.451,1329.52 455.782,1333.37 454.046,1339.85L424.214,1451.18C422.478,1457.66 426.328,1464.33 432.807,1466.07C439.285,1467.8 445.954,1463.95 447.69,1457.48L477.522,1346.14Z" style="fill:url(#_Linear35);"/>
        </g>
    </g>
    <defs>
        <linearGradient id="_Linear2" x1="0" y1="0" x2="1" y2="0" gradientUnits="userSpaceOnUse" gradientTransform="matrix(2.93099e-14,499.026,-499.026,3.01981e-14,430.809,-1)"><stop offset="0" style="stop-color:#151212;stop-opacity:1"/><stop offset="1" style="stop-color:#de2726;stop-opacity:1"/></linearGradient>
        <linearGradient id="_Linear3" x1="0" y1="0" x2="1" y2="0" gradientUnits="userSpaceOnUse" gradientTransform="matrix(2.93099e-14,499.026,-499.026,3.01981e-14,430.809,-1)"><stop offset="0" style="stop-color:#151212;stop-opacity:1"/><stop offset="1" style="stop-color:#de2726;stop-opacity:1"/></linearGradient>
        <linearGradient id="_Linear4" x1="0" y1="0" x2="1" y2="0" gradientUnits="userSpaceOnUse" gradientTransform="matrix(2.93099e-14,499.026,-499.026,3.01981e-14,430.809,-1)"><stop offset="0" style="stop-color:#151212;stop-opacity:1"/><stop offset="1" style="stop-color:#de2726;stop-opacity:1"/></linearGradient>
        <linearGradient id="_Linear5" x1="0" y1="0" x2="1" y2="0" gradientUnits="userSpaceOnUse" gradientTransform="matrix(2.93099e-14,499.026,-499.026,3.01981e-14,430.809,-1)"><stop offset="0" style="stop-color:#151212;stop-opacity:1"/><stop offset="1" style="stop-color:#de2726;stop-opacity:1"/></linearGradient>
        <linearGradient id="_Linear6" x1="0" y1="0" x2="1" y2="0" gradientUnits="userSpaceOnUse" gradientTransform="matrix(2.93099e-14,499.026,-499.026,3.01981e-14,430.809,-1)"><stop offset="0" style="stop-color:#151212;stop-opacity:1"/><stop offset="1" style="stop-color:#de2726;stop-opacity:1"/></linearGradient>
        <linearGradient id="_Linear7" x1="0" y1="0" x2="1" y2="0" gradientUnits="userSpaceOnUse" gradientTransform="matrix(2.93099e-14,499.026,-499.026,3.01981e-14,430.809,-1)"><stop offset="0" style="stop-color:#151212;stop-opacity:1"/><stop offset="1" style="stop-color:#de2726;stop-opacity:1"/></linearGradient>
        <linearGradient id="_Linear8" x1="0" y1="0" x2="1" y2="0" gradientUnits="userSpaceOnUse" gradientTransform="matrix(2.93099e-14,499.026,-499.026,3.01981e-14,430.809,-1)"><stop offset="0" style="stop-color:#151212;stop-opacity:1"/><stop offset="1" style="stop-color:#de2726;stop-opacity:1"/></linearGradient>
        <linearGradient id="_Linear9" x1="0" y1="0" x2="1" y2="0" gradientUnits="userSpaceOnUse" gradientTransform="matrix(2.93099e-14,499.026,-499.026,3.01981e-14,430.809,-1)"><stop offset="0" style="stop-color:#151212;stop-opacity:1"/><stop offset="1" style="stop-color:#de2726;stop-opacity:1"/></linearGradient>
        <linearGradient id="_Linear10" x1="0" y1="0" x2="1" y2="0" gradientUnits="userSpaceOnUse" gradientTransform="matrix(2.93099e-14,499.026,-499.026,3.01981e-14,430.809,-1)"><stop offset="0" style="stop-color:#151212;stop-opacity:1"/><stop offset="1" style="stop-color:#de2726;stop-opacity:1"/></linearGradient>
        <linearGradient id="_Linear11" x1="0" y1="0" x2="1" y2="0" gradientUnits="userSpaceOnUse" gradientTransform="matrix(2.93099e-14,499.026,-499.026,3.01981e-14,430.809,-1)"><stop offset="0" style="stop-color:#151212;stop-opacity:1"/><stop offset="1" style="stop-color:#de2726;stop-opacity:1"/></linearGradient>
        <linearGradient id="_Linear12" x1="0" y1="0" x2="1" y2="0" gradientUnits="userSpaceOnUse" gradientTransform="matrix(2.93099e-14,499.026,-499.026,3.01981e-14,430.809,-1)"><stop offset="0" style="stop-color:#151212;stop-opacity:1"/><stop offset="1" style="stop-color:#de2726;stop-opacity:1"/></linearGradient>
        <linearGradient id="_Linear13" x1="0" y1="0" x2="1" y2="0" gradientUnits="userSpaceOnUse" gradientTransform="matrix(2.93099e-14,499.026,-499.026,3.01981e-14,430.809,-1)"><stop offset="0" style="stop-color:#151212;stop-opacity:1"/><stop offset="1" style="stop-color:#de2726;stop-opacity:1"/></linearGradient>
        <linearGradient id="_Linear14" x1="0" y1="0" x2="1" y2="0" gradientUnits="userSpaceOnUse" gradientTransform="matrix(2.93099e-14,499.026,-499.026,3.01981e-14,430.809,-1)"><stop offset="0" style="stop-color:#151212;stop-opacity:1"/><stop offset="1" style="stop-color:#de2726;stop-opacity:1"/></linearGradient>
        <linearGradient id="_Linear15" x1="0" y1="0" x2="1" y2="0" gradientUnits="userSpaceOnUse" gradientTransform="matrix(2.93099e-14,499.026,-499.026,3.01981e-14,430.809,-1)"><stop offset="0" style="stop-color:#151212;stop-opacity:1"/><stop offset="1" style="stop-color:#de2726;stop-opacity:1"/></linearGradient>
        <linearGradient id="_Linear16" x1="0" y1="0" x2="1" y2="0" gradientUnits="userSpaceOnUse" gradientTransform="matrix(2.93099e-14,499.026,-499.026,3.01981e-14,430.809,-1)"><stop offset="0" style="stop-color:#151212;stop-opacity:1"/><stop offset="1" style="stop-color:#de2726;stop-opacity:1"/></linearGradient>
        <linearGradient id="_Linear17" x1="0" y1="0" x2="1" y2="0" gradientUnits="userSpaceOnUse" gradientTransform="matrix(133.359,480.877,-480.877,133.359,71.5467,42.0857)"><stop offset="0" style="stop-color:#151212;stop-opacity:1"/><stop offset="1" style="stop-color:#de2726;stop-opacity:1"/></linearGradient>
        <linearGradient id="_Linear18" x1="0" y1="0" x2="1" y2="0" gradientUnits="userSpaceOnUse" gradientTransform="matrix(3.28626e-14,499.026,-499.026,2.75335e-14,430.809,-2)"><stop offset="0" style="stop-color:#151212;stop-opacity:1"/><stop offset="1" style="stop-color:#de2726;stop-opacity:1"/></linearGradient>
        <linearGradient id="_Linear19" x1="0" y1="0" x2="1" y2="0" gradientUnits="userSpaceOnUse" gradientTransform="matrix(3.10862e-14,499.026,-499.026,3.01981e-14,412.809,-3)"><stop offset="0" style="stop-color:#151212;stop-opacity:1"/><stop offset="1" style="stop-color:#de2726;stop-opacity:1"/></linearGradient>
        <linearGradient id="_Linear20" x1="0" y1="0" x2="1" y2="0" gradientUnits="userSpaceOnUse" gradientTransform="matrix(3.10862e-14,499.026,-499.026,3.01981e-14,412.809,-3)"><stop offset="0" style="stop-color:#151212;stop-opacity:1"/><stop offset="1" style="stop-color:#de2726;stop-opacity:1"/></linearGradient>
        <linearGradient id="_Linear21" x1="0" y1="0" x2="1" y2="0" gradientUnits="userSpaceOnUse" gradientTransform="matrix(3.19744e-14,499.026,-499.026,3.01981e-14,412.809,-3)"><stop offset="0" style="stop-color:#151212;stop-opacity:1"/><stop offset="1" style="stop-color:#de2726;stop-opacity:1"/></linearGradient>
        <linearGradient id="_Linear22" x1="0" y1="0" x2="1" y2="0" gradientUnits="userSpaceOnUse" gradientTransform="matrix(3.19744e-14,499.026,-499.026,3.01981e-14,412.809,-3)"><stop offset="0" style="stop-color:#151212;stop-opacity:1"/><stop offset="1" style="stop-color:#de2726;stop-opacity:1"/></linearGradient>
        <linearGradient id="_Linear23" x1="0" y1="0" x2="1" y2="0" gradientUnits="userSpaceOnUse" gradientTransform="matrix(3.19744e-14,499.026,-499.026,3.01981e-14,412.809,-3)"><stop offset="0" style="stop-color:#151212;stop-opacity:1"/><stop offset="1" style="stop-color:#de2726;stop-opacity:1"/></linearGradient>
        <linearGradient id="_Linear24" x1="0" y1="0" x2="1" y2="0" gradientUnits="userSpaceOnUse" gradientTransform="matrix(3.10862e-14,499.026,-499.026,3.01981e-14,412.809,-3)"><stop offset="0" style="stop-color:#151212;stop-opacity:1"/><stop offset="1" style="stop-color:#de2726;stop-opacity:1"/></linearGradient>
        <linearGradient id="_Linear25" x1="0" y1="0" x2="1" y2="0" gradientUnits="userSpaceOnUse" gradientTransform="matrix(3.10862e-14,499.026,-499.026,3.01981e-14,412.809,-3)"><stop offset="0" style="stop-color:#151212;stop-opacity:1"/><stop offset="1" style="stop-color:#de2726;stop-opacity:1"/></linearGradient>
        <linearGradient id="_Linear26" x1="0" y1="0" x2="1" y2="0" gradientUnits="userSpaceOnUse" gradientTransform="matrix(3.19744e-14,499.026,-499.026,3.01981e-14,412.809,-3)"><stop offset="0" style="stop-color:#151212;stop-opacity:1"/><stop offset="1" style="stop-color:#de2726;stop-opacity:1"/></linearGradient>
        <linearGradient id="_Linear27" x1="0" y1="0" x2="1" y2="0" gradientUnits="userSpaceOnUse" gradientTransform="matrix(3.19744e-14,499.026,-499.026,3.01981e-14,412.809,-3)"><stop offset="0" style="stop-color:#151212;stop-opacity:1"/><stop offset="1" style="stop-color:#de2726;stop-opacity:1"/></linearGradient>
        <linearGradient id="_Linear28" x1="0" y1="0" x2="1" y2="0" gradientUnits="userSpaceOnUse" gradientTransform="matrix(3.10862e-14,499.026,-499.026,3.01981e-14,412.809,-3)"><stop offset="0" style="stop-color:#151212;stop-opacity:1"/><stop offset="1" style="stop-color:#de2726;stop-opacity:1"/></linearGradient>
        <linearGradient id="_Linear29" x1="0" y1="0" x2="1" y2="0" gradientUnits="userSpaceOnUse" gradientTransform="matrix(3.10862e-14,499.026,-499.026,3.01981e-14,412.809,-3)"><stop offset="0" style="stop-color:#151212;stop-opacity:1"/><stop offset="1" style="stop-color:#de2726;stop-opacity:1"/></linearGradient>
        <linearGradient id="_Linear30" x1="0" y1="0" x2="1" y2="0" gradientUnits="userSpaceOnUse" gradientTransform="matrix(3.19744e-14,499.026,-499.026,3.01981e-14,412.809,-3)"><stop offset="0" style="stop-color:#151212;stop-opacity:1"/><stop offset="1" style="stop-color:#de2726;stop-opacity:1"/></linearGradient>
        <linearGradient id="_Linear31" x1="0" y1="0" x2="1" y2="0" gradientUnits="userSpaceOnUse" gradientTransform="matrix(3.19744e-14,499.026,-499.026,3.01981e-14,412.809,-3)"><stop offset="0" style="stop-color:#151212;stop-opacity:1"/><stop offset="1" style="stop-color:#de2726;stop-opacity:1"/></linearGradient>
        <linearGradient id="_Linear32" x1="0" y1="0" x2="1" y2="0" gradientUnits="userSpaceOnUse" gradientTransform="matrix(3.10862e-14,499.026,-499.026,3.01981e-14,412.809,-3)"><stop offset="0" style="stop-color:#151212;stop-opacity:1"/><stop offset="1" style="stop-color:#de2726;stop-opacity:1"/></linearGradient>
        <linearGradient id="_Linear33" x1="0" y1="0" x2="1" y2="0" gradientUnits="userSpaceOnUse" gradientTransform="matrix(3.10862e-14,499.026,-499.026,3.01981e-14,412.809,-3)"><stop offset="0" style="stop-color:#151212;stop-opacity:1"/><stop offset="1" style="stop-color:#de2726;stop-opacity:1"/></linearGradient>
        <linearGradient id="_Linear34" x1="0" y1="0" x2="1" y2="0" gradientUnits="userSpaceOnUse" gradientTransform="matrix(3.19744e-14,499.026,-499.026,3.01981e-14,412.809,-3)"><stop offset="0" style="stop-color:#151212;stop-opacity:1"/><stop offset="1" style="stop-color:#de2726;stop-opacity:1"/></linearGradient>
        <linearGradient id="_Linear35" x1="0" y1="0" x2="1" y2="0" gradientUnits="userSpaceOnUse" gradientTransform="matrix(-133.359,480.877,-480.877,-133.359,768.681,39.5712)"><stop offset="0" style="stop-color:#151212;stop-opacity:1"/><stop offset="1" style="stop-color:#de2726;stop-opacity:1"/></linearGradient>
    </defs>
</svg>
