<?xml version="1.0" encoding="UTF-8" standalone="no"?>
<!DOCTYPE svg PUBLIC "-//W3C//DTD SVG 1.1//EN" "http://www.w3.org/Graphics/SVG/1.1/DTD/svg11.dtd">
<svg width="100%" height="100%" viewBox="0 0 176 184" version="1.1" xmlns="http://www.w3.org/2000/svg" xmlns:xlink="http://www.w3.org/1999/xlink" xml:space="preserve" xmlns:serif="http://www.serif.com/" style="fill-rule:evenodd;clip-rule:evenodd;stroke-linejoin:round;stroke-miterlimit:2;">
    <g id="Diver-down-flag" serif:id="Diver down flag">
    </g>
    <g id="g186">
    </g>
    <g id="Filigree">
    </g>
    <rect id="Artboard26" x="0" y="0" width="175.822" height="183" style="fill:none;"/>
    <path d="M171.763,76.872C173.141,100.869 143.662,132.576 123.172,137.619C121.797,137.958 122.571,140.048 122.571,140.048C122.571,140.048 141.6,137.303 144.65,142.558C147.7,147.814 144.11,156.378 138.784,156.683C137.742,156.743 135.855,156.599 135.855,156.599C137.78,155.687 139.312,154.543 140.168,152.999C138.065,153.373 136.161,153.35 134.349,153.14C134.349,153.14 140.475,149.848 139.347,147.978C138.922,147.273 138.124,146.828 136.86,146.617C135.707,146.425 136.436,148.818 136.436,148.818C134.947,148.208 133.55,147.394 132.451,145.908C131.534,145.148 129.653,145.128 128.493,145.729C128.343,147.945 124.537,150.316 121.419,150.085C121.419,150.085 125.383,145.724 124.376,145.533C121.251,144.512 117.956,144.36 114.346,145.817C114.346,145.817 113.972,150.286 114.269,152.702C114.656,155.864 115.94,160.776 117.391,164.411C118.818,167.985 120.588,171.543 122.975,174.515C124.021,175.457 135.934,174.833 138.877,175.799C140.256,176.251 142.687,178.13 142.687,178.13C141.367,177.759 139.904,177.343 138.76,177.96L140.137,180.268C138.08,180.095 137.312,179.778 135.725,180.246C136.754,180.868 138.087,181.735 138.172,182.615C136.489,182.582 135.692,182.248 134.554,183C125.115,180.35 129.611,181.587 123.023,181.486C121.371,178.733 114.727,177.779 112.942,176.329C112.113,177.61 111.334,177.589 109.65,177.804C109.003,177.887 107.013,177.532 106.154,177.879C104.709,178.461 103.578,180.096 103.578,180.096C103.578,180.096 103.615,177.123 104.105,176.855C110.204,173.523 111.25,170.143 112.573,166.45C112.586,165.458 112.026,164.858 110.74,164.755L106.753,163.38C104.313,162.311 102.635,160.442 101.529,157.972C103.694,159.062 105.95,159.855 108.382,160.077C108.724,159.309 108.489,153.028 107.486,151.511C107.076,150.974 106.389,150.714 105.378,150.778C104.597,149.422 104.075,147.549 104.095,144.591C103.551,144.15 102.379,143.874 100.567,143.766C98.322,142.132 96.901,140.03 96.259,137.488C95.18,137.65 93.999,140.092 93.32,140.582C93.41,139.477 92.595,137.633 91.768,137.946C91.156,135.508 88.863,135.816 85.763,137.442C86.026,136.234 86.273,134.199 85.451,134.242C84.136,133.327 83.043,134.445 81.645,135.272C81.556,132.345 80.992,130.172 78.479,131.21L77.523,123.837C76.407,123.8 75.638,124.259 75.106,125.057L74.402,119.707C74.519,118.21 73.816,117.122 72.431,116.376C71.364,116.725 70.558,117.64 69.991,119.074C68.85,117.436 69.111,116.221 70.473,113.916C71.364,113.041 71.215,111.262 71.188,109.97L66.988,112.981C67.917,109.993 68.52,106.598 67.363,103.776L66.331,101.015C65.168,102.877 65.478,105.49 65.066,107.351L63.398,104.574C63.761,102.811 63.444,100.648 62.389,98.051C61.053,99.682 60.302,101.459 60.301,103.424C59.359,102.025 58.634,101.116 58.025,100.468C58.581,103.663 57.042,106.637 56.179,109.165C55.171,103.542 53.981,98.691 50.47,95.071C50.161,100.711 50.354,105.825 51.714,109.712C50.115,109.696 48.238,108.368 46.055,105.6C47.207,110.998 48.819,115.478 50.806,119.208C46.938,116.544 43.923,112.784 42.391,107.117C41.34,107.993 40.331,109.851 39.868,111.147C39.057,107.488 38.385,105.085 36.406,103.429C35.854,109.404 36.327,115.273 38.195,120.997C34.556,118.979 31.583,115.2 29.362,109.427L23.87,93.304C21.693,94.271 25.61,124.006 31.894,129.709C24.825,126.537 18.632,116.026 16.016,108.459C13.767,101.954 12.75,94.475 12.049,88.195C11.483,83.124 11.272,76.046 12.357,70.583C11.089,69.766 9.599,69.717 7.581,71.487C3.46,76.249 6.128,91.314 7.344,98.329C3.706,94.337 0.989,90.003 0.107,83.923C0.028,79.577 0.074,74.994 1.079,70.314C2.789,64.19 4.902,58.227 7.613,52.503C9.724,48.505 12.13,44.507 15.31,40.51C16.233,38.455 15.515,38.217 13.968,38.898C8.909,42.863 4.755,47.325 1.031,52.023C4.402,42.407 10.857,33.374 17.279,28.158C23.358,23.222 30.078,20.387 39.566,20.729C47.663,21.021 67.516,25.784 67.708,26.312C64.459,22.412 58.951,19.665 52.991,17.328C63.62,17.606 76.009,22.166 82.115,27.737C87.35,32.512 90.634,39.996 92.015,47.938L94.61,71.478C96.158,77.999 112.943,77.334 114.48,71.925C114.48,71.925 117.519,55.87 120.397,50.319C122.493,46.276 125.638,42.255 127.995,38.809C130.145,35.666 134.976,29.769 134.976,29.769C137.36,27.002 139.971,24.231 139.568,21.518L135.105,19.938C133.396,19.089 132.29,16.747 131.597,14.029L129.069,12.584C131.072,11.699 133.245,11.217 135.782,11.6C133.909,9.612 132.581,7.162 131.575,4.44C133.113,5.261 134.943,5.829 137.483,5.782C136.759,4.095 136.442,2.228 136.319,0.275C138.516,2.715 141.758,5.46 145.09,7.099L143.837,1.038C145.996,3.283 148.138,5.65 151.338,7.013L151.982,3.903C153.202,5.566 154.594,7.005 156.335,7.988C157.207,6.477 157.372,4.554 157.282,2.483C158.62,5.04 159.689,7.613 160.306,10.211L161.604,6.774L164.823,14.686C165.537,17.383 165.751,18.385 165.213,20.691C168.584,20.885 176.61,26.953 175.649,29.637C173.559,28.962 165.779,28.048 164.118,29.969C164.118,29.969 166.01,31.58 166.477,33.442C166.914,35.184 167.461,37.186 166.961,38.807C166.461,40.429 165.48,42.26 163.475,43.169C161.897,44.083 160.217,44.668 158.439,44.941C157.868,45.955 158.102,47.34 158.731,48.635C160.411,54.304 167.8,61.88 168.894,64.283C169.697,66.047 171.157,66.308 171.763,76.872Z" style="fill:#de2726;"/>
</svg>
