<?xml version="1.0" encoding="UTF-8" standalone="no"?>
<!DOCTYPE svg PUBLIC "-//W3C//DTD SVG 1.1//EN" "http://www.w3.org/Graphics/SVG/1.1/DTD/svg11.dtd">
<svg width="100%" height="100%" viewBox="0 0 195 267" version="1.1" xmlns="http://www.w3.org/2000/svg" xmlns:xlink="http://www.w3.org/1999/xlink" xml:space="preserve" xmlns:serif="http://www.serif.com/" style="fill-rule:evenodd;clip-rule:evenodd;stroke-linecap:round;stroke-linejoin:round;stroke-miterlimit:1.5;">
    <g transform="matrix(1,0,0,1,-3704.32,-4862.28)">
        <g id="Diver-down-flag" serif:id="Diver down flag">
        </g>
        <g id="Click-hand" serif:id="Click hand" transform="matrix(1.12875,0,0,1.09228,3337.76,-460.966)">
            <rect x="324.752" y="4873.52" width="172.192" height="244.162" style="fill:none;"/>
            <g id="v" transform="matrix(0.885935,0,0,0.915517,-139.575,412.239)">
                <path d="M564.436,5028.49C564.436,5028.49 564.413,5005.72 564.413,4900.13C564.413,4882.22 599.548,4881.2 599.548,4900.25L599.548,5007.05L599.548,4954.1C599.548,4938.99 635.12,4937.89 635.12,4957.33C635.12,4961.83 635.137,5006.74 635.137,5006.74L635.122,4965.85C635.122,4953.86 670.695,4944.46 670.695,4974.24C670.695,4977.6 670.538,5006.71 670.538,5006.71C670.538,5006.71 670.683,4990.08 670.683,4982.69C670.683,4969.79 705.593,4962.28 705.593,4988.44C705.593,5017.95 705.652,5057.96 705.652,5057.96C705.652,5072.19 697.154,5086.58 688.41,5097.81L688.387,5118.11C688.387,5121.48 684.518,5125.94 679.742,5125.73L590.246,5126.24C584.561,5125.95 581.629,5123.82 580.789,5119.01C580.789,5113.75 580.931,5108.19 580.931,5102.77C580.931,5097.93 579.886,5095.96 578.247,5093.81C563.068,5079.6 547.136,5064.48 543.066,5059.71C539.364,5055.36 537.829,5044.01 537.818,5039.05C537.793,5028.25 537.709,4999.87 537.709,4999.87C537.709,4971.37 564.421,4975.2 564.421,4990.38C564.421,4990.44 564.436,5028.49 564.436,5028.49Z" style="fill:rgb(21,18,18);stroke:rgb(235,235,235);stroke-width:25px;"/>
            </g>
            <g id="v1" serif:id="v" transform="matrix(0.885935,0,0,0.915517,-139.575,412.239)">
                <path d="M564.436,5028.49C564.436,5028.49 564.413,5005.72 564.413,4900.13C564.413,4882.22 599.548,4881.2 599.548,4900.25L599.548,5007.05L599.548,4954.1C599.548,4938.99 635.12,4937.89 635.12,4957.33C635.12,4961.83 635.137,5006.74 635.137,5006.74L635.122,4965.85C635.122,4953.86 670.695,4944.46 670.695,4974.24C670.695,4977.6 670.538,5006.71 670.538,5006.71C670.538,5006.71 670.683,4990.08 670.683,4982.69C670.683,4969.79 705.593,4962.28 705.593,4988.44C705.593,5017.95 705.652,5057.96 705.652,5057.96C705.652,5072.19 697.154,5086.58 688.41,5097.81L688.387,5118.11C688.387,5121.48 684.518,5125.94 679.742,5125.73L590.246,5126.24C584.561,5125.95 581.629,5123.82 580.789,5119.01C580.789,5113.75 580.931,5108.19 580.931,5102.77C580.931,5097.93 579.886,5095.96 578.247,5093.81C563.068,5079.6 547.136,5064.48 543.066,5059.71C539.364,5055.36 537.829,5044.01 537.818,5039.05C537.793,5028.25 537.709,4999.87 537.709,4999.87C537.709,4971.37 564.421,4975.2 564.421,4990.38C564.421,4990.44 564.436,5028.49 564.436,5028.49Z" style="fill:rgb(21,18,18);stroke:rgb(222,39,38);stroke-width:8.33px;"/>
            </g>
        </g>
        <g id="g186">
        </g>
        <g id="Filigree">
        </g>
    </g>
</svg>
