<?xml version="1.0" encoding="UTF-8" standalone="no"?>
<!DOCTYPE svg PUBLIC "-//W3C//DTD SVG 1.1//EN" "http://www.w3.org/Graphics/SVG/1.1/DTD/svg11.dtd">
<svg width="100%" height="100%" viewBox="0 0 163 163" version="1.1" xmlns="http://www.w3.org/2000/svg" xmlns:xlink="http://www.w3.org/1999/xlink" xml:space="preserve" xmlns:serif="http://www.serif.com/" style="fill-rule:evenodd;clip-rule:evenodd;stroke-linejoin:round;stroke-miterlimit:2;">
    <g id="Diver-down-flag" serif:id="Diver down flag">
    </g>
    <g id="g186">
    </g>
    <rect id="Artboard25" x="0" y="0" width="162.619" height="162.619" style="fill:none;"/>
    <clipPath id="_clip1">
        <rect x="0" y="0" width="162.619" height="162.619"/>
    </clipPath>
    <g clip-path="url(#_clip1)">
        <g>
            <path d="M82.079,162.886L80.748,162.852L83.411,162.852L82.079,162.886ZM39.42,150.781L39.344,150.733C32.854,146.715 26.97,141.809 21.879,136.171C18.518,132.494 15.505,128.495 12.876,124.235L12.863,124.242L10.522,120.186L10.54,120.175C4.65,109.343 1.177,97.016 0.829,83.918L5.265,84.119C5.655,96.261 8.867,107.695 14.271,117.79L11.656,119.462L14.271,117.79C15.072,119.287 15.922,120.755 16.825,122.187L16.89,122.292C19.662,126.723 22.873,130.851 26.484,134.595C30.919,139.289 35.96,143.401 41.468,146.831L45.047,139.93C41.551,137.712 38.271,135.19 35.257,132.385C30.834,128.336 26.958,123.703 23.725,118.609L16.825,122.187C15.927,120.753 15.075,119.287 14.271,117.79L20.831,113.596C16.118,104.58 13.453,94.635 13.027,84.47L0.803,83.917L0.803,82.907L0.77,81.576L0.803,80.245L0.803,79.235L5.265,79.033L5.263,79.138L5.265,79.033L13.027,78.682C13.453,68.517 16.118,58.572 20.831,49.556L10.543,42.979C10.543,42.979 14.271,45.362 14.271,45.362C8.856,55.455 5.638,66.89 5.265,79.033L0.829,79.234C1.193,66.138 4.662,53.813 10.543,42.979L10.522,42.966L12.863,38.91L12.876,38.917C19.534,28.135 28.64,19.025 39.42,12.372L41.468,16.321C31.488,22.541 23.039,30.986 16.825,40.965L14.583,39.802L23.725,44.543C29.176,35.953 36.457,28.673 45.047,23.222L41.468,16.321C42.903,15.423 44.369,14.572 45.866,13.767L50.06,20.328C59.075,15.614 69.021,12.949 79.185,12.523L79.536,4.762L82.079,4.697L84.623,4.762L84.974,12.523C95.138,12.949 105.084,15.614 114.099,20.328L120.69,10.018L124.745,12.36L124.224,13.364L124.739,12.372C135.52,19.03 144.631,28.137 151.283,38.917L151.296,38.91L151.447,39.172L153.619,42.977C159.509,53.809 162.982,66.136 163.33,79.234L163.355,79.235L163.355,80.245L163.389,81.576L163.355,82.907L163.355,83.917L163.33,83.918C162.966,97.014 159.497,109.339 153.616,120.173L153.637,120.186L151.296,124.242L147.334,122.187L151.283,124.235C148.653,128.495 145.64,132.494 142.279,136.171C137.168,141.832 131.259,146.756 124.739,150.78L124.745,150.792L120.69,153.134L118.293,149.385L120.678,153.115C110.454,158.675 98.898,162.081 86.616,162.695L84.422,162.826L84.427,162.722L84.421,162.852L79.738,162.852L79.185,150.629C69.021,150.203 59.075,147.538 50.06,142.824L44.889,150.912L45.866,149.385C55.958,154.8 67.393,158.018 79.536,158.39L79.737,162.826L77.591,162.695C65.292,162.069 53.722,158.671 43.483,153.112L44.869,150.943L43.469,153.134L39.414,150.792L39.42,150.781ZM114.099,142.824L118.293,149.385C108.199,154.788 96.765,158.001 84.623,158.39L84.974,150.629C95.138,150.203 105.084,147.538 114.099,142.824ZM140.434,118.609L147.334,122.187C144.55,126.659 141.316,130.822 137.675,134.595C133.258,139.269 128.238,143.366 122.755,146.791L122.691,146.831L119.112,139.93C122.608,137.712 125.887,135.19 128.902,132.385C133.325,128.336 137.201,123.703 140.434,118.609ZM151.132,84.47L163.33,83.918L158.894,84.119C158.521,96.262 155.303,107.697 149.888,117.79L143.328,113.596C148.041,104.58 150.706,94.635 151.132,84.47ZM85.775,79.797L85.817,79.755L54.636,48.574L50.598,52.612L81.34,83.354L82.809,84.793L139.025,84.594L139.025,79.797L85.775,79.797ZM122.691,16.321C132.67,22.535 141.114,30.985 147.334,40.965C148.237,42.397 149.087,43.865 149.888,45.362C155.292,55.457 158.504,66.891 158.894,79.033L163.33,79.234L151.132,78.682C150.706,68.517 148.041,58.572 143.328,49.556L149.888,45.362C149.083,43.865 148.232,42.399 147.334,40.965L140.434,44.543C134.982,35.953 127.702,28.673 119.112,23.222L122.691,16.321ZM45.796,13.805C44.322,14.595 42.878,15.432 41.468,16.321L39.414,12.36L43.469,10.018L43.481,10.037C54.312,4.146 66.639,0.673 79.737,0.326L79.536,4.762C67.394,5.151 55.96,8.364 45.866,13.767L45.796,13.805ZM84.499,0.328C97.567,0.704 109.864,4.17 120.676,10.04L118.293,13.767C108.201,8.352 96.766,5.134 84.623,4.762L82.079,4.697L79.536,4.762L79.738,0.3L84.421,0.3L84.422,0.326L84.499,0.328ZM83.411,0.3L80.748,0.3L82.079,0.266L83.411,0.3Z" style="fill:#1a1a1a;"/>
        </g>
    </g>
    <g id="Filigree">
    </g>
</svg>
