<?xml version="1.0" encoding="UTF-8" standalone="no"?>
<!DOCTYPE svg PUBLIC "-//W3C//DTD SVG 1.1//EN" "http://www.w3.org/Graphics/SVG/1.1/DTD/svg11.dtd">
<svg width="100%" height="100%" viewBox="0 0 520 510" version="1.1" xmlns="http://www.w3.org/2000/svg" xmlns:xlink="http://www.w3.org/1999/xlink" xml:space="preserve" xmlns:serif="http://www.serif.com/" style="fill-rule:evenodd;clip-rule:evenodd;stroke-linecap:round;stroke-linejoin:round;stroke-miterlimit:1.5;">
    <g>
        <path d="M18.825,141.956C18.825,141.956 21.163,74.002 21.163,54.97C21.163,35.938 156.411,6.277 262.257,8.448C376.117,10.783 419.862,31.297 462.838,82.238C491.905,116.692 511.706,185.832 510.871,235.083C510.037,284.333 506.165,372.906 457.749,418.817C409.334,464.729 395.058,474.6 310.748,489.625C248.182,500.775 79.666,501.496 79.666,501.496L8.335,451.135L8.667,342.999L60.294,345.062L60.901,140.581L18.825,141.956Z" style="fill:#de2726;stroke:#fff;stroke-width:16.67px;"/>
        <path d="M25.126,133.928C25.126,133.928 27.072,72.764 27.072,55.727C27.072,38.689 193.695,15.552 232.208,16.271C328.957,18.076 376.79,43.041 399.77,75.323C422.75,107.604 441.291,168.059 440.582,212.148C439.873,256.236 439.496,328.139 398.358,369.238C357.221,410.337 339.158,423.623 267.522,437.074C214.745,446.983 93.103,447.395 93.103,447.395L62.789,448.442L16.699,446.756L16.699,351.515L65.42,351.906L65.428,152.312L65.468,134.083L25.126,133.928Z" style="fill:#151212;"/>
    </g>
    <path d="M212.434,125.996L212.434,337.188C212.605,356.792 265.63,347.208 265.63,316.225L265.63,146.914C265.909,104.748 212.434,109.243 212.434,125.996Z" style="fill:#de2726;"/>
</svg>
