<?xml version="1.0" encoding="UTF-8" standalone="no"?>
<!DOCTYPE svg PUBLIC "-//W3C//DTD SVG 1.1//EN" "http://www.w3.org/Graphics/SVG/1.1/DTD/svg11.dtd">
<svg width="100%" height="100%" viewBox="0 0 1258 1626" version="1.1" xmlns="http://www.w3.org/2000/svg" xmlns:xlink="http://www.w3.org/1999/xlink" xml:space="preserve" xmlns:serif="http://www.serif.com/" style="fill-rule:evenodd;clip-rule:evenodd;stroke-linejoin:round;stroke-miterlimit:2;">
    <g id="Diver-down-flag" serif:id="Diver down flag">
    </g>
    <g id="g186">
    </g>
    <g id="Filigree">
    </g>
    <rect id="Artboard20" x="0" y="0" width="1257.11" height="1625.32" style="fill:none;"/>
    <clipPath id="_clip1">
        <rect x="0" y="0" width="1257.11" height="1625.32"/>
    </clipPath>
    <g clip-path="url(#_clip1)">
        <g>
            <path d="M1257.2,689.954C1123.93,562.733 1055.06,472.649 875.895,464.709C743.665,458.849 684.989,224.485 447.144,255.499L447.144,691.108C447.144,691.108 627.677,561.296 816.402,688.629C912.178,753.249 1004.49,687.475 1072.58,665.55C1190.88,627.452 1227.2,700.339 1257.2,689.954Z" style="fill:#de2726;"/>
            <path d="M447.144,73.261C484.839,36.72 627.677,-64.126 816.402,63.207C912.178,127.827 1004.49,62.053 1072.58,40.129C1190.88,2.03 1227.2,82.824 1257.2,72.439L1257.2,510.806C1123.93,383.585 1055.06,292.347 875.895,284.407C743.665,278.547 684.989,42.247 447.144,73.261Z" style="fill:#de2726;"/>
        </g>
        <path d="M837.156,1399.51C812.796,1526.58 634.981,1625.32 419.536,1625.32C206.737,1625.32 30.649,1528.99 2.887,1404.19C171.535,1531.14 653.276,1522.9 837.156,1399.51ZM65.107,1175.49C139.851,1047.58 270.716,921.17 419.536,921.17C564.574,921.17 692.558,1041.23 768.161,1165.75L767.723,1165.33C579.429,1281.48 254.056,1282.13 65.107,1175.49Z" style="fill:#de2726;"/>
        <path d="M447.049,36.183C447.049,28.591 440.885,22.427 433.292,22.427L405.78,22.427C398.188,22.427 392.024,28.591 392.024,36.183L392.024,952.413C392.024,960.005 398.188,966.169 405.78,966.169L433.292,966.169C440.885,966.169 447.049,960.005 447.049,952.413L447.049,36.183Z" style="fill:#de2726;"/>
    </g>
</svg>
