<?xml version="1.0" encoding="UTF-8" standalone="no"?>
<!DOCTYPE svg PUBLIC "-//W3C//DTD SVG 1.1//EN" "http://www.w3.org/Graphics/SVG/1.1/DTD/svg11.dtd">
<svg width="100%" height="100%" viewBox="0 0 1233 528" version="1.1" xmlns="http://www.w3.org/2000/svg" xmlns:xlink="http://www.w3.org/1999/xlink" xml:space="preserve" xmlns:serif="http://www.serif.com/" style="fill-rule:evenodd;clip-rule:evenodd;">
    <g id="g186">
    </g>
    <rect id="Artboard13" x="0" y="0" width="1232.51" height="527.192" style="fill:none;"/>
    <clipPath id="_clip1">
        <rect x="0" y="0" width="1232.51" height="527.192"/>
    </clipPath>
    <g clip-path="url(#_clip1)">
        <g id="g521">
        </g>
        <g id="g741">
            <g>
                <g>
                    <path id="path76" d="M1168.85,291.052C1171.57,288.99 1166.1,285.753 1164.67,285.532C1154.96,284.039 1150.56,296.323 1151.88,303.905C1155.14,322.671 1177.61,329.041 1193.64,323.78C1200.58,321.501 1206.38,317.764 1211.06,313.037C1226.25,297.663 1229.47,271.811 1221.01,251.547C1203.45,209.545 1152.81,202.452 1112.14,216.182C1096.42,221.49 1075.09,233.87 1041.78,272.102" style="fill:none;stroke:#000;stroke-width:12.5px;"/>
                    <path id="path761" serif:id="path76" d="M771.11,97.937C775.31,112.258 797.015,94.949 800.147,89.421C821.311,52.073 777.949,15.062 744.935,8.684C663.219,-7.101 602.345,74.779 598.966,148.422C592.743,284.064 726.162,376.41 851.566,372.279" style="fill:none;stroke:#000;stroke-width:12.5px;"/>
                    <path id="path762" serif:id="path76" d="M930.435,176.938C926.318,187.056 911.792,172.846 909.919,168.59C897.268,139.828 931.581,116.081 956.094,113.877C1016.77,108.423 1055.04,172.549 1052.06,226.426C1046.57,325.663 942.581,383.048 851.566,370.769" style="fill:none;stroke:#000;stroke-width:12.5px;"/>
                </g>
                <g>
                    <path id="path763" serif:id="path76" d="M453.575,130.555C450.037,142.618 431.754,128.037 429.116,123.381C411.288,91.921 447.814,60.745 475.624,55.372C544.457,42.075 595.734,111.048 598.58,173.08C603.822,287.338 491.437,365.126 385.803,361.646" style="fill:none;stroke:#000;stroke-width:12.5px;"/>
                    <path id="path764" serif:id="path76" d="M332.397,201.802C335.185,210.133 347.569,199.47 349.289,196.15C360.911,173.711 334.583,152.901 315.022,149.881C266.605,142.406 232.611,191.92 232.255,235.313C231.601,315.24 312.128,366.605 385.803,361.396" style="fill:none;stroke:#000;stroke-width:12.5px;"/>
                </g>
                <g>
                    <path id="path765" serif:id="path76" d="M142.667,195.358C140.484,202.802 129.203,193.805 127.575,190.932C116.574,171.519 139.113,152.282 156.272,148.967C198.746,140.762 230.386,183.321 232.143,221.599C235.377,292.101 166.03,340.101 100.849,337.953" style="fill:none;stroke:#000;stroke-width:12.5px;"/>
                    <path id="path766" serif:id="path76" d="M67.894,239.321C69.615,244.462 77.256,237.883 78.318,235.833C85.489,221.988 69.244,209.147 57.173,207.283C27.297,202.671 6.322,233.223 6.102,259.999C5.698,309.318 55.388,341.013 100.849,337.798" style="fill:none;stroke:#000;stroke-width:12.5px;"/>
                </g>
                <path id="path76-2" d="M85.661,444.257C85.488,445.514 87.774,444.929 88.209,444.609C91.152,442.451 89.08,438.07 86.742,436.424C80.956,432.352 73.382,436.58 70.553,442.172C65.343,452.473 72.47,464.284 82.338,468.335C97.982,474.756 114.896,464.059 120.223,449.028C127.934,427.269 113.068,404.485 92.071,397.819C63.475,388.742 34.119,408.326 26.05,436.029C15.531,472.142 40.344,508.725 75.446,518.265C119.722,530.298 164.149,499.777 175.227,456.62C188.845,403.564 152.16,350.703 100.325,338.022" style="fill:none;stroke:#000;stroke-width:12.5px;"/>
            </g>
        </g>
    </g>
    <g id="g966">
    </g>
</svg>
