<?xml version="1.0" encoding="UTF-8" standalone="no"?>
<!DOCTYPE svg PUBLIC "-//W3C//DTD SVG 1.1//EN" "http://www.w3.org/Graphics/SVG/1.1/DTD/svg11.dtd">
<svg width="100%" height="100%" viewBox="0 0 1375 1028" version="1.1" xmlns="http://www.w3.org/2000/svg" xmlns:xlink="http://www.w3.org/1999/xlink" xml:space="preserve" xmlns:serif="http://www.serif.com/" style="fill-rule:evenodd;clip-rule:evenodd;stroke-linejoin:round;stroke-miterlimit:2;">
    <g id="g186">
    </g>
    <rect id="Artboard15" x="0" y="0" width="1374.19" height="1027.67" style="fill:none;"/>
    <path d="M417.238,220.056C415.445,215.804 415.81,212.131 416.745,209.05C417.765,205.689 419.723,202.675 422.878,200.428C424.218,199.474 433.232,188.995 453.409,191.749C461.239,192.818 468.965,196.976 474.092,202.704C496.06,227.247 483.331,264.747 459.125,283.199C416.456,315.723 356.132,295.48 327.465,253.791C283.655,190.078 313.08,103.742 375.234,63.975C462.642,8.049 578.007,48.097 629.766,133.427C696.716,243.799 649.517,385.977 544.905,453.219C541.872,455.168 416.118,534.053 412.99,535.873L431.856,568.282C434.232,566.899 559.256,488.486 561.583,487.038C685.193,410.148 740.121,243.052 661.829,113.979C599.549,11.304 460.199,-34.907 355.023,32.387C275.767,83.097 240.7,193.794 296.566,275.039C336.759,333.49 422.033,358.624 481.858,313.022C522.31,282.188 538.745,218.709 502.034,177.694C479.228,152.214 433.163,143.359 408.419,172.992C401.188,181.652 396.402,196.454 398.434,208.753C400.271,219.875 406.546,229.332 418.685,234.055C420.747,234.857 425.409,235.917 430.431,235.62C435.756,235.306 441.179,233.433 444.632,230.974C448.695,228.08 451.316,224.269 452.629,219.941C453.858,215.893 454.148,211.077 451.793,205.489C449.302,227.155 421.082,229.174 417.238,220.056Z"/>
    <path d="M953.122,220.056C954.915,215.804 954.549,212.131 953.614,209.05C952.595,205.689 950.636,202.675 947.482,200.428C946.142,199.474 937.128,188.995 916.951,191.749C909.12,192.818 901.395,196.976 896.268,202.704C874.3,227.247 887.029,264.747 911.235,283.199C953.904,315.723 1014.23,295.48 1042.89,253.791C1086.7,190.078 1057.28,103.742 995.126,63.975C907.718,8.049 792.352,48.097 740.594,133.427C673.537,243.976 720.995,386.433 825.958,453.541C828.829,455.376 956.825,536.334 959.78,538.054L940.914,570.463C938.793,569.228 811.608,488.789 809.526,487.503C685.389,410.822 630.08,243.312 708.531,113.979C770.811,11.304 910.16,-34.907 1015.34,32.387C1094.59,83.097 1129.66,193.794 1073.79,275.039C1033.6,333.49 948.327,358.624 888.502,313.022C848.05,282.188 831.615,218.709 868.326,177.694C891.132,152.214 937.197,143.359 961.941,172.992C969.172,181.652 973.957,196.454 971.926,208.753C970.089,219.875 963.814,229.332 951.675,234.055C949.613,234.857 944.951,235.917 939.928,235.62C934.603,235.306 929.181,233.433 925.728,230.974C921.665,228.08 919.044,224.269 917.731,219.941C916.502,215.893 916.211,211.077 918.567,205.489C921.058,227.155 949.278,229.174 953.122,220.056Z"/>
    <path d="M550.22,807.101C552.013,811.354 551.647,815.027 550.712,818.107C549.692,821.468 547.734,824.483 544.579,826.729C543.24,827.683 534.226,838.162 514.048,835.408C506.218,834.34 498.492,830.182 493.366,824.454C471.398,799.911 484.127,762.41 508.333,743.959C551.002,711.435 611.325,731.677 639.992,773.366C683.803,837.079 654.378,923.416 592.224,963.183C504.816,1019.11 389.45,979.06 337.691,893.731C268.801,780.158 320.773,632.91 431.794,568.282L412.929,535.873C284.38,610.704 225.862,781.676 305.629,913.179C367.909,1015.85 507.258,1062.07 612.434,994.771C691.691,944.061 726.758,833.363 670.892,752.119C630.699,693.667 545.425,668.533 485.6,714.135C445.148,744.97 428.712,808.449 465.423,849.464C488.229,874.944 534.294,883.799 559.039,854.166C566.27,845.506 571.055,830.704 569.024,818.405C567.187,807.283 560.911,797.825 548.773,793.103C546.711,792.3 542.049,791.241 537.026,791.537C531.701,791.851 526.278,793.725 522.826,796.184C518.763,799.077 516.142,802.889 514.828,807.217C513.6,811.265 513.309,816.081 515.665,821.668C518.156,800.003 546.376,797.983 550.22,807.101Z"/>
    <path d="M820.14,807.101C818.347,811.354 818.713,815.027 819.648,818.107C820.668,821.468 822.626,824.483 825.781,826.729C827.12,827.683 836.134,838.162 856.312,835.408C864.142,834.34 871.867,830.182 876.994,824.454C898.962,799.911 886.233,762.41 862.027,743.959C819.358,711.435 759.034,731.677 730.368,773.366C686.557,837.079 715.982,923.416 778.136,963.183C865.544,1019.11 980.91,979.06 1032.67,893.731C1101.56,780.158 1051.87,635.088 940.852,570.46L959.718,538.051C1088.27,612.882 1144.5,781.676 1064.73,913.179C1002.45,1015.85 863.102,1062.07 757.925,994.771C678.669,944.061 643.602,833.363 699.468,752.119C739.661,693.667 824.935,668.533 884.76,714.135C925.212,744.97 941.647,808.449 904.936,849.464C882.13,874.944 836.065,883.799 811.321,854.166C804.09,845.506 799.305,830.704 801.336,818.405C803.173,807.283 809.448,797.825 821.587,793.103C823.649,792.3 828.311,791.241 833.334,791.537C838.659,791.851 844.081,793.725 847.534,796.184C851.597,799.077 854.218,802.889 855.531,807.217C856.76,811.265 857.051,816.081 854.695,821.668C852.204,800.003 823.984,797.983 820.14,807.101Z"/>
    <path d="M232.193,342.642C228.549,339.81 224.907,339.212 221.69,339.318C218.179,339.433 214.761,340.545 211.774,343.01C210.506,344.057 198.051,350.052 195.489,370.255C194.494,378.095 196.511,386.633 200.717,393.068C218.738,420.639 258.255,418.05 282.343,399.444C324.803,366.647 320.863,303.14 288.014,264.66C237.811,205.852 146.8,211.929 92.301,261.672C15.658,331.628 24.484,453.428 93.509,525.508C185.382,621.445 299.382,641.254 390.542,550.743L416.963,577.354C311.411,682.155 172.802,662.528 66.425,551.444C-16.632,464.712 -25.202,318.151 67.021,233.975C136.516,170.544 252.518,165.323 316.534,240.312C362.592,294.264 364.798,383.138 305.267,429.122C265.013,460.215 199.443,459.661 169.327,413.585C150.618,384.961 153.987,338.174 189.015,321.943C199.251,317.199 214.787,316.408 226.142,321.554C236.409,326.207 243.921,334.716 245.34,347.663C245.581,349.863 245.398,354.64 243.812,359.415C242.131,364.477 238.917,369.23 235.648,371.929C231.802,375.104 227.442,376.649 222.921,376.798C218.694,376.937 213.967,375.971 209.179,372.25C230.751,375.451 240.006,348.715 232.193,342.642Z"/>
    <path d="M1138.85,342.642C1142.49,339.81 1146.13,339.212 1149.35,339.318C1152.86,339.433 1156.28,340.545 1159.27,343.01C1160.53,344.057 1172.99,350.052 1175.55,370.255C1176.55,378.095 1174.53,386.633 1170.32,393.068C1152.3,420.639 1112.78,418.05 1088.7,399.444C1046.24,366.647 1050.18,303.14 1083.03,264.66C1133.23,205.852 1224.24,211.929 1278.74,261.672C1355.38,331.628 1346.56,453.428 1277.53,525.508C1185.66,621.445 1059.76,634.978 968.598,544.467L942.177,571.078C1047.73,675.879 1198.24,662.528 1304.61,551.444C1387.67,464.712 1396.24,318.151 1304.02,233.975C1234.52,170.544 1118.52,165.323 1054.51,240.312C1008.45,294.264 1006.24,383.138 1065.77,429.122C1106.03,460.215 1171.6,459.661 1201.71,413.585C1220.42,384.961 1217.05,338.174 1182.03,321.943C1171.79,317.199 1156.25,316.408 1144.9,321.554C1134.63,326.207 1127.12,334.716 1125.7,347.663C1125.46,349.863 1125.64,354.64 1127.23,359.415C1128.91,364.477 1132.12,369.23 1135.39,371.929C1139.24,375.104 1143.6,376.649 1148.12,376.798C1152.35,376.937 1157.07,375.971 1161.86,372.25C1140.29,375.451 1131.03,348.715 1138.85,342.642Z"/>
    <g id="g966">
    </g>
</svg>
