<?xml version="1.0" encoding="UTF-8" standalone="no"?>
<!DOCTYPE svg PUBLIC "-//W3C//DTD SVG 1.1//EN" "http://www.w3.org/Graphics/SVG/1.1/DTD/svg11.dtd">
<svg width="100%" height="100%" viewBox="0 0 3060 259" version="1.1" xmlns="http://www.w3.org/2000/svg" xmlns:xlink="http://www.w3.org/1999/xlink" xml:space="preserve" xmlns:serif="http://www.serif.com/" style="fill-rule:evenodd;clip-rule:evenodd;stroke-linejoin:round;stroke-miterlimit:2;">
    <g id="g186">
    </g>
    <rect id="Artboard16" x="0" y="0" width="3059.72" height="258.42" style="fill:none;"/>
    <clipPath id="_clip1">
        <rect x="0" y="0" width="3059.72" height="258.42"/>
    </clipPath>
    <g clip-path="url(#_clip1)">
        <g>
            <path d="M1597.09,199.434C1597.54,200.5 1597.45,201.42 1597.21,202.192C1596.96,203.034 1596.47,203.789 1595.68,204.352C1595.34,204.591 1593.08,207.217 1588.03,206.527C1586.06,206.26 1584.13,205.218 1582.84,203.782C1577.34,197.632 1580.53,188.235 1586.59,183.611C1597.29,175.461 1612.4,180.533 1619.59,190.98C1630.57,206.946 1623.19,228.581 1607.62,238.546C1585.71,252.56 1556.8,242.525 1543.83,221.142C1527.06,193.484 1538.88,157.856 1565.1,141.006C1565.86,140.518 1597.37,120.75 1598.15,120.294L1593.43,112.173C1592.83,112.519 1561.5,132.169 1560.92,132.531C1529.94,151.799 1516.18,193.672 1535.8,226.016C1551.4,251.745 1586.33,263.325 1612.68,246.462C1632.54,233.754 1641.33,206.015 1627.33,185.656C1617.26,171.009 1595.89,164.71 1580.9,176.138C1570.76,183.865 1566.64,199.771 1575.84,210.049C1581.56,216.434 1593.1,218.653 1599.3,211.228C1601.11,209.058 1602.31,205.348 1601.8,202.266C1601.34,199.479 1599.77,197.109 1596.73,195.926C1596.21,195.725 1595.04,195.459 1593.78,195.534C1592.45,195.612 1591.09,196.082 1590.23,196.698C1589.21,197.423 1588.55,198.378 1588.22,199.463C1587.91,200.477 1587.84,201.684 1588.43,203.084C1589.06,197.655 1596.13,197.149 1597.09,199.434Z"/>
            <path d="M1462.8,199.434C1462.36,200.5 1462.45,201.42 1462.68,202.192C1462.94,203.034 1463.43,203.789 1464.22,204.352C1464.55,204.591 1466.81,207.217 1471.87,206.527C1473.83,206.26 1475.77,205.218 1477.05,203.782C1482.56,197.632 1479.37,188.235 1473.3,183.611C1462.61,175.461 1447.49,180.533 1440.31,190.98C1429.33,206.946 1436.7,228.581 1452.28,238.546C1474.18,252.56 1503.09,242.525 1516.06,221.142C1532.87,193.44 1520.97,157.742 1494.67,140.925C1493.95,140.466 1461.88,120.179 1461.14,119.748L1465.86,111.626C1466.39,111.936 1498.27,132.093 1498.79,132.415C1529.89,151.63 1543.76,193.606 1524.1,226.016C1508.49,251.745 1473.57,263.325 1447.21,246.462C1427.35,233.754 1418.57,206.015 1432.57,185.656C1442.64,171.009 1464.01,164.71 1479,176.138C1489.13,183.865 1493.25,199.771 1484.05,210.049C1478.34,216.434 1466.8,218.653 1460.59,211.228C1458.78,209.058 1457.58,205.348 1458.09,202.266C1458.55,199.479 1460.12,197.109 1463.17,195.926C1463.68,195.725 1464.85,195.459 1466.11,195.534C1467.44,195.612 1468.8,196.082 1469.67,196.698C1470.69,197.423 1471.34,198.378 1471.67,199.463C1471.98,200.477 1472.05,201.684 1471.46,203.084C1470.84,197.655 1463.77,197.149 1462.8,199.434Z"/>
            <path d="M1563.77,52.328C1563.32,51.262 1563.41,50.342 1563.64,49.57C1563.9,48.727 1564.39,47.972 1565.18,47.409C1565.52,47.17 1567.78,44.544 1572.83,45.234C1574.79,45.502 1576.73,46.544 1578.01,47.979C1583.52,54.129 1580.33,63.527 1574.26,68.15C1563.57,76.3 1548.45,71.228 1541.27,60.781C1530.29,44.815 1537.67,23.181 1553.24,13.215C1575.14,-0.799 1604.05,9.237 1617.02,30.619C1634.29,59.079 1621.26,95.978 1593.44,112.173L1598.17,120.294C1630.38,101.542 1645.05,58.699 1625.06,25.746C1609.45,0.017 1574.53,-11.563 1548.18,5.3C1528.32,18.007 1519.53,45.747 1533.53,66.106C1543.6,80.753 1564.97,87.051 1579.96,75.624C1590.1,67.897 1594.22,51.99 1585.02,41.712C1579.3,35.327 1567.76,33.108 1561.56,40.534C1559.75,42.704 1558.55,46.413 1559.06,49.495C1559.52,52.282 1561.09,54.652 1564.13,55.835C1564.65,56.036 1565.81,56.302 1567.07,56.228C1568.41,56.149 1569.77,55.68 1570.63,55.063C1571.65,54.338 1572.31,53.383 1572.63,52.299C1572.94,51.284 1573.02,50.077 1572.43,48.677C1571.8,54.106 1564.73,54.612 1563.77,52.328Z"/>
            <path d="M1496.13,52.328C1496.58,51.262 1496.49,50.342 1496.25,49.57C1496,48.727 1495.51,47.972 1494.71,47.409C1494.38,47.17 1492.12,44.544 1487.06,45.234C1485.1,45.502 1483.17,46.544 1481.88,47.979C1476.38,54.129 1479.57,63.527 1485.63,68.15C1496.32,76.3 1511.44,71.228 1518.62,60.781C1529.6,44.815 1522.23,23.181 1506.65,13.215C1484.75,-0.799 1455.84,9.237 1442.87,30.619C1425.61,59.079 1438.06,95.432 1465.88,111.627L1461.15,119.748C1428.94,100.997 1414.85,58.699 1434.84,25.746C1450.44,0.017 1485.36,-11.563 1511.72,5.3C1531.58,18.007 1540.37,45.747 1526.37,66.106C1516.3,80.753 1494.93,87.051 1479.93,75.624C1469.8,67.897 1465.68,51.99 1474.88,41.712C1480.59,35.327 1492.14,33.108 1498.34,40.534C1500.15,42.704 1501.35,46.413 1500.84,49.495C1500.38,52.282 1498.81,54.652 1495.77,55.835C1495.25,56.036 1494.08,56.302 1492.82,56.228C1491.49,56.149 1490.13,55.68 1489.26,55.063C1488.25,54.338 1487.59,53.383 1487.26,52.299C1486.95,51.284 1486.88,50.077 1487.47,48.677C1488.09,54.106 1495.16,54.612 1496.13,52.328Z"/>
            <path d="M1643.46,168.715C1644.37,169.425 1645.29,169.575 1646.09,169.548C1646.97,169.519 1647.83,169.241 1648.58,168.623C1648.89,168.361 1652.02,166.859 1652.66,161.796C1652.91,159.831 1652.4,157.692 1651.35,156.079C1646.83,149.17 1636.93,149.819 1630.89,154.481C1620.25,162.7 1621.24,178.614 1629.47,188.257C1642.05,202.993 1664.86,201.47 1678.52,189.005C1697.72,171.475 1695.51,140.954 1678.21,122.892C1655.19,98.851 1626.62,93.887 1603.78,116.568L1597.16,109.899C1623.61,83.638 1658.34,88.556 1685,116.392C1705.81,138.126 1707.96,174.853 1684.85,195.946C1667.44,211.841 1638.37,213.149 1622.33,194.358C1610.78,180.838 1610.23,158.568 1625.15,147.045C1635.24,139.253 1651.67,139.392 1659.21,150.938C1663.9,158.111 1663.06,169.835 1654.28,173.902C1651.72,175.091 1647.82,175.289 1644.98,174C1642.4,172.834 1640.52,170.702 1640.17,167.457C1640.11,166.906 1640.15,165.709 1640.55,164.512C1640.97,163.244 1641.78,162.053 1642.59,161.377C1643.56,160.581 1644.65,160.194 1645.78,160.156C1646.84,160.122 1648.03,160.363 1649.23,161.296C1643.82,160.494 1641.5,167.194 1643.46,168.715Z"/>
            <path d="M1416.26,168.715C1415.35,169.425 1414.44,169.575 1413.63,169.548C1412.75,169.519 1411.9,169.241 1411.15,168.623C1410.83,168.361 1407.71,166.859 1407.07,161.796C1406.82,159.831 1407.32,157.692 1408.38,156.079C1412.89,149.17 1422.8,149.819 1428.83,154.481C1439.47,162.7 1438.48,178.614 1430.25,188.257C1417.67,202.993 1394.87,201.47 1381.21,189.005C1362,171.475 1364.21,140.954 1381.51,122.892C1404.53,98.851 1436.08,95.46 1458.93,118.141L1465.55,111.472C1439.1,85.21 1401.38,88.556 1374.73,116.392C1353.91,138.126 1351.76,174.853 1374.87,195.946C1392.29,211.841 1421.36,213.149 1437.4,194.358C1448.94,180.838 1449.49,158.568 1434.58,147.045C1424.49,139.253 1408.06,139.392 1400.51,150.938C1395.82,158.111 1396.67,169.835 1405.44,173.902C1408.01,175.091 1411.9,175.289 1414.75,174C1417.32,172.834 1419.2,170.702 1419.56,167.457C1419.62,166.906 1419.57,165.709 1419.18,164.512C1418.75,163.244 1417.95,162.053 1417.13,161.377C1416.17,160.581 1415.07,160.194 1413.94,160.156C1412.88,160.122 1411.7,160.363 1410.5,161.296C1415.9,160.494 1418.22,167.194 1416.26,168.715Z"/>
        </g>
        <g>
            <ellipse cx="1302.88" cy="203.245" rx="7.257" ry="6.876"/>
            <ellipse cx="1378.36" cy="251.881" rx="7.257" ry="6.876"/>
            <ellipse cx="1329.83" cy="96.31" rx="7.257" ry="6.876"/>
            <ellipse cx="1373.01" cy="44.621" rx="7.257" ry="6.876"/>
            <ellipse cx="1291.52" cy="149.099" rx="7.257" ry="6.876"/>
            <rect x="0" y="249.381" width="1378.36" height="5"/>
            <rect x="651.107" y="146.599" width="644.514" height="5"/>
            <rect x="910.967" y="93.81" width="422.191" height="5"/>
            <rect x="1103.78" y="42.121" width="274.578" height="5"/>
            <rect x="461.798" y="200.745" width="844.383" height="5"/>
        </g>
        <g>
            <ellipse cx="1763.4" cy="202.909" rx="7.257" ry="6.876"/>
            <ellipse cx="1687.92" cy="251.545" rx="7.257" ry="6.876"/>
            <ellipse cx="1736.45" cy="95.973" rx="7.257" ry="6.876"/>
            <ellipse cx="1693.27" cy="44.284" rx="7.257" ry="6.876"/>
            <ellipse cx="1774.76" cy="148.762" rx="7.257" ry="6.876"/>
            <rect x="1687.92" y="249.045" width="1378.36" height="5"/>
            <rect x="1770.66" y="146.262" width="644.514" height="5"/>
            <rect x="1733.12" y="93.473" width="422.191" height="5"/>
            <rect x="1687.92" y="41.784" width="274.578" height="5"/>
            <rect x="1760.1" y="200.409" width="844.383" height="5"/>
        </g>
    </g>
    <g id="g966">
    </g>
</svg>
