<?xml version="1.0" encoding="UTF-8" standalone="no"?>
<!DOCTYPE svg PUBLIC "-//W3C//DTD SVG 1.1//EN" "http://www.w3.org/Graphics/SVG/1.1/DTD/svg11.dtd">
<svg width="100%" height="100%" viewBox="0 0 992 130" version="1.1" xmlns="http://www.w3.org/2000/svg" xmlns:xlink="http://www.w3.org/1999/xlink" xml:space="preserve" xmlns:serif="http://www.serif.com/" style="fill-rule:evenodd;clip-rule:evenodd;stroke-linejoin:round;stroke-miterlimit:2;">
    <rect id="Artboard11" x="0" y="-0" width="991.324" height="129.477" style="fill:none;"/>
    <clipPath id="_clip1">
        <rect x="0" y="-0" width="991.324" height="129.477"/>
    </clipPath>
    <g clip-path="url(#_clip1)">
        <path d="M924.73,55.102C924.509,55.216 924.285,55.326 924.059,55.433C914.373,60.03 901.499,59.872 890.722,59.267C890.613,59.26 890.505,59.258 890.398,59.263L890.398,59.262C890.398,59.262 890.058,59.267 889.711,59.271C888.558,59.282 886.156,59.3 882.611,59.33C870.624,59.432 845.582,59.662 811.532,59.947C765.444,60.332 702.865,60.972 633.829,61.386C577.092,61.727 515.999,61.957 456.127,62.086C379.052,62.253 304.003,62.232 242.884,62.168C158.537,62.079 100.721,61.815 100.721,61.815C100.703,61.815 100.686,61.816 100.668,61.817C91.015,62.354 77.985,59.501 67.859,53.431C70.622,47.844 72.739,41.445 74.494,33.947C75.527,29.541 76.027,21.718 74.493,15.244C73.33,10.341 70.982,6.23 67.093,4.571C61.172,2.042 56.1,4.424 52.947,10.353C50.212,15.497 48.966,23.475 50.115,33.002C51.123,41.436 56.382,48.206 63.576,53.206C62.338,55.426 60.978,57.501 59.469,59.451C59.172,59.835 58.869,60.214 58.558,60.588C52.83,53.332 45.718,47.484 36.967,44.372C29.295,41.67 20.3,42.449 13.368,46.289C6.256,50.229 1.229,57.252 1.81,66.883C2.224,73.747 6.729,78.561 13.009,81.181C20.893,84.469 31.541,84.222 38.683,80.708C45.783,77.215 51.495,73.464 56.166,69.167C57.584,71.356 58.888,73.638 60.088,75.973C55.594,79.913 52.112,85.058 50.185,91.762C48.705,96.91 48.192,102.214 48.666,107.415C49.145,112.667 50.644,117.812 53.189,122.593C54.851,125.714 57.349,128.038 60.12,129.099C63.263,130.302 66.829,130.04 70.303,127.387C73.779,124.732 75.871,120.495 76.805,115.706C78.011,109.523 77.294,102.435 75.967,97.608C74.165,91.205 71.812,84.302 68.745,77.621L69.15,77.373C78.487,71.755 90.814,70.104 101.594,69.364C104.998,69.339 183.871,68.764 290.502,68.23C329.564,68.034 372.349,67.84 416.513,67.724C478.976,67.559 544.194,67.521 605.531,67.489C758.41,67.408 887.174,67.539 889.036,67.541L889.036,67.541C900.067,68.488 913.29,70.275 923.322,75.99C923.914,76.327 924.494,76.678 925.061,77.044C921.847,84.011 919.427,91.253 917.611,97.947C916.345,102.621 915.672,109.477 916.857,115.454C917.738,119.899 919.645,123.852 922.879,126.309C925.91,128.613 929.01,128.862 931.746,127.81C934.234,126.854 936.458,124.744 937.951,121.939C940.409,117.321 941.851,112.356 942.312,107.288C942.77,102.26 942.27,97.131 940.844,92.149C938.866,85.661 935.215,80.782 930.505,77.138C931.982,74.193 933.616,71.321 935.425,68.596C941.702,74.719 949.282,79.8 958.153,83.997C964.657,87.074 972.49,86.876 978.808,83.934C985.359,80.882 990.292,74.973 990.658,66.889C991.085,57.274 986.033,50.307 978.877,46.489C971.982,42.811 963.104,42.125 955.581,44.908C947.645,47.844 941.117,53.061 935.78,59.532C935.235,58.874 934.706,58.203 934.192,57.52C938.575,53.794 941.877,48.668 943.51,41.691C943.938,39.844 944.298,37.956 944.472,36.06C944.597,34.704 944.629,33.346 944.532,31.994C944.287,28.57 943.169,13.501 937.973,6.452C936.333,4.227 934.317,2.68 931.972,2.015C929.81,1.402 927.315,1.487 924.459,2.744C920.074,4.679 917.306,9.261 916.061,14.836C914.549,21.604 915.163,29.751 916.301,34.326C918.23,42.082 921.047,48.974 924.73,55.102ZM929.085,80.099C926.146,86.481 923.901,93.089 922.178,99.209C921.023,103.306 920.358,109.325 921.343,114.589C921.963,117.901 923.204,120.932 925.588,122.786C927.162,124.011 928.765,124.263 930.204,123.729C931.818,123.129 933.197,121.706 934.182,119.905C936.419,115.815 937.752,111.403 938.214,106.892C938.678,102.359 938.273,97.726 937.037,93.215C935.628,87.703 932.803,83.434 929.085,80.099ZM63.016,82.214C60.142,85.205 57.918,88.928 56.639,93.577C55.444,97.92 55.057,102.384 55.505,106.752C55.951,111.087 57.235,115.324 59.383,119.25C60.196,120.737 61.304,121.943 62.635,122.44C63.668,122.825 64.804,122.584 65.936,121.708C68.651,119.607 69.669,115.825 70.033,111.939C70.447,107.523 69.875,102.879 68.95,99.548C67.444,93.997 65.51,88.041 63.016,82.214ZM939.253,63.395C945.126,69.399 952.328,74.347 960.807,78.45C965.667,80.801 971.545,80.661 976.303,78.495C980.942,76.383 984.531,72.299 984.839,66.6C985.229,59.478 981.488,54.304 976.214,51.42C970.679,48.394 963.517,47.779 957.422,49.963C950.109,52.584 944.143,57.426 939.253,63.395ZM53.714,65.635L53.465,65.298C48.536,58.765 42.43,53.367 34.736,50.5C28.78,48.259 21.733,48.732 16.247,51.62C10.946,54.411 7.123,59.501 7.4,66.606C7.629,72.513 12.631,75.99 18.512,77.559C24.529,79.165 31.59,78.803 36.646,76.451C43.592,73.221 49.169,69.725 53.714,65.635ZM928.831,61.152C928.284,61.448 927.724,61.728 927.156,61.995C916.429,67.031 902.205,66.944 890.3,66.157L890.328,66.131C890.139,66.153 889.94,66.164 889.732,66.163C888.576,66.158 886.169,66.147 882.616,66.122C870.628,66.038 845.584,65.819 811.532,65.541C765.444,65.163 702.865,64.521 633.83,64.098C577.092,63.751 515.999,63.51 456.127,63.369C379.051,63.187 304.002,63.188 242.883,63.237C176.08,63.289 125.919,63.455 107.943,63.522C129.017,63.704 199.695,64.296 290.504,64.889C329.566,65.145 372.35,65.404 416.515,65.588C478.977,65.847 544.195,65.985 605.532,66.111C759.53,66.427 889.058,66.49 889.058,66.49C889.068,66.491 889.079,66.491 889.089,66.491C900.451,66.896 914.103,68.107 924.675,73.476C925.24,73.763 925.796,74.062 926.341,74.374C927.98,71.073 929.808,67.861 931.844,64.828L931.326,64.234C930.465,63.232 929.633,62.206 928.831,61.152ZM66.89,55.311C65.631,57.647 64.246,59.838 62.711,61.907C62.184,62.617 61.64,63.312 61.077,63.994C62.814,66.498 64.407,69.129 65.868,71.838L65.869,71.837C75.345,66.307 87.533,64.386 98.6,63.636C88.941,63.795 76.661,60.983 66.89,55.311ZM930.122,51.383C933.087,48.622 935.327,44.939 936.481,40.04C936.786,38.758 937.058,37.451 937.227,36.136C937.384,34.922 937.458,33.701 937.378,32.488C937.207,29.915 936.715,19.743 933.678,13.053C932.338,10.099 930.514,7.723 927.253,9.137C924.713,10.236 923.524,13.152 922.779,16.366C921.463,22.038 921.914,28.882 922.835,32.733C924.492,39.667 926.922,45.857 930.122,51.383ZM64.596,51.286C67.246,46.077 69.304,40.098 71.076,33.113C72.095,29.088 72.676,21.919 71.373,15.955C70.525,12.075 68.939,8.669 65.897,7.308C61.512,5.349 57.777,7.271 55.358,11.658C52.739,16.41 51.586,23.84 52.534,32.727C53.364,40.428 58.124,46.62 64.596,51.286Z" style="fill:#de2726;"/>
    </g>
    <g id="g186">
    </g>
    <g id="g966">
    </g>
</svg>
