<?xml version="1.0" encoding="UTF-8" standalone="no"?>
<!DOCTYPE svg PUBLIC "-//W3C//DTD SVG 1.1//EN" "http://www.w3.org/Graphics/SVG/1.1/DTD/svg11.dtd">
<svg width="100%" height="100%" viewBox="0 0 1314 1465" version="1.1" xmlns="http://www.w3.org/2000/svg" xmlns:xlink="http://www.w3.org/1999/xlink" xml:space="preserve" xmlns:serif="http://www.serif.com/" style="fill-rule:evenodd;clip-rule:evenodd;stroke-linecap:round;stroke-linejoin:round;stroke-miterlimit:1.5;">
    <rect id="Artboard2" x="0" y="0" width="1313.71" height="1464.23" style="fill:none;"/>
    <g>
        <path d="M645.303,10.551C993.984,11.798 1276.98,268.716 1275.71,617.331C1275.67,626.407 1275.15,759.665 1234.24,758.711C1187.15,757.613 1107.39,750.567 1012.02,750.225C847.446,749.637 829.379,736.127 775.098,790.007C736.403,828.416 751.955,906.125 747.077,984.138C731.974,1225.66 602.811,1224.03 535.29,1223.79C401.49,1223.31 304.123,1155.92 213.11,1080.81C-17.232,890.709 10.266,903.762 11.23,639.937C12.503,291.322 296.622,9.304 645.303,10.551ZM430.929,827.532C475.292,827.691 511.178,863.83 511.016,908.185C510.854,952.539 474.705,988.421 430.342,988.262C385.979,988.103 350.093,951.964 350.256,907.61C350.418,863.255 386.566,827.373 430.929,827.532Z" style="fill:#de2726;stroke:#403535;stroke-width:4.17px;"/>
    </g>
    <path d="M851.013,1069.55L678.716,919.469L609.598,773.03C605.671,764.711 595.73,761.145 587.412,765.071C579.093,768.998 575.527,778.939 579.453,787.257L650.063,936.856C651.046,938.939 652.451,940.796 654.188,942.309L856.952,1118.93L871.534,1240.17C872.245,1246.08 876.061,1251.17 881.541,1253.51L1145.53,1366.13C1149.86,1367.98 1154.78,1367.91 1159.05,1365.93C1163.33,1363.96 1166.57,1360.27 1167.98,1355.77L1206.16,1233.66C1208.81,1225.2 1204.37,1216.16 1196.07,1213.07L888.068,1098.49L877.026,1006.69L867.893,819.135C867.677,814.686 865.688,810.508 862.37,807.535L760.185,715.951C753.335,709.811 742.789,710.388 736.65,717.238C730.511,724.088 731.088,734.634 737.938,740.773L834.938,827.711C836.594,861.72 843.761,1008.9 843.761,1008.9C843.78,1009.29 843.813,1009.69 843.86,1010.08L851.013,1069.55ZM892.546,1135.72L903.479,1226.63L1141.66,1328.24L1169.63,1238.8L892.546,1135.72Z" style="fill:#de2726;"/>
    <path d="M506.763,911.042C504.998,915.169 504.973,919.835 506.693,923.981L550.152,1028.75C551.851,1032.85 555.111,1036.1 559.212,1037.78L851.807,1158.01C858.269,1196.11 882.787,1340.67 882.787,1340.67C883.713,1346.13 887.292,1350.77 892.336,1353.06L1117.85,1455.31C1122.2,1457.28 1127.18,1457.3 1131.54,1455.35C1135.89,1453.39 1139.21,1449.67 1140.63,1445.12L1218.22,1197.52C1218.86,1195.47 1219.1,1193.31 1218.92,1191.17L1211.58,1101.7C1210.95,1093.96 1205.05,1087.69 1197.36,1086.57C1197.36,1086.57 943.64,1049.95 910.749,1039.71C890.792,1033.49 881.384,1020.94 878.416,1016.16C876.976,995.536 869.709,890.522 868.147,849.039C867.826,840.515 869.267,834.542 872.226,830.544C877.909,822.865 887.963,823.612 887.963,823.612C887.99,823.613 888.017,823.615 888.043,823.616C888.043,823.616 1137.73,836.691 1245.78,840.824C1265.8,841.59 1280.64,840.714 1288.18,837.938C1298.18,834.255 1302.42,827.563 1303.53,820.553C1310.03,779.298 1298.5,742.039 1263.62,726.038C1257.5,723.227 1229.7,719.989 1189.01,718.058C1039.62,710.972 702.151,709.759 702.151,709.759C701.233,709.756 700.317,709.828 699.411,709.976C699.411,709.976 666.893,715.14 620.836,736.608C605.879,743.58 588.289,762.804 571.973,787.235C537.991,838.116 506.763,911.042 506.763,911.042ZM1250.18,756.551C1268.72,765.339 1273.54,785.189 1271.62,807.027C1265.88,807.398 1256.11,807.862 1247.05,807.515C1139.14,803.387 889.787,790.328 889.787,790.328C889.867,790.333 869.242,789.141 853.28,802.41C843.097,810.875 833.889,825.108 834.837,850.293C836.585,896.688 845.413,1022.04 845.413,1022.04C845.545,1023.92 845.995,1025.76 846.743,1027.49C846.743,1027.49 859.4,1058.62 900.834,1071.53C929.762,1080.54 1126.44,1109.83 1179.44,1117.63L1185.44,1190.65L1114.46,1417.17L914.169,1326.36L883.125,1143.32C882.163,1137.65 878.346,1132.88 873.027,1130.69C873.027,1130.69 621.867,1027.49 578.288,1009.58L540.205,917.774L540.205,917.773C548.338,899.473 573.113,845.546 599.692,805.748C611.867,787.519 623.758,772.023 634.919,766.82C671.013,749.996 697.7,744.235 703.564,743.098C728.26,743.195 1044.36,744.568 1187.43,751.354C1218.98,752.851 1249.67,756.491 1250.18,756.551Z" style="fill:#de2726;"/>
</svg>
