<?xml version="1.0" encoding="UTF-8" standalone="no"?>
<!DOCTYPE svg PUBLIC "-//W3C//DTD SVG 1.1//EN" "http://www.w3.org/Graphics/SVG/1.1/DTD/svg11.dtd">
<svg width="100%" height="100%" viewBox="0 0 497 496" version="1.1" xmlns="http://www.w3.org/2000/svg" xmlns:xlink="http://www.w3.org/1999/xlink" xml:space="preserve" xmlns:serif="http://www.serif.com/" style="fill-rule:evenodd;clip-rule:evenodd;stroke-linejoin:round;stroke-miterlimit:1.5;">
    <g id="Decorative-Elements" serif:id="Decorative Elements">
    </g>
    <g id="Palette">
    </g>
    <g id="Diver-down-flag" serif:id="Diver down flag">
    </g>
    <g id="g186">
    </g>
    <g id="Icons">
    </g>
    <g id="Occupancy-Meter-2" serif:id="Occupancy Meter 2">
    </g>
    <g id="Discover-Deals" serif:id="Discover Deals">
    </g>
    <g id="Dollar-stripe" serif:id="Dollar stripe">
    </g>
    <g id="Deals">
    </g>
    <g id="See-Spaces" serif:id="See Spaces">
    </g>
    <rect id="Info" x="0" y="0" width="497" height="496" style="fill:none;"/>
    <path d="M286.048,124.194C286.048,129.507 285.034,134.471 283.007,139.085C280.98,143.699 278.218,147.719 274.722,151.145C271.227,154.571 267.137,157.297 262.453,159.325C257.769,161.352 252.77,162.366 247.457,162.366C242.144,162.366 237.145,161.352 232.461,159.325C227.777,157.297 223.722,154.571 220.296,151.145C216.871,147.719 214.144,143.699 212.117,139.085C210.089,134.471 209.075,129.507 209.075,124.194C209.075,119.021 210.089,114.092 212.117,109.408C214.144,104.724 216.871,100.669 220.296,97.243C223.722,93.818 227.777,91.091 232.461,89.064C237.145,87.036 242.144,86.022 247.457,86.022C252.77,86.022 257.769,87.036 262.453,89.064C267.137,91.091 271.227,93.818 274.722,97.243C278.218,100.669 280.98,104.724 283.007,109.408C285.034,114.092 286.048,119.021 286.048,124.194ZM276.191,409.853L218.513,409.853L218.513,185.227L276.191,185.227L276.191,409.853Z" style="fill:#dfaf0f;fill-rule:nonzero;"/>
    <circle cx="248.355" cy="247.938" r="221.941" style="fill:none;stroke:#dfaf0f;stroke-width:51.34px;"/>
</svg>
