<?xml version="1.0" encoding="UTF-8" standalone="no"?>
<!DOCTYPE svg PUBLIC "-//W3C//DTD SVG 1.1//EN" "http://www.w3.org/Graphics/SVG/1.1/DTD/svg11.dtd">
<svg width="100%" height="100%" viewBox="0 0 3689 3714" version="1.1" xmlns="http://www.w3.org/2000/svg" xmlns:xlink="http://www.w3.org/1999/xlink" xml:space="preserve" xmlns:serif="http://www.serif.com/" style="fill-rule:evenodd;clip-rule:evenodd;stroke-linejoin:round;stroke-miterlimit:2;">
    <rect id="Artboard8" x="0" y="0" width="3688.4" height="3713.48" style="fill:none;"/>
    <g id="Artboard81" serif:id="Artboard8">
        <rect id="Artboard7" x="0" y="0" width="3610.59" height="3611.14" style="fill:none;"/>
        <g>
            <path d="M1610.42,102.901L2027.09,519.568L1084.62,519.568C758.914,519.568 494.479,784.004 494.479,1109.71L494.479,2706.67C494.479,3032.39 758.914,3296.82 1084.62,3296.82L2681.59,3296.82C3007.3,3296.82 3271.73,3032.39 3271.73,2706.67L3271.73,1778.21L3688.4,2194.88L3688.4,2706.67C3688.4,3262.35 3237.26,3713.48 2681.59,3713.48L1084.63,3713.48C528.952,3713.48 77.817,3262.35 77.817,2706.67L77.817,1109.71C77.817,554.039 528.955,102.904 1084.63,102.904L1610.43,102.904L1610.42,102.901Z" style="fill:#151212;"/>
            <path d="M2783.17,599.934L2285.58,102.343L3681.31,107.348L3686.31,1503.08L3185.35,1002.12L1734.22,2453.25C1556.81,2630.66 1108.97,2274.13 1332.04,2051.06L2783.17,599.934Z" style="fill:#151212;"/>
            <path d="M1532.98,1.255L1949.65,417.922L1007.18,417.922C681.47,417.922 417.035,682.358 417.035,1008.07L417.035,2605.03C417.035,2930.74 681.47,3195.17 1007.18,3195.17L2604.14,3195.17C2929.85,3195.17 3194.29,2930.74 3194.29,2605.03L3194.29,1676.56L3610.95,2093.23L3610.95,2605.03C3610.95,3160.7 3159.82,3611.84 2604.14,3611.84L1007.18,3611.84C451.508,3611.84 0.373,3160.7 0.373,2605.03L0.373,1008.07C0.373,452.393 451.511,1.258 1007.18,1.258L1532.98,1.258L1532.98,1.255Z" style="fill:#dfaf0f;"/>
            <path d="M2705.72,498.288L2208.13,0.697L3603.86,5.702L3608.87,1401.43L3107.91,900.471L1656.78,2351.6C1438.88,2569.5 1024.81,2179.21 1254.59,1949.42L2705.72,498.288Z" style="fill:#dfaf0f;"/>
        </g>
    </g>
</svg>
