<?xml version="1.0" encoding="UTF-8" standalone="no"?>
<!DOCTYPE svg PUBLIC "-//W3C//DTD SVG 1.1//EN" "http://www.w3.org/Graphics/SVG/1.1/DTD/svg11.dtd">
<svg width="100%" height="100%" viewBox="0 0 140 187" version="1.1" xmlns="http://www.w3.org/2000/svg" xmlns:xlink="http://www.w3.org/1999/xlink" xml:space="preserve" xmlns:serif="http://www.serif.com/" style="fill-rule:evenodd;clip-rule:evenodd;stroke-linecap:round;stroke-linejoin:round;stroke-miterlimit:1.5;">
    <rect id="Artboard6" x="0" y="0" width="139.133" height="186.433" style="fill:none;"/>
    <g>
        <path d="M73.226,49.254L73.224,40.673C73.224,37.189 76.053,34.359 79.538,34.359C83.023,34.359 85.852,37.189 85.852,40.673L85.85,49.254C85.85,50.357 86.288,51.416 87.068,52.196C87.848,52.976 88.907,53.414 90.01,53.414L98.591,53.412C102.075,53.412 104.905,56.241 104.905,59.726C104.905,63.211 102.075,66.04 98.591,66.04L90.01,66.038C88.907,66.037 87.848,66.476 87.068,67.256C86.288,68.036 85.85,69.095 85.85,70.198L85.852,78.779C85.852,82.263 83.023,85.092 79.538,85.092C76.053,85.092 73.224,82.263 73.224,78.779L73.226,70.198C73.227,69.095 72.788,68.036 72.008,67.256C71.228,66.476 70.169,66.037 69.066,66.038L60.485,66.04C57.001,66.04 54.172,63.211 54.172,59.726C54.172,56.241 57.001,53.412 60.485,53.412L69.066,53.414C70.169,53.414 71.228,52.976 72.008,52.196C72.788,51.416 73.227,50.357 73.226,49.254Z" style="fill:#dfaf0f;stroke:#dfaf0f;stroke-width:4px;"/>
    </g>
    <path d="M79.538,2.598C111.068,2.598 136.666,28.196 136.666,59.726C136.666,91.256 111.068,116.854 79.538,116.854C48.008,116.854 22.41,91.256 22.41,59.726C22.41,28.196 48.008,2.598 79.538,2.598ZM79.538,14.299C104.61,14.299 124.965,34.654 124.965,59.726C124.965,84.798 104.61,105.153 79.538,105.153C54.466,105.153 34.111,84.798 34.111,59.726C34.111,34.654 54.466,14.299 79.538,14.299Z" style="fill:#dfaf0f;stroke:#dfaf0f;stroke-width:4px;"/>
    <path d="M54.519,120.517C55.811,118.278 55.043,115.412 52.805,114.12L44.694,109.437C42.455,108.145 39.589,108.913 38.297,111.151L3.393,171.605C2.101,173.844 2.869,176.71 5.108,178.002L13.218,182.685C15.457,183.977 18.323,183.209 19.615,180.971L54.519,120.517Z" style="fill:#dfaf0f;stroke:#dfaf0f;stroke-width:4px;"/>
</svg>
