<?xml version="1.0" encoding="UTF-8" standalone="no"?>
<!DOCTYPE svg PUBLIC "-//W3C//DTD SVG 1.1//EN" "http://www.w3.org/Graphics/SVG/1.1/DTD/svg11.dtd">
<svg width="100%" height="100%" viewBox="0 0 98 168" version="1.1" xmlns="http://www.w3.org/2000/svg" xmlns:xlink="http://www.w3.org/1999/xlink" xml:space="preserve" xmlns:serif="http://www.serif.com/" style="fill-rule:evenodd;clip-rule:evenodd;stroke-linejoin:round;stroke-miterlimit:2;">
    <rect id="Artboard4" x="0" y="0" width="97.708" height="167.577" style="fill:none;"/>
    <clipPath id="_clip1">
        <rect x="0" y="0" width="97.708" height="167.577"/>
    </clipPath>
    <g clip-path="url(#_clip1)">
        <g>
            <path d="M49.059,0.178C76.022,0.178 97.913,22.069 97.913,49.032C97.913,75.995 76.022,97.886 49.059,97.886C22.095,97.886 0.205,75.995 0.205,49.032C0.205,22.069 22.095,0.178 49.059,0.178ZM49.059,24.605C62.54,24.605 73.486,35.55 73.486,49.032C73.486,62.514 62.54,73.459 49.059,73.459C35.577,73.459 24.632,62.514 24.632,49.032C24.632,35.55 35.577,24.605 49.059,24.605Z" style="fill:#1a1a1a;"/>
            <path d="M49.059,167.755L3.269,66.014C34.334,78.769 64.895,79.568 94.848,66.014L49.059,167.755Z" style="fill:#1a1a1a;"/>
        </g>
    </g>
</svg>
