<?xml version="1.0" encoding="UTF-8" standalone="no"?>
<!DOCTYPE svg PUBLIC "-//W3C//DTD SVG 1.1//EN" "http://www.w3.org/Graphics/SVG/1.1/DTD/svg11.dtd">
<svg width="100%" height="100%" viewBox="0 0 1142 1142" version="1.1" xmlns="http://www.w3.org/2000/svg" xmlns:xlink="http://www.w3.org/1999/xlink" xml:space="preserve" xmlns:serif="http://www.serif.com/" style="fill-rule:evenodd;clip-rule:evenodd;stroke-linejoin:round;stroke-miterlimit:2;">
    <rect id="Artboard1" x="0" y="0" width="1141.56" height="1141.68" style="fill:none;"/>
    <clipPath id="_clip1">
        <rect x="0" y="0" width="1141.56" height="1141.68"/>
    </clipPath>
    <g clip-path="url(#_clip1)">
        <g>
            <clipPath id="_clip2">
                <rect x="0.093" y="0.561" width="1141.68" height="1141.68"/>
            </clipPath>
            <g clip-path="url(#_clip2)">
                <rect x="0.093" y="0.561" width="1141.68" height="1141.68" style="fill:#151212;"/>
                <rect x="325.033" y="0.561" width="127.341" height="1141.68" style="fill:#ebebeb;"/>
                <path d="M666.432,-237.579L570.933,-153.342L1326.16,702.851L1421.66,618.614L666.432,-237.579Z" style="fill:#ebebeb;"/>
                <path d="M773.636,-323.342L678.137,-239.105L1433.37,617.088L1528.86,532.851L773.636,-323.342Z" style="fill:#ebebeb;"/>
                <path d="M1141.77,869.995L1141.77,809.96L0.093,809.96L0.093,869.995L1141.77,869.995Z" style="fill:#ebebeb;"/>
            </g>
        </g>
        <path d="M235.902,771.969L235.902,760.214C235.902,755.486 236.463,751.851 237.584,749.311C238.706,746.771 240.428,744.765 242.752,743.292C245.076,741.819 247.657,741.083 250.494,741.083C253.142,741.083 255.554,741.728 257.729,743.019C259.904,744.31 261.667,746.206 263.018,748.706C264.072,745.608 265.309,743.224 266.727,741.554C268.146,739.883 269.862,738.583 271.875,737.654C273.888,736.724 276.07,736.26 278.421,736.26C283.204,736.26 287.25,738.009 290.56,741.509C293.87,745.008 295.525,749.703 295.525,755.594L295.525,771.969L235.902,771.969ZM241.739,766.132L260.83,766.132L260.83,762.72C260.83,758.577 260.445,755.531 259.675,753.581C258.904,751.631 257.688,750.088 256.027,748.95C254.365,747.813 252.521,747.244 250.494,747.244C247.765,747.244 245.623,748.198 244.07,750.108C242.516,752.017 241.739,755.056 241.739,759.227L241.739,766.132ZM266.829,766.132L289.689,766.132L289.689,758.742C289.689,754.384 289.263,751.19 288.412,749.16C287.561,747.13 286.23,745.5 284.42,744.268C282.609,743.036 280.65,742.421 278.542,742.421C275.894,742.421 273.584,743.286 271.611,745.018C269.639,746.749 268.288,749.129 267.558,752.159C267.072,754.19 266.829,757.724 266.829,762.761L266.829,766.132Z" style="fill:#ebebeb;fill-rule:nonzero;"/>
        <path d="M251.426,727.545L251.426,721.749L257.871,721.749C255.331,720.02 253.433,718.196 252.176,716.277C250.92,714.359 250.291,712.359 250.291,710.279C250.291,708.711 250.791,707.036 251.791,705.253L256.574,708.211C256.06,709.4 255.804,710.4 255.804,711.211C255.804,713.102 256.581,714.926 258.134,716.683C259.688,718.439 262.1,719.777 265.369,720.695C267.882,721.398 272.962,721.749 280.609,721.749L295.525,721.749L295.525,727.545L251.426,727.545Z" style="fill:#ebebeb;fill-rule:nonzero;"/>
        <path d="M250.291,679.555C250.291,672.761 252.75,667.13 257.668,662.664C262.154,658.603 267.464,656.573 273.597,656.573C279.758,656.573 285.142,658.719 289.749,663.009C294.357,667.3 296.66,672.815 296.66,679.555C296.66,686.322 294.357,691.851 289.749,696.142C285.142,700.432 279.758,702.577 273.597,702.577C267.491,702.577 262.194,700.547 257.709,696.487C252.764,692.02 250.291,686.376 250.291,679.555ZM255.844,679.575C255.844,684.294 257.587,688.348 261.073,691.737C264.559,695.127 268.774,696.822 273.719,696.822C276.908,696.822 279.88,696.049 282.636,694.503C285.392,692.958 287.52,690.869 289.02,688.239C290.52,685.609 291.269,682.721 291.269,679.575C291.269,676.43 290.52,673.542 289.02,670.912C287.52,668.281 285.392,666.193 282.636,664.647C279.88,663.102 276.908,662.329 273.719,662.329C268.774,662.329 264.559,664.03 261.073,667.434C257.587,670.837 255.844,674.884 255.844,679.575Z" style="fill:#ebebeb;fill-rule:nonzero;"/>
        <path d="M251.426,602.138L295.525,602.138L295.525,607.732L287.946,607.732C290.837,610.11 293.012,612.778 294.472,615.737C295.931,618.696 296.66,621.932 296.66,625.444C296.66,631.686 294.397,637.016 289.871,641.434C285.345,645.852 279.839,648.061 273.354,648.061C267.004,648.061 261.573,645.832 257.06,641.374C252.548,636.915 250.291,631.551 250.291,625.282C250.291,621.661 251.061,618.385 252.602,615.453C254.142,612.521 256.452,609.948 259.533,607.732L251.426,607.732L251.426,602.138ZM255.763,624.816C255.763,627.974 256.539,630.889 258.091,633.561C259.643,636.233 261.823,638.359 264.63,639.938C267.437,641.516 270.406,642.306 273.537,642.306C276.641,642.306 279.61,641.51 282.444,639.917C285.277,638.325 287.484,636.186 289.063,633.501C290.642,630.815 291.432,627.934 291.432,624.857C291.432,621.753 290.649,618.811 289.083,616.031C287.518,613.251 285.399,611.112 282.727,609.614C280.055,608.116 277.046,607.367 273.699,607.367C268.598,607.367 264.333,609.047 260.905,612.408C257.477,615.768 255.763,619.904 255.763,624.816Z" style="fill:#ebebeb;fill-rule:nonzero;"/>
        <path d="M234.403,545.353L295.525,545.353L295.525,550.946L287.946,550.946C290.837,553.324 293.012,555.992 294.472,558.951C295.931,561.91 296.66,565.146 296.66,568.659C296.66,574.901 294.397,580.231 289.871,584.649C285.345,589.067 279.839,591.276 273.354,591.276C267.004,591.276 261.573,589.047 257.06,584.588C252.548,580.129 250.291,574.766 250.291,568.497C250.291,564.876 251.061,561.599 252.602,558.668C254.142,555.736 256.452,553.162 259.533,550.946L234.403,550.946L234.403,545.353ZM255.763,568.031C255.763,571.188 256.539,574.103 258.091,576.775C259.643,579.448 261.823,581.573 264.63,583.152C267.437,584.731 270.406,585.52 273.537,585.52C276.641,585.52 279.61,584.724 282.444,583.132C285.277,581.539 287.484,579.4 289.063,576.715C290.642,574.029 291.432,571.148 291.432,568.071C291.432,564.967 290.649,562.025 289.083,559.245C287.518,556.465 285.399,554.326 282.727,552.828C280.055,551.33 277.046,550.581 273.699,550.581C268.598,550.581 264.333,552.262 260.905,555.622C257.477,558.982 255.763,563.119 255.763,568.031Z" style="fill:#ebebeb;fill-rule:nonzero;"/>
        <path d="M251.426,538.462L251.426,532.626L283.447,519.108L251.426,505.038L251.426,504.009L283.447,489.844L251.426,476.066L251.426,470.165L295.525,489.323L295.525,490.375L263.951,504.476L295.525,518.569L295.525,519.625L251.426,538.462Z" style="fill:#ebebeb;fill-rule:nonzero;"/>
        <path d="M251.426,419.581L295.525,419.581L295.525,425.175L287.946,425.175C290.837,427.552 293.012,430.221 294.472,433.18C295.931,436.139 296.66,439.374 296.66,442.887C296.66,449.129 294.397,454.459 289.871,458.877C285.345,463.295 279.839,465.504 273.354,465.504C267.004,465.504 261.573,463.275 257.06,458.816C252.548,454.358 250.291,448.994 250.291,442.725C250.291,439.104 251.061,435.828 252.602,432.896C254.142,429.964 256.452,427.39 259.533,425.175L251.426,425.175L251.426,419.581ZM255.763,442.259C255.763,445.417 256.539,448.332 258.091,451.004C259.643,453.676 261.823,455.801 264.63,457.38C267.437,458.959 270.406,459.749 273.537,459.749C276.641,459.749 279.61,458.952 282.444,457.36C285.277,455.768 287.484,453.629 289.063,450.943C290.642,448.258 291.432,445.377 291.432,442.299C291.432,439.195 290.649,436.253 289.083,433.474C287.518,430.694 285.399,428.555 282.727,427.057C280.055,425.559 277.046,424.81 273.699,424.81C268.598,424.81 264.333,426.49 260.905,429.85C257.477,433.211 255.763,437.347 255.763,442.259Z" style="fill:#ebebeb;fill-rule:nonzero;"/>
        <path d="M251.426,411.556L251.426,405.557L285.385,390.402L251.426,375.685L251.426,369.645L311.657,395.951L311.657,401.944L292.185,393.455L251.426,411.556Z" style="fill:#ebebeb;fill-rule:nonzero;"/>
        <path d="M917.774,274.804L922.664,280.221L868.452,329.154L863.562,323.737L917.774,274.804Z" style="fill:#ebebeb;fill-rule:nonzero;"/>
        <path d="M898.499,316.948L916.794,337.217L912.298,341.276L894.002,321.006L898.499,316.948Z" style="fill:#ebebeb;fill-rule:nonzero;"/>
        <path d="M941.471,335.141L936.781,329.945C942.259,325.267 948.262,323.093 954.788,323.422C961.315,323.751 966.851,326.434 971.397,331.47C975.899,336.458 977.931,341.947 977.495,347.936C977.058,353.926 974.652,358.896 970.277,362.845C967.204,365.618 963.658,367.485 959.64,368.444C955.622,369.403 949.401,369.838 940.979,369.747L914.247,369.368L936.822,394.379L931.589,399.103L898.357,362.286L939.436,362.793C947.729,362.933 953.534,362.653 956.852,361.954C960.17,361.255 963.034,359.818 965.444,357.643C968.493,354.891 970.092,351.385 970.242,347.126C970.391,342.867 968.98,339.092 966.008,335.799C962.881,332.335 959.126,330.497 954.743,330.284C950.36,330.071 945.936,331.69 941.471,335.141Z" style="fill:#ebebeb;fill-rule:nonzero;"/>
        <path d="M1021.79,390.046L1016.63,394.703L999.246,375.439L982.014,386.069C984.832,387.801 987.094,389.613 988.799,391.502C993.252,396.436 995.272,401.995 994.858,408.181C994.445,414.367 991.658,419.788 986.499,424.445C982.936,427.661 978.926,429.787 974.467,430.824C970.008,431.861 965.717,431.689 961.593,430.306C957.469,428.923 953.744,426.389 950.417,422.704C946.448,418.306 944.444,413.382 944.407,407.931C944.369,402.481 946.222,397.532 949.965,393.083L954.988,398.648C953.276,400.951 952.219,403.187 951.815,405.358C951.411,407.528 951.558,409.803 952.256,412.182C952.955,414.561 954.125,416.66 955.766,418.478C958.981,422.041 963.092,423.881 968.097,424.001C973.102,424.12 977.629,422.352 981.677,418.698C985.333,415.398 987.26,411.564 987.457,407.195C987.654,402.826 986.011,398.713 982.53,394.855C979.647,391.661 975.183,388.668 969.14,385.874L1000.6,366.57L1021.79,390.046Z" style="fill:#ebebeb;fill-rule:nonzero;"/>
        <path d="M509.946,888.646L531.916,935.757L526.831,935.757L519.421,920.257L499.126,920.257L491.787,935.757L486.534,935.757L508.793,888.646L509.946,888.646ZM509.351,898.656L501.279,915.709L517.385,915.709L509.351,898.656Z" style="fill:#ebebeb;fill-rule:nonzero;"/>
        <path d="M536.784,900.913L541.364,900.913L541.364,906.005C542.73,903.998 544.172,902.498 545.688,901.505C547.203,900.512 548.783,900.016 550.427,900.016C551.666,900.016 552.99,900.411 554.399,901.201L552.061,904.98C551.121,904.574 550.331,904.371 549.691,904.371C548.196,904.371 546.755,904.985 545.367,906.213C543.979,907.441 542.923,909.346 542.197,911.93C541.641,913.915 541.364,917.929 541.364,923.972L541.364,935.757L536.784,935.757L536.784,900.913Z" style="fill:#ebebeb;fill-rule:nonzero;"/>
        <path d="M558.178,887.461L562.662,887.461L562.662,914.975L578.817,900.913L585.4,900.913L566.249,917.534L586.521,935.757L580.211,935.757L562.662,920.069L562.662,935.757L558.178,935.757L558.178,887.461Z" style="fill:#ebebeb;fill-rule:nonzero;"/>
        <path d="M625.85,900.913L625.85,935.757L621.43,935.757L621.43,929.768C619.552,932.053 617.443,933.772 615.105,934.925C612.767,936.078 610.21,936.654 607.435,936.654C602.503,936.654 598.291,934.866 594.8,931.29C591.309,927.713 589.564,923.363 589.564,918.239C589.564,913.221 591.325,908.93 594.848,905.364C598.371,901.799 602.609,900.016 607.563,900.016C610.424,900.016 613.013,900.624 615.329,901.841C617.646,903.058 619.68,904.884 621.43,907.318L621.43,900.913L625.85,900.913ZM607.931,904.339C605.436,904.339 603.133,904.953 601.021,906.179C598.91,907.405 597.231,909.127 595.983,911.345C594.735,913.563 594.112,915.909 594.112,918.383C594.112,920.836 594.741,923.182 595.999,925.421C597.257,927.66 598.947,929.404 601.069,930.651C603.191,931.899 605.468,932.523 607.899,932.523C610.352,932.523 612.676,931.904 614.873,930.667C617.069,929.43 618.76,927.756 619.943,925.645C621.127,923.534 621.719,921.156 621.719,918.511C621.719,914.48 620.391,911.111 617.736,908.402C615.081,905.694 611.812,904.339 607.931,904.339Z" style="fill:#ebebeb;fill-rule:nonzero;"/>
        <path d="M635.938,900.913L640.422,900.913L640.422,907.158C642.216,904.766 644.201,902.978 646.379,901.793C648.557,900.608 650.927,900.016 653.489,900.016C656.094,900.016 658.405,900.678 660.423,902.001C662.44,903.325 663.93,905.108 664.89,907.35C665.851,909.592 666.332,913.083 666.332,917.823L666.332,935.757L661.848,935.757L661.848,919.136C661.848,915.122 661.682,912.442 661.349,911.097C660.83,908.791 659.833,907.056 658.36,905.893C656.886,904.729 654.965,904.147 652.594,904.147C649.882,904.147 647.453,905.044 645.307,906.837C643.161,908.631 641.746,910.851 641.063,913.499C640.636,915.228 640.422,918.388 640.422,922.979L640.422,935.757L635.938,935.757L635.938,900.913Z" style="fill:#ebebeb;fill-rule:nonzero;"/>
        <path d="M693.458,904.724L690.576,907.702C688.178,905.375 685.834,904.211 683.544,904.211C682.088,904.211 680.841,904.692 679.803,905.652C678.765,906.613 678.246,907.734 678.246,909.015C678.246,910.147 678.673,911.225 679.529,912.25C680.385,913.296 682.183,914.524 684.921,915.933C688.259,917.662 690.527,919.328 691.725,920.929C692.902,922.552 693.49,924.377 693.49,926.406C693.49,929.267 692.485,931.69 690.475,933.676C688.465,935.661 685.952,936.654 682.937,936.654C680.927,936.654 679.008,936.216 677.18,935.341C675.352,934.466 673.839,933.259 672.641,931.722L675.459,928.519C677.749,931.103 680.178,932.395 682.746,932.395C684.544,932.395 686.074,931.818 687.337,930.665C688.599,929.512 689.231,928.156 689.231,926.598C689.231,925.317 688.814,924.174 687.979,923.171C687.144,922.189 685.262,920.95 682.33,919.456C679.185,917.833 677.045,916.232 675.911,914.652C674.777,913.072 674.21,911.268 674.21,909.239C674.21,906.592 675.114,904.393 676.921,902.642C678.728,900.891 681.011,900.016 683.77,900.016C686.978,900.016 690.208,901.585 693.458,904.724Z" style="fill:#ebebeb;fill-rule:nonzero;"/>
        <path d="M736.118,900.913L736.118,935.757L731.698,935.757L731.698,929.768C729.819,932.053 727.711,933.772 725.373,934.925C723.035,936.078 720.478,936.654 717.702,936.654C712.77,936.654 708.559,934.866 705.068,931.29C701.577,927.713 699.832,923.363 699.832,918.239C699.832,913.221 701.593,908.93 705.116,905.364C708.639,901.799 712.877,900.016 717.83,900.016C720.692,900.016 723.28,900.624 725.597,901.841C727.913,903.058 729.947,904.884 731.698,907.318L731.698,900.913L736.118,900.913ZM718.199,904.339C715.704,904.339 713.4,904.953 711.289,906.179C709.178,907.405 707.498,909.127 706.251,911.345C705.003,913.563 704.379,915.909 704.379,918.383C704.379,920.836 705.008,923.182 706.267,925.421C707.525,927.66 709.215,929.404 711.337,930.651C713.459,931.899 715.735,932.523 718.167,932.523C720.619,932.523 722.944,931.904 725.141,930.667C727.337,929.43 729.027,927.756 730.211,925.645C731.394,923.534 731.986,921.156 731.986,918.511C731.986,914.48 730.659,911.111 728.003,908.402C725.348,905.694 722.08,904.339 718.199,904.339Z" style="fill:#ebebeb;fill-rule:nonzero;"/>
        <path d="M763.725,904.724L760.842,907.702C758.445,905.375 756.101,904.211 753.81,904.211C752.354,904.211 751.107,904.692 750.069,905.652C749.031,906.613 748.512,907.734 748.512,909.015C748.512,910.147 748.94,911.225 749.796,912.25C750.652,913.296 752.449,914.524 755.187,915.933C758.525,917.662 760.793,919.328 761.992,920.929C763.168,922.552 763.757,924.377 763.757,926.406C763.757,929.267 762.752,931.69 760.741,933.676C758.731,935.661 756.219,936.654 753.204,936.654C751.193,936.654 749.274,936.216 747.446,935.341C745.618,934.466 744.105,933.259 742.907,931.722L745.726,928.519C748.016,931.103 750.445,932.395 753.013,932.395C754.81,932.395 756.34,931.818 757.603,930.665C758.866,929.512 759.497,928.156 759.497,926.598C759.497,925.317 759.08,924.174 758.246,923.171C757.411,922.189 755.528,920.95 752.597,919.456C749.451,917.833 747.311,916.232 746.177,914.652C745.044,913.072 744.477,911.268 744.477,909.239C744.477,906.592 745.38,904.393 747.187,902.642C748.995,900.891 751.278,900.016 754.037,900.016C757.245,900.016 760.474,901.585 763.725,904.724Z" style="fill:#ebebeb;fill-rule:nonzero;"/>
        <path d="M594.661,696.327L606.852,696.327L606.852,758.376L600.693,758.376L600.693,702.401L590.949,702.401L594.661,696.327Z" style="fill:#ebebeb;fill-rule:nonzero;"/>
        <path d="M637.982,710.711L631.655,710.711C632.808,705.593 635.015,701.656 638.277,698.9C641.54,696.144 645.392,694.766 649.835,694.766C653.069,694.766 656.085,695.504 658.883,696.981C661.681,698.457 663.847,700.447 665.379,702.949C666.912,705.452 667.678,708.067 667.678,710.795C667.678,716.138 665.021,720.37 659.706,723.492C662.687,724.701 665.133,726.473 667.045,728.807C669.745,732.097 671.095,735.781 671.095,739.859C671.095,743.374 670.167,746.727 668.311,749.919C666.455,753.111 663.924,755.578 660.718,757.322C657.512,759.065 653.927,759.937 649.962,759.937C644.619,759.937 640.162,758.397 636.59,755.318C633.019,752.239 630.685,747.718 629.588,741.757L635.662,741.757C636.731,745.778 638.263,748.689 640.26,750.488C642.819,752.766 646.081,753.905 650.046,753.905C654.546,753.905 658.159,752.555 660.887,749.856C663.615,747.156 664.979,743.992 664.979,740.365C664.979,737.946 664.297,735.683 662.933,733.573C661.569,731.464 659.741,729.875 657.449,728.807C655.157,727.738 651.607,727.077 646.798,726.824L646.798,721.13C649.638,721.13 652.226,720.631 654.56,719.632C656.894,718.634 658.588,717.362 659.643,715.815C660.697,714.268 661.224,712.581 661.224,710.753C661.224,708.053 660.149,705.719 657.997,703.751C655.846,701.782 653.125,700.798 649.835,700.798C647.164,700.798 644.858,701.55 642.917,703.055C640.977,704.559 639.332,707.111 637.982,710.711Z" style="fill:#ebebeb;fill-rule:nonzero;"/>
        <path d="M707.624,724.336C711.814,726.417 714.816,728.793 716.63,731.464C718.444,734.136 719.351,737.173 719.351,740.576C719.351,745.356 717.79,749.574 714.669,753.23C710.844,757.701 705.375,759.937 698.26,759.937C691.398,759.937 686.196,757.976 682.653,754.053C679.109,750.13 677.338,745.806 677.338,741.082C677.338,737.623 678.266,734.508 680.122,731.739C681.978,728.969 685.071,726.501 689.402,724.336C686.365,722.761 684.087,720.806 682.568,718.472C681.05,716.138 680.291,713.635 680.291,710.964C680.291,708.264 681.099,705.628 682.716,703.055C684.333,700.482 686.569,698.457 689.423,696.981C692.277,695.504 695.364,694.766 698.682,694.766C701.916,694.766 704.911,695.511 707.667,697.002C710.422,698.492 712.581,700.517 714.142,703.076C715.702,705.635 716.483,708.321 716.483,711.133C716.483,713.945 715.744,716.448 714.268,718.641C712.792,720.834 710.577,722.733 707.624,724.336ZM698.365,700.798C694.957,700.798 692.132,701.803 689.893,703.814C687.653,705.825 686.533,708.222 686.533,711.006C686.533,713.762 687.738,716.258 690.147,718.493C692.555,720.729 695.366,721.847 698.577,721.847C700.633,721.847 702.577,721.341 704.408,720.328C706.24,719.316 707.669,717.931 708.697,716.173C709.726,714.416 710.24,712.651 710.24,710.88C710.24,708.377 709.226,706.071 707.197,703.962C705.169,701.853 702.225,700.798 698.365,700.798ZM698.66,727.457C694.392,727.457 690.812,728.842 687.919,731.612C685.027,734.382 683.581,737.609 683.581,741.293C683.581,743.571 684.199,745.722 685.434,747.747C686.67,749.771 688.397,751.332 690.615,752.429C692.834,753.525 695.403,754.074 698.323,754.074C702.844,754.074 706.439,752.738 709.106,750.067C711.774,747.395 713.108,744.274 713.108,740.702C713.108,737.243 711.697,734.171 708.875,731.485C706.052,728.8 702.648,727.457 698.66,727.457Z" style="fill:#ebebeb;fill-rule:nonzero;"/>
        <path d="M725.046,727.373C725.046,719.189 725.924,712.862 727.682,708.391C729.439,703.92 731.921,700.531 735.127,698.225C738.333,695.919 741.918,694.766 745.883,694.766C749.905,694.766 753.546,695.926 756.808,698.246C760.071,700.566 762.651,704.046 764.549,708.686C766.447,713.326 767.396,719.555 767.396,727.373C767.396,735.162 766.461,741.363 764.591,745.975C762.721,750.587 760.141,754.067 756.851,756.415C753.56,758.763 749.905,759.937 745.883,759.937C741.918,759.937 738.347,758.798 735.169,756.52C731.991,754.243 729.51,750.847 727.724,746.333C725.938,741.82 725.046,735.5 725.046,727.373ZM730.909,727.478C730.909,734.486 731.535,739.784 732.786,743.372C734.037,746.96 735.886,749.683 738.333,751.541C740.779,753.398 743.367,754.327 746.094,754.327C748.85,754.327 751.423,753.419 753.814,751.604C756.204,749.789 758.018,747.066 759.255,743.435C760.802,739.017 761.575,733.698 761.575,727.478C761.575,721.23 760.886,716.115 759.508,712.133C758.13,708.151 756.225,705.238 753.792,703.395C751.36,701.551 748.794,700.629 746.094,700.629C743.338,700.629 740.751,701.551 738.333,703.395C735.914,705.238 734.072,707.954 732.807,711.542C731.542,715.13 730.909,720.442 730.909,727.478Z" style="fill:#ebebeb;fill-rule:nonzero;"/>
        <path d="M795.236,746.819L800.509,743.655C804.221,750.488 808.509,753.905 813.374,753.905C815.455,753.905 817.41,753.42 819.238,752.45C821.066,751.48 822.458,750.179 823.414,748.548C824.37,746.917 824.848,745.187 824.848,743.36C824.848,741.279 824.145,739.24 822.739,737.243C820.798,734.487 817.255,731.169 812.109,727.288C806.935,723.379 803.715,720.553 802.449,718.81C800.256,715.885 799.159,712.722 799.159,709.319C799.159,706.619 799.806,704.159 801.099,701.937C802.393,699.715 804.214,697.965 806.562,696.685C808.91,695.406 811.462,694.766 814.218,694.766C817.143,694.766 819.877,695.49 822.422,696.938C824.967,698.387 827.66,701.051 830.5,704.932L825.438,708.77C823.104,705.677 821.115,703.638 819.47,702.654C817.825,701.67 816.032,701.178 814.091,701.178C811.589,701.178 809.543,701.937 807.954,703.456C806.365,704.974 805.571,706.844 805.571,709.066C805.571,710.416 805.852,711.723 806.414,712.989C806.977,714.254 808.003,715.632 809.494,717.122C810.309,717.91 812.981,719.977 817.508,723.323C822.879,727.288 826.563,730.818 828.56,733.911C830.556,737.004 831.555,740.112 831.555,743.233C831.555,747.732 829.846,751.641 826.43,754.96C823.013,758.278 818.858,759.937 813.965,759.937C810.197,759.937 806.78,758.932 803.715,756.921C800.649,754.91 797.823,751.543 795.236,746.819Z" style="fill:#ebebeb;fill-rule:nonzero;"/>
        <path d="M538.732,685.483L547.818,713.446L577.22,713.446L553.433,730.728L562.519,758.691L538.732,741.409L514.945,758.691L524.031,730.728L500.244,713.446L529.646,713.446L538.732,685.483Z" style="fill:#de2726;"/>
    </g>
</svg>
