<?xml version="1.0" encoding="UTF-8" standalone="no"?>
<!DOCTYPE svg PUBLIC "-//W3C//DTD SVG 1.1//EN" "http://www.w3.org/Graphics/SVG/1.1/DTD/svg11.dtd">
<svg width="100%" height="100%" viewBox="0 0 701 702" version="1.1" xmlns="http://www.w3.org/2000/svg" xmlns:xlink="http://www.w3.org/1999/xlink" xml:space="preserve" xmlns:serif="http://www.serif.com/" style="fill-rule:evenodd;clip-rule:evenodd;stroke-linecap:round;stroke-linejoin:round;stroke-miterlimit:1.5;">
    <g id="Diver-down-flag" serif:id="Diver down flag">
    </g>
    <g id="g186">
    </g>
    <g id="Filigree">
    </g>
    <rect id="Message-in-Bottle-Simplified" serif:id="Message in Bottle Simplified" x="0" y="-0" width="700.068" height="701.384" style="fill:none;"/>
    <clipPath id="_clip1">
        <rect x="0" y="-0" width="700.068" height="701.384"/>
    </clipPath>
    <g clip-path="url(#_clip1)">
        <g id="Content">
            <ellipse cx="349.561" cy="346.84" rx="349.561" ry="345.524" style="fill:#dfaf0f;"/>
            <path id="Water-fill" serif:id="Water fill" d="M505.924,275.243C506.649,279.955 506.316,284.427 506.025,289.229C505.623,295.85 500.776,308.778 493.745,313.995C495.131,307.986 495.159,298.982 490.157,291.01L505.924,275.243ZM646.393,350.429C674.391,349.961 689.78,334.065 698.69,316.349C699.383,321.726 699.667,325.141 699.841,329.18C700.256,338.823 700.048,342.058 700.068,350.175L700.069,350.741C700.031,397.856 695.648,439.948 678.829,481.003C654.074,541.429 611.314,596.204 559.138,634.546C501.134,677.171 427.145,701.384 350.034,701.384C273.974,701.384 201.744,678.387 143.456,636.557C100.695,605.869 62.951,565.267 37.573,519.721C9.511,469.357 -0.85,412.537 -0.92,350.86L-0.919,349.9L-0.915,349.074C31.788,340.972 34.703,307.389 51.315,280.542C58.814,268.423 70.029,251.025 94.438,244.646C135.61,233.886 156.538,245.664 166.558,262.835C172.39,272.829 171.723,280.482 171.192,289.229C170.79,295.85 165.943,308.778 158.913,313.995C160.89,305.422 160.104,290.752 145.885,281.68C133.027,273.476 114.154,277.338 106.911,286.112C91.036,305.341 93.052,343.078 136.992,349.784C138.194,349.968 139.459,350.126 140.775,350.262L154.667,350.258L160.228,350.257C198.902,345.058 201.115,309.012 218.731,280.542C226.23,268.423 237.445,251.025 261.854,244.646C295.303,235.904 315.389,242.038 327.123,253.855C318.386,255.803 310.718,259.406 305.179,264.945L292.726,277.398C285.095,278.273 278.119,281.52 274.327,286.112C270.165,291.154 267.233,297.468 265.964,304.161L106.862,463.263C90.718,479.407 97.562,509.769 105.534,531.548C114.48,555.989 153.639,595.88 180.052,606.066C201.483,614.332 230.533,619.223 246.677,603.079L444.995,404.761C457.972,391.784 462.166,367.441 456.625,345.647C461.001,347.486 466.051,348.903 471.824,349.784C473.402,350.025 475.09,350.222 476.857,350.383L493.984,350.393C533.695,345.721 535.785,309.274 553.564,280.542C561.063,268.423 572.278,251.025 596.687,244.646C637.859,233.886 658.786,245.664 668.807,262.835C674.639,272.829 673.972,280.482 673.441,289.229C673.039,295.85 668.192,308.778 661.161,313.995C663.138,305.422 662.353,290.752 648.134,281.68C635.275,273.476 616.403,277.338 609.16,286.112C593.285,305.341 595.301,343.078 639.24,349.784C641.038,350.058 642.978,350.276 645.015,350.448L646.393,350.429Z" style="fill:#151212;"/>
            <path id="Water-fill1" serif:id="Water fill" d="M645.015,350.448C665.589,350.448 684.386,350.442 700.988,350.429" style="fill:#151212;"/>
            <g transform="matrix(1.38725,0,0,1.38725,-1952.15,-11399.3)">
                <g transform="matrix(0.999992,-0.00391835,0.00391835,0.999992,-34.0642,6.44554)">
                    <g transform="matrix(93.3602,0,0,93.3602,1627.92,8696.68)">
                        <path d="M0.625,-0L0.475,-0L0.205,-0.461L0.205,-0L0.065,-0L0.065,-0.7L0.215,-0.7L0.485,-0.239L0.485,-0.7L0.625,-0.7L0.625,-0Z" style="fill:#dfaf0f;fill-rule:nonzero;"/>
                    </g>
                </g>
                <g transform="matrix(0.917458,-0.397832,0.397832,0.917458,-3315.99,1401.28)">
                    <g transform="matrix(93.3602,0,0,93.3602,1718.92,8691.79)">
                        <path d="M0.751,-0.347C0.751,-0.314 0.747,-0.282 0.738,-0.251C0.729,-0.22 0.717,-0.192 0.702,-0.165C0.686,-0.138 0.667,-0.113 0.645,-0.091C0.623,-0.069 0.598,-0.05 0.572,-0.034C0.545,-0.019 0.516,-0.006 0.485,0.002C0.454,0.011 0.422,0.015 0.389,0.015C0.356,0.015 0.324,0.011 0.293,0.002C0.262,-0.006 0.234,-0.019 0.207,-0.034C0.18,-0.05 0.155,-0.069 0.133,-0.091C0.111,-0.113 0.092,-0.138 0.076,-0.165C0.061,-0.192 0.048,-0.22 0.04,-0.251C0.031,-0.282 0.027,-0.314 0.027,-0.347C0.027,-0.38 0.031,-0.412 0.04,-0.443C0.048,-0.474 0.061,-0.503 0.076,-0.53C0.092,-0.556 0.111,-0.581 0.133,-0.603C0.155,-0.625 0.18,-0.644 0.207,-0.66C0.234,-0.675 0.262,-0.687 0.293,-0.696C0.324,-0.705 0.356,-0.709 0.389,-0.709C0.422,-0.709 0.454,-0.705 0.485,-0.696C0.516,-0.687 0.545,-0.675 0.572,-0.66C0.598,-0.644 0.623,-0.625 0.645,-0.603C0.667,-0.581 0.686,-0.556 0.702,-0.53C0.717,-0.503 0.729,-0.474 0.738,-0.443C0.747,-0.412 0.751,-0.38 0.751,-0.347ZM0.612,-0.347C0.612,-0.378 0.606,-0.407 0.594,-0.434C0.583,-0.461 0.567,-0.485 0.547,-0.505C0.527,-0.525 0.503,-0.541 0.476,-0.552C0.449,-0.564 0.42,-0.57 0.389,-0.57C0.358,-0.57 0.329,-0.564 0.302,-0.552C0.275,-0.541 0.252,-0.525 0.231,-0.505C0.211,-0.485 0.195,-0.461 0.184,-0.434C0.172,-0.407 0.166,-0.378 0.166,-0.347C0.166,-0.317 0.172,-0.288 0.184,-0.261C0.195,-0.234 0.211,-0.211 0.231,-0.19C0.252,-0.17 0.275,-0.154 0.302,-0.143C0.329,-0.131 0.358,-0.125 0.389,-0.125C0.42,-0.125 0.449,-0.131 0.476,-0.143C0.503,-0.154 0.527,-0.17 0.547,-0.19C0.567,-0.211 0.583,-0.234 0.594,-0.261C0.606,-0.288 0.612,-0.317 0.612,-0.347Z" style="fill:#dfaf0f;fill-rule:nonzero;"/>
                    </g>
                </g>
                <g transform="matrix(0.665838,-0.746096,0.746096,0.665838,-5847.69,4238.39)">
                    <g transform="matrix(93.3602,0,0,93.3602,1807.76,8647.37)">
                        <path d="M0.76,-0.2C0.76,-0.171 0.754,-0.144 0.743,-0.118C0.733,-0.093 0.718,-0.071 0.698,-0.052C0.679,-0.032 0.657,-0.017 0.632,-0.007C0.606,0.004 0.579,0.01 0.55,0.01C0.524,0.01 0.499,0.005 0.475,-0.004C0.451,-0.013 0.429,-0.026 0.41,-0.044C0.391,-0.026 0.369,-0.013 0.345,-0.004C0.321,0.005 0.296,0.01 0.27,0.01C0.241,0.01 0.214,0.004 0.188,-0.007C0.163,-0.017 0.14,-0.032 0.121,-0.052C0.102,-0.071 0.087,-0.093 0.076,-0.118C0.066,-0.144 0.06,-0.171 0.06,-0.2L0.06,-0.7L0.2,-0.7L0.2,-0.2C0.2,-0.19 0.202,-0.181 0.206,-0.173C0.209,-0.164 0.214,-0.156 0.22,-0.15C0.227,-0.144 0.234,-0.139 0.243,-0.135C0.251,-0.132 0.26,-0.13 0.27,-0.13C0.28,-0.13 0.289,-0.132 0.297,-0.135C0.306,-0.139 0.313,-0.144 0.32,-0.15C0.326,-0.156 0.331,-0.164 0.334,-0.173C0.338,-0.181 0.34,-0.19 0.34,-0.2L0.34,-0.7L0.48,-0.7L0.48,-0.2C0.48,-0.19 0.482,-0.181 0.485,-0.173C0.489,-0.164 0.494,-0.156 0.5,-0.15C0.507,-0.144 0.514,-0.139 0.522,-0.135C0.531,-0.132 0.54,-0.13 0.55,-0.13C0.56,-0.13 0.569,-0.132 0.577,-0.135C0.586,-0.139 0.593,-0.144 0.599,-0.15C0.606,-0.156 0.611,-0.164 0.615,-0.173C0.618,-0.181 0.62,-0.19 0.62,-0.2L0.62,-0.7L0.76,-0.7L0.76,-0.2Z" style="fill:#dfaf0f;fill-rule:nonzero;"/>
                    </g>
                </g>
                <g transform="matrix(0.381533,-0.924355,0.924355,0.381533,-6761.58,7025.36)">
                    <g transform="matrix(93.3602,0,0,93.3602,1869.23,8565.58)">
                        <path d="M0.192,-0.173L0.083,-0.173L0.053,-0.7L0.222,-0.7L0.192,-0.173ZM0.221,-0.05C0.221,-0.038 0.219,-0.027 0.215,-0.017C0.21,-0.007 0.204,0.002 0.197,0.01C0.189,0.017 0.181,0.023 0.17,0.028C0.16,0.032 0.15,0.034 0.138,0.034C0.126,0.034 0.116,0.032 0.105,0.028C0.095,0.023 0.087,0.017 0.079,0.01C0.071,0.002 0.065,-0.007 0.061,-0.017C0.056,-0.027 0.054,-0.038 0.054,-0.05C0.054,-0.061 0.056,-0.072 0.061,-0.082C0.065,-0.092 0.071,-0.101 0.079,-0.108C0.087,-0.116 0.095,-0.122 0.105,-0.126C0.116,-0.131 0.126,-0.133 0.138,-0.133C0.15,-0.133 0.16,-0.131 0.17,-0.126C0.181,-0.122 0.189,-0.116 0.197,-0.108C0.204,-0.101 0.21,-0.092 0.215,-0.082C0.219,-0.072 0.221,-0.061 0.221,-0.05Z" style="fill:#dfaf0f;fill-rule:nonzero;"/>
                    </g>
                </g>
            </g>
            <g id="text-path-ellipse" serif:id="text path ellipse" transform="matrix(1,0,0,1,-1309.63,-8120.36)">
                <g transform="matrix(0.653497,-0.756929,0.756929,0.653497,-5803.42,3998.6)">
                    <g transform="matrix(75,0,0,75,1465.73,8338.03)">
                        <path d="M0.205,-0.56L0.205,-0.28L0.345,-0.28C0.364,-0.28 0.382,-0.283 0.399,-0.291C0.416,-0.298 0.431,-0.308 0.444,-0.321C0.457,-0.333 0.467,-0.348 0.474,-0.365C0.481,-0.383 0.485,-0.401 0.485,-0.42C0.485,-0.439 0.481,-0.457 0.474,-0.474C0.467,-0.491 0.457,-0.506 0.444,-0.519C0.431,-0.532 0.416,-0.542 0.399,-0.549C0.382,-0.556 0.364,-0.56 0.345,-0.56L0.205,-0.56ZM0.205,-0L0.065,-0L0.065,-0.7L0.345,-0.7C0.371,-0.7 0.396,-0.697 0.419,-0.69C0.443,-0.684 0.465,-0.674 0.486,-0.662C0.507,-0.65 0.526,-0.635 0.543,-0.618C0.56,-0.601 0.574,-0.582 0.587,-0.561C0.599,-0.54 0.608,-0.518 0.615,-0.494C0.622,-0.47 0.625,-0.446 0.625,-0.42C0.625,-0.396 0.622,-0.372 0.616,-0.35C0.61,-0.327 0.601,-0.305 0.59,-0.285C0.579,-0.264 0.565,-0.245 0.549,-0.228C0.533,-0.211 0.514,-0.196 0.494,-0.183L0.572,-0L0.423,-0L0.362,-0.141L0.205,-0.14L0.205,-0Z" style="fill-rule:nonzero;"/>
                    </g>
                </g>
                <g transform="matrix(0.78921,-0.614124,0.614124,0.78921,-4782.09,2669.59)">
                    <g transform="matrix(75,0,0,75,1497.79,8300.94)">
                        <path d="M0.545,-0L0.065,-0L0.065,-0.7L0.545,-0.7L0.545,-0.56L0.205,-0.56L0.205,-0.42L0.435,-0.42L0.435,-0.28L0.205,-0.28L0.205,-0.14L0.545,-0.14L0.545,-0Z" style="fill-rule:nonzero;"/>
                    </g>
                </g>
                <g transform="matrix(0.888117,-0.459617,0.459617,0.888117,-3631.67,1629.68)">
                    <g transform="matrix(75,0,0,75,1531.56,8274.35)">
                        <path d="M0.024,-0.49C0.024,-0.519 0.029,-0.546 0.041,-0.572C0.052,-0.597 0.067,-0.619 0.086,-0.638C0.105,-0.657 0.127,-0.673 0.152,-0.684C0.178,-0.695 0.205,-0.7 0.234,-0.7L0.555,-0.7L0.555,-0.56L0.234,-0.56C0.224,-0.56 0.215,-0.558 0.207,-0.555C0.198,-0.551 0.191,-0.546 0.184,-0.54C0.178,-0.533 0.173,-0.526 0.169,-0.518C0.166,-0.509 0.164,-0.5 0.164,-0.49C0.164,-0.48 0.166,-0.471 0.169,-0.463C0.173,-0.454 0.178,-0.447 0.184,-0.44C0.191,-0.434 0.198,-0.429 0.207,-0.425C0.215,-0.422 0.224,-0.42 0.234,-0.42L0.374,-0.42C0.403,-0.42 0.43,-0.414 0.456,-0.404C0.481,-0.393 0.504,-0.378 0.523,-0.359C0.542,-0.34 0.557,-0.317 0.568,-0.292C0.579,-0.266 0.584,-0.239 0.584,-0.21C0.584,-0.181 0.579,-0.154 0.568,-0.128C0.557,-0.103 0.542,-0.081 0.523,-0.062C0.504,-0.043 0.481,-0.028 0.456,-0.017C0.43,-0.006 0.403,-0 0.374,-0L0.063,-0L0.063,-0.14L0.374,-0.14C0.384,-0.14 0.393,-0.142 0.401,-0.146C0.41,-0.149 0.417,-0.154 0.424,-0.16C0.43,-0.167 0.435,-0.174 0.438,-0.183C0.442,-0.191 0.444,-0.2 0.444,-0.21C0.444,-0.22 0.442,-0.229 0.438,-0.237C0.435,-0.246 0.43,-0.253 0.424,-0.26C0.417,-0.266 0.41,-0.271 0.401,-0.274C0.393,-0.278 0.384,-0.28 0.374,-0.28L0.234,-0.28C0.205,-0.28 0.178,-0.285 0.152,-0.296C0.127,-0.307 0.105,-0.323 0.086,-0.342C0.067,-0.361 0.052,-0.383 0.041,-0.408C0.029,-0.434 0.024,-0.461 0.024,-0.49Z" style="fill-rule:nonzero;"/>
                    </g>
                </g>
                <g transform="matrix(0.961032,-0.276437,0.276437,0.961032,-2220.23,756.267)">
                    <g transform="matrix(75,0,0,75,1572.35,8253.27)">
                        <path d="M0.545,-0L0.065,-0L0.065,-0.7L0.545,-0.7L0.545,-0.56L0.205,-0.56L0.205,-0.42L0.435,-0.42L0.435,-0.28L0.205,-0.28L0.205,-0.14L0.545,-0.14L0.545,-0Z" style="fill-rule:nonzero;"/>
                    </g>
                </g>
                <g transform="matrix(0.996687,-0.0813338,0.0813338,0.996687,-664.903,158.583)">
                    <g transform="matrix(75,0,0,75,1614.09,8240.74)">
                        <path d="M0.205,-0.56L0.205,-0.28L0.345,-0.28C0.364,-0.28 0.382,-0.283 0.399,-0.291C0.416,-0.298 0.431,-0.308 0.444,-0.321C0.457,-0.333 0.467,-0.348 0.474,-0.365C0.481,-0.383 0.485,-0.401 0.485,-0.42C0.485,-0.439 0.481,-0.457 0.474,-0.474C0.467,-0.491 0.457,-0.506 0.444,-0.519C0.431,-0.532 0.416,-0.542 0.399,-0.549C0.382,-0.556 0.364,-0.56 0.345,-0.56L0.205,-0.56ZM0.205,-0L0.065,-0L0.065,-0.7L0.345,-0.7C0.371,-0.7 0.396,-0.697 0.419,-0.69C0.443,-0.684 0.465,-0.674 0.486,-0.662C0.507,-0.65 0.526,-0.635 0.543,-0.618C0.56,-0.601 0.574,-0.582 0.587,-0.561C0.599,-0.54 0.608,-0.518 0.615,-0.494C0.622,-0.47 0.625,-0.446 0.625,-0.42C0.625,-0.396 0.622,-0.372 0.616,-0.35C0.61,-0.327 0.601,-0.305 0.59,-0.285C0.579,-0.264 0.565,-0.245 0.549,-0.228C0.533,-0.211 0.514,-0.196 0.494,-0.183L0.572,-0L0.423,-0L0.362,-0.141L0.205,-0.14L0.205,-0Z" style="fill-rule:nonzero;"/>
                    </g>
                </g>
                <g transform="matrix(0.994091,0.10855,-0.10855,0.994091,903.925,-131.793)">
                    <g transform="matrix(75,0,0,75,1662.5,8236.79)">
                        <path d="M0.6,-0.7L0.37,-0L0.23,-0L0.001,-0.7L0.16,-0.7L0.3,-0.233L0.44,-0.7L0.6,-0.7Z" style="fill-rule:nonzero;"/>
                    </g>
                </g>
                <g transform="matrix(0.954179,0.299237,-0.299237,0.954179,2544.46,-133.312)">
                    <g transform="matrix(75,0,0,75,1707.53,8241.69)">
                        <path d="M0.545,-0L0.065,-0L0.065,-0.7L0.545,-0.7L0.545,-0.56L0.205,-0.56L0.205,-0.42L0.435,-0.42L0.435,-0.28L0.205,-0.28L0.205,-0.14L0.545,-0.14L0.545,-0Z" style="fill-rule:nonzero;"/>
                    </g>
                </g>
            </g>
            <g id="Bottle-45" serif:id="Bottle 45">
                <g id="Bottle">
                    <path id="Bottle-Outline" serif:id="Bottle Outline" d="M450.552,330.72L565.22,216.052C573.321,207.95 573.886,205.302 564.205,195.621C539.384,193.607 519.299,175.829 515.077,147.69C505.396,138.009 503.158,137.787 495.057,145.889L381.481,259.464C355.539,249.683 321.399,249.384 305.297,265.486L107.5,463.283C91.398,479.385 98.224,509.667 106.175,531.389C115.098,555.766 154.155,595.552 180.498,605.712C201.873,613.955 230.847,618.834 246.949,602.732L444.746,404.934C460.848,388.833 463.392,355.184 450.552,330.72Z" style="fill:none;stroke:#151212;stroke-width:16.67px;"/>
                    <path id="Paper-Fill" serif:id="Paper Fill" d="M394.482,415.529C336.197,405.417 309.995,384.119 294.214,316.491L133.696,479.123C133.828,511.873 143.746,567.466 228.284,583.601L394.482,415.529Z" style="fill:#151212;stroke:#de2726;stroke-width:8.33px;stroke-linecap:butt;"/>
                    <path id="Paper-Outline" serif:id="Paper Outline" d="M404.595,405.69L234.295,577.59C225.811,586.074 213.187,581.287 196.748,575.289C183.609,570.495 169.976,561.963 159.122,551.109C134.689,526.675 129.984,497.676 131.26,477.814L298.981,311.201C294.833,325.819 301.732,360.556 326.379,383.853C351.487,407.585 389.329,420.956 404.595,405.69C419.861,390.424 390.973,353.088 376.817,338.932C362.662,324.776 340.049,308.703 328.049,320.703C316.05,332.702 333.789,358.438 342.38,367.029C349.237,373.886 372.522,391.675 379.931,382.786C384.689,377.079 358.223,347.54 349.77,342.424" style="fill:none;stroke:#151212;stroke-width:16.67px;"/>
                    <path id="Cork-Top" serif:id="Cork Top" d="M525.858,138.146C525.738,154.073 550.263,184.717 570.872,184.83C571.544,184.899 572.227,184.87 572.896,184.74L573.137,184.716L573.264,184.659C574.187,184.427 575.077,184 575.87,183.37L591.508,170.957C593.226,169.593 594.194,167.494 594.117,165.302C593.596,150.619 589.149,138.87 580.997,130.332C572.92,121.872 561.062,116.436 545.026,114.926C542.644,114.701 540.315,115.725 538.871,117.633L527.195,133.052C526.049,134.566 525.622,136.401 525.858,138.146Z" style="fill:#151212;"/>
                    <path id="Cork-Btm" serif:id="Cork Btm" d="M535.921,201.164C522.314,195.806 513.783,184.405 508.84,175.398C508.428,174.065 507.61,172.845 506.414,171.939C503.374,169.638 499.038,170.237 496.736,173.276L488.114,184.663C487.073,186.037 486.584,187.751 486.742,189.467C487.548,198.218 492.565,206.606 499.421,212.87C506.185,219.051 514.656,223.074 521.957,223.732C523.723,223.892 525.483,223.365 526.873,222.263L538.283,213.206C541.269,210.836 541.769,206.487 539.398,203.501C538.474,202.336 537.249,201.549 535.921,201.164Z" style="fill:#151212;"/>
                </g>
            </g>
        </g>
    </g>
</svg>
