<?xml version="1.0" encoding="UTF-8" standalone="no"?>
<!DOCTYPE svg PUBLIC "-//W3C//DTD SVG 1.1//EN" "http://www.w3.org/Graphics/SVG/1.1/DTD/svg11.dtd">
<svg width="100%" height="100%" viewBox="0 0 701 702" version="1.1" xmlns="http://www.w3.org/2000/svg" xmlns:xlink="http://www.w3.org/1999/xlink" xml:space="preserve" xmlns:serif="http://www.serif.com/" style="fill-rule:evenodd;clip-rule:evenodd;stroke-linecap:round;stroke-linejoin:round;stroke-miterlimit:1.5;">
    <g id="Decorative-Elements" serif:id="Decorative Elements">
    </g>
    <g id="Palette">
    </g>
    <g id="Diver-down-flag" serif:id="Diver down flag">
    </g>
    <g id="g186">
    </g>
    <g id="Icons">
    </g>
    <rect id="Message-in-Bottle-Simplified" serif:id="Message in Bottle Simplified" x="0" y="0" width="700.068" height="701.384" style="fill:none;"/>
    <clipPath id="_clip1">
        <rect x="0" y="0" width="700.068" height="701.384"/>
    </clipPath>
    <g clip-path="url(#_clip1)">
        <g id="Content">
            <ellipse cx="349.561" cy="346.84" rx="349.561" ry="345.524" style="fill:#dfaf0f;"/>
            <path id="Water-fill" serif:id="Water fill" d="M505.924,275.243C506.649,279.955 506.316,284.427 506.025,289.229C505.623,295.85 500.776,308.778 493.745,313.995C495.131,307.986 495.159,298.982 490.157,291.01L505.924,275.243ZM646.393,350.429C674.391,349.961 689.78,334.065 698.69,316.349C699.383,321.726 699.667,325.141 699.841,329.18C700.256,338.823 700.048,342.058 700.068,350.175L700.069,350.741C700.031,397.856 695.648,439.948 678.829,481.003C654.074,541.429 611.314,596.204 559.138,634.546C501.134,677.171 427.145,701.384 350.034,701.384C273.974,701.384 201.744,678.387 143.456,636.557C100.695,605.869 62.951,565.267 37.573,519.721C9.511,469.357 -0.85,412.537 -0.92,350.86L-0.919,349.9L-0.915,349.074C31.788,340.972 34.703,307.389 51.315,280.542C58.814,268.423 70.029,251.025 94.438,244.646C135.61,233.886 156.538,245.664 166.558,262.835C172.39,272.829 171.723,280.482 171.192,289.229C170.79,295.85 165.943,308.778 158.913,313.995C160.89,305.422 160.104,290.752 145.885,281.68C133.027,273.476 114.154,277.338 106.911,286.112C91.036,305.341 93.052,343.078 136.992,349.784C138.194,349.968 139.459,350.126 140.775,350.262L154.667,350.258L160.228,350.257C198.902,345.058 201.115,309.012 218.731,280.542C226.23,268.423 237.445,251.025 261.854,244.646C295.303,235.904 315.389,242.038 327.123,253.855C318.386,255.803 310.718,259.406 305.179,264.945L292.726,277.398C285.095,278.273 278.119,281.52 274.327,286.112C270.165,291.154 267.233,297.468 265.964,304.161L106.862,463.263C90.718,479.407 97.562,509.769 105.534,531.548C114.48,555.989 153.639,595.88 180.052,606.066C201.483,614.332 230.533,619.223 246.677,603.079L444.995,404.761C457.972,391.784 462.166,367.441 456.625,345.647C461.001,347.486 466.051,348.903 471.824,349.784C473.402,350.025 475.09,350.222 476.857,350.383L493.984,350.393C533.695,345.721 535.785,309.274 553.564,280.542C561.063,268.423 572.278,251.025 596.687,244.646C637.859,233.886 658.786,245.664 668.807,262.835C674.639,272.829 673.972,280.482 673.441,289.229C673.039,295.85 668.192,308.778 661.161,313.995C663.138,305.422 662.353,290.752 648.134,281.68C635.275,273.476 616.403,277.338 609.16,286.112C593.285,305.341 595.301,343.078 639.24,349.784C641.038,350.058 642.978,350.276 645.015,350.448L646.393,350.429Z" style="fill:#151212;"/>
            <path id="Water-fill1" serif:id="Water fill" d="M645.015,350.448C665.589,350.448 684.386,350.442 700.988,350.429" style="fill:#151212;"/>
            <g transform="matrix(1.38725,0,0,1.38725,-1952.15,-11399.3)">
                <g transform="matrix(93.3595,-0.365818,0.365818,93.3595,1627.92,8696.68)">
                    <path d="M0.625,-0L0.475,-0L0.205,-0.461L0.205,-0L0.065,-0L0.065,-0.7L0.215,-0.7L0.485,-0.239L0.485,-0.7L0.625,-0.7L0.625,-0Z" style="fill:#dfaf0f;fill-rule:nonzero;"/>
                </g>
                <g transform="matrix(85.6541,-37.1417,37.1417,85.6541,1718.92,8691.79)">
                    <path d="M0.751,-0.347C0.751,-0.314 0.747,-0.282 0.738,-0.251C0.729,-0.22 0.717,-0.192 0.702,-0.165C0.686,-0.138 0.667,-0.113 0.645,-0.091C0.623,-0.069 0.598,-0.05 0.572,-0.034C0.545,-0.019 0.516,-0.006 0.485,0.002C0.454,0.011 0.422,0.015 0.389,0.015C0.356,0.015 0.324,0.011 0.293,0.002C0.262,-0.006 0.234,-0.019 0.207,-0.034C0.18,-0.05 0.155,-0.069 0.133,-0.091C0.111,-0.113 0.092,-0.138 0.076,-0.165C0.061,-0.192 0.048,-0.22 0.04,-0.251C0.031,-0.282 0.027,-0.314 0.027,-0.347C0.027,-0.38 0.031,-0.412 0.04,-0.443C0.048,-0.474 0.061,-0.503 0.076,-0.53C0.092,-0.556 0.111,-0.581 0.133,-0.603C0.155,-0.625 0.18,-0.644 0.207,-0.66C0.234,-0.675 0.262,-0.687 0.293,-0.696C0.324,-0.705 0.356,-0.709 0.389,-0.709C0.422,-0.709 0.454,-0.705 0.485,-0.696C0.516,-0.687 0.545,-0.675 0.572,-0.66C0.598,-0.644 0.623,-0.625 0.645,-0.603C0.667,-0.581 0.686,-0.556 0.702,-0.53C0.717,-0.503 0.729,-0.474 0.738,-0.443C0.747,-0.412 0.751,-0.38 0.751,-0.347ZM0.612,-0.347C0.612,-0.378 0.606,-0.407 0.594,-0.434C0.583,-0.461 0.567,-0.485 0.547,-0.505C0.527,-0.525 0.503,-0.541 0.476,-0.552C0.449,-0.564 0.42,-0.57 0.389,-0.57C0.358,-0.57 0.329,-0.564 0.302,-0.552C0.275,-0.541 0.252,-0.525 0.231,-0.505C0.211,-0.485 0.195,-0.461 0.184,-0.434C0.172,-0.407 0.166,-0.378 0.166,-0.347C0.166,-0.317 0.172,-0.288 0.184,-0.261C0.195,-0.234 0.211,-0.211 0.231,-0.19C0.252,-0.17 0.275,-0.154 0.302,-0.143C0.329,-0.131 0.358,-0.125 0.389,-0.125C0.42,-0.125 0.449,-0.131 0.476,-0.143C0.503,-0.154 0.527,-0.17 0.547,-0.19C0.567,-0.211 0.583,-0.234 0.594,-0.261C0.606,-0.288 0.612,-0.317 0.612,-0.347Z" style="fill:#dfaf0f;fill-rule:nonzero;"/>
                </g>
                <g transform="matrix(62.1627,-69.6557,69.6557,62.1627,1807.76,8647.37)">
                    <path d="M0.76,-0.2C0.76,-0.171 0.754,-0.144 0.743,-0.118C0.733,-0.093 0.718,-0.071 0.698,-0.052C0.679,-0.032 0.657,-0.017 0.632,-0.007C0.606,0.004 0.579,0.01 0.55,0.01C0.524,0.01 0.499,0.005 0.475,-0.004C0.451,-0.013 0.429,-0.026 0.41,-0.044C0.391,-0.026 0.369,-0.013 0.345,-0.004C0.321,0.005 0.296,0.01 0.27,0.01C0.241,0.01 0.214,0.004 0.188,-0.007C0.163,-0.017 0.14,-0.032 0.121,-0.052C0.102,-0.071 0.087,-0.093 0.076,-0.118C0.066,-0.144 0.06,-0.171 0.06,-0.2L0.06,-0.7L0.2,-0.7L0.2,-0.2C0.2,-0.19 0.202,-0.181 0.206,-0.173C0.209,-0.164 0.214,-0.156 0.22,-0.15C0.227,-0.144 0.234,-0.139 0.243,-0.135C0.251,-0.132 0.26,-0.13 0.27,-0.13C0.28,-0.13 0.289,-0.132 0.297,-0.135C0.306,-0.139 0.313,-0.144 0.32,-0.15C0.326,-0.156 0.331,-0.164 0.334,-0.173C0.338,-0.181 0.34,-0.19 0.34,-0.2L0.34,-0.7L0.48,-0.7L0.48,-0.2C0.48,-0.19 0.482,-0.181 0.485,-0.173C0.489,-0.164 0.494,-0.156 0.5,-0.15C0.507,-0.144 0.514,-0.139 0.522,-0.135C0.531,-0.132 0.54,-0.13 0.55,-0.13C0.56,-0.13 0.569,-0.132 0.577,-0.135C0.586,-0.139 0.593,-0.144 0.599,-0.15C0.606,-0.156 0.611,-0.164 0.615,-0.173C0.618,-0.181 0.62,-0.19 0.62,-0.2L0.62,-0.7L0.76,-0.7L0.76,-0.2Z" style="fill:#dfaf0f;fill-rule:nonzero;"/>
                </g>
            </g>
            <g id="text-path-ellipse" serif:id="text path ellipse" transform="matrix(1,0,0,1,-1309.63,-8120.36)">
                <g transform="matrix(49.0123,-56.7697,56.7697,49.0123,1465.73,8338.03)">
                    <path d="M0.205,-0.56L0.205,-0.28L0.345,-0.28C0.364,-0.28 0.382,-0.283 0.399,-0.291C0.416,-0.298 0.431,-0.308 0.444,-0.321C0.457,-0.333 0.467,-0.348 0.474,-0.365C0.481,-0.383 0.485,-0.401 0.485,-0.42C0.485,-0.439 0.481,-0.457 0.474,-0.474C0.467,-0.491 0.457,-0.506 0.444,-0.519C0.431,-0.532 0.416,-0.542 0.399,-0.549C0.382,-0.556 0.364,-0.56 0.345,-0.56L0.205,-0.56ZM0.205,-0L0.065,-0L0.065,-0.7L0.345,-0.7C0.371,-0.7 0.396,-0.697 0.419,-0.69C0.443,-0.684 0.465,-0.674 0.486,-0.662C0.507,-0.65 0.526,-0.635 0.543,-0.618C0.56,-0.601 0.574,-0.582 0.587,-0.561C0.599,-0.54 0.608,-0.518 0.615,-0.494C0.622,-0.47 0.625,-0.446 0.625,-0.42C0.625,-0.396 0.622,-0.372 0.616,-0.35C0.61,-0.327 0.601,-0.305 0.59,-0.285C0.579,-0.264 0.565,-0.245 0.549,-0.228C0.533,-0.211 0.514,-0.196 0.494,-0.183L0.572,-0L0.423,-0L0.362,-0.141L0.205,-0.14L0.205,-0Z" style="fill-rule:nonzero;"/>
                </g>
                <g transform="matrix(59.1907,-46.0593,46.0593,59.1907,1497.79,8300.94)">
                    <path d="M0.545,-0L0.065,-0L0.065,-0.7L0.545,-0.7L0.545,-0.56L0.205,-0.56L0.205,-0.42L0.435,-0.42L0.435,-0.28L0.205,-0.28L0.205,-0.14L0.545,-0.14L0.545,-0Z" style="fill-rule:nonzero;"/>
                </g>
                <g transform="matrix(66.6088,-34.4712,34.4712,66.6088,1531.56,8274.35)">
                    <path d="M0.024,-0.49C0.024,-0.519 0.029,-0.546 0.041,-0.572C0.052,-0.597 0.067,-0.619 0.086,-0.638C0.105,-0.657 0.127,-0.673 0.152,-0.684C0.178,-0.695 0.205,-0.7 0.234,-0.7L0.555,-0.7L0.555,-0.56L0.234,-0.56C0.224,-0.56 0.215,-0.558 0.207,-0.555C0.198,-0.551 0.191,-0.546 0.184,-0.54C0.178,-0.533 0.173,-0.526 0.169,-0.518C0.166,-0.509 0.164,-0.5 0.164,-0.49C0.164,-0.48 0.166,-0.471 0.169,-0.463C0.173,-0.454 0.178,-0.447 0.184,-0.44C0.191,-0.434 0.198,-0.429 0.207,-0.425C0.215,-0.422 0.224,-0.42 0.234,-0.42L0.374,-0.42C0.403,-0.42 0.43,-0.414 0.456,-0.404C0.481,-0.393 0.504,-0.378 0.523,-0.359C0.542,-0.34 0.557,-0.317 0.568,-0.292C0.579,-0.266 0.584,-0.239 0.584,-0.21C0.584,-0.181 0.579,-0.154 0.568,-0.128C0.557,-0.103 0.542,-0.081 0.523,-0.062C0.504,-0.043 0.481,-0.028 0.456,-0.017C0.43,-0.006 0.403,-0 0.374,-0L0.063,-0L0.063,-0.14L0.374,-0.14C0.384,-0.14 0.393,-0.142 0.401,-0.146C0.41,-0.149 0.417,-0.154 0.424,-0.16C0.43,-0.167 0.435,-0.174 0.438,-0.183C0.442,-0.191 0.444,-0.2 0.444,-0.21C0.444,-0.22 0.442,-0.229 0.438,-0.237C0.435,-0.246 0.43,-0.253 0.424,-0.26C0.417,-0.266 0.41,-0.271 0.401,-0.274C0.393,-0.278 0.384,-0.28 0.374,-0.28L0.234,-0.28C0.205,-0.28 0.178,-0.285 0.152,-0.296C0.127,-0.307 0.105,-0.323 0.086,-0.342C0.067,-0.361 0.052,-0.383 0.041,-0.408C0.029,-0.434 0.024,-0.461 0.024,-0.49Z" style="fill-rule:nonzero;"/>
                </g>
                <g transform="matrix(72.0774,-20.7327,20.7327,72.0774,1572.35,8253.27)">
                    <path d="M0.545,-0L0.065,-0L0.065,-0.7L0.545,-0.7L0.545,-0.56L0.205,-0.56L0.205,-0.42L0.435,-0.42L0.435,-0.28L0.205,-0.28L0.205,-0.14L0.545,-0.14L0.545,-0Z" style="fill-rule:nonzero;"/>
                </g>
                <g transform="matrix(74.7515,-6.10003,6.10003,74.7515,1614.09,8240.74)">
                    <path d="M0.205,-0.56L0.205,-0.28L0.345,-0.28C0.364,-0.28 0.382,-0.283 0.399,-0.291C0.416,-0.298 0.431,-0.308 0.444,-0.321C0.457,-0.333 0.467,-0.348 0.474,-0.365C0.481,-0.383 0.485,-0.401 0.485,-0.42C0.485,-0.439 0.481,-0.457 0.474,-0.474C0.467,-0.491 0.457,-0.506 0.444,-0.519C0.431,-0.532 0.416,-0.542 0.399,-0.549C0.382,-0.556 0.364,-0.56 0.345,-0.56L0.205,-0.56ZM0.205,-0L0.065,-0L0.065,-0.7L0.345,-0.7C0.371,-0.7 0.396,-0.697 0.419,-0.69C0.443,-0.684 0.465,-0.674 0.486,-0.662C0.507,-0.65 0.526,-0.635 0.543,-0.618C0.56,-0.601 0.574,-0.582 0.587,-0.561C0.599,-0.54 0.608,-0.518 0.615,-0.494C0.622,-0.47 0.625,-0.446 0.625,-0.42C0.625,-0.396 0.622,-0.372 0.616,-0.35C0.61,-0.327 0.601,-0.305 0.59,-0.285C0.579,-0.264 0.565,-0.245 0.549,-0.228C0.533,-0.211 0.514,-0.196 0.494,-0.183L0.572,-0L0.423,-0L0.362,-0.141L0.205,-0.14L0.205,-0Z" style="fill-rule:nonzero;"/>
                </g>
                <g transform="matrix(74.5568,8.14122,-8.14122,74.5568,1662.5,8236.79)">
                    <path d="M0.6,-0.7L0.37,-0L0.23,-0L0.001,-0.7L0.16,-0.7L0.3,-0.233L0.44,-0.7L0.6,-0.7Z" style="fill-rule:nonzero;"/>
                </g>
                <g transform="matrix(71.5634,22.4428,-22.4428,71.5634,1707.53,8241.69)">
                    <path d="M0.545,-0L0.065,-0L0.065,-0.7L0.545,-0.7L0.545,-0.56L0.205,-0.56L0.205,-0.42L0.435,-0.42L0.435,-0.28L0.205,-0.28L0.205,-0.14L0.545,-0.14L0.545,-0Z" style="fill-rule:nonzero;"/>
                </g>
            </g>
            <g id="Bottle-45" serif:id="Bottle 45">
                <g id="Bottle">
                    <path id="Bottle-Outline" serif:id="Bottle Outline" d="M450.552,330.72L565.22,216.052C573.321,207.95 573.886,205.302 564.205,195.621C539.384,193.607 519.299,175.829 515.077,147.69C505.396,138.009 503.158,137.787 495.057,145.889L381.481,259.464C355.539,249.683 321.399,249.384 305.297,265.486L107.5,463.283C91.398,479.385 98.224,509.667 106.175,531.389C115.098,555.766 154.155,595.552 180.498,605.712C201.873,613.955 230.847,618.834 246.949,602.732L444.746,404.934C460.848,388.833 463.392,355.184 450.552,330.72Z" style="fill:none;stroke:#151212;stroke-width:16.67px;"/>
                    <path id="Paper-Fill" serif:id="Paper Fill" d="M394.482,415.529C336.197,405.417 309.995,384.119 294.214,316.491L133.696,479.123C133.828,511.873 143.746,567.466 228.284,583.601L394.482,415.529Z" style="fill:#151212;stroke:#de2726;stroke-width:8.33px;stroke-linecap:butt;"/>
                    <path id="Paper-Outline" serif:id="Paper Outline" d="M392.431,402.649C392.431,402.649 393.522,401.513 393.537,401.498C396.628,398.308 401.706,398.153 404.985,401.149C405.045,401.204 405.105,401.26 405.164,401.317C408.353,404.407 408.508,409.485 405.513,412.764C405.458,412.824 405.402,412.884 405.345,412.943L239.469,582.605C239.443,582.632 239.417,582.658 239.39,582.685C234.97,587.069 229.823,589.061 223.9,589.303C215.845,589.632 205.916,586.184 194.334,581.905C187.165,579.256 179.857,575.574 172.886,571.04C166.244,566.719 159.902,561.634 154.273,555.958C142.849,544.441 135.492,532.001 130.947,519.87C125.13,504.344 123.914,489.325 124.722,477.394C124.825,475.797 125.508,474.293 126.643,473.166L294.873,307.067C296.753,305.199 299.657,304.835 301.94,306.181C304.223,307.526 305.31,310.243 304.587,312.792C302.406,320.443 303.784,334.173 309.517,348.464C313.844,359.248 320.764,370.284 330.579,379.409C343.05,390.646 357.554,399.788 370.532,403.865C379.394,406.649 387.409,407.302 392.431,402.649ZM375.306,420.468C375.149,420.436 374.992,420.403 374.835,420.37C358.376,416.875 338.41,404.421 322.178,388.297C311.188,377.735 303.608,365.031 298.774,352.73C295.056,343.271 293.009,334.023 292.345,326.074C292.345,326.074 137.686,480.654 137.686,480.655C137.365,490.606 138.698,502.693 143.464,515.127C147.486,525.621 153.98,536.349 163.972,546.26C168.953,551.2 174.558,555.613 180.419,559.357C186.519,563.255 192.902,566.418 199.162,568.673C207.253,571.587 214.324,574.278 220.375,574.909C223.804,575.267 226.784,574.891 229.152,572.543L375.306,420.468Z" style="fill:#151212;"/>
                    <path d="M341.927,336.918C341.903,337.4 342.102,337.944 342.329,338.531C342.991,340.24 344.115,342.086 345.529,344.017C352.249,353.196 364.384,363.852 368.895,370.546L364.749,373.658C358.649,366.325 341.573,354.638 335.216,345.019C331.559,339.485 331.36,334.279 334.13,330.202C335.677,327.924 338.319,326.637 341.869,326.499C344.936,326.38 349.071,327.451 353.593,329.633C362.582,333.971 373.225,343.069 379.36,353.837C387.4,368.441 389.459,382.002 386.85,389.416C385.583,393.017 383.343,395.622 380.443,397.285C377.19,399.15 372.782,399.846 367.146,398.272C355.02,394.869 334.004,377.453 320.773,359.016C314.037,349.63 309.385,339.966 308.281,331.882C307.427,325.625 308.577,320.096 311.672,315.615C319.044,304.963 331.741,302.021 345.653,304.951C360.487,308.075 376.65,318.059 386.493,329.328C396.388,340.658 404.881,360.998 408.5,380.396C409.702,386.837 410.844,393.184 410.417,399.018C410.369,399.678 410.299,400.313 410.127,400.94C408.222,407.879 405.536,412.782 401.846,416.994L397.036,415.062C397.238,410.493 395.108,406.396 394.023,400.619C393.826,399.573 393.809,398.488 393.74,397.386C393.156,388.106 391.525,377.538 388.375,367.64C384.873,356.636 380.004,346.405 374.362,339.828C367.965,332.37 358.122,325.587 348.263,322C338.864,318.581 329.26,317.364 324.27,324.426C322.271,327.249 323.24,331.178 324.84,335.557C327.391,342.535 332.409,350.222 338.337,357.452C348.963,370.411 362.433,382.114 371.066,384.669C371.715,384.862 372.31,385.001 372.862,385.04C373.146,385.06 373.404,385.3 373.536,385.111C374.493,383.735 374.444,381.545 374.169,378.901C373.616,373.58 371.476,366.982 367.868,359.954C365.465,355.152 361.944,350.729 358.132,347.046C353.436,342.51 348.406,338.979 344.321,337.529C343.542,337.252 342.5,337.03 341.927,336.918Z"/>
                    <path id="Cork-Top" serif:id="Cork Top" d="M525.858,138.146C525.738,154.073 550.263,184.717 570.872,184.83C571.544,184.899 572.227,184.87 572.896,184.74L573.137,184.716L573.264,184.659C574.187,184.427 575.077,184 575.87,183.37L591.508,170.957C593.226,169.593 594.194,167.494 594.117,165.302C593.596,150.619 589.149,138.87 580.997,130.332C572.92,121.872 561.062,116.436 545.026,114.926C542.644,114.701 540.315,115.725 538.871,117.633L527.195,133.052C526.049,134.566 525.622,136.401 525.858,138.146Z" style="fill:#151212;"/>
                    <path id="Cork-Btm" serif:id="Cork Btm" d="M535.921,201.164C522.314,195.806 513.783,184.405 508.84,175.398C508.428,174.065 507.61,172.845 506.414,171.939C503.374,169.638 499.038,170.237 496.736,173.276L488.114,184.663C487.073,186.037 486.584,187.751 486.742,189.467C487.548,198.218 492.565,206.606 499.421,212.87C506.185,219.051 514.656,223.074 521.957,223.732C523.723,223.892 525.483,223.365 526.873,222.263L538.283,213.206C541.269,210.836 541.769,206.487 539.398,203.501C538.474,202.336 537.249,201.549 535.921,201.164Z" style="fill:#151212;"/>
                </g>
            </g>
        </g>
        <g>
            <path d="M223.029,545.658C223.029,545.658 215.212,554.248 215.212,554.248C201.237,550.181 177.659,531.967 177.659,531.967C177.659,531.967 173.552,535.997 173.552,535.997C173.552,535.997 164.548,524.369 164.548,524.369C164.548,524.369 168.712,520.44 168.712,520.44L167.263,518.066C165.415,514.913 164.283,511.394 163.792,507.779C163.299,504.131 163.393,500.415 164.031,496.791C164.637,493.359 165.711,490.01 167.258,486.885C168.601,484.176 170.366,481.642 172.648,479.64C172.648,479.64 179.084,473.942 179.084,473.942C179.084,473.942 183.641,488.139 183.641,488.138C183.641,488.138 177.254,494.087 177.254,494.087C176.297,494.974 175.572,496.039 175.039,497.227C174.464,498.51 174.116,499.861 173.969,501.259C173.814,502.751 173.89,504.233 174.173,505.706C174.471,507.245 175.015,508.68 175.813,510.03L177.25,512.363C177.25,512.363 187.712,502.43 187.712,502.43C187.712,502.43 196.605,513.653 196.605,513.653C196.605,513.653 186.134,523.724 186.134,523.724C186.134,523.724 203.339,538.138 213.552,542.354C216.644,543.63 226.243,546.585 223.029,545.658Z" style="fill:#dfaf0f;fill-rule:nonzero;"/>
            <path d="M245.216,523.253C245.216,523.253 236.842,531.439 236.842,531.439C218.505,526.14 202.251,514.594 191.736,498.6L193.795,496.64C193.795,496.64 200.536,499.379 200.536,499.379C200.604,496.507 201.198,493.656 202.308,491.006C203.34,488.543 204.822,486.267 206.758,484.418C206.758,484.418 214.266,477.244 214.266,477.244C214.266,477.244 223.498,488.331 223.498,488.331C223.498,488.331 215.867,495.515 215.867,495.515C214.969,496.362 214.307,497.368 213.9,498.534C213.493,499.698 213.352,500.9 213.474,502.128C213.604,503.429 214.02,504.648 214.656,505.787C215.361,507.049 216.308,508.101 217.442,508.993C217.442,508.993 245.216,523.253 245.216,523.253Z" style="fill:#dfaf0f;fill-rule:nonzero;"/>
            <path d="M264.279,488.758C264.748,488.54 265.202,488.283 265.618,487.976C266.001,487.694 266.37,487.394 266.722,487.075C267.519,486.353 268.207,485.521 268.693,484.557C269.14,483.669 269.401,482.735 269.465,481.742C269.531,480.712 269.359,479.709 269.019,478.738C268.636,477.641 268.046,476.622 267.354,475.693C267.354,475.693 283.098,474.999 283.098,474.999C283.903,476.436 284.534,477.969 284.85,479.591C285.137,481.07 285.161,482.537 284.88,484.019C284.592,485.538 283.998,486.944 283.19,488.258C282.268,489.759 281.08,491.1 279.787,492.287C277.216,494.649 274.192,496.482 270.993,497.86C267.414,499.401 263.615,500.419 259.744,500.872C255.656,501.348 251.501,501.168 247.477,500.29C243.293,499.372 239.338,497.595 235.892,495.048C232.556,492.576 229.723,489.436 227.84,485.72C226.183,482.441 225.212,478.835 225.093,475.159C224.984,471.735 225.566,468.307 226.799,465.11C227.976,462.057 229.784,459.266 232.149,456.999C233.506,455.698 235.016,454.62 236.707,453.796C238.377,452.983 240.119,452.445 241.954,452.159C243.894,451.858 245.852,451.853 247.803,452.055C249.948,452.276 252.066,452.758 254.119,453.41C254.119,453.41 264.279,488.758 264.279,488.758ZM244.412,466.624C243.872,466.806 243.346,467.058 242.882,467.39C242.426,467.716 241.994,468.075 241.587,468.459C240.414,469.561 239.552,470.874 239.021,472.395C238.482,473.943 238.338,475.547 238.551,477.171C238.788,478.968 239.45,480.647 240.389,482.189C241.517,484.037 243.067,485.573 244.797,486.856C245.291,487.221 245.804,487.561 246.326,487.885C246.928,488.259 247.55,488.601 248.185,488.915C248.823,489.229 249.474,489.516 250.136,489.773C250.74,490.005 251.366,490.191 252.003,490.304C252.003,490.304 244.412,466.624 244.412,466.624Z" style="fill:#dfaf0f;fill-rule:nonzero;"/>
            <path d="M298.689,457.063C299.147,456.84 299.589,456.577 299.992,456.265C300.364,455.976 300.723,455.669 301.064,455.343C301.844,454.596 302.506,453.744 302.969,452.764C303.401,451.849 303.648,450.892 303.701,449.882C303.757,448.828 303.58,447.804 303.235,446.81C302.848,445.693 302.259,444.656 301.561,443.706C301.561,443.706 316.762,442.843 316.762,442.843C317.536,444.318 318.12,445.874 318.399,447.521C318.656,449.039 318.653,450.54 318.363,452.054C318.066,453.605 317.483,455.052 316.692,456.415C315.803,457.946 314.667,459.33 313.412,460.572C310.983,462.975 308.1,464.887 305.005,466.322C301.585,467.906 297.924,468.946 294.181,469.393C290.166,469.869 286.087,469.635 282.15,468.716C277.918,467.723 273.942,465.841 270.451,463.255C267.013,460.702 264.043,457.504 261.991,453.728C260.215,450.452 259.075,446.835 258.831,443.109C258.61,439.714 259.093,436.296 260.275,433.104C261.404,430.057 263.202,427.289 265.557,425.048C266.927,423.743 268.455,422.669 270.158,421.844C271.856,421.021 273.629,420.471 275.491,420.169C277.465,419.849 279.459,419.822 281.448,420C283.628,420.195 285.781,420.649 287.875,421.279C287.875,421.279 298.689,457.063 298.689,457.063ZM278.362,434.547C277.819,434.731 277.29,434.984 276.825,435.318C276.371,435.645 275.941,436.007 275.536,436.392C274.372,437.5 273.53,438.818 273.034,440.348C272.525,441.918 272.433,443.535 272.697,445.161C272.994,446.989 273.725,448.692 274.714,450.248C275.909,452.126 277.52,453.701 279.297,455.022C279.803,455.397 280.327,455.747 280.86,456.082C281.472,456.466 282.104,456.82 282.749,457.146C283.392,457.47 284.049,457.768 284.717,458.035C285.322,458.276 285.949,458.47 286.588,458.591C286.588,458.591 278.362,434.547 278.362,434.547Z" style="fill:#dfaf0f;fill-rule:nonzero;"/>
            <path d="M323.313,426.084C323.313,426.084 316.62,432.995 316.62,432.995C300.528,424.125 284.257,410.753 275.627,394.218C275.627,394.218 286.659,384.513 286.659,384.513C293.399,401.508 308.476,415.974 323.313,426.084ZM335.764,429.778C336.609,430.133 337.448,430.612 338.098,431.271C338.624,431.803 339.033,432.42 339.217,433.154C339.397,433.871 339.339,434.587 339.127,435.29C338.875,436.129 338.386,436.883 337.816,437.537C337.125,438.329 336.319,438.989 335.417,439.529C334.471,440.094 333.478,440.526 332.418,440.826C331.334,441.131 330.244,441.268 329.118,441.234C327.992,441.199 326.919,440.978 325.879,440.542C324.952,440.151 324.112,439.606 323.438,438.852C322.841,438.184 322.401,437.416 322.188,436.542C321.981,435.696 321.998,434.847 322.216,434.006C322.457,433.082 322.967,432.285 323.621,431.6C324.344,430.844 325.205,430.278 326.161,429.862C327.168,429.424 328.224,429.143 329.313,429.001C330.419,428.855 331.544,428.857 332.652,428.983C333.719,429.102 334.774,429.36 335.764,429.778Z" style="fill:#dfaf0f;fill-rule:nonzero;"/>
        </g>
    </g>
    <g id="Occupancy-Meter-2" serif:id="Occupancy Meter 2">
    </g>
    <g id="Discover-Deals" serif:id="Discover Deals">
    </g>
    <g id="Dollar-stripe" serif:id="Dollar stripe">
    </g>
    <g id="Deals">
    </g>
    <g id="See-Spaces" serif:id="See Spaces">
    </g>
</svg>
