<?xml version="1.0" encoding="UTF-8" standalone="no"?>
<!DOCTYPE svg PUBLIC "-//W3C//DTD SVG 1.1//EN" "http://www.w3.org/Graphics/SVG/1.1/DTD/svg11.dtd">
<svg width="100%" height="100%" viewBox="0 0 701 702" version="1.1" xmlns="http://www.w3.org/2000/svg" xmlns:xlink="http://www.w3.org/1999/xlink" xml:space="preserve" xmlns:serif="http://www.serif.com/" style="fill-rule:evenodd;clip-rule:evenodd;stroke-linecap:round;stroke-linejoin:round;stroke-miterlimit:1.5;">
    <g id="Diver-down-flag" serif:id="Diver down flag">
    </g>
    <g id="g186">
    </g>
    <g id="Filigree">
    </g>
    <rect id="Message-in-Bottle-Simplified" serif:id="Message in Bottle Simplified" x="0" y="-0" width="700.068" height="701.384" style="fill:none;"/>
    <clipPath id="_clip1">
        <rect x="0" y="-0" width="700.068" height="701.384"/>
    </clipPath>
    <g clip-path="url(#_clip1)">
        <g id="Content">
            <ellipse cx="349.561" cy="346.84" rx="349.561" ry="345.524" style="fill:#dfaf0f;"/>
            <path id="Water-fill" serif:id="Water fill" d="M505.924,275.243C506.649,279.955 506.316,284.427 506.025,289.229C505.623,295.85 500.776,308.778 493.745,313.995C495.131,307.986 495.159,298.982 490.157,291.01L505.924,275.243ZM646.393,350.429C674.391,349.961 689.78,334.065 698.69,316.349C699.383,321.726 699.667,325.141 699.841,329.18C700.256,338.823 700.048,342.058 700.068,350.175L700.069,350.741C700.031,397.856 695.648,439.948 678.829,481.003C654.074,541.429 611.314,596.204 559.138,634.546C501.134,677.171 427.145,701.384 350.034,701.384C273.974,701.384 201.744,678.387 143.456,636.557C100.695,605.869 62.951,565.267 37.573,519.721C9.511,469.357 -0.85,412.537 -0.92,350.86L-0.919,349.9L-0.915,349.074C31.788,340.972 34.703,307.389 51.315,280.542C58.814,268.423 70.029,251.025 94.438,244.646C135.61,233.886 156.538,245.664 166.558,262.835C172.39,272.829 171.723,280.482 171.192,289.229C170.79,295.85 165.943,308.778 158.913,313.995C160.89,305.422 160.104,290.752 145.885,281.68C133.027,273.476 114.154,277.338 106.911,286.112C91.036,305.341 93.052,343.078 136.992,349.784C138.194,349.968 139.459,350.126 140.775,350.262L154.667,350.258L160.228,350.257C198.902,345.058 201.115,309.012 218.731,280.542C226.23,268.423 237.445,251.025 261.854,244.646C295.303,235.904 315.389,242.038 327.123,253.855C318.386,255.803 310.718,259.406 305.179,264.945L292.726,277.398C285.095,278.273 278.119,281.52 274.327,286.112C270.165,291.154 267.233,297.468 265.964,304.161L106.862,463.263C90.718,479.407 97.562,509.769 105.534,531.548C114.48,555.989 153.639,595.88 180.052,606.066C201.483,614.332 230.533,619.223 246.677,603.079L444.995,404.761C457.972,391.784 462.166,367.441 456.625,345.647C461.001,347.486 466.051,348.903 471.824,349.784C473.402,350.025 475.09,350.222 476.857,350.383L493.984,350.393C533.695,345.721 535.785,309.274 553.564,280.542C561.063,268.423 572.278,251.025 596.687,244.646C637.859,233.886 658.786,245.664 668.807,262.835C674.639,272.829 673.972,280.482 673.441,289.229C673.039,295.85 668.192,308.778 661.161,313.995C663.138,305.422 662.353,290.752 648.134,281.68C635.275,273.476 616.403,277.338 609.16,286.112C593.285,305.341 595.301,343.078 639.24,349.784C641.038,350.058 642.978,350.276 645.015,350.448L646.393,350.429Z" style="fill:#151212;"/>
            <path id="Water-fill1" serif:id="Water fill" d="M645.015,350.448C665.589,350.448 684.386,350.442 700.988,350.429" style="fill:#151212;"/>
            <g id="Bottle-45" serif:id="Bottle 45">
                <g id="Bottle">
                    <path id="Bottle-Outline" serif:id="Bottle Outline" d="M450.552,330.72L565.22,216.052C573.321,207.95 573.886,205.302 564.205,195.621C539.384,193.607 519.299,175.829 515.077,147.69C505.396,138.009 503.158,137.787 495.057,145.889L381.481,259.464C355.539,249.683 321.399,249.384 305.297,265.486L107.5,463.283C91.398,479.385 98.224,509.667 106.175,531.389C115.098,555.766 154.155,595.552 180.498,605.712C201.873,613.955 230.847,618.834 246.949,602.732L444.746,404.934C460.848,388.833 463.392,355.184 450.552,330.72Z" style="fill:none;stroke:#151212;stroke-width:16.67px;"/>
                    <path id="Paper-Fill" serif:id="Paper Fill" d="M394.482,415.529C336.197,405.417 309.995,384.119 294.214,316.491L133.696,479.123C133.828,511.873 143.746,567.466 228.284,583.601L394.482,415.529Z" style="fill:#151212;stroke:#de2726;stroke-width:8.33px;stroke-linecap:butt;"/>
                    <path id="Paper-Outline" serif:id="Paper Outline" d="M404.595,405.69L234.295,577.59C225.811,586.074 213.187,581.287 196.748,575.289C183.609,570.495 169.976,561.963 159.122,551.109C134.689,526.675 129.984,497.676 131.26,477.814L298.981,311.201C294.833,325.819 301.732,360.556 326.379,383.853C351.487,407.585 389.329,420.956 404.595,405.69C419.861,390.424 390.973,353.088 376.817,338.932C362.662,324.776 340.049,308.703 328.049,320.703C316.05,332.702 333.789,358.438 342.38,367.029C349.237,373.886 372.522,391.675 379.931,382.786C384.689,377.079 358.223,347.54 349.77,342.424" style="fill:none;stroke:#151212;stroke-width:16.67px;"/>
                    <path id="Cork-Top" serif:id="Cork Top" d="M525.858,138.146C525.738,154.073 550.263,184.717 570.872,184.83C571.544,184.899 572.227,184.87 572.896,184.74L573.137,184.716L573.264,184.659C574.187,184.427 575.077,184 575.87,183.37L591.508,170.957C593.226,169.593 594.194,167.494 594.117,165.302C593.596,150.619 589.149,138.87 580.997,130.332C572.92,121.872 561.062,116.436 545.026,114.926C542.644,114.701 540.315,115.725 538.871,117.633L527.195,133.052C526.049,134.566 525.622,136.401 525.858,138.146Z" style="fill:#151212;"/>
                    <path id="Cork-Btm" serif:id="Cork Btm" d="M535.921,201.164C522.314,195.806 513.783,184.405 508.84,175.398C508.428,174.065 507.61,172.845 506.414,171.939C503.374,169.638 499.038,170.237 496.736,173.276L488.114,184.663C487.073,186.037 486.584,187.751 486.742,189.467C487.548,198.218 492.565,206.606 499.421,212.87C506.185,219.051 514.656,223.074 521.957,223.732C523.723,223.892 525.483,223.365 526.873,222.263L538.283,213.206C541.269,210.836 541.769,206.487 539.398,203.501C538.474,202.336 537.249,201.549 535.921,201.164Z" style="fill:#151212;"/>
                </g>
            </g>
        </g>
    </g>
</svg>
