<?xml version="1.0" encoding="UTF-8" standalone="no"?>
<!DOCTYPE svg PUBLIC "-//W3C//DTD SVG 1.1//EN" "http://www.w3.org/Graphics/SVG/1.1/DTD/svg11.dtd">
<svg width="100%" height="100%" viewBox="0 0 2270 1905" version="1.1" xmlns="http://www.w3.org/2000/svg" xmlns:xlink="http://www.w3.org/1999/xlink" xml:space="preserve" xmlns:serif="http://www.serif.com/" style="fill-rule:evenodd;clip-rule:evenodd;stroke-linejoin:round;stroke-miterlimit:1.5;">
    <g transform="matrix(1,0,0,1,-13111.2,-27854.9)">
        <g id="Binoculars">
        </g>
        <g id="Palette">
        </g>
        <g id="Diver-down-flag" serif:id="Diver down flag">
        </g>
        <g id="g186">
        </g>
        <g id="Icons">
        </g>
        <g id="Occupancy-Meter-2" serif:id="Occupancy Meter 2">
        </g>
        <g id="Discover-Deals" serif:id="Discover Deals">
        </g>
        <g id="Dollar-stripe" serif:id="Dollar stripe">
        </g>
        <g id="Deals">
        </g>
        <g id="See-Spaces" serif:id="See Spaces">
        </g>
        <g id="VIP-Party-Popper" serif:id="VIP Party Popper" transform="matrix(0.469833,0,0,0.44866,9967.45,14844.5)">
            <rect x="6691.29" y="28998.2" width="4831.51" height="4245.98" style="fill:none;"/>
            <g transform="matrix(0.894808,-0.782073,0.746829,0.937035,-17048.1,7442.97)">
                <g transform="matrix(6.12323e-17,-1,1,6.12323e-17,-26511.6,34921.5)">
                    <path d="M6266.38,30757.2L5592.09,30757.2L5859.67,31013.3L6266.38,30757.2Z" style="fill:none;stroke:black;stroke-width:67.92px;"/>
                    <path d="M6266.38,30757.2L5592.09,30757.2L5859.67,31013.3L6266.38,30757.2Z" style="fill:rgb(223,175,15);"/>
                </g>
                <g transform="matrix(6.12323e-17,-1,1,6.12323e-17,-26511.6,34921.5)">
                    <path d="M5421.81,29245.5L5647.98,28659.6L5827.72,29125.2L5421.81,29245.5Z" style="fill:none;stroke:black;stroke-width:67.92px;"/>
                    <path d="M5421.81,29245.5L5647.98,28659.6L5827.72,29125.2L5421.81,29245.5Z" style="fill:rgb(223,175,15);"/>
                </g>
                <g transform="matrix(6.12323e-17,-1,1,6.12323e-17,-26511.6,34921.5)">
                    <path d="M6080.81,29780.7L6182.43,30043.9L5113.54,30043.9L5304.37,29549.7L6080.81,29780.7Z" style="fill:none;stroke:black;stroke-width:67.92px;"/>
                    <path d="M6080.81,29780.7L6182.43,30043.9L5113.54,30043.9L5304.37,29549.7L6080.81,29780.7Z" style="fill:rgb(223,175,15);"/>
                </g>
                <g transform="matrix(6.12323e-17,-1,1,6.12323e-17,-26511.6,34921.5)">
                    <path d="M5836.65,31237.6L4651.55,31240.6L4838.19,30757.2L5341.1,30757.2L5836.65,31237.6Z" style="fill:none;stroke:black;stroke-width:67.92px;"/>
                    <path d="M5836.65,31237.6L4651.55,31240.6L4838.19,30757.2L5341.1,30757.2L5836.65,31237.6Z" style="fill:rgb(223,175,15);"/>
                </g>
                <g transform="matrix(6.12323e-17,-1,1,6.12323e-17,-26511.6,34921.5)">
                    <path d="M6491.18,30843.7L6644.42,31240.6L5870.5,31240.6L6491.18,30843.7Z" style="fill:none;stroke:black;stroke-width:67.92px;"/>
                    <path d="M6491.18,30843.7L6644.42,31240.6L5870.5,31240.6L6491.18,30843.7Z" style="fill:rgb(223,175,15);"/>
                </g>
                <g transform="matrix(6.12323e-17,-1,1,6.12323e-17,-26511.6,34921.5)">
                    <path d="M6248.54,30215.2L6394.32,30592.8L4901.65,30592.8L5047.43,30215.2L6248.54,30215.2Z" style="fill:none;stroke:black;stroke-width:67.92px;"/>
                    <path d="M6248.54,30215.2L6394.32,30592.8L4901.65,30592.8L5047.43,30215.2L6248.54,30215.2Z" style="fill:rgb(223,175,15);"/>
                </g>
                <g transform="matrix(6.12323e-17,-1,1,6.12323e-17,-26511.6,34921.5)">
                    <path d="M5897.01,29304.6L5991.98,29550.6L5491.13,29414.5L5897.01,29304.6Z" style="fill:none;stroke:black;stroke-width:67.92px;"/>
                    <path d="M5897.01,29304.6L5991.98,29550.6L5491.13,29414.5L5897.01,29304.6Z" style="fill:rgb(223,175,15);"/>
                </g>
            </g>
            <g transform="matrix(1.16113,-0.105867,0.101096,1.21592,-4857.73,-5367.85)">
                <path d="M9377.53,30455.6L9366.4,30441.5C9366.4,30441.5 9605.46,30242.6 9777.44,30026.2C9868.21,29912 9941.18,29793.8 9943.36,29698.8L10011.2,29702.1C10003.4,29806.9 9920.87,29936 9814.19,30057C9629.25,30266.8 9377.53,30455.6 9377.53,30455.6Z"/>
            </g>
            <g transform="matrix(1.16552,0,0,1.22052,-1854.41,-6501.89)">
                <path d="M9035.38,30111.3L9023.89,30097.5C9023.89,30097.5 9133.83,29998.3 9209.95,29835.7C9250.14,29749.8 9280.43,29646.2 9279.08,29529.9L9346.97,29531.7C9338.9,29657 9298.41,29766.3 9248.11,29855.3C9156.67,30017.3 9035.38,30111.3 9035.38,30111.3Z"/>
            </g>
            <g transform="matrix(1.14495,0.228263,-0.217977,1.19899,5181.59,-7916.45)">
                <path d="M9750.07,30866.5L9735.51,30856C9735.51,30856 9957.95,30534.6 10289.8,30341.6C10435.9,30256.6 10602.9,30197 10781.4,30197.7L10779.8,30265.6C10612.2,30258.3 10453.4,30309.1 10313.1,30383.5C9980.28,30559.7 9750.07,30866.5 9750.07,30866.5Z"/>
            </g>
            <g transform="matrix(1.14495,0.228263,-0.217977,1.19899,4872.12,-8218.12)">
                <path d="M9746.2,30869.6L9739.37,30853C9739.37,30853 9805.38,30824.3 9860.38,30776.6C9883.99,30756.2 9905.54,30732.2 9918.41,30705.4C9936.49,30667.7 9925.31,30576.9 9932.23,30519.6C9935.24,30494.7 9942.33,30475.3 9952.73,30464.7C9965.67,30451.5 9992.21,30441.3 10025.9,30433.2C10072.3,30422 10133.4,30413.4 10183.9,30397.5C10215.1,30387.6 10242.2,30375.7 10255.4,30356.1C10262.8,30345.2 10265.4,30337.9 10264.4,30331C10263.1,30322.7 10258.5,30315.4 10255,30306.3C10246.8,30285.6 10240.1,30259.5 10252.4,30215.4C10262.1,30180.8 10283.2,30150.3 10310.8,30122.6C10362.2,30071.1 10438.1,30030 10494.6,29987.4L10534.5,30042.3C10486.2,30076 10424,30107.7 10374.5,30146.3C10343,30170.8 10316.4,30197.7 10305.6,30231.3C10294.8,30264.9 10302.1,30282.4 10307.8,30297.4C10314.2,30314.2 10318.6,30329.3 10313.9,30348.5C10311.3,30358.8 10306.2,30370.7 10295.9,30384.7C10281.8,30403.9 10259.1,30419 10230.8,30430.1C10176.9,30451.2 10101.6,30459.1 10043.9,30469.8C10014.3,30475.3 9989.64,30480.2 9978.38,30490.9C9971.82,30497 9969.1,30509.4 9966.69,30524.4C9957.14,30584 9963.29,30679.1 9942.88,30717.7C9927.39,30747 9902.65,30773.1 9875.5,30794.8C9816.2,30842.2 9746.2,30869.6 9746.2,30869.6Z"/>
            </g>
            <g transform="matrix(1.1325,0.288467,-0.275467,1.18594,7129.69,-8315.79)">
                <path d="M10103.3,31308.8L10088,31299.3C10088,31299.3 10178.8,31140.9 10334.5,31061.3C10429.6,31012.6 10547.8,30993.9 10684.3,31051.9L10655.5,31113.4C10541.3,31054.6 10437.9,31064.3 10352.6,31100.2C10199.7,31164.6 10103.3,31308.8 10103.3,31308.8Z"/>
            </g>
            <g transform="matrix(0.907898,0.76535,-0.73086,0.950743,22945.2,-5812.95)">
                <path d="M11296.8,30358.3L11338.6,30471.1L11451.4,30512.8L11338.6,30554.6L11296.8,30667.4L11255.1,30554.6L11142.3,30512.8L11255.1,30471.1L11296.8,30358.3Z" style="fill:none;stroke:black;stroke-width:67.92px;"/>
                <path d="M11296.8,30358.3L11338.6,30471.1L11451.4,30512.8L11338.6,30554.6L11296.8,30667.4L11255.1,30554.6L11142.3,30512.8L11255.1,30471.1L11296.8,30358.3Z" style="fill:rgb(223,175,15);"/>
            </g>
            <g transform="matrix(0.925361,0,0,0.96903,-585.599,683.593)">
                <path d="M10355.4,29267.4L10406.8,29425.8L10573.4,29425.8L10438.6,29523.6L10490.1,29682L10355.4,29584.1L10220.6,29682L10272.1,29523.6L10137.4,29425.8L10303.9,29425.8L10355.4,29267.4Z" style="fill:none;stroke:black;stroke-width:85.54px;"/>
                <path d="M10355.4,29267.4L10406.8,29425.8L10573.4,29425.8L10438.6,29523.6L10490.1,29682L10355.4,29584.1L10220.6,29682L10272.1,29523.6L10137.4,29425.8L10303.9,29425.8L10355.4,29267.4Z" style="fill:rgb(223,175,15);"/>
            </g>
            <g transform="matrix(0.947212,0.711184,-0.679135,0.991912,22023.2,-8086.48)">
                <path d="M11112,31142.1L11153.5,31269.8L11287.8,31269.8L11179.1,31348.7L11220.6,31476.5L11112,31397.5L11003.3,31476.5L11044.8,31348.7L10936.2,31269.8L11070.5,31269.8L11112,31142.1Z" style="fill:none;stroke:black;stroke-width:67.92px;"/>
                <path d="M11112,31142.1L11153.5,31269.8L11287.8,31269.8L11179.1,31348.7L11220.6,31476.5L11112,31397.5L11003.3,31476.5L11044.8,31348.7L10936.2,31269.8L11070.5,31269.8L11112,31142.1Z" style="fill:rgb(223,175,15);"/>
            </g>
            <g transform="matrix(1.51732,-0.456082,0.435528,1.58892,-16984,-12683.4)">
                <path d="M9224.25,28957.4L9264.89,29121.6L9386.8,29239L9224.25,29192L9061.7,29239L9183.61,29121.6L9224.25,28957.4Z" style="fill:none;stroke:black;stroke-width:50.14px;"/>
                <path d="M9224.25,28957.4L9264.89,29121.6L9386.8,29239L9224.25,29192L9061.7,29239L9183.61,29121.6L9224.25,28957.4Z" style="fill:rgb(223,175,15);"/>
            </g>
            <g transform="matrix(1.16552,0,0,1.22052,-1756.08,-6766.4)">
                <path d="M10739.2,29669.9L10792.3,29833.6L10894.9,29783L10878.4,29896.2L11050.6,29896.2L10911.3,29997.3L10991.1,30079.2L10878.4,30098.5L10931.6,30262.2L10792.3,30161.1L10739.2,30262.2L10686,30161.1L10546.7,30262.2L10599.9,30098.5L10487.2,30079.2L10567,29997.3L10427.7,29896.2L10599.9,29896.2L10583.4,29783L10686,29833.6L10739.2,29669.9Z" style="fill:none;stroke:black;stroke-width:67.92px;"/>
                <path d="M10739.2,29669.9L10792.3,29833.6L10894.9,29783L10878.4,29896.2L11050.6,29896.2L10911.3,29997.3L10991.1,30079.2L10878.4,30098.5L10931.6,30262.2L10792.3,30161.1L10739.2,30262.2L10686,30161.1L10546.7,30262.2L10599.9,30098.5L10487.2,30079.2L10567,29997.3L10427.7,29896.2L10599.9,29896.2L10583.4,29783L10686,29833.6L10739.2,29669.9Z" style="fill:rgb(223,175,15);"/>
            </g>
        </g>
    </g>
</svg>
