<?xml version="1.0" encoding="UTF-8" standalone="no"?>
<!DOCTYPE svg PUBLIC "-//W3C//DTD SVG 1.1//EN" "http://www.w3.org/Graphics/SVG/1.1/DTD/svg11.dtd">
<svg width="100%" height="100%" viewBox="0 0 1922 1664" version="1.1" xmlns="http://www.w3.org/2000/svg" xmlns:xlink="http://www.w3.org/1999/xlink" xml:space="preserve" xmlns:serif="http://www.serif.com/" style="fill-rule:evenodd;clip-rule:evenodd;stroke-linejoin:round;stroke-miterlimit:1.5;">
    <g transform="matrix(1,0,0,1,-13261.8,-25181.2)">
        <g id="Binoculars">
        </g>
        <g id="Palette">
        </g>
        <g id="Diver-down-flag" serif:id="Diver down flag">
        </g>
        <g id="g186">
        </g>
        <g id="Icons">
        </g>
        <g id="Party-Popper" serif:id="Party Popper" transform="matrix(0.856934,0,0,0.809397,-914.759,5048)">
            <rect x="16543.4" y="24874.3" width="2242.88" height="2055.85" style="fill:none;"/>
            <g transform="matrix(1.16695,0,0,1.23549,-3143.65,-5857.9)">
                <g transform="matrix(-0.636565,-0.771223,0.771223,-0.636565,6199.11,53764.9)">
                    <path d="M14314.6,25852.1L14393.2,26051.5L13974.5,26180.5L14074.7,25926L14314.6,25852.1ZM14431.8,26149.5L14517,26366L13816.5,26581.8L13925.2,26305.6L14431.8,26149.5ZM14555.6,26464L14630.6,26654.3L13942.7,26866.2L13704.4,26866.2L13767.2,26706.9L14555.6,26464ZM14669.2,26752.4L14714,26866.2L14299.6,26866.2L14669.2,26752.4ZM14124,25800.9L14209.2,25584.4L14276,25754L14124,25800.9Z" style="fill:none;stroke:rgb(223,175,15);stroke-width:29.17px;"/>
                    <path d="M14314.6,25852.1L14393.2,26051.5L13974.5,26180.5L14074.7,25926L14314.6,25852.1ZM14431.8,26149.5L14517,26366L13816.5,26581.8L13925.2,26305.6L14431.8,26149.5ZM14555.6,26464L14630.6,26654.3L13942.7,26866.2L13704.4,26866.2L13767.2,26706.9L14555.6,26464ZM14669.2,26752.4L14714,26866.2L14299.6,26866.2L14669.2,26752.4ZM14124,25800.9L14209.2,25584.4L14276,25754L14124,25800.9Z" style="fill:rgb(223,175,15);"/>
                </g>
                <g transform="matrix(0.84616,0.288341,-0.288341,0.84616,12560.8,-304.899)">
                    <path d="M14988.8,25186.4L15007.3,25243.3L15067.1,25243.3L15018.7,25278.4L15037.2,25335.2L14988.8,25300.1L14940.5,25335.2L14958.9,25278.4L14910.6,25243.3L14970.3,25243.3L14988.8,25186.4Z" style="fill:none;stroke:rgb(223,175,15);stroke-width:29.17px;"/>
                    <path d="M14988.8,25186.4L15007.3,25243.3L15067.1,25243.3L15018.7,25278.4L15037.2,25335.2L14988.8,25300.1L14940.5,25335.2L14958.9,25278.4L14910.6,25243.3L14970.3,25243.3L14988.8,25186.4Z" style="fill:rgb(223,175,15);"/>
                </g>
                <g transform="matrix(0.887618,0.46058,-0.46058,0.887618,16985.9,-3989.99)">
                    <path d="M14638.5,25377.3L14660.5,25444.9L14731.6,25444.9L14674,25486.8L14696,25554.4L14638.5,25512.6L14580.9,25554.4L14602.9,25486.8L14545.3,25444.9L14616.5,25444.9L14638.5,25377.3Z" style="fill:none;stroke:rgb(223,175,15);stroke-width:29.17px;"/>
                    <path d="M14638.5,25377.3L14660.5,25444.9L14731.6,25444.9L14674,25486.8L14696,25554.4L14638.5,25512.6L14580.9,25554.4L14602.9,25486.8L14545.3,25444.9L14616.5,25444.9L14638.5,25377.3Z" style="fill:rgb(223,175,15);"/>
                </g>
                <g transform="matrix(0.455986,0.889987,-0.889987,0.455986,34209.1,540.759)">
                    <path d="M15106.4,25567.7L15135,25655.7L15227.5,25655.7L15152.6,25710.1L15181.2,25798L15106.4,25743.7L15031.6,25798L15060.1,25710.1L14985.3,25655.7L15077.8,25655.7L15106.4,25567.7Z" style="fill:none;stroke:rgb(223,175,15);stroke-width:29.17px;"/>
                    <path d="M15106.4,25567.7L15135,25655.7L15227.5,25655.7L15152.6,25710.1L15181.2,25798L15106.4,25743.7L15031.6,25798L15060.1,25710.1L14985.3,25655.7L15077.8,25655.7L15106.4,25567.7Z" style="fill:rgb(223,175,15);"/>
                </g>
                <g transform="matrix(0.269197,0,0,0.269197,14216.5,19075.9)">
                    <path d="M15106.4,25567.7L15130.7,25652.9L15216.7,25631.4L15155,25695L15216.7,25758.7L15130.7,25737.1L15106.4,25822.3L15082.1,25737.1L14996.1,25758.7L15057.8,25695L14996.1,25631.4L15082.1,25652.9L15106.4,25567.7Z" style="fill:none;stroke:rgb(223,175,15);stroke-width:29.17px;"/>
                    <path d="M15106.4,25567.7L15130.7,25652.9L15216.7,25631.4L15155,25695L15216.7,25758.7L15130.7,25737.1L15106.4,25822.3L15082.1,25737.1L14996.1,25758.7L15057.8,25695L14996.1,25631.4L15082.1,25652.9L15106.4,25567.7Z" style="fill:rgb(223,175,15);"/>
                </g>
                <g transform="matrix(0.269197,0,0,0.269197,14464.8,18932.6)">
                    <path d="M15106.4,25567.7L15130.7,25652.9L15216.7,25631.4L15155,25695L15216.7,25758.7L15130.7,25737.1L15106.4,25822.3L15082.1,25737.1L14996.1,25758.7L15057.8,25695L14996.1,25631.4L15082.1,25652.9L15106.4,25567.7Z" style="fill:none;stroke:rgb(223,175,15);stroke-width:29.17px;"/>
                    <path d="M15106.4,25567.7L15130.7,25652.9L15216.7,25631.4L15155,25695L15216.7,25758.7L15130.7,25737.1L15106.4,25822.3L15082.1,25737.1L14996.1,25758.7L15057.8,25695L14996.1,25631.4L15082.1,25652.9L15106.4,25567.7Z" style="fill:rgb(223,175,15);"/>
                </g>
                <g transform="matrix(0.269197,0,0,0.269197,13577.2,18248.6)">
                    <path d="M15106.4,25567.7L15130.7,25652.9L15216.7,25631.4L15155,25695L15216.7,25758.7L15130.7,25737.1L15106.4,25822.3L15082.1,25737.1L14996.1,25758.7L15057.8,25695L14996.1,25631.4L15082.1,25652.9L15106.4,25567.7Z" style="fill:none;stroke:rgb(223,175,15);stroke-width:29.17px;"/>
                    <path d="M15106.4,25567.7L15130.7,25652.9L15216.7,25631.4L15155,25695L15216.7,25758.7L15130.7,25737.1L15106.4,25822.3L15082.1,25737.1L14996.1,25758.7L15057.8,25695L14996.1,25631.4L15082.1,25652.9L15106.4,25567.7Z" style="fill:rgb(223,175,15);"/>
                </g>
                <g transform="matrix(0.269197,0,0,0.269197,13726.8,18418.1)">
                    <path d="M15106.4,25567.7L15130.7,25652.9L15216.7,25631.4L15155,25695L15216.7,25758.7L15130.7,25737.1L15106.4,25822.3L15082.1,25737.1L14996.1,25758.7L15057.8,25695L14996.1,25631.4L15082.1,25652.9L15106.4,25567.7Z" style="fill:none;stroke:rgb(223,175,15);stroke-width:29.17px;"/>
                    <path d="M15106.4,25567.7L15130.7,25652.9L15216.7,25631.4L15155,25695L15216.7,25758.7L15130.7,25737.1L15106.4,25822.3L15082.1,25737.1L14996.1,25758.7L15057.8,25695L14996.1,25631.4L15082.1,25652.9L15106.4,25567.7Z" style="fill:rgb(223,175,15);"/>
                </g>
                <g transform="matrix(0.269197,0,0,0.269197,13148.7,18581.3)">
                    <path d="M15106.4,25567.7L15130.7,25652.9L15216.7,25631.4L15155,25695L15216.7,25758.7L15130.7,25737.1L15106.4,25822.3L15082.1,25737.1L14996.1,25758.7L15057.8,25695L14996.1,25631.4L15082.1,25652.9L15106.4,25567.7Z" style="fill:none;stroke:rgb(223,175,15);stroke-width:29.17px;"/>
                    <path d="M15106.4,25567.7L15130.7,25652.9L15216.7,25631.4L15155,25695L15216.7,25758.7L15130.7,25737.1L15106.4,25822.3L15082.1,25737.1L14996.1,25758.7L15057.8,25695L14996.1,25631.4L15082.1,25652.9L15106.4,25567.7Z" style="fill:rgb(223,175,15);"/>
                </g>
                <g transform="matrix(0.269197,0,0,0.269197,13859.4,19513.1)">
                    <path d="M15106.4,25567.7L15130.7,25652.9L15216.7,25631.4L15155,25695L15216.7,25758.7L15130.7,25737.1L15106.4,25822.3L15082.1,25737.1L14996.1,25758.7L15057.8,25695L14996.1,25631.4L15082.1,25652.9L15106.4,25567.7Z" style="fill:none;stroke:rgb(223,175,15);stroke-width:29.17px;"/>
                    <path d="M15106.4,25567.7L15130.7,25652.9L15216.7,25631.4L15155,25695L15216.7,25758.7L15130.7,25737.1L15106.4,25822.3L15082.1,25737.1L14996.1,25758.7L15057.8,25695L14996.1,25631.4L15082.1,25652.9L15106.4,25567.7Z" style="fill:rgb(223,175,15);"/>
                </g>
                <g transform="matrix(0.269197,0,0,0.269197,14246.2,18010)">
                    <path d="M15106.4,25567.7L15130.7,25652.9L15216.7,25631.4L15155,25695L15216.7,25758.7L15130.7,25737.1L15106.4,25822.3L15082.1,25737.1L14996.1,25758.7L15057.8,25695L14996.1,25631.4L15082.1,25652.9L15106.4,25567.7Z" style="fill:none;stroke:rgb(223,175,15);stroke-width:29.17px;"/>
                    <path d="M15106.4,25567.7L15130.7,25652.9L15216.7,25631.4L15155,25695L15216.7,25758.7L15130.7,25737.1L15106.4,25822.3L15082.1,25737.1L14996.1,25758.7L15057.8,25695L14996.1,25631.4L15082.1,25652.9L15106.4,25567.7Z" style="fill:rgb(223,175,15);"/>
                </g>
                <g transform="matrix(0.269197,0,0,0.269197,13392.6,18112.1)">
                    <path d="M15106.4,25567.7L15130.7,25652.9L15216.7,25631.4L15155,25695L15216.7,25758.7L15130.7,25737.1L15106.4,25822.3L15082.1,25737.1L14996.1,25758.7L15057.8,25695L14996.1,25631.4L15082.1,25652.9L15106.4,25567.7Z" style="fill:none;stroke:rgb(223,175,15);stroke-width:29.17px;"/>
                    <path d="M15106.4,25567.7L15130.7,25652.9L15216.7,25631.4L15155,25695L15216.7,25758.7L15130.7,25737.1L15106.4,25822.3L15082.1,25737.1L14996.1,25758.7L15057.8,25695L14996.1,25631.4L15082.1,25652.9L15106.4,25567.7Z" style="fill:rgb(223,175,15);"/>
                </g>
                <g transform="matrix(0.269197,0,0,0.269197,14457,19400.9)">
                    <path d="M15106.4,25567.7L15130.7,25652.9L15216.7,25631.4L15155,25695L15216.7,25758.7L15130.7,25737.1L15106.4,25822.3L15082.1,25737.1L14996.1,25758.7L15057.8,25695L14996.1,25631.4L15082.1,25652.9L15106.4,25567.7Z" style="fill:none;stroke:rgb(223,175,15);stroke-width:29.17px;"/>
                    <path d="M15106.4,25567.7L15130.7,25652.9L15216.7,25631.4L15155,25695L15216.7,25758.7L15130.7,25737.1L15106.4,25822.3L15082.1,25737.1L14996.1,25758.7L15057.8,25695L14996.1,25631.4L15082.1,25652.9L15106.4,25567.7Z" style="fill:rgb(223,175,15);"/>
                </g>
                <g transform="matrix(0.269197,0,0,0.269197,14681.5,18901)">
                    <path d="M15106.4,25567.7L15130.7,25652.9L15216.7,25631.4L15155,25695L15216.7,25758.7L15130.7,25737.1L15106.4,25822.3L15082.1,25737.1L14996.1,25758.7L15057.8,25695L14996.1,25631.4L15082.1,25652.9L15106.4,25567.7Z" style="fill:none;stroke:rgb(223,175,15);stroke-width:29.17px;"/>
                    <path d="M15106.4,25567.7L15130.7,25652.9L15216.7,25631.4L15155,25695L15216.7,25758.7L15130.7,25737.1L15106.4,25822.3L15082.1,25737.1L14996.1,25758.7L15057.8,25695L14996.1,25631.4L15082.1,25652.9L15106.4,25567.7Z" style="fill:rgb(223,175,15);"/>
                </g>
                <g transform="matrix(0.269197,0,0,0.269197,14486.7,18312.7)">
                    <path d="M15106.4,25567.7L15130.7,25652.9L15216.7,25631.4L15155,25695L15216.7,25758.7L15130.7,25737.1L15106.4,25822.3L15082.1,25737.1L14996.1,25758.7L15057.8,25695L14996.1,25631.4L15082.1,25652.9L15106.4,25567.7Z" style="fill:none;stroke:rgb(223,175,15);stroke-width:29.17px;"/>
                    <path d="M15106.4,25567.7L15130.7,25652.9L15216.7,25631.4L15155,25695L15216.7,25758.7L15130.7,25737.1L15106.4,25822.3L15082.1,25737.1L14996.1,25758.7L15057.8,25695L14996.1,25631.4L15082.1,25652.9L15106.4,25567.7Z" style="fill:rgb(223,175,15);"/>
                </g>
                <g transform="matrix(0.624703,-0.780863,0.780863,0.624703,-10746.9,20650.8)">
                    <path d="M14449.1,24997.5L14474.8,25076.4L14557.8,25076.4L14490.6,25125.2L14516.3,25204.2L14449.1,25155.4L14382,25204.2L14407.6,25125.2L14340.5,25076.4L14423.5,25076.4L14449.1,24997.5Z" style="fill:none;stroke:rgb(223,175,15);stroke-width:29.17px;"/>
                    <path d="M14449.1,24997.5L14474.8,25076.4L14557.8,25076.4L14490.6,25125.2L14516.3,25204.2L14449.1,25155.4L14382,25204.2L14407.6,25125.2L14340.5,25076.4L14423.5,25076.4L14449.1,24997.5Z" style="fill:rgb(223,175,15);"/>
                </g>
                <g transform="matrix(0.979761,-0.20017,0.20017,0.979761,-1003.38,3374.77)">
                    <path d="M14731.6,25622.5L14751.3,25683.1L14815.1,25683.1L14763.5,25720.6L14783.2,25781.3L14731.6,25743.8L14680,25781.3L14699.7,25720.6L14648.1,25683.1L14711.9,25683.1L14731.6,25622.5Z" style="fill:none;stroke:rgb(223,175,15);stroke-width:29.17px;"/>
                    <path d="M14731.6,25622.5L14751.3,25683.1L14815.1,25683.1L14763.5,25720.6L14783.2,25781.3L14731.6,25743.8L14680,25781.3L14699.7,25720.6L14648.1,25683.1L14711.9,25683.1L14731.6,25622.5Z" style="fill:rgb(223,175,15);"/>
                </g>
            </g>
        </g>
        <g id="Occupancy-Meter-2" serif:id="Occupancy Meter 2">
        </g>
        <g id="Discover-Deals" serif:id="Discover Deals">
        </g>
        <g id="Dollar-stripe" serif:id="Dollar stripe">
        </g>
        <g id="Deals">
        </g>
        <g id="See-Spaces" serif:id="See Spaces">
        </g>
    </g>
</svg>
