<?xml version="1.0" encoding="UTF-8" standalone="no"?>
<!DOCTYPE svg PUBLIC "-//W3C//DTD SVG 1.1//EN" "http://www.w3.org/Graphics/SVG/1.1/DTD/svg11.dtd">
<svg width="100%" height="100%" viewBox="0 0 74 174" version="1.1" xmlns="http://www.w3.org/2000/svg" xmlns:xlink="http://www.w3.org/1999/xlink" xml:space="preserve" xmlns:serif="http://www.serif.com/" style="fill-rule:evenodd;clip-rule:evenodd;stroke-linecap:round;stroke-linejoin:round;stroke-miterlimit:1.5;">
    <g transform="matrix(1,0,0,1,0,-906.11)">
        <g transform="matrix(0.960633,0,0,0.98294,825.955,16.7819)">
            <rect id="Person" x="-859.804" y="904.763" width="77.033" height="177.02" style="fill:none;"/>
            <g id="Person1" serif:id="Person">
                <g transform="matrix(2.02317,0,0,1.97663,-2943.74,-728.774)">
                    <g id="Man">
                        <circle cx="1049.07" cy="836.7" r="9.124" style="fill:white;"/>
                        <path d="M1049.07,826.451C1054.73,826.451 1059.32,831.043 1059.32,836.7C1059.32,842.357 1054.73,846.95 1049.07,846.95C1043.42,846.95 1038.83,842.357 1038.83,836.7C1038.83,831.043 1043.42,826.451 1049.07,826.451ZM1049.07,827.576C1044.04,827.576 1039.95,831.664 1039.95,836.7C1039.95,841.736 1044.04,845.824 1049.07,845.824C1054.11,845.824 1058.2,841.736 1058.2,836.7C1058.2,831.664 1054.11,827.576 1049.07,827.576Z" style="fill:rgb(38,38,38);"/>
                    </g>
                </g>
                <g transform="matrix(1.04098,0,0,1.01736,-780.27,-16.8678)">
                    <path d="M-20.337,969.666L-20.158,1013.07L-20.158,1069.21C-20.158,1074.52 -24.47,1078.83 -29.78,1078.83C-34.9,1078.83 -39.091,1074.83 -39.386,1069.78C-39.397,1069.59 -39.402,1009.82 -39.402,1009.63C-39.402,1009.65 -39.402,1069.24 -39.403,1069.26C-39.427,1074.55 -43.729,1078.83 -49.025,1078.83C-54.335,1078.83 -58.647,1074.52 -58.647,1069.21L-58.647,969.9C-58.647,970.006 -58.649,1012.78 -58.653,1012.89C-58.819,1017.34 -62.483,1020.9 -66.973,1020.9C-71.569,1020.9 -75.3,1017.17 -75.3,1012.57L-75.3,966.954C-75.3,957.111 -67.544,949.745 -58.87,949.745L-19.931,949.745C-8.717,949.745 -3.505,958.217 -3.505,966.813L-3.505,1012.57C-3.505,1017.17 -7.236,1020.9 -11.831,1020.9C-16.231,1020.9 -19.837,1017.48 -20.138,1013.15C-20.151,1012.96 -20.337,969.863 -20.337,969.666Z" style="fill:white;stroke:black;stroke-width:2.08px;"/>
                </g>
            </g>
        </g>
    </g>
</svg>
