<?xml version="1.0" encoding="UTF-8" standalone="no"?>
<!DOCTYPE svg PUBLIC "-//W3C//DTD SVG 1.1//EN" "http://www.w3.org/Graphics/SVG/1.1/DTD/svg11.dtd">
<svg width="100%" height="100%" viewBox="0 0 1621 1621" version="1.1" xmlns="http://www.w3.org/2000/svg" xmlns:xlink="http://www.w3.org/1999/xlink" xml:space="preserve" xmlns:serif="http://www.serif.com/" style="fill-rule:evenodd;clip-rule:evenodd;stroke-linejoin:round;stroke-miterlimit:1.5;">
    <g id="Binoculars">
    </g>
    <g id="Palette">
    </g>
    <g id="Diver-down-flag" serif:id="Diver down flag">
    </g>
    <g id="g186">
    </g>
    <g id="Icons">
    </g>
    <g id="Occupancy-Meter-2" serif:id="Occupancy Meter 2">
    </g>
    <g id="Discover-Deals" serif:id="Discover Deals">
    </g>
    <g id="Dollar-stripe" serif:id="Dollar stripe">
    </g>
    <g id="See-Spaces" serif:id="See Spaces">
    </g>
    <g id="VIP-Triangle" serif:id="VIP Triangle">
    </g>
    <g id="VIP">
    </g>
    <rect id="Artboard1" x="0" y="0" width="1620.73" height="1620.73" style="fill:none;"/>
    <path d="M810.075,32.437C1239.82,31.927 1589.13,380.412 1589.64,810.158C1590.15,1239.9 1241.67,1589.22 811.924,1589.73C382.178,1590.24 32.864,1241.75 32.354,812.006C31.844,382.261 380.329,32.947 810.075,32.437Z" style="fill:#151212;stroke:#dfaf0f;stroke-width:61.52px;"/>
    <g>
        <path d="M374.621,988.359L435.611,878.196L650.627,1019.66L497.84,1069.43L374.621,988.359ZM465.597,824.034L531.781,704.487L891.547,941.179L725.745,995.188L465.597,824.034ZM561.767,650.325L619.97,545.195L973.206,777.593L1062.32,885.553L966.665,916.71L561.767,650.325ZM649.955,491.033L684.772,428.144L839.742,615.896L649.955,491.033ZM422.722,1093.89L292.756,1136.23L344.636,1042.52L422.722,1093.89Z" style="fill:none;stroke:#dfaf0f;stroke-width:17.13px;"/>
        <path d="M374.621,988.359L435.611,878.196L650.627,1019.66L497.84,1069.43L374.621,988.359ZM465.597,824.034L531.781,704.487L891.547,941.179L725.745,995.188L465.597,824.034ZM561.767,650.325L619.97,545.195L973.206,777.593L1062.32,885.553L966.665,916.71L561.767,650.325ZM649.955,491.033L684.772,428.144L839.742,615.896L649.955,491.033ZM422.722,1093.89L292.756,1136.23L344.636,1042.52L422.722,1093.89Z" style="fill:#dfaf0f;"/>
        <path d="M936.752,436.195L936.304,467.582L966.016,477.707L936.027,486.98L935.579,518.367L917.493,492.711L887.504,501.984L906.315,476.855L888.228,451.199L917.941,461.324L936.752,436.195Z" style="fill:none;stroke:#dfaf0f;stroke-width:15.32px;"/>
        <path d="M936.752,436.195L936.304,467.582L966.016,477.707L936.027,486.98L935.579,518.367L917.493,492.711L887.504,501.984L906.315,476.855L888.228,451.199L917.941,461.324L936.752,436.195Z" style="fill:#dfaf0f;"/>
        <path d="M1118.57,406.118L1111.72,447.357L1148.83,466.61L1107.49,472.843L1100.65,514.082L1081.94,476.696L1040.61,482.929L1070.39,453.59L1051.68,416.204L1088.79,435.457L1118.57,406.118Z" style="fill:none;stroke:#dfaf0f;stroke-width:17.13px;"/>
        <path d="M1118.57,406.118L1111.72,447.357L1148.83,466.61L1107.49,472.843L1100.65,514.082L1081.94,476.696L1040.61,482.929L1070.39,453.59L1051.68,416.204L1088.79,435.457L1118.57,406.118Z" style="fill:#dfaf0f;"/>
        <path d="M1148.83,621.28L1110.49,659.792L1135.27,708.157L1086.79,683.594L1048.45,722.107L1056.83,668.414L1008.36,643.851L1062.01,635.229L1070.39,581.536L1095.17,629.901L1148.83,621.28Z" style="fill:none;stroke:#dfaf0f;stroke-width:17.13px;"/>
        <path d="M1148.83,621.28L1110.49,659.792L1135.27,708.157L1086.79,683.594L1048.45,722.107L1056.83,668.414L1008.36,643.851L1062.01,635.229L1070.39,581.536L1095.17,629.901L1148.83,621.28Z" style="fill:#dfaf0f;"/>
        <path d="M1113.96,806.265L1117.8,819.739L1131.4,816.332L1121.65,826.4L1131.4,836.467L1117.8,833.06L1113.96,846.535L1110.11,833.06L1096.52,836.467L1106.27,826.4L1096.52,816.332L1110.11,819.739L1113.96,806.265Z" style="fill:none;stroke:#dfaf0f;stroke-width:4.61px;"/>
        <path d="M1113.96,806.265L1117.8,819.739L1131.4,816.332L1121.65,826.4L1131.4,836.467L1117.8,833.06L1113.96,846.535L1110.11,833.06L1096.52,836.467L1106.27,826.4L1096.52,816.332L1110.11,819.739L1113.96,806.265Z" style="fill:#dfaf0f;"/>
        <path d="M1259.8,722.107L1263.64,735.582L1277.24,732.175L1267.49,742.242L1277.24,752.31L1263.64,748.903L1259.8,762.378L1255.95,748.903L1242.36,752.31L1252.11,742.242L1242.36,732.175L1255.95,735.582L1259.8,722.107Z" style="fill:none;stroke:#dfaf0f;stroke-width:4.61px;"/>
        <path d="M1259.8,722.107L1263.64,735.582L1277.24,732.175L1267.49,742.242L1277.24,752.31L1263.64,748.903L1259.8,762.378L1255.95,748.903L1242.36,752.31L1252.11,742.242L1242.36,732.175L1255.95,735.582L1259.8,722.107Z" style="fill:#dfaf0f;"/>
        <path d="M738.373,320.228L742.219,333.703L755.811,330.296L746.064,340.363L755.811,350.431L742.219,347.024L738.373,360.499L734.528,347.024L720.935,350.431L730.682,340.363L720.935,330.296L734.528,333.703L738.373,320.228Z" style="fill:none;stroke:#dfaf0f;stroke-width:4.61px;"/>
        <path d="M738.373,320.228L742.219,333.703L755.811,330.296L746.064,340.363L755.811,350.431L742.219,347.024L738.373,360.499L734.528,347.024L720.935,350.431L730.682,340.363L720.935,330.296L734.528,333.703L738.373,320.228Z" style="fill:#dfaf0f;"/>
        <path d="M826.276,419.829L830.121,433.304L843.714,429.897L833.967,439.965L843.714,450.032L830.121,446.625L826.276,460.1L822.43,446.625L808.838,450.032L818.585,439.965L808.838,429.897L822.43,433.304L826.276,419.829Z" style="fill:none;stroke:#dfaf0f;stroke-width:4.61px;"/>
        <path d="M826.276,419.829L830.121,433.304L843.714,429.897L833.967,439.965L843.714,450.032L830.121,446.625L826.276,460.1L822.43,446.625L808.838,450.032L818.585,439.965L808.838,429.897L822.43,433.304L826.276,419.829Z" style="fill:#dfaf0f;"/>
        <path d="M486.651,515.724L490.497,529.198L504.089,525.791L494.342,535.859L504.089,545.926L490.497,542.519L486.651,555.994L482.806,542.519L469.214,545.926L478.96,535.859L469.214,525.791L482.806,529.198L486.651,515.724Z" style="fill:none;stroke:#dfaf0f;stroke-width:4.61px;"/>
        <path d="M486.651,515.724L490.497,529.198L504.089,525.791L494.342,535.859L504.089,545.926L490.497,542.519L486.651,555.994L482.806,542.519L469.214,545.926L478.96,535.859L469.214,525.791L482.806,529.198L486.651,515.724Z" style="fill:#dfaf0f;"/>
        <path d="M904.19,1063.12L908.035,1076.59L921.628,1073.19L911.881,1083.25L921.628,1093.32L908.035,1089.91L904.19,1103.39L900.344,1089.91L886.752,1093.32L896.499,1083.25L886.752,1073.19L900.344,1076.59L904.19,1063.12Z" style="fill:none;stroke:#dfaf0f;stroke-width:4.61px;"/>
        <path d="M904.19,1063.12L908.035,1076.59L921.628,1073.19L911.881,1083.25L921.628,1093.32L908.035,1089.91L904.19,1103.39L900.344,1089.91L886.752,1093.32L896.499,1083.25L886.752,1073.19L900.344,1076.59L904.19,1063.12Z" style="fill:#dfaf0f;"/>
        <path d="M1131.4,180.094L1135.24,193.569L1148.83,190.162L1139.09,200.23L1148.83,210.297L1135.24,206.89L1131.4,220.365L1127.55,206.89L1113.96,210.297L1123.7,200.23L1113.96,190.162L1127.55,193.569L1131.4,180.094Z" style="fill:none;stroke:#dfaf0f;stroke-width:4.61px;"/>
        <path d="M1131.4,180.094L1135.24,193.569L1148.83,190.162L1139.09,200.23L1148.83,210.297L1135.24,206.89L1131.4,220.365L1127.55,206.89L1113.96,210.297L1123.7,200.23L1113.96,190.162L1127.55,193.569L1131.4,180.094Z" style="fill:#dfaf0f;"/>
        <path d="M629.95,240.028L633.795,253.503L647.387,250.096L637.641,260.163L647.387,270.231L633.795,266.824L629.95,280.299L626.104,266.824L612.512,270.231L622.259,260.163L612.512,250.096L626.104,253.503L629.95,240.028Z" style="fill:none;stroke:#dfaf0f;stroke-width:4.61px;"/>
        <path d="M629.95,240.028L633.795,253.503L647.387,250.096L637.641,260.163L647.387,270.231L633.795,266.824L629.95,280.299L626.104,266.824L612.512,270.231L622.259,260.163L612.512,250.096L626.104,253.503L629.95,240.028Z" style="fill:#dfaf0f;"/>
        <path d="M1255.26,997.192L1259.1,1010.67L1272.7,1007.26L1262.95,1017.33L1272.7,1027.39L1259.1,1023.99L1255.26,1037.46L1251.41,1023.99L1237.82,1027.39L1247.57,1017.33L1237.82,1007.26L1251.41,1010.67L1255.26,997.192Z" style="fill:none;stroke:#dfaf0f;stroke-width:4.61px;"/>
        <path d="M1255.26,997.192L1259.1,1010.67L1272.7,1007.26L1262.95,1017.33L1272.7,1027.39L1259.1,1023.99L1255.26,1037.46L1251.41,1023.99L1237.82,1027.39L1247.57,1017.33L1237.82,1007.26L1251.41,1010.67L1255.26,997.192Z" style="fill:#dfaf0f;"/>
        <path d="M1387.11,703.516L1390.96,716.991L1404.55,713.584L1394.8,723.651L1404.55,733.719L1390.96,730.312L1387.11,743.787L1383.27,730.312L1369.68,733.719L1379.42,723.651L1369.68,713.584L1383.27,716.991L1387.11,703.516Z" style="fill:none;stroke:#dfaf0f;stroke-width:4.61px;"/>
        <path d="M1387.11,703.516L1390.96,716.991L1404.55,713.584L1394.8,723.651L1404.55,733.719L1390.96,730.312L1387.11,743.787L1383.27,730.312L1369.68,733.719L1379.42,723.651L1369.68,713.584L1383.27,716.991L1387.11,703.516Z" style="fill:#dfaf0f;"/>
        <path d="M1272.7,357.898L1276.54,371.373L1290.13,367.966L1280.39,378.033L1290.13,388.101L1276.54,384.694L1272.7,398.168L1268.85,384.694L1255.26,388.101L1265.01,378.033L1255.26,367.966L1268.85,371.373L1272.7,357.898Z" style="fill:none;stroke:#dfaf0f;stroke-width:4.61px;"/>
        <path d="M1272.7,357.898L1276.54,371.373L1290.13,367.966L1280.39,378.033L1290.13,388.101L1276.54,384.694L1272.7,398.168L1268.85,384.694L1255.26,388.101L1265.01,378.033L1255.26,367.966L1268.85,371.373L1272.7,357.898Z" style="fill:#dfaf0f;"/>
        <path d="M829.6,233.695L875.234,250.903L905.7,212.82L903.436,261.537L949.07,278.745L902.037,291.646L899.774,340.363L872.97,299.62L825.937,312.521L856.404,274.439L829.6,233.695Z" style="fill:none;stroke:#dfaf0f;stroke-width:17.13px;"/>
        <path d="M829.6,233.695L875.234,250.903L905.7,212.82L903.436,261.537L949.07,278.745L902.037,291.646L899.774,340.363L872.97,299.62L825.937,312.521L856.404,274.439L829.6,233.695Z" style="fill:#dfaf0f;"/>
        <path d="M1276,554.366L1294.47,586.956L1331.18,579.457L1305.89,607.098L1324.36,639.688L1290.26,624.181L1264.98,651.822L1269.19,614.597L1235.08,599.089L1271.79,591.591L1276,554.366Z" style="fill:none;stroke:#dfaf0f;stroke-width:17.13px;"/>
        <path d="M1276,554.366L1294.47,586.956L1331.18,579.457L1305.89,607.098L1324.36,639.688L1290.26,624.181L1264.98,651.822L1269.19,614.597L1235.08,599.089L1271.79,591.591L1276,554.366Z" style="fill:#dfaf0f;"/>
    </g>
    <path d="M314.146,999.437L295.71,1032.25L131.774,940.132L196.268,825.354L229.078,843.79L183.02,925.758L215.83,944.194L243.452,895.036L276.262,913.472L248.64,962.63L314.146,999.437Z" style="fill:#fff;fill-rule:nonzero;"/>
    <path d="M262.219,784.809L327.84,821.681L346.276,788.871C348.802,784.375 350.322,779.663 350.834,774.736C351.346,769.81 350.951,765.025 349.648,760.382C348.346,755.74 346.176,751.437 343.139,747.474C340.101,743.511 336.334,740.266 331.837,737.739C327.341,735.213 322.61,733.683 317.645,733.149C312.68,732.616 307.877,733 303.234,734.302C298.592,735.604 294.3,737.755 290.358,740.755C286.416,743.754 283.182,747.502 280.655,751.999L262.219,784.809ZM393.345,858.489L374.909,891.299L210.973,799.183L247.845,733.563C251.228,727.542 255.264,722.189 259.953,717.503C264.642,712.817 269.775,708.858 275.352,705.624C280.929,702.39 286.843,699.897 293.092,698.144C299.342,696.391 305.708,695.456 312.192,695.339C318.676,695.222 325.138,695.945 331.58,697.509C338.021,699.073 344.252,701.546 350.273,704.929C355.913,708.098 361.004,711.887 365.547,716.294C370.09,720.702 374.023,725.57 377.347,730.897C380.671,736.224 383.282,741.928 385.18,748.009C387.079,754.089 388.186,760.327 388.503,766.722L441.587,772.634L421.995,807.502L380.927,803.228L360.535,840.053L393.345,858.489Z" style="fill:#fff;fill-rule:nonzero;"/>
    <path d="M529.073,616.938L465.928,729.316L301.992,637.2L365.137,524.822L397.947,543.258L353.238,622.826L386.048,641.262L416.304,587.417L449.114,605.853L418.858,659.698L451.554,678.07L496.263,598.502L529.073,616.938Z" style="fill:#fff;fill-rule:nonzero;"/>
    <path d="M610.392,472.217L547.247,584.595L383.311,492.479L446.456,380.101L479.266,398.537L434.557,478.105L467.367,496.541L497.623,442.696L530.433,461.132L500.177,514.977L532.873,533.349L577.582,453.781L610.392,472.217Z" style="fill:#fff;fill-rule:nonzero;"/>
    <path d="M546.856,1136.6L567.783,1192.75L595.855,1182.29C599.702,1180.85 603.048,1178.77 605.892,1176.04C608.736,1173.31 610.956,1170.2 612.551,1166.7C614.146,1163.21 615.04,1159.48 615.231,1155.51C615.422,1151.54 614.801,1147.63 613.367,1143.79C611.933,1139.94 609.844,1136.58 607.101,1133.7C604.358,1130.82 601.241,1128.59 597.749,1126.99C594.258,1125.4 590.544,1124.5 586.606,1124.3C582.669,1124.09 578.776,1124.71 574.929,1126.14L546.856,1136.6ZM588.673,1248.8L560.6,1259.26L508.32,1118.99L564.465,1098.07C569.617,1096.15 574.822,1094.97 580.081,1094.53C585.339,1094.09 590.494,1094.33 595.547,1095.23C600.599,1096.13 605.475,1097.65 610.174,1099.8C614.874,1101.95 619.224,1104.65 623.225,1107.92C627.226,1111.18 630.781,1114.94 633.893,1119.2C637.004,1123.46 639.519,1128.17 641.439,1133.32C643.238,1138.15 644.385,1143.07 644.879,1148.08C645.374,1153.1 645.263,1158.08 644.544,1163.02C643.826,1167.97 642.48,1172.78 640.508,1177.45C638.536,1182.12 636.002,1186.48 632.907,1190.53L662.131,1221.42L632.297,1232.54L609.535,1208.83L578.209,1220.72L588.673,1248.8Z" style="fill:#fff;fill-rule:nonzero;"/>
    <path d="M778.126,1117.47C781.043,1125.29 782.357,1133.1 782.069,1140.9C781.78,1148.69 780.141,1155.95 777.15,1162.67C774.16,1169.39 769.949,1175.38 764.518,1180.64C759.087,1185.89 752.654,1189.9 745.221,1192.68C737.852,1195.42 730.395,1196.59 722.849,1196.17C715.304,1195.75 708.184,1193.98 701.491,1190.87C694.798,1187.76 688.792,1183.35 683.472,1177.65C678.153,1171.94 674.035,1165.18 671.118,1157.35C668.153,1149.4 666.809,1141.51 667.085,1133.68C667.361,1125.85 669.011,1118.57 672.034,1111.84C675.057,1105.1 679.29,1099.13 684.733,1093.9C690.177,1088.68 696.582,1084.7 703.951,1081.95C711.385,1079.18 718.838,1077.91 726.311,1078.13C733.783,1078.35 740.838,1079.99 747.474,1083.05C754.11,1086.11 760.1,1090.53 765.444,1096.3C770.788,1102.06 775.015,1109.12 778.126,1117.47ZM751.228,1127.49C749.624,1123.19 747.47,1119.56 744.768,1116.59C742.066,1113.62 739.04,1111.34 735.692,1109.72C732.343,1108.11 728.806,1107.24 725.08,1107.11C721.354,1106.97 717.665,1107.59 714.013,1108.95C710.362,1110.31 707.171,1112.26 704.441,1114.8C701.712,1117.34 699.625,1120.31 698.18,1123.7C696.736,1127.1 695.979,1130.8 695.91,1134.8C695.841,1138.8 696.608,1142.95 698.213,1147.25C699.719,1151.3 701.802,1154.79 704.459,1157.74C707.117,1160.68 710.11,1162.98 713.438,1164.64C716.766,1166.3 720.317,1167.26 724.092,1167.52C727.866,1167.78 731.58,1167.24 735.231,1165.88C738.883,1164.51 742.068,1162.55 744.785,1159.97C747.503,1157.4 749.606,1154.43 751.095,1151.05C752.584,1147.67 753.374,1143.96 753.463,1139.92C753.553,1135.87 752.807,1131.73 751.228,1127.49Z" style="fill:#fff;fill-rule:nonzero;"/>
    <path d="M902.547,1071.1C905.464,1078.92 906.778,1086.73 906.489,1094.52C906.201,1102.32 904.561,1109.58 901.571,1116.3C898.581,1123.02 894.37,1129.01 888.939,1134.26C883.508,1139.52 877.075,1143.53 869.641,1146.3C862.273,1149.05 854.816,1150.21 847.27,1149.79C839.724,1149.38 832.605,1147.61 825.912,1144.5C819.219,1141.38 813.213,1136.98 807.893,1131.27C802.574,1125.57 798.455,1118.8 795.539,1110.98C792.574,1103.02 791.229,1095.13 791.506,1087.31C791.782,1079.48 793.432,1072.2 796.455,1065.46C799.478,1058.73 803.711,1052.75 809.154,1047.53C814.597,1042.31 821.003,1038.32 828.372,1035.58C835.806,1032.81 843.259,1031.53 850.732,1031.75C858.204,1031.98 865.259,1033.62 871.895,1036.68C878.531,1039.74 884.521,1044.15 889.865,1049.92C895.209,1055.69 899.436,1062.75 902.547,1071.1ZM875.648,1081.12C874.044,1076.82 871.891,1073.18 869.189,1070.21C866.486,1067.25 863.461,1064.96 860.113,1063.35C856.764,1061.74 853.227,1060.87 849.501,1060.73C845.775,1060.6 842.086,1061.21 838.434,1062.57C834.782,1063.93 831.592,1065.88 828.862,1068.42C826.132,1070.96 824.045,1073.93 822.601,1077.33C821.157,1080.73 820.4,1084.43 820.331,1088.43C820.262,1092.42 821.029,1096.58 822.633,1100.88C824.14,1104.92 826.222,1108.42 828.88,1111.36C831.538,1114.31 834.53,1116.61 837.858,1118.27C841.186,1119.92 844.738,1120.88 848.512,1121.15C852.287,1121.41 856,1120.86 859.652,1119.5C863.304,1118.14 866.488,1116.17 869.206,1113.6C871.923,1111.03 874.027,1108.05 875.516,1104.68C877.005,1101.3 877.794,1097.59 877.884,1093.54C877.973,1089.5 877.228,1085.36 875.648,1081.12Z" style="fill:#fff;fill-rule:nonzero;"/>
    <path d="M1078.82,1066.11L1052.22,1076.02L1027.43,1009.51C1026.75,1007.69 1025.76,1006.08 1024.47,1004.71C1023.17,1003.33 1021.68,1002.26 1019.98,1001.48C1018.28,1000.7 1016.48,1000.28 1014.6,1000.2C1012.71,1000.12 1010.86,1000.42 1009.03,1001.11C1007.21,1001.78 1005.62,1002.76 1004.28,1004.05C1002.94,1005.33 1001.89,1006.81 1001.15,1008.5C1000.4,1010.19 999.992,1011.97 999.915,1013.86C999.838,1015.75 1000.14,1017.6 1000.82,1019.43L1025.61,1085.94L998.908,1095.89L974.117,1029.38C973.437,1027.55 972.45,1025.95 971.158,1024.58C969.866,1023.2 968.369,1022.13 966.669,1021.35C964.968,1020.57 963.175,1020.15 961.289,1020.07C959.404,1019.99 957.548,1020.29 955.722,1020.97C953.896,1021.65 952.312,1022.63 950.97,1023.92C949.627,1025.19 948.584,1026.68 947.839,1028.37C947.095,1030.06 946.684,1031.84 946.607,1033.73C946.53,1035.61 946.832,1037.47 947.512,1039.3L972.303,1105.81L945.6,1115.76L906.554,1011L913.01,1008.6L923.238,1013.92C925.788,1009.4 928.974,1005.45 932.797,1002.06C936.62,998.665 940.944,996.069 945.769,994.271C950.66,992.448 955.777,991.58 961.12,991.668C966.463,991.756 971.734,993.394 976.932,996.581C977.736,993.756 978.889,991.172 980.393,988.83C981.896,986.487 983.623,984.395 985.573,982.554C987.524,980.713 989.659,979.119 991.979,977.771C994.299,976.424 996.665,975.301 999.078,974.401C1004.62,972.335 1010.21,971.44 1015.85,971.716C1021.48,971.992 1026.78,973.266 1031.75,975.536C1036.72,977.806 1041.16,980.997 1045.07,985.11C1048.98,989.223 1051.96,994.051 1054.03,999.594L1078.82,1066.11Z" style="fill:#fff;fill-rule:nonzero;"/>
    <path d="M616.63,1301.66L634.33,1357.01L662.003,1348.16C665.795,1346.94 669.131,1345.08 672.011,1342.57C674.891,1340.05 677.184,1337.14 678.889,1333.83C680.594,1330.52 681.63,1326.95 681.997,1323.11C682.364,1319.27 681.941,1315.46 680.728,1311.67C679.516,1307.87 677.646,1304.52 675.121,1301.61C672.595,1298.7 669.678,1296.39 666.369,1294.68C663.061,1292.98 659.504,1291.94 655.699,1291.56C651.894,1291.18 648.095,1291.6 644.302,1292.81L616.63,1301.66ZM652,1412.26L624.327,1421.11L580.107,1282.84L635.452,1265.14C640.53,1263.52 645.626,1262.61 650.74,1262.43C655.854,1262.25 660.837,1262.71 665.69,1263.81C670.543,1264.92 675.196,1266.62 679.65,1268.91C684.104,1271.21 688.194,1274.03 691.92,1277.37C695.646,1280.71 698.919,1284.52 701.737,1288.79C704.556,1293.06 706.777,1297.74 708.401,1302.82C709.922,1307.57 710.808,1312.39 711.058,1317.27C711.308,1322.15 710.971,1326.97 710.049,1331.73C709.126,1336.49 707.603,1341.09 705.478,1345.52C703.354,1349.95 700.7,1354.06 697.516,1357.84L724.411,1389.1L695.003,1398.5L674.038,1374.49L643.149,1384.58L652,1412.26Z" style="fill:#fff;fill-rule:nonzero;"/>
    <path d="M791.54,1339.78C792.672,1339.78 793.767,1339.66 794.826,1339.42C795.886,1339.19 796.929,1338.91 797.958,1338.58C800.529,1337.76 802.891,1336.61 805.043,1335.15C807.195,1333.68 809.105,1331.95 810.773,1329.97C812.441,1327.98 813.791,1325.78 814.823,1323.36C815.856,1320.94 816.517,1318.4 816.805,1315.76L842.287,1328.97C840.955,1333.23 839.139,1337.24 836.842,1341.03C834.544,1344.81 831.855,1348.25 828.776,1351.36C825.696,1354.47 822.275,1357.18 818.512,1359.48C814.749,1361.78 810.714,1363.62 806.407,1365C799.144,1367.32 791.882,1368.16 784.623,1367.5C777.364,1366.85 770.569,1364.88 764.238,1361.59C757.907,1358.3 752.296,1353.77 747.404,1348C742.513,1342.23 738.792,1335.36 736.243,1327.39C733.632,1319.23 732.629,1311.33 733.235,1303.69C733.84,1296.06 735.777,1289.1 739.044,1282.81C742.312,1276.53 746.722,1271.04 752.275,1266.36C757.828,1261.68 764.236,1258.18 771.5,1255.85C775.807,1254.48 780.182,1253.64 784.624,1253.36C789.067,1253.07 793.445,1253.3 797.758,1254.05C802.071,1254.79 806.281,1256.05 810.389,1257.82C814.498,1259.59 818.328,1261.81 821.881,1264.5L791.54,1339.78ZM787.678,1281.18C786.313,1281.12 785.015,1281.22 783.785,1281.47C782.555,1281.72 781.297,1282.05 780.011,1282.46C776.411,1283.62 773.231,1285.36 770.471,1287.69C767.71,1290.03 765.548,1292.79 763.983,1295.99C762.418,1299.18 761.51,1302.71 761.26,1306.58C761.01,1310.45 761.574,1314.54 762.951,1318.85C763.26,1319.81 763.657,1320.89 764.144,1322.08C764.631,1323.27 765.188,1324.46 765.814,1325.64C766.439,1326.82 767.098,1327.94 767.789,1328.99C768.481,1330.05 769.228,1330.94 770.03,1331.68L787.678,1281.18Z" style="fill:#fff;fill-rule:nonzero;"/>
    <path d="M896.812,1333.96L870.49,1342.38L837.463,1239.11L843.827,1237.08L855.712,1244.33C858.721,1239.12 862.575,1234.61 867.274,1230.8C871.974,1227 877.248,1224.16 883.097,1222.29C889.397,1220.27 895.728,1219.58 902.091,1220.2C908.455,1220.82 914.399,1222.57 919.923,1225.44C925.448,1228.32 930.315,1232.18 934.524,1237.03C938.734,1241.89 941.856,1247.5 943.891,1253.86L962.763,1312.87L936.441,1321.29L917.569,1262.28C916.705,1259.58 915.374,1257.19 913.574,1255.11C911.775,1253.03 909.687,1251.37 907.312,1250.15C904.937,1248.92 902.395,1248.18 899.688,1247.91C896.981,1247.64 894.277,1247.94 891.577,1248.8C888.813,1249.69 886.375,1251.03 884.261,1252.84C882.147,1254.65 880.478,1256.75 879.254,1259.12C878.03,1261.5 877.289,1264.05 877.031,1266.79C876.774,1269.53 877.077,1272.25 877.94,1274.95L896.812,1333.96Z" style="fill:#fff;fill-rule:nonzero;"/>
    <path d="M1041.54,1287.67C1035.18,1289.71 1028.81,1290.42 1022.45,1289.8C1016.09,1289.17 1010.13,1287.43 1004.57,1284.57C999.012,1281.7 994.134,1277.86 989.935,1273.04C985.736,1268.22 982.619,1262.62 980.584,1256.26L970.778,1225.6L957.954,1229.7L949.566,1203.48L962.39,1199.37L949.192,1158.11L975.418,1149.72L988.616,1190.99L1028.53,1178.22L1036.92,1204.44L997.004,1217.21L1006.81,1247.87C1007.69,1250.64 1009.04,1253.06 1010.84,1255.14C1012.63,1257.22 1014.72,1258.88 1017.1,1260.1C1019.47,1261.33 1022.05,1262.08 1024.83,1262.36C1027.62,1262.63 1030.39,1262.33 1033.15,1261.45L1053.11,1255.07L1061.5,1281.29L1041.54,1287.67Z" style="fill:#fff;fill-rule:nonzero;"/>
    <path d="M1184.53,1241.94L1178.17,1243.98L1163.41,1233.07C1161.63,1236.13 1159.65,1239.08 1157.48,1241.93C1155.31,1244.79 1152.91,1247.43 1150.29,1249.87C1147.67,1252.3 1144.87,1254.45 1141.89,1256.33C1138.91,1258.2 1135.75,1259.67 1132.41,1260.74C1125.14,1263.06 1117.92,1264.03 1110.75,1263.63C1103.57,1263.23 1096.84,1261.47 1090.56,1258.34C1084.28,1255.21 1078.68,1250.71 1073.76,1244.85C1068.84,1238.98 1065,1231.74 1062.24,1223.13C1059.67,1215.1 1058.7,1207.28 1059.31,1199.68C1059.93,1192.08 1061.86,1185.1 1065.11,1178.75C1068.35,1172.39 1072.75,1166.86 1078.29,1162.15C1083.83,1157.43 1090.24,1153.92 1097.5,1151.59C1100.84,1150.52 1104.29,1149.88 1107.83,1149.67C1111.38,1149.46 1114.93,1149.6 1118.49,1150.09C1122.05,1150.58 1125.54,1151.38 1128.98,1152.47C1132.41,1153.57 1135.72,1154.89 1138.9,1156.42L1145.2,1140.91L1151.57,1138.87L1184.53,1241.94ZM1141.21,1197.88C1140.06,1194.28 1138.25,1191.01 1135.79,1188.08C1133.33,1185.14 1130.49,1182.76 1127.28,1180.91C1124.07,1179.07 1120.62,1177.87 1116.94,1177.31C1113.25,1176.76 1109.61,1177.05 1106.01,1178.2C1102.41,1179.36 1099.21,1181.05 1096.42,1183.29C1093.63,1185.53 1091.44,1188.21 1089.86,1191.34C1088.27,1194.47 1087.37,1198 1087.14,1201.94C1086.91,1205.87 1087.51,1210.09 1088.95,1214.59C1090.39,1219.09 1092.34,1222.87 1094.82,1225.94C1097.29,1229.02 1100.07,1231.37 1103.18,1233C1106.29,1234.62 1109.63,1235.54 1113.2,1235.74C1116.77,1235.95 1120.36,1235.47 1123.96,1234.32C1127.56,1233.17 1130.7,1231.3 1133.37,1228.7C1136.05,1226.11 1138.16,1223.13 1139.71,1219.77C1141.26,1216.41 1142.18,1212.82 1142.48,1209C1142.79,1205.18 1142.36,1201.48 1141.21,1197.88Z" style="fill:#fff;fill-rule:nonzero;"/>
    <path d="M1239.4,1224.4L1212.88,1232.88L1166.72,1088.54L1193.23,1080.06L1239.4,1224.4Z" style="fill:#fff;fill-rule:nonzero;"/>
    <path d="M1324.44,1197.2L1264.27,1216.44L1255.89,1190.21L1316.05,1170.97C1317.85,1170.4 1319.19,1169.26 1320.06,1167.56C1320.94,1165.87 1321.09,1164.12 1320.51,1162.32C1319.91,1160.45 1318.88,1159.44 1317.41,1159.27C1315.94,1159.11 1314.31,1159.31 1312.51,1159.88L1285.12,1168.64C1280.56,1170.1 1276.01,1170.6 1271.47,1170.14C1266.93,1169.68 1262.7,1168.43 1258.79,1166.38C1254.87,1164.34 1251.43,1161.6 1248.45,1158.16C1245.47,1154.72 1243.25,1150.71 1241.79,1146.15C1240.33,1141.59 1239.82,1137.04 1240.25,1132.51C1240.68,1127.98 1241.9,1123.76 1243.91,1119.86C1245.92,1115.96 1248.64,1112.52 1252.09,1109.54C1255.53,1106.56 1259.53,1104.34 1264.09,1102.88L1317.41,1085.83L1325.8,1112.06L1272.48,1129.11C1270.68,1129.69 1269.34,1130.82 1268.47,1132.52C1267.59,1134.21 1267.44,1135.96 1268.02,1137.76C1268.62,1139.63 1269.77,1141.01 1271.48,1141.92C1273.18,1142.83 1274.93,1142.99 1276.74,1142.42L1304.12,1133.66C1308.62,1132.22 1313.1,1131.62 1317.57,1131.85C1322.04,1132.09 1326.18,1133.09 1330,1134.84C1333.82,1136.59 1337.21,1139.09 1340.16,1142.33C1343.11,1145.56 1345.3,1149.43 1346.74,1153.93C1348.2,1158.5 1348.69,1163.03 1348.22,1167.54C1347.75,1172.05 1346.51,1176.27 1344.51,1180.2C1342.51,1184.14 1339.79,1187.6 1336.35,1190.57C1332.91,1193.55 1328.94,1195.76 1324.44,1197.2Z" style="fill:#fff;fill-rule:nonzero;"/>
</svg>
