<?xml version="1.0" encoding="UTF-8" standalone="no"?>
<!DOCTYPE svg PUBLIC "-//W3C//DTD SVG 1.1//EN" "http://www.w3.org/Graphics/SVG/1.1/DTD/svg11.dtd">
<svg width="100%" height="100%" viewBox="0 0 1613 1666" version="1.1" xmlns="http://www.w3.org/2000/svg" xmlns:xlink="http://www.w3.org/1999/xlink" xml:space="preserve" xmlns:serif="http://www.serif.com/" style="fill-rule:evenodd;clip-rule:evenodd;stroke-linejoin:round;stroke-miterlimit:2;">
    <g id="Diver-down-flag" serif:id="Diver down flag">
    </g>
    <g id="g186">
    </g>
    <g id="Filigree">
    </g>
    <rect id="Artboard34" x="0" y="0" width="1612.3" height="1665.28" style="fill:none;"/>
    <clipPath id="_clip1">
        <rect x="0" y="0" width="1612.3" height="1665.28"/>
    </clipPath>
    <g clip-path="url(#_clip1)">
        <g>
            <g>
                <path d="M862.176,430.919C825.414,425.851 788.131,425.851 751.37,430.919C761.699,505.858 765.836,581.137 763.779,656.756C755.003,658.899 746.399,661.694 738.04,665.119C691.928,605.151 651.027,541.817 615.335,475.119C582.616,492.627 552.454,514.542 525.691,540.249C578.096,594.804 625.69,653.275 668.475,715.661C662.634,722.553 657.317,729.872 652.567,737.557C580.013,716.145 509.697,688.948 441.617,655.967C425.438,689.363 413.917,724.822 407.376,761.35C481.84,774.683 554.713,794.012 625.996,819.335C625.321,828.344 625.321,837.39 625.996,846.399C554.713,871.723 481.84,891.051 407.376,904.385C413.917,940.913 425.438,976.371 441.617,1009.77C509.697,976.786 580.013,949.59 652.567,928.178C657.317,935.862 662.634,943.181 668.475,950.073C625.69,1012.46 578.096,1070.93 525.691,1125.49C552.454,1151.19 582.616,1173.11 615.335,1190.62C651.027,1123.92 691.928,1060.58 738.04,1000.62C746.399,1004.04 755.003,1006.84 763.779,1008.98C765.836,1084.6 761.699,1159.88 751.37,1234.82C788.131,1239.88 825.414,1239.88 862.176,1234.82C851.847,1159.88 847.71,1084.6 849.766,1008.98C858.543,1006.84 867.146,1004.04 875.506,1000.62C921.617,1060.58 962.519,1123.92 998.21,1190.62C1030.93,1173.11 1061.09,1151.19 1087.85,1125.49C1035.45,1070.93 987.855,1012.46 945.071,950.073C950.911,943.181 956.229,935.862 960.979,928.178C1033.53,949.59 1103.85,976.786 1171.93,1009.77C1188.11,976.371 1199.63,940.913 1206.17,904.385C1131.71,891.051 1058.83,871.723 987.55,846.399C988.224,837.39 988.224,828.344 987.55,819.335C1058.83,794.012 1131.71,774.683 1206.17,761.35C1199.63,724.822 1188.11,689.363 1171.93,655.967C1103.85,688.948 1033.53,716.145 960.979,737.557C956.229,729.872 950.911,722.553 945.071,715.661C987.855,653.275 1035.45,594.804 1087.85,540.249C1061.09,514.542 1030.93,492.627 998.21,475.119C962.519,541.817 921.617,605.151 875.506,665.119C867.146,661.694 858.543,658.899 849.766,656.756C847.71,581.137 851.847,505.858 862.176,430.919ZM806.773,767.42C842.894,767.42 872.22,796.746 872.22,832.867C872.22,868.988 842.894,898.314 806.773,898.314C770.652,898.314 741.326,868.988 741.326,832.867C741.326,796.746 770.652,767.42 806.773,767.42Z" style="fill:#151212;"/>
                <path d="M806.773,203.994C1153.86,203.994 1435.65,485.782 1435.65,832.867C1435.65,1179.95 1153.86,1461.74 806.773,1461.74C459.688,1461.74 177.899,1179.95 177.899,832.867C177.899,485.782 459.688,203.994 806.773,203.994ZM806.773,427.118C1030.71,427.118 1212.52,608.928 1212.52,832.867C1212.52,1056.81 1030.71,1238.62 806.773,1238.62C582.834,1238.62 401.024,1056.81 401.024,832.867C401.024,608.928 582.834,427.118 806.773,427.118Z" style="fill:#151212;"/>
                <path d="M855.012,1.624C822.88,-0.241 790.666,-0.241 758.534,1.624C746.541,68.925 743.632,136.616 749.806,204.698C655.724,213.23 564.76,242.786 483.631,291.183C448.608,232.475 406.467,179.421 357.206,132.023C330.115,149.401 304.053,168.336 279.154,188.731C309.01,250.228 346.445,306.701 391.457,358.151C320.358,420.354 264.139,497.733 226.952,584.574C164.11,557.663 98.833,539.512 31.12,530.121C19.417,560.104 9.462,590.741 1.306,621.877C61.608,654.08 125.087,677.764 191.744,692.931C170.786,785.045 170.786,880.69 191.744,972.804C125.087,987.97 61.608,1011.65 1.306,1043.86C9.462,1074.99 19.417,1105.63 31.12,1135.61C98.833,1126.22 164.11,1108.07 226.952,1081.16C264.139,1168 320.358,1245.38 391.457,1307.58C346.445,1359.03 309.01,1415.51 279.154,1477C304.053,1497.4 330.115,1516.33 357.206,1533.71C406.467,1486.31 448.608,1433.26 483.631,1374.55C564.76,1422.95 655.724,1452.51 749.806,1461.04C743.632,1529.12 746.541,1596.81 758.534,1664.11C790.666,1665.98 822.88,1665.98 855.012,1664.11C867.004,1596.81 869.914,1529.12 863.739,1461.04C957.822,1452.51 1048.79,1422.95 1129.91,1374.55C1164.94,1433.26 1207.08,1486.31 1256.34,1533.71C1283.43,1516.33 1309.49,1497.4 1334.39,1477C1304.54,1415.51 1267.1,1359.03 1222.09,1307.58C1293.19,1245.38 1349.41,1168 1386.59,1081.16C1449.44,1108.07 1514.71,1126.22 1582.43,1135.61C1594.13,1105.63 1604.08,1074.99 1612.24,1043.86C1551.94,1011.65 1488.46,987.97 1421.8,972.804C1442.76,880.69 1442.76,785.045 1421.8,692.931C1488.46,677.764 1551.94,654.08 1612.24,621.877C1604.08,590.741 1594.13,560.104 1582.43,530.121C1514.71,539.512 1449.44,557.663 1386.59,584.574C1349.41,497.733 1293.19,420.354 1222.09,358.151C1267.1,306.701 1304.54,250.228 1334.39,188.731C1309.49,168.336 1283.43,149.401 1256.34,132.023C1207.08,179.421 1164.94,232.475 1129.91,291.183C1048.79,242.786 957.822,213.23 863.739,204.698C869.914,136.616 867.004,68.925 855.012,1.624ZM806.773,205.51C1153.02,205.51 1434.13,486.62 1434.13,832.867C1434.13,1179.12 1153.02,1460.22 806.773,1460.22C460.525,1460.22 179.416,1179.12 179.416,832.867C179.416,486.62 460.525,205.51 806.773,205.51Z" style="fill:#151212;"/>
            </g>
            <g>
                <path d="M839.245,428.42C817.632,426.684 795.914,426.684 774.301,428.42C780.821,509.632 784.282,590.975 784.684,672.448C765.67,675.066 747.273,681.044 730.351,690.102C682.788,623.953 637.776,556.111 595.315,486.576C576.81,497.876 559.24,510.641 542.774,524.749C595.785,586.619 646.397,650.392 694.61,716.069C680.767,729.363 669.397,745.013 661.031,762.287C583.67,736.728 507.378,708.3 432.155,677.003C423.826,697.022 417.115,717.677 412.086,738.769C491.339,757.664 569.77,779.508 647.379,804.303C643.994,823.195 643.994,842.539 647.379,861.432C569.77,886.226 491.339,908.071 412.086,926.965C417.115,948.057 423.826,968.712 432.155,988.731C507.378,957.434 583.67,929.006 661.031,903.447C669.397,920.722 680.767,936.371 694.61,949.666C646.397,1015.34 595.785,1079.12 542.774,1140.99C559.24,1155.09 576.81,1167.86 595.315,1179.16C637.776,1109.62 682.788,1041.78 730.351,975.633C747.273,984.691 765.67,990.668 784.684,993.286C784.282,1074.76 780.821,1156.1 774.301,1237.32C795.914,1239.05 817.632,1239.05 839.245,1237.32C832.725,1156.1 829.264,1074.76 828.862,993.286C847.876,990.668 866.273,984.691 883.195,975.633C930.758,1041.78 975.77,1109.62 1018.23,1179.16C1036.74,1167.86 1054.31,1155.09 1070.77,1140.99C1017.76,1079.12 967.149,1015.34 918.935,949.666C932.779,936.371 944.149,920.722 952.515,903.447C1029.88,929.006 1106.17,957.434 1181.39,988.731C1189.72,968.712 1196.43,948.057 1201.46,926.965C1122.21,908.071 1043.78,886.226 966.166,861.432C969.552,842.539 969.552,823.195 966.166,804.303C1043.78,779.508 1122.21,757.664 1201.46,738.769C1196.43,717.677 1189.72,697.022 1181.39,677.003C1106.17,708.3 1029.88,736.728 952.515,762.287C944.149,745.013 932.779,729.363 918.935,716.069C967.149,650.392 1017.76,586.619 1070.77,524.749C1054.31,510.641 1036.74,497.876 1018.23,486.576C975.77,556.111 930.758,623.953 883.195,690.102C866.273,681.044 847.876,675.066 828.862,672.448C829.264,590.975 832.725,509.632 839.245,428.42ZM806.773,739.446C858.334,739.446 900.194,781.306 900.194,832.867C900.194,884.428 858.334,926.289 806.773,926.289C755.212,926.289 713.351,884.428 713.351,832.867C713.351,781.306 755.212,739.446 806.773,739.446Z" style="fill:#dfaf0f;"/>
                <path d="M806.773,233.928C1137.34,233.928 1405.71,502.304 1405.71,832.867C1405.71,1163.43 1137.34,1431.81 806.773,1431.81C476.209,1431.81 207.834,1163.43 207.834,832.867C207.834,502.304 476.209,233.928 806.773,233.928ZM806.773,397.222C1047.21,397.222 1242.42,592.428 1242.42,832.867C1242.42,1073.31 1047.21,1268.51 806.773,1268.51C566.333,1268.51 371.127,1073.31 371.127,832.867C371.127,592.428 566.333,397.222 806.773,397.222Z" style="fill:#dfaf0f;"/>
                <path d="M834.132,38.031C815.898,37.403 797.648,37.403 779.414,38.031C770.875,92.571 768.158,147.399 771.263,202.516C794.917,201.184 818.628,201.184 842.283,202.516C845.388,147.399 842.671,92.571 834.132,38.031ZM361.714,173.75C346.593,183.96 331.828,194.687 317.446,205.912C342.596,255.055 372.625,301.009 407.534,343.775C425.887,328.793 445.07,314.856 464.99,302.03C435.105,255.615 400.68,212.855 361.714,173.75ZM59.293,561.229C53.061,578.377 47.422,595.734 42.384,613.269C91.616,638.244 142.921,657.771 196.3,671.85C202.343,648.941 209.67,626.391 218.247,604.306C166.787,584.321 113.802,569.962 59.293,561.229ZM42.384,1052.46C47.422,1070 53.061,1087.36 59.293,1104.51C113.802,1095.77 166.787,1081.41 218.247,1061.43C209.67,1039.34 202.343,1016.79 196.3,993.884C142.921,1007.96 91.616,1027.49 42.384,1052.46ZM317.446,1459.82C331.828,1471.05 346.593,1481.78 361.714,1491.99C400.68,1452.88 435.105,1410.12 464.99,1363.7C445.07,1350.88 425.887,1336.94 407.534,1321.96C372.625,1364.73 342.596,1410.68 317.446,1459.82ZM779.414,1627.7C797.648,1628.33 815.898,1628.33 834.132,1627.7C842.671,1573.16 845.388,1518.34 842.283,1463.22C818.628,1464.55 794.917,1464.55 771.263,1463.22C768.158,1518.34 770.875,1573.16 779.414,1627.7ZM1251.83,1491.99C1266.95,1481.78 1281.72,1471.05 1296.1,1459.82C1270.95,1410.68 1240.92,1364.73 1206.01,1321.96C1187.66,1336.94 1168.48,1350.88 1148.56,1363.7C1178.44,1410.12 1212.87,1452.88 1251.83,1491.99ZM1554.25,1104.51C1560.48,1087.36 1566.12,1070 1571.16,1052.46C1521.93,1027.49 1470.62,1007.96 1417.25,993.884C1411.2,1016.79 1403.88,1039.34 1395.3,1061.43C1446.76,1081.41 1499.74,1095.77 1554.25,1104.51ZM1571.16,613.269C1566.12,595.734 1560.48,578.377 1554.25,561.229C1499.74,569.962 1446.76,584.321 1395.3,604.306C1403.88,626.391 1411.2,648.941 1417.25,671.85C1470.62,657.771 1521.93,638.244 1571.16,613.269ZM1296.1,205.912C1281.72,194.687 1266.95,183.96 1251.83,173.75C1212.87,212.855 1178.44,255.615 1148.56,302.03C1168.48,314.856 1187.66,328.793 1206.01,343.775C1240.92,301.009 1270.95,255.055 1296.1,205.912Z" style="fill:#dfaf0f;"/>
            </g>
        </g>
    </g>
</svg>
