<?xml version="1.0" encoding="UTF-8" standalone="no"?>
<!DOCTYPE svg PUBLIC "-//W3C//DTD SVG 1.1//EN" "http://www.w3.org/Graphics/SVG/1.1/DTD/svg11.dtd">
<svg width="100%" height="100%" viewBox="0 0 358 409" version="1.1" xmlns="http://www.w3.org/2000/svg" xmlns:xlink="http://www.w3.org/1999/xlink" xml:space="preserve" xmlns:serif="http://www.serif.com/" style="fill-rule:evenodd;clip-rule:evenodd;stroke-linecap:round;stroke-linejoin:round;stroke-miterlimit:1.5;">
    <g id="Diver-down-flag" serif:id="Diver down flag">
    </g>
    <g id="g186">
    </g>
    <g id="Filigree">
    </g>
    <rect id="Artboard24" x="0" y="0" width="357.276" height="408.857" style="fill:none;"/>
    <clipPath id="_clip1">
        <rect x="0" y="0" width="357.276" height="408.857"/>
    </clipPath>
    <g clip-path="url(#_clip1)">
        <path d="M153.577,267.791L154.063,199.178C146.958,199.139 119.437,255.749 120.639,257.361C120.673,258.362 121.327,261.284 123.918,261.588C128.382,262.112 135.839,258.909 139.63,261.099C144.326,263.811 147.353,268.42 153.577,267.791Z" style="fill:#de2726;stroke:#de2726;stroke-width:1.09px;"/>
        <path d="M154.548,267.791L154.063,199.178C161.167,199.139 188.688,255.749 187.486,257.361C187.452,258.362 186.798,261.284 184.207,261.588C179.743,262.112 172.286,258.909 168.495,261.099C163.799,263.811 160.772,268.42 154.548,267.791Z" style="fill:#de2726;stroke:#de2726;stroke-width:1.09px;"/>
        <path d="M154.063,186.355C154.063,186.355 145.38,184.671 133.238,209.203C121.096,233.735 105.113,259.382 105.113,259.382C105.113,259.382 99.661,269.418 79.713,264.586C59.766,259.754 27.676,249.222 27.676,249.222C27.676,249.222 14.422,245.647 10.082,222.336C8.457,221.309 1.712,217.031 1.712,217.031L1.293,170.448L10.61,165.889C9.873,163.007 11.852,150.395 15.311,146.35C15.827,145.747 18.245,143.753 19.843,142.866C31.021,136.664 70.221,125.499 73.472,126.182L78.705,115.338L154.063,114.736L154.063,186.355ZM39.885,151.857C67.131,147.431 94.306,145.233 121.66,144.38C121.66,144.38 130.839,144.349 135.909,148.964C141.003,153.602 135.785,163.212 134.918,167.301C134.05,171.39 105.673,225.844 100.712,235.234C96.548,243.113 91.538,251.858 69.481,244.797C41.615,235.878 41.499,236.249 41.499,236.249C41.499,236.249 25.477,232.135 24.609,210.636C23.745,189.218 25.617,170.425 25.085,170.425C26.093,160.893 30.154,153.458 39.885,151.857Z" style="fill:#de2726;stroke:#de2726;stroke-width:1.09px;"/>
        <path d="M154.063,186.355C154.063,186.355 162.745,184.671 174.887,209.203C187.029,233.735 203.012,259.382 203.012,259.382C203.012,259.382 208.464,269.418 228.412,264.586C248.359,259.754 280.449,249.222 280.449,249.222C280.449,249.222 293.703,245.647 298.043,222.336C299.668,221.309 306.413,217.031 306.413,217.031L306.832,170.448L297.515,165.889C298.252,163.007 296.273,150.395 292.814,146.35C292.298,145.747 289.88,143.753 288.282,142.866C277.104,136.664 237.904,125.499 234.653,126.182L229.42,115.338L154.063,114.736L154.063,186.355ZM268.24,151.857C240.994,147.431 213.819,145.233 186.465,144.38C186.465,144.38 177.286,144.349 172.216,148.964C167.122,153.602 172.34,163.212 173.207,167.301C174.075,171.39 202.452,225.844 207.413,235.234C211.577,243.113 216.587,251.858 238.644,244.797C266.51,235.878 266.626,236.249 266.626,236.249C266.626,236.249 282.648,232.135 283.516,210.636C284.38,189.218 282.508,170.425 283.04,170.425C282.032,160.893 277.971,153.458 268.24,151.857Z" style="fill:#de2726;stroke:#de2726;stroke-width:1.09px;"/>
        <path d="M176.555,355.131C186.717,353.167 196.883,349.969 207.049,345.63C211.839,345.63 215.727,332.742 215.727,327.953L215.727,310.598C215.727,305.809 211.839,301.921 207.049,301.921C172.525,313.926 137.213,314.115 101.076,301.921C96.286,301.921 92.398,305.809 92.398,310.598L92.398,327.953C92.398,332.742 96.286,345.63 101.076,345.63C111.242,350.345 121.408,353.594 131.57,355.471L131.57,364.62C131.57,370.827 136.609,382.538 142.816,386.571C142.816,386.571 149.368,392.369 153.433,393.571C169.346,398.278 182.375,400.903 199.835,405.965C223.304,412.769 254.606,405.597 264.857,392.842C284.63,368.241 337,298.284 337,298.284C349.721,281.77 352.963,275.233 352.963,250.158L352.963,77.191C352.963,71.969 348.724,67.73 343.501,67.73L324.578,67.73C319.355,67.73 315.116,71.969 315.116,77.191L315.116,255.974C314.917,262.751 313.261,268.463 310.13,273.097L245.8,357.045C237.603,369.999 212.472,372.591 208.677,371.118L176.555,362.641L176.555,355.131Z" style="fill:#de2726;stroke:#de2726;stroke-width:1.09px;"/>
        <path d="M333.808,10.366C333.808,5.097 338.086,0.818 343.356,0.818L344.383,0.818C349.653,0.818 353.931,5.097 353.931,10.366L357.481,69.267C357.481,74.537 349.653,78.492 344.383,78.492L325.288,78.492C320.018,78.492 311.223,74.375 311.223,69.106L333.808,10.366Z" style="fill:#de2726;stroke:#de2726;stroke-width:1.09px;"/>
    </g>
</svg>
