<?xml version="1.0" encoding="UTF-8" standalone="no"?>
<!DOCTYPE svg PUBLIC "-//W3C//DTD SVG 1.1//EN" "http://www.w3.org/Graphics/SVG/1.1/DTD/svg11.dtd">
<svg width="100%" height="100%" viewBox="0 0 794 291" version="1.1" xmlns="http://www.w3.org/2000/svg" xmlns:xlink="http://www.w3.org/1999/xlink" xml:space="preserve" xmlns:serif="http://www.serif.com/" style="fill-rule:evenodd;clip-rule:evenodd;stroke-linejoin:round;stroke-miterlimit:2;">
    <g transform="matrix(1,0,0,1,-10191.8,-10183.6)">
        <g id="Diver-down-flag" serif:id="Diver down flag">
        </g>
        <g id="g186">
        </g>
        <g id="Filigree">
        </g>
        <g id="Artboard35" transform="matrix(1.0015,0,0,1.62939,-15.3415,-6589.98)">
            <rect x="10191.8" y="10294.4" width="792.14" height="178.568" style="fill:none;"/>
            <g transform="matrix(0.998498,0,0,0.613725,15.3184,4044.44)">
                <path d="M10983.9,10386.8C10982.8,10394.9 10921.5,10432.9 10854.1,10454.5C10784.4,10476.7 10733.5,10474.6 10575.1,10469.9C10306.9,10462 10269.8,10458.7 10269.8,10458.7C10261.3,10437.3 10237.4,10426.5 10199.8,10424.6C10191.2,10416.7 10189.5,10409.2 10194.9,10402.1L10238.8,10391.2C10250.7,10371.7 10285.5,10359.5 10313.7,10354.2L10474.6,10338.1C10529.2,10314.8 10593.3,10293.3 10661.3,10294.4L10755.2,10337.2C10837.2,10336.5 10982.3,10356.4 10983.9,10386.8ZM10561.3,10345.1L10570.9,10310.5C10589.7,10306.4 10609.8,10303 10628.8,10301.5C10644.6,10311.7 10674.2,10335.6 10693.6,10347C10646.6,10354.9 10598.9,10349.7 10561.3,10345.1ZM10566.9,10311.4L10557.5,10344.5C10534.7,10342.1 10513.1,10339.7 10494.4,10337.3C10485.1,10336.1 10521.5,10321.7 10566.9,10311.4ZM10650.3,10299.7L10719.3,10343.3C10711.3,10344.5 10707.4,10344.9 10699.5,10345.6C10681.4,10335.6 10651.7,10312.4 10634.3,10300.8C10639.1,10300.3 10645.2,10299.9 10650.3,10299.7ZM10722.1,10342.8L10653,10299.5C10657.7,10299.3 10661,10299.2 10661,10299.2C10663.3,10299.6 10666.7,10301.2 10671.6,10303.5C10676.2,10305.7 10725.5,10325.7 10749.1,10337.9C10743.9,10339.1 10727.8,10341.9 10722.1,10342.8Z" style="fill:rgb(222,39,38);"/>
                <g transform="matrix(0.441099,-0.0701966,0.0701966,0.441099,5050,6444.31)">
                    <g transform="matrix(-0.233334,0.0218327,0.0218327,0.233334,9742.43,9716.21)">
                        <g transform="matrix(1,0,0,1,2.81721,-428.217)">
                            <path d="M-2136.66,3218.17C-2269.93,3090.95 -2338.81,3000.87 -2517.97,2992.93C-2650.2,2987.07 -2708.88,2752.7 -2946.72,2783.72L-2946.72,3219.33C-2946.72,3219.33 -2766.19,3089.51 -2577.46,3216.85C-2481.69,3281.47 -2389.37,3215.69 -2321.29,3193.77C-2202.99,3155.67 -2166.66,3228.56 -2136.66,3218.17Z" style="fill:rgb(222,39,38);"/>
                        </g>
                        <g transform="matrix(1,0,0,1,2.81721,-1053.64)">
                            <path d="M-2946.72,3226.9C-2909.03,3190.36 -2766.19,3089.51 -2577.46,3216.85C-2481.69,3281.47 -2389.37,3215.69 -2321.29,3193.77C-2202.99,3155.67 -2166.66,3236.46 -2136.66,3226.08L-2136.66,3664.45C-2269.93,3537.22 -2338.81,3445.99 -2517.97,3438.05C-2650.2,3432.19 -2708.88,3195.89 -2946.72,3226.9Z" style="fill:rgb(222,39,38);"/>
                        </g>
                    </g>
                    <g transform="matrix(2.21107,0.35187,-0.35187,2.21107,-8898.33,-16025.8)">
                        <path d="M10415.3,10407.5C10416.6,10332.6 10406.2,10258.9 10381,10186.7C10380.9,10185.9 10381.5,10185.2 10382.2,10185L10385.1,10184.6C10385.9,10184.5 10386.6,10185 10386.7,10185.8C10410.4,10254.1 10421,10328.1 10421,10406.7L10415.3,10407.5Z" style="fill:rgb(222,39,38);"/>
                    </g>
                </g>
            </g>
            <g transform="matrix(0.998488,-0.00270188,0.00191128,0.266844,-8.49607,7662.26)">
                <path d="M10781.7,10328.8C10729.2,10322.5 10695.1,10350.4 10642.5,10350.5C10591.1,10350.5 10521.2,10322.7 10469.8,10328.8L10469.8,10336.1C10521.8,10327.7 10591.7,10354.1 10642.5,10353.8C10695.7,10353.5 10729.9,10326.9 10781.7,10336.1L10781.7,10328.8Z" style="fill:rgb(222,39,38);"/>
            </g>
        </g>
        <g id="Occupancy-Meter-2" serif:id="Occupancy Meter 2">
        </g>
        <g id="Discover-Deals" serif:id="Discover Deals">
        </g>
        <g id="Dollar-stripe" serif:id="Dollar stripe">
        </g>
        <g id="Deals">
        </g>
        <g id="See-Spaces" serif:id="See Spaces">
        </g>
        <g id="Binoculars">
        </g>
    </g>
</svg>
