<?xml version="1.0" encoding="UTF-8" standalone="no"?>
<!DOCTYPE svg PUBLIC "-//W3C//DTD SVG 1.1//EN" "http://www.w3.org/Graphics/SVG/1.1/DTD/svg11.dtd">
<svg width="100%" height="100%" viewBox="0 0 246 246" version="1.1" xmlns="http://www.w3.org/2000/svg" xmlns:xlink="http://www.w3.org/1999/xlink" xml:space="preserve" xmlns:serif="http://www.serif.com/" style="fill-rule:evenodd;clip-rule:evenodd;stroke-linejoin:round;stroke-miterlimit:2;">
    <g transform="matrix(1,0,0,1,-6763,-4975)">
        <g id="Diver-down-flag" serif:id="Diver down flag">
        </g>
        <g id="g186">
        </g>
        <g id="Filigree">
        </g>
        <g id="Occupancy-Meter-2" serif:id="Occupancy Meter 2">
        </g>
        <g id="Discover-Deals" serif:id="Discover Deals">
        </g>
        <g id="Dollar-stripe" serif:id="Dollar stripe">
        </g>
        <g id="Deals">
        </g>
        <g id="See-Spaces" serif:id="See Spaces">
        </g>
        <g id="Binoculars">
        </g>
        <g id="Artboard37" transform="matrix(1,0,0,1,-0.792858,-0.30322)">
            <rect x="6763.79" y="4975.3" width="245.295" height="245.295" style="fill:none;"/>
            <clipPath id="_clip1">
                <rect x="6763.79" y="4975.3" width="245.295" height="245.295"/>
            </clipPath>
            <g clip-path="url(#_clip1)">
                <g transform="matrix(1,0,0,1,0.792858,0.30322)">
                    <path d="M6886.44,4975.3C6894,4975.3 6903.9,5032.79 6903.9,5032.79C6916.99,5036.3 6934.56,5014.6 6947.76,4991.73C6954.31,4995.51 6934.14,5050.25 6934.14,5050.25C6943.73,5059.84 6969.79,5049.83 6992.66,5036.63C6996.44,5043.17 6951.6,5080.49 6951.6,5080.49C6955.11,5093.59 6982.68,5097.95 7009.09,5097.95C7009.09,5105.51 6951.6,5115.41 6951.6,5115.41C6948.09,5128.5 6969.79,5146.07 6992.66,5159.28C6988.88,5165.82 6934.14,5145.65 6934.14,5145.65C6924.55,5155.23 6934.56,5181.3 6947.76,5204.17C6941.22,5207.95 6903.9,5163.11 6903.9,5163.11C6890.81,5166.62 6886.44,5194.19 6886.44,5220.6C6878.88,5220.6 6868.98,5163.11 6868.98,5163.11C6855.89,5159.6 6838.32,5181.3 6825.12,5204.17C6818.57,5200.39 6838.74,5145.65 6838.74,5145.65C6829.16,5136.06 6803.09,5146.07 6780.23,5159.28C6776.44,5152.73 6821.28,5115.41 6821.28,5115.41C6817.77,5102.32 6790.2,5097.95 6763.79,5097.95C6763.79,5090.39 6821.28,5080.49 6821.28,5080.49C6824.79,5067.4 6803.09,5049.83 6780.23,5036.63C6784,5030.08 6838.74,5050.25 6838.74,5050.25C6848.33,5040.67 6838.32,5014.6 6825.12,4991.73C6831.66,4987.96 6868.98,5032.79 6868.98,5032.79C6882.08,5029.28 6886.44,5001.71 6886.44,4975.3Z" style="fill:rgb(222,39,38);"/>
                </g>
            </g>
        </g>
    </g>
</svg>
