<?xml version="1.0" encoding="UTF-8" standalone="no"?>
<!DOCTYPE svg PUBLIC "-//W3C//DTD SVG 1.1//EN" "http://www.w3.org/Graphics/SVG/1.1/DTD/svg11.dtd">
<svg width="100%" height="100%" viewBox="0 0 170 170" version="1.1" xmlns="http://www.w3.org/2000/svg" xmlns:xlink="http://www.w3.org/1999/xlink" xml:space="preserve" xmlns:serif="http://www.serif.com/" style="fill-rule:evenodd;clip-rule:evenodd;stroke-linejoin:round;stroke-miterlimit:2;">
    <g transform="matrix(1,0,0,1,-7114,-5006)">
        <g id="Diver-down-flag" serif:id="Diver down flag">
        </g>
        <g id="g186">
        </g>
        <g id="Filigree">
        </g>
        <g id="Occupancy-Meter-2" serif:id="Occupancy Meter 2">
        </g>
        <g id="Discover-Deals" serif:id="Discover Deals">
        </g>
        <g id="Dollar-stripe" serif:id="Dollar stripe">
        </g>
        <g id="Deals">
        </g>
        <g id="See-Spaces" serif:id="See Spaces">
        </g>
        <g id="Binoculars">
        </g>
        <g id="Artboard38" transform="matrix(1,0,0,1,-0.0899633,-0.677757)">
            <rect x="7114.09" y="5006.68" width="169.61" height="169.61" style="fill:none;"/>
            <clipPath id="_clip1">
                <rect x="7114.09" y="5006.68" width="169.61" height="169.61"/>
            </clipPath>
            <g clip-path="url(#_clip1)">
                <g transform="matrix(1,0,0,1,-13.3464,-26.9628)">
                    <path d="M7216.21,5034.41C7213.63,5034.29 7211.03,5034.29 7208.45,5034.41L7205.03,5076.25C7198.6,5077.34 7192.5,5079.87 7187.17,5083.64L7155.17,5056.47C7153.26,5058.22 7151.43,5060.05 7149.68,5061.97L7176.85,5093.97C7173.08,5099.29 7170.55,5105.39 7169.45,5111.82L7127.61,5115.24C7127.5,5117.83 7127.5,5120.42 7127.61,5123.01L7169.45,5126.42C7170.55,5132.85 7173.08,5138.96 7176.85,5144.28L7149.68,5176.28C7151.43,5178.19 7153.26,5180.03 7155.17,5181.77L7187.17,5154.6C7192.5,5158.38 7198.6,5160.9 7205.03,5162L7208.45,5203.84C7211.03,5203.96 7213.63,5203.96 7216.21,5203.84L7219.63,5162C7226.06,5160.9 7232.17,5158.38 7237.49,5154.6L7269.49,5181.77C7271.4,5180.03 7273.23,5178.19 7274.98,5176.28L7247.81,5144.28C7251.59,5138.96 7254.11,5132.85 7255.21,5126.42L7297.05,5123.01C7297.16,5120.42 7297.16,5117.83 7297.05,5115.24L7255.21,5111.82C7254.11,5105.39 7251.59,5099.29 7247.81,5093.97L7274.98,5061.97C7273.23,5060.05 7271.4,5058.22 7269.49,5056.47L7237.49,5083.64C7232.17,5079.87 7226.06,5077.34 7219.63,5076.25L7216.21,5034.41ZM7212.33,5082.69C7232.44,5082.69 7248.76,5099.02 7248.76,5119.12C7248.76,5139.23 7232.44,5155.55 7212.33,5155.55C7192.23,5155.55 7175.9,5139.23 7175.9,5119.12C7175.9,5099.02 7192.23,5082.69 7212.33,5082.69Z" style="fill:rgb(223,175,15);"/>
                </g>
            </g>
        </g>
    </g>
</svg>
