<?xml version="1.0" encoding="UTF-8" standalone="no"?>
<!DOCTYPE svg PUBLIC "-//W3C//DTD SVG 1.1//EN" "http://www.w3.org/Graphics/SVG/1.1/DTD/svg11.dtd">
<svg width="100%" height="100%" viewBox="0 0 1166 655" version="1.1" xmlns="http://www.w3.org/2000/svg" xmlns:xlink="http://www.w3.org/1999/xlink" xml:space="preserve" xmlns:serif="http://www.serif.com/" style="fill-rule:evenodd;clip-rule:evenodd;stroke-linecap:round;stroke-linejoin:round;stroke-miterlimit:1.5;">
    <rect id="Artboard1" x="0" y="0" width="1165.87" height="654.143" style="fill:none;"/>
    <g>
        <g id="Lettuce">
            <path d="M400.854,103.063L419.135,88.942C423.096,102.667 444.845,104.54 450.67,115.839C458.813,131.636 451.923,155.7 463.723,166.737C473.412,175.8 484.336,183.255 496.501,189.095L470.88,208.886C459.449,203.882 449.229,197.606 440.189,190.091C426.413,178.638 435.815,151.914 427.416,134.818C424.837,129.568 418.3,126.609 411.617,123.627C414.802,139.081 398.121,157.577 398.473,175.064C398.658,184.263 410.115,192.467 415.586,201.553C420.507,204.789 425.673,207.707 431.085,210.306L405.465,230.097C398.825,227.19 392.595,223.855 386.768,220.097L386.582,220.139L386.605,219.992C382.457,217.309 378.514,214.411 374.774,211.302C360.997,199.848 370.4,173.125 362.001,156.028C358.248,148.388 346.11,145.599 337.347,140.535C338.059,141.906 338.743,143.288 339.4,144.681C346.354,159.425 330.571,177.512 327.959,195C328.326,199.349 328.81,203.557 329.835,207.359C333.133,213.196 339.361,218.815 343.489,224.765C351.171,230.898 359.537,236.139 368.59,240.485L342.969,260.276C333.38,256.078 324.642,250.985 316.739,245.016L315.715,245.246C315.764,244.937 315.802,244.63 315.831,244.323C314.627,243.396 313.443,242.449 312.278,241.481C306.408,236.601 304.746,228.948 304.123,220.448C301.124,216.224 298.685,211.993 298.509,207.54C298.298,202.191 299.64,196.739 301.453,191.323C300.942,189.547 300.304,187.834 299.506,186.208C296.96,181.026 290.559,178.076 283.967,175.134C284.87,176.833 285.73,178.551 286.548,180.285C291.463,190.707 285.018,202.8 279.894,215.171C281.082,227.65 280.754,240.553 288.519,247.815C298.208,256.878 309.132,264.333 321.297,270.173L295.676,289.965C290.908,287.877 286.351,285.569 282.003,283.041L278.687,291.214C280.826,292.389 283.007,293.51 285.229,294.577L259.609,314.368C255.908,312.748 252.335,310.995 248.888,309.11L222.839,314.968C225.052,300.856 206.134,289.963 205.633,277.261C205.496,273.797 206.011,270.289 206.883,266.776C204.643,264.121 202.204,261.766 199.446,259.934C194.575,256.696 187.437,257.43 180.161,258.219C190.693,269.968 185.593,294.347 194.7,309.279C199.491,317.134 213.521,318.455 222.822,323.551C228.703,323.87 234.636,323.79 240.62,323.31L228.447,353.309C221.247,354.14 214.184,354.395 207.258,354.082L207.119,354.211L207.064,354.073C202.13,353.843 197.264,353.324 192.467,352.521C174.798,349.56 169.468,321.737 153.604,311.193C146.515,306.482 134.623,310.182 124.502,310.219C125.807,311.045 127.094,311.894 128.363,312.767C141.794,322.005 137.264,345.579 143.811,362.004C146.318,365.577 148.854,368.97 151.653,371.739C157.441,375.121 165.652,376.841 172.214,379.904C181.939,381.335 191.806,381.651 201.816,380.849L189.643,410.848C179.244,412.048 169.13,412.047 159.297,410.868L158.528,411.582C158.414,411.291 158.293,411.006 158.163,410.727C156.656,410.532 155.156,410.31 153.663,410.059C146.134,408.798 140.845,403.023 136.028,395.992C131.31,393.852 127.072,391.424 124.678,387.665C121.803,383.15 120.218,377.763 119.058,372.172C117.722,370.894 116.308,369.735 114.8,368.732C109.992,365.537 102.976,366.21 95.799,366.987C97.434,368.001 99.042,369.052 100.622,370.138C110.116,376.668 110.635,390.362 112.437,403.631C119.745,413.815 125.958,425.128 136.323,427.494C149.257,430.447 162.449,431.388 175.9,430.31L163.727,460.309C155.453,461.264 147.361,461.458 139.448,460.904L130.787,468.953C125.594,455.646 103.765,455.759 96.937,445.036C92.186,437.575 90.957,427.736 89.348,418.509C89.193,418.401 89.039,418.296 88.884,418.193C85.724,416.093 81.61,415.664 77.122,415.837C79.199,417.09 81.23,418.4 83.216,419.767C90.279,424.625 92.375,433.448 93.727,443.108C100.962,453.229 107.159,464.389 117.445,466.737C130.379,469.69 143.571,470.631 157.022,469.553L144.849,499.552C140.836,500.015 136.866,500.299 132.939,500.406L113.381,518.582C108.188,505.275 86.359,505.387 79.531,494.665C72.788,484.075 73.14,468.695 69.432,457.079C58.511,450.719 37.345,462.275 27.581,451.966L36.588,429.771C33.538,428.364 30.418,427.067 27.229,425.879L49.531,405.152L58.632,382.724C60.904,384.894 63.631,386.134 66.618,386.823C59.697,382.656 52.369,379.132 44.634,376.25L68.349,354.211C70.627,354.97 72.864,355.78 75.062,356.641L84.548,333.264C90.183,338.642 98.613,338.314 106.851,338.01C96.432,329.939 84.941,323.56 72.375,318.879L96.09,296.84C101.684,298.704 107.035,300.875 112.143,303.349L123.353,275.725C131.236,283.251 144.593,279.602 155.243,280.485C144.875,272.486 133.451,266.159 120.966,261.508L144.681,239.469C150.192,241.306 155.467,243.44 160.51,245.87L169.195,224.465C176.937,231.856 189.958,228.47 200.508,229.182C192.414,225.569 184.06,221.953 182.243,214.215L201.199,199.572C199.271,196.821 197.229,194.129 195.071,191.497L224.776,184.817L243.931,170.02C244.802,173.038 246.533,175.483 248.768,177.583C244.885,170.498 240.328,163.763 235.096,157.379L266.681,150.276C268.267,152.079 269.793,153.905 271.258,155.755L291.224,140.332C293.384,147.816 300.833,151.776 308.105,155.661C303.166,143.442 296.449,132.145 287.948,121.775L319.533,114.672C323.428,119.099 326.959,123.668 330.127,128.377L353.719,110.153C356.742,120.624 370.12,124.197 378.877,130.32C373.946,118.189 367.261,106.971 358.815,96.668L390.4,89.565C394.238,93.926 397.721,98.425 400.854,103.063ZM759.402,103.063L741.121,88.942C737.16,102.667 715.411,104.54 709.587,115.839C701.443,131.636 708.333,155.7 696.533,166.737C686.844,175.8 675.92,183.255 663.755,189.095L689.376,208.886C700.807,203.882 711.028,197.606 720.067,190.091C733.844,178.638 724.441,151.914 732.84,134.818C735.419,129.568 741.956,126.609 748.639,123.627C745.454,139.081 762.135,157.577 761.783,175.064C761.598,184.263 750.141,192.467 744.67,201.553C739.749,204.789 734.583,207.707 729.171,210.306L754.791,230.097C761.431,227.19 767.662,223.855 773.489,220.097L773.674,220.139L773.652,219.992C777.799,217.309 781.742,214.411 785.482,211.302C799.259,199.848 789.856,173.125 798.255,156.028C802.008,148.388 814.146,145.599 822.909,140.535C822.197,141.906 821.513,143.288 820.856,144.681C813.902,159.425 829.685,177.512 832.297,195C831.93,199.35 831.446,203.558 830.421,207.359C827.124,213.196 820.896,218.815 816.767,224.765C809.085,230.898 800.719,236.139 791.666,240.485L817.287,260.276C826.877,256.078 835.614,250.985 843.517,245.016L844.541,245.246C844.492,244.937 844.454,244.63 844.426,244.323C845.63,243.396 846.813,242.449 847.978,241.481C853.848,236.601 855.51,228.948 856.133,220.448C859.132,216.224 861.571,211.993 861.747,207.54C861.958,202.191 860.616,196.739 858.803,191.323C859.314,189.547 859.952,187.834 860.75,186.208C863.296,181.026 869.697,178.076 876.289,175.134C875.386,176.833 874.526,178.551 873.708,180.285C868.793,190.707 875.238,202.8 880.362,215.171C879.174,227.65 879.502,240.553 871.737,247.815C862.048,256.878 851.124,264.333 838.959,270.173L864.58,289.965C869.348,287.877 873.905,285.569 878.253,283.041L881.569,291.214C879.431,292.389 877.249,293.51 875.027,294.577L900.647,314.368C904.348,312.748 907.921,310.995 911.368,309.11L937.417,314.968C935.204,300.856 954.122,289.963 954.623,277.261C954.76,273.797 954.245,270.289 953.373,266.776C955.614,264.121 958.053,261.766 960.81,259.934C965.681,256.696 972.819,257.43 980.095,258.219C969.563,269.968 974.664,294.347 965.556,309.279C960.765,317.134 946.735,318.455 937.434,323.551C931.553,323.87 925.62,323.79 919.636,323.31L931.809,353.309C939.009,354.14 946.072,354.395 952.998,354.082L953.137,354.211L953.192,354.073C958.127,353.843 962.992,353.324 967.789,352.521C985.459,349.56 990.788,321.737 1006.65,311.193C1013.74,306.482 1025.63,310.182 1035.75,310.219C1034.45,311.045 1033.16,311.894 1031.89,312.767C1018.46,322.005 1022.99,345.579 1016.45,362.004C1013.94,365.578 1011.4,368.97 1008.6,371.739C1002.82,375.121 994.605,376.841 988.042,379.904C978.317,381.335 968.45,381.651 958.44,380.849L970.613,410.848C981.013,412.048 991.126,412.047 1000.96,410.868L1001.73,411.582C1001.84,411.291 1001.96,411.006 1002.09,410.727C1003.6,410.532 1005.1,410.31 1006.59,410.059C1014.12,408.798 1019.41,403.023 1024.23,395.992C1028.95,393.852 1033.18,391.424 1035.58,387.665C1038.45,383.15 1040.04,377.763 1041.2,372.172C1042.53,370.894 1043.95,369.735 1045.46,368.732C1050.26,365.537 1057.28,366.21 1064.46,366.987C1062.82,368.001 1061.21,369.052 1059.63,370.138C1050.14,376.668 1049.62,390.362 1047.82,403.631C1040.51,413.815 1034.3,425.128 1023.93,427.494C1011,430.447 997.807,431.388 984.356,430.31L996.529,460.309C1004.8,461.264 1012.89,461.458 1020.81,460.904L1029.47,468.953C1034.66,455.646 1056.49,455.759 1063.32,445.036C1068.07,437.575 1069.3,427.736 1070.91,418.509C1071.06,418.401 1071.22,418.296 1071.37,418.193C1074.53,416.093 1078.65,415.664 1083.13,415.837C1081.06,417.09 1079.03,418.4 1077.04,419.767C1069.98,424.625 1067.88,433.448 1066.53,443.108C1059.29,453.229 1053.1,464.389 1042.81,466.737C1029.88,469.69 1016.69,470.631 1003.23,469.553L1015.41,499.552C1019.42,500.015 1023.39,500.299 1027.32,500.406L1046.88,518.582C1052.07,505.275 1073.9,505.387 1080.72,494.665C1087.47,484.075 1087.12,468.695 1090.82,457.079L1090.89,457.04C1094.28,455.127 1098.33,454.93 1102.13,455.085C1107.94,455.322 1113.7,456.465 1119.53,456.462C1123.38,456.46 1127.43,455.92 1130.68,453.679C1131.4,453.178 1132.07,452.601 1132.67,451.966L1123.67,429.771C1126.72,428.364 1129.84,427.067 1133.03,425.879L1110.73,405.152L1101.62,382.724C1099.35,384.894 1096.62,386.134 1093.64,386.823C1100.56,382.656 1107.89,379.132 1115.62,376.25L1091.91,354.211C1089.63,354.97 1087.39,355.78 1085.19,356.641L1075.71,333.264C1070.07,338.642 1061.64,338.314 1053.4,338.01C1063.82,329.939 1075.32,323.56 1087.88,318.879L1064.17,296.84C1058.57,298.704 1053.22,300.875 1048.11,303.349L1036.9,275.725C1029.02,283.251 1015.66,279.602 1005.01,280.485C1015.38,272.486 1026.81,266.159 1039.29,261.508L1015.58,239.469C1010.06,241.306 1004.79,243.44 999.747,245.87L991.061,224.465C983.319,231.856 970.298,228.47 959.748,229.182L960.574,228.813C961.723,228.299 962.872,227.785 964.011,227.25C964.909,226.829 965.802,226.396 966.684,225.94C967.331,225.606 967.972,225.261 968.605,224.899C972.095,222.903 975.515,220.309 977.218,216.553C977.56,215.8 977.819,215.018 978.013,214.215L959.057,199.572C960.985,196.821 963.027,194.129 965.185,191.497L935.48,184.817L916.325,170.02C915.454,173.038 913.723,175.483 911.488,177.583C915.371,170.498 919.928,163.763 925.161,157.379L893.575,150.276C891.989,152.079 890.463,153.905 888.998,155.755L869.032,140.332C866.872,147.816 859.423,151.776 852.151,155.661C857.091,143.442 863.808,132.145 872.308,121.775L840.723,114.672C836.828,119.099 833.298,123.668 830.129,128.377L806.537,110.153C803.514,120.624 790.136,124.197 781.379,130.32C786.31,118.189 792.995,106.971 801.441,96.668L769.856,89.565C766.018,93.926 762.535,98.425 759.402,103.063ZM243.236,207.939C247.201,210.049 250.54,212.491 252.213,215.896C252.295,216.063 252.376,216.232 252.455,216.403C249.2,225.185 245.308,234.305 245.657,243.144C246.045,252.972 257.46,261.718 261.58,271.711C257.847,271.302 254.135,270.73 250.444,269.995C244.783,262.564 244.899,251.06 243.854,239.862C247.55,230.834 250.18,222.156 246.524,214.403C245.495,212.222 244.4,210.068 243.236,207.939ZM917.02,207.939C913.055,210.049 909.716,212.491 908.044,215.896C907.961,216.063 907.881,216.232 907.801,216.403C911.056,225.185 914.948,234.305 914.599,243.144C914.211,252.972 902.796,261.718 898.677,271.711C902.409,271.302 906.121,270.73 909.812,269.995C915.473,262.564 915.357,251.059 916.403,239.862C912.707,230.834 910.076,222.156 913.733,214.403C914.761,212.222 915.857,210.068 917.02,207.939Z" style="fill:#de2726;"/>
        </g>
        <g id="Beef">
            <path d="M50.009,471.773C50.06,468.089 51.506,464.422 54.337,461.637C60.044,456.024 69.235,456.099 74.848,461.806C78.994,466.021 80.036,472.135 78,477.305C81.178,477.649 84.234,479.031 86.619,481.455C92.232,487.162 92.009,496.497 86.121,502.289C83.107,505.253 79.19,506.718 75.332,506.677C75.111,510.259 73.592,513.811 70.795,516.562C70.093,517.253 69.342,517.862 68.555,518.389C69.535,518.983 70.455,519.706 71.292,520.557C76.906,526.264 76.683,535.6 70.795,541.391C67.336,544.793 62.687,546.22 58.301,545.662C60.308,549.428 60.534,553.891 58.99,557.812C62.168,558.155 65.224,559.537 67.609,561.962C73.222,567.669 72.999,577.004 67.111,582.795C65.201,584.675 62.927,585.952 60.535,586.623C60.591,586.679 60.647,586.734 60.702,586.79C65.281,591.445 65.977,598.513 62.883,604.103C65.291,604.73 67.552,605.985 69.407,607.87C75.02,613.577 74.797,622.912 68.909,628.704C63.021,634.495 53.683,634.564 48.07,628.857L48.066,628.853C47.973,628.949 47.879,629.045 47.783,629.14C41.736,635.087 31.998,635.007 26.051,628.96C21.399,624.23 20.435,617.242 23.13,611.576C21.012,610.822 19.028,609.59 17.347,607.88C11.399,601.834 11.48,592.096 17.526,586.149C19.321,584.384 21.44,583.15 23.688,582.445C18.652,576.749 18.573,568.219 23.405,562.435C18.392,563.563 12.925,562.153 9.059,558.223C3.112,552.177 3.192,542.439 9.239,536.492C11.354,534.411 13.92,533.068 16.618,532.461C14.82,527.325 15.999,521.381 20.133,517.315C21.756,515.718 23.661,514.582 25.685,513.905C22.145,507.964 22.968,500.151 28.116,495.087C30.231,493.007 32.798,491.664 35.496,491.056C33.698,485.92 34.877,479.977 39.011,475.91C42.046,472.925 46.066,471.549 50.009,471.773ZM1087.91,496.138C1088.13,499.721 1089.65,503.272 1092.45,506.024C1093.15,506.714 1093.9,507.323 1094.69,507.85C1093.71,508.445 1092.79,509.168 1091.95,510.019C1086.34,515.726 1086.56,525.061 1092.45,530.853C1095.9,534.255 1100.55,535.682 1104.94,535.124C1102.93,538.889 1102.71,543.353 1104.25,547.273C1101.07,547.617 1098.02,548.999 1095.63,551.423C1090.02,557.13 1090.24,566.465 1096.13,572.257C1098.04,574.136 1100.32,575.413 1102.71,576.085C1102.65,576.14 1102.59,576.196 1102.54,576.252C1096.93,581.959 1097.15,591.294 1103.04,597.086C1103.3,597.344 1103.57,597.591 1103.85,597.826C1103.77,599.824 1104.1,601.835 1104.84,603.72C1101.66,604.064 1098.61,605.446 1096.22,607.87C1090.61,613.577 1090.83,622.912 1096.72,628.704C1102.61,634.495 1111.95,634.564 1117.56,628.857L1117.56,628.853C1117.66,628.949 1117.75,629.045 1117.85,629.14C1123.89,635.087 1133.63,635.007 1139.58,628.96C1145.53,622.913 1145.45,613.176 1139.4,607.228C1137.29,605.148 1134.72,603.805 1132.02,603.197C1132.19,602.714 1132.33,602.224 1132.45,601.728C1137.21,602.505 1142.26,601.038 1145.89,597.342C1151.84,591.295 1151.76,581.558 1145.71,575.61C1143.92,573.846 1141.8,572.611 1139.55,571.907C1144.59,566.21 1144.67,557.679 1139.84,551.896C1144.85,553.024 1150.32,551.615 1154.18,547.685C1160.13,541.638 1160.05,531.9 1154,525.953C1151.89,523.873 1149.32,522.53 1146.62,521.922C1148.42,516.786 1147.24,510.843 1143.11,506.776C1141.49,505.18 1139.58,504.043 1137.56,503.366C1141.1,497.425 1140.27,489.613 1135.12,484.549C1133.01,482.468 1130.44,481.125 1127.75,480.518C1129.54,475.382 1128.36,469.438 1124.23,465.372C1121.19,462.387 1117.17,461.011 1113.23,461.235C1113.18,457.55 1111.74,453.884 1108.9,451.098C1103.2,445.485 1094.01,445.561 1088.39,451.268C1084.25,455.482 1083.2,461.597 1085.24,466.767C1082.06,467.11 1079.01,468.492 1076.62,470.917C1071.01,476.624 1071.23,485.959 1077.12,491.75C1080.13,494.714 1084.05,496.18 1087.91,496.138Z" style="fill:#de2726;"/>
        </g>
        <g id="Sour-Cream" serif:id="Sour Cream">
            <path d="M395.325,138.239C383.19,130.995 377.049,152.706 356.619,158.153C351.916,159.407 346.681,159.04 341.886,158.355C323.52,155.731 288.431,141.5 286.605,119.131C283.897,85.963 320.543,70.298 347.986,77.52C358.219,80.212 374.309,91.969 384.965,87.074C391.184,84.216 393.687,76.015 398.087,71.189C407.783,60.555 434.614,45.738 448.419,50.124C500.303,66.608 482.208,42.516 512.966,37.088C532.403,33.658 550.63,50.862 571.269,44.282C586.767,39.34 591.666,27.616 606.378,34.843C613.922,38.549 624.057,37.419 632.926,37.419C641.026,37.419 661.978,53.291 669.165,50.239C684.054,43.916 696.049,39.149 712.306,42.325C725.98,44.997 740.253,51.473 749.198,62.498C757.038,72.161 761.389,84.807 772.594,91.477C784.231,98.403 795.801,87.758 807.673,86.325C836.956,82.791 872.48,114.336 839.069,137.405C827.744,145.225 812.353,143.498 799.414,142.527C758.537,139.462 725.538,105.171 682.521,115.189C657.001,121.132 633.365,136.656 606.434,134.412C581.315,132.319 560.856,114.546 536.103,110.786C512.81,107.248 490.777,118.395 473.11,132.801C462.59,141.378 452.252,153.397 438.347,156.139C420.036,159.749 409.502,146.703 395.325,138.239Z" style="fill:#de2726;"/>
        </g>
        <g id="Cheese">
            <path d="M869.626,282.328L879.414,291.71C887.017,280.598 902.1,274.586 910.057,264.894C921.182,251.344 925.349,234.794 937.169,224.032C946.874,215.195 956.814,207.299 966.989,200.35L957.202,190.968C947.815,197.136 938.769,204 930.056,211.541C916.777,223.033 913.308,241.042 901.543,255.618C893.58,265.483 876.919,271.097 869.626,282.328ZM295.28,282.328L285.493,291.71C277.89,280.598 262.806,274.586 254.849,264.894C243.725,251.344 239.557,234.794 227.738,224.032C218.033,215.195 208.093,207.299 197.917,200.35L207.705,190.968C217.092,197.136 226.137,204 234.85,211.541C248.13,223.033 251.598,241.042 263.364,255.618C271.326,265.483 287.988,271.097 295.28,282.328ZM224.72,185.633C218.575,180.581 212.339,175.894 206.012,171.572L215.799,162.19C225.186,168.359 234.231,175.223 242.945,182.764C256.224,194.256 259.692,212.265 271.458,226.841C279.42,236.706 296.082,242.32 303.374,253.55L295.987,260.632C302.682,265.067 309.562,269.555 313.588,275.754L303.8,285.136C296.198,274.024 281.114,268.012 273.157,258.321C262.032,244.771 257.865,228.221 246.045,217.458C236.34,208.621 226.4,200.726 216.225,193.776L224.72,185.633ZM868.919,260.632C862.225,265.067 855.344,269.555 851.319,275.754L861.106,285.136C868.709,274.024 883.793,268.012 891.75,258.321C902.875,244.771 907.042,228.221 918.862,217.458C928.567,208.621 938.506,200.726 948.682,193.776L940.187,185.633C946.332,180.581 952.568,175.894 958.895,171.572L949.108,162.19C939.721,168.359 930.675,175.223 921.962,182.764C908.683,194.256 905.214,212.265 893.449,226.841C885.486,236.706 868.825,242.32 861.532,253.55L868.919,260.632ZM260.992,175.351C259.227,173 257.288,170.791 255.084,168.784C245.379,159.947 235.439,152.052 225.264,145.102L235.051,135.72C244.438,141.889 253.484,148.753 262.197,156.293C275.476,167.786 278.945,185.794 290.71,200.371C298.673,210.236 315.334,215.85 322.627,227.08L312.839,236.462C308.041,229.45 300.263,224.468 293.177,219.31C294.762,221.886 296.492,224.411 298.454,226.841C306.416,236.706 323.078,242.32 330.37,253.55L320.583,262.932C312.98,251.821 297.896,245.808 289.939,236.117C278.815,222.567 274.647,206.017 262.828,195.255C253.123,186.418 243.183,178.522 233.007,171.572L242.795,162.19C249.009,166.274 255.073,170.662 260.992,175.351ZM871.73,219.31C870.145,221.886 868.414,224.411 866.453,226.841C858.49,236.706 841.829,242.32 834.537,253.55L844.324,262.932C851.927,251.821 867.01,245.808 874.967,236.117C886.092,222.567 890.259,206.017 902.079,195.255C911.784,186.418 921.724,178.522 931.899,171.572L922.112,162.19C915.898,166.274 909.833,170.662 903.915,175.351C905.68,173 907.618,170.791 909.823,168.784C919.528,159.947 929.467,152.052 939.643,145.102L929.855,135.72C920.469,141.889 911.423,148.753 902.71,156.293C889.431,167.786 885.962,185.794 874.197,200.371C866.234,210.236 849.573,215.85 842.28,227.08L852.067,236.462C856.866,229.45 864.643,224.468 871.73,219.31ZM322.229,145.948C320.979,141.878 319.401,137.971 317.179,134.306C310.371,123.084 303.073,112.698 295.28,103.153L307.323,96.924C314.58,105.498 321.313,114.641 327.536,124.339C334.209,134.741 335.31,146.862 337.871,159.164C348.287,164.792 363.335,166.463 372.289,174.472L365.302,186.091C359.015,180.734 350.513,177.968 342.52,174.95C345.051,180.883 350.001,186.408 354.74,192.093C361.233,194.29 367.598,196.746 372.289,200.943L365.302,212.561C364.521,211.896 363.706,211.271 362.861,210.679L353.418,215.563C351.965,211.077 349.456,206.932 346.597,202.941C340.137,200.534 333.71,198.273 328.703,194.712C314.417,184.55 306.059,169.67 291.832,162.38C280.151,156.395 268.49,151.38 256.849,147.339L263.836,135.72C274.511,139.214 285.039,143.468 295.424,148.462C310.258,155.597 318.274,170.514 331.715,181.401L331.617,181.171C329.654,176.535 328.311,171.823 327.198,167.138C313.814,157.03 305.552,142.94 291.832,135.91C280.151,129.925 268.49,124.91 256.849,120.869L263.836,109.25C274.511,112.744 285.039,116.998 295.424,121.992C306.45,127.295 313.71,136.898 322.229,145.948ZM827.035,159.164C816.619,164.792 801.572,166.463 792.617,174.472L799.605,186.091C805.892,180.734 814.394,177.968 822.387,174.95C819.856,180.883 814.906,186.408 810.166,192.093C803.674,194.29 797.309,196.746 792.617,200.943L799.605,212.561C800.386,211.896 801.201,211.271 802.046,210.679L811.489,215.563C812.942,211.077 815.451,206.932 818.31,202.941C824.77,200.534 831.197,198.273 836.203,194.712C850.49,184.55 858.848,169.67 873.075,162.38C884.756,156.395 896.417,151.38 908.058,147.339L901.071,135.72C890.395,139.214 879.868,143.468 869.483,148.462C854.649,155.597 846.632,170.514 833.192,181.401L833.29,181.171C835.253,176.535 836.596,171.823 837.708,167.138C851.092,157.03 859.354,142.94 873.075,135.91C884.756,129.925 896.417,124.91 908.058,120.869L901.071,109.25C890.395,112.744 879.868,116.998 869.483,121.992C858.457,127.295 851.197,136.898 842.678,145.948C843.928,141.878 845.506,137.971 847.728,134.306C854.535,123.084 861.834,112.698 869.626,103.153L857.584,96.924C850.327,105.498 843.594,114.641 837.371,124.339C830.697,134.741 829.596,146.862 827.035,159.164Z" style="fill:#de2726;"/>
        </g>
        <g id="Tomato">
            <path d="M361.682,121.124C356.083,118.324 346.308,110.255 345.406,103.789C344.85,99.803 346.724,96.165 348.974,93.014C354.521,85.249 364.342,72.488 374.39,71.282C395.657,68.73 397.976,98.108 388.273,110.488C385.063,114.583 380.482,114.179 376.117,115.944C371.8,117.689 369.175,120.636 366.218,124.048" style="fill:#de2726;"/>
            <path d="M462.242,58.262C459.056,54.699 454.282,49.177 453.608,48.359C450.399,44.46 446.387,40.856 442.075,37.405C440.839,36.416 437.828,34.432 438.667,33C439.531,31.527 443.532,30.894 445.574,30.424C451.95,28.955 458.437,27.652 464.889,26.321C473.567,24.532 482.437,22.557 491.479,21.629C494.462,21.323 498.833,20.66 501.54,21.845C504.137,22.981 503.372,25.831 503.128,27.487C502.339,32.843 501.173,38.302 499.284,43.551C497.781,47.725 498.657,57.245 495.324,60.291C493.586,61.88 489.141,61.689 486.483,61.644C478.114,61.505 469.808,60.627 462.242,58.262Z" style="fill:#de2726;"/>
            <path d="M584.69,40.552C587.538,38.456 595.806,19.579 597.149,16.04C598.108,13.512 599.71,9.259 603.06,9.39C608.585,9.606 614.097,16.931 617.465,20.65C626.759,30.912 634.045,42.849 641.687,54.332C644.534,58.61 650.073,62.95 650.475,68.406C650.955,74.937 645.658,85.845 637.949,84.866C633.427,84.291 628.648,79.466 625.661,76.328C621.271,71.715 617.302,66.715 612.904,62.103C604.463,53.252 594.544,47.527 584.69,40.552Z" style="fill:#de2726;"/>
            <path d="M752.514,59.094C752.485,59.056 739.123,77.57 735.73,72.673C730.709,65.427 717.667,55.842 708.875,56.587C705.917,56.838 700.911,57.578 698.347,55.305C696.293,53.485 696.569,49.719 696.57,47.257C696.575,40.184 697.491,33.247 697.903,26.215C698.052,23.661 697.471,16.658 701.728,17.651C708.005,19.116 714.071,24.919 718.999,28.96C730.601,38.472 740.962,49.553 752.514,59.094" style="fill:#de2726;"/>
            <path d="M823.148,66.686C816.575,69.332 809.002,70.043 801.992,70.662C798.987,70.927 793.754,70.265 793.37,74.366C792.758,80.893 797.077,92.819 798.91,99.434C799.631,102.036 800.353,105.722 802.918,107.194C807.019,109.549 815.221,106.994 819.619,106.604C823.274,106.279 832.867,108.244 835.076,104.544C836.565,102.048 835.856,98.371 835.379,95.698C834.126,88.679 836.836,78.201 835.085,71.297C834.831,70.296 830.254,62.118 830.993,61.675C830.993,61.675 824.53,66.13 823.148,66.686Z" style="fill:#de2726;"/>
        </g>
        <path d="M1111.01,512.289C1089.93,317.274 813.268,71.126 618.253,71.126L534.348,71.126C339.333,71.126 65.082,312.005 52.787,514.046L45.761,601.963C45.761,610.647 40.845,637.297 40.845,637.297L1080.29,637.297C1090.61,637.297 1128.79,636.291 1128.79,636.291C1128.79,636.291 1115.62,611.138 1115.62,601.963L1111.01,512.289Z" style="fill:#de2726;stroke:#000;stroke-width:16.67px;"/>
    </g>
</svg>
