<?xml version="1.0" encoding="UTF-8" standalone="no"?>
<!DOCTYPE svg PUBLIC "-//W3C//DTD SVG 1.1//EN" "http://www.w3.org/Graphics/SVG/1.1/DTD/svg11.dtd">
<svg width="100%" height="100%" viewBox="0 0 1410 1219" version="1.1" xmlns="http://www.w3.org/2000/svg" xmlns:xlink="http://www.w3.org/1999/xlink" xml:space="preserve" xmlns:serif="http://www.serif.com/" style="fill-rule:evenodd;clip-rule:evenodd;stroke-linecap:round;stroke-linejoin:round;stroke-miterlimit:1.5;">
    <rect id="Under-Construction" serif:id="Under Construction" x="0" y="0" width="1409.35" height="1218.86" style="fill:none;"/>
    <clipPath id="_clip1">
        <rect x="0" y="0" width="1409.35" height="1218.86"/>
    </clipPath>
    <g clip-path="url(#_clip1)">
        <g id="Sign">
            <g id="Sign-Frame" serif:id="Sign Frame">
                <path id="Shadow" d="M717.82,91.201L1340,1149.06L95.645,1149.06L717.82,91.201Z" style="fill:none;stroke:#544;stroke-width:140px;"/>
                <path d="M717.82,91.201L1340,1149.06L95.645,1149.06L717.82,91.201Z" style="fill:#dfaf0f;"/>
                <path id="Black-Outline" serif:id="Black Outline" d="M692.82,70.201L1315,1128.06L70.645,1128.06L692.82,70.201Z" style="fill:none;stroke:#151212;stroke-width:140px;"/>
                <path d="M692.82,70.201L1315,1128.06L70.645,1128.06L692.82,70.201Z" style="fill:#dfaf0f;"/>
                <path id="triangle-highlight" serif:id="triangle highlight" d="M692.82,70.201L1315,1128.06L70.645,1128.06L692.82,70.201Z" style="fill:none;stroke:#dfaf0f;stroke-width:80px;"/>
                <path d="M692.82,70.201L1315,1128.06L70.645,1128.06L692.82,70.201Z" style="fill:url(#_Radial2);"/>
            </g>
            <g>
                <clipPath id="_clip3">
                    <path d="M692.82,52.746L1396.22,1276.33L-10.582,1276.33L692.82,52.746Z"/>
                </clipPath>
                <g clip-path="url(#_clip3)">
                    <g id="stripes-top" serif:id="stripes top">
                        <path d="M802.187,-0.905L725.599,-0.905L449.484,452.305L526.072,452.305L802.187,-0.905Z" style="fill:#151212;"/>
                        <path d="M945.591,-0.905L869.003,-0.905L592.888,452.305L669.476,452.305L945.591,-0.905Z" style="fill:#151212;"/>
                        <path d="M1089,-0.905L1012.41,-0.905L736.292,452.305L812.88,452.305L1089,-0.905Z" style="fill:#151212;"/>
                        <path d="M1232.4,-0.905L1155.81,-0.905L879.695,452.305L956.284,452.305L1232.4,-0.905Z" style="fill:#151212;"/>
                    </g>
                    <g id="stripes-bottom" serif:id="stripes bottom">
                        <path d="M261.575,930.307L184.986,930.307L66.835,1134.61L143.423,1134.61L261.575,930.307Z" style="fill:#151212;"/>
                        <path d="M404.979,930.307L328.39,930.307L210.239,1134.61L286.827,1134.61L404.979,930.307Z" style="fill:#151212;"/>
                        <path d="M548.382,930.307L471.794,930.307L353.642,1134.61L430.231,1134.61L548.382,930.307Z" style="fill:#151212;"/>
                        <path d="M691.786,930.307L615.198,930.307L497.046,1134.61L573.635,1134.61L691.786,930.307Z" style="fill:#151212;"/>
                        <path d="M835.19,930.307L758.602,930.307L640.45,1134.61L717.039,1134.61L835.19,930.307Z" style="fill:#151212;"/>
                        <path d="M978.594,930.307L902.005,930.307L783.854,1134.61L860.442,1134.61L978.594,930.307Z" style="fill:#151212;"/>
                        <path d="M1122,930.307L1045.41,930.307L927.258,1134.61L1003.85,1134.61L1122,930.307Z" style="fill:#151212;"/>
                        <path d="M1265.4,930.307L1188.81,930.307L1070.66,1134.61L1147.25,1134.61L1265.4,930.307Z" style="fill:#151212;"/>
                        <path d="M1408.81,930.307L1332.22,930.307L1214.07,1134.61L1290.65,1134.61L1408.81,930.307Z" style="fill:#151212;"/>
                    </g>
                    <g id="sign-text" serif:id="sign text">
                        <path d="M481.674,712.034C465.655,712.034 453.859,707.538 446.286,698.546C438.714,689.553 434.927,676.319 434.927,658.844L434.927,518.059L472.281,518.059L472.281,657.315C472.281,660.519 472.463,663.595 472.827,666.544C473.191,669.493 474.028,671.914 475.339,673.807C476.649,675.7 478.761,676.647 481.674,676.647C484.659,676.647 486.807,675.719 488.118,673.862C489.428,672.005 490.247,669.584 490.575,666.599C490.903,663.613 491.067,660.519 491.067,657.315L491.067,518.059L528.42,518.059L528.42,658.844C528.42,676.319 524.633,689.553 517.061,698.546C509.488,707.538 497.693,712.034 481.674,712.034Z" style="fill:#151212;fill-rule:nonzero;"/>
                        <path d="M543.164,710.287L543.164,518.059L582.702,518.059L600.396,610.132L600.396,518.059L637.531,518.059L637.531,710.287L599.959,710.287L580.736,614.173L580.736,710.287L543.164,710.287Z" style="fill:#151212;fill-rule:nonzero;"/>
                        <path d="M654.569,710.287L654.569,518.059L707.431,518.059C721.266,518.059 731.678,521.9 738.668,529.582C745.658,537.264 749.153,548.495 749.153,563.277L749.153,653.274C749.153,671.477 745.968,685.53 739.597,695.433C733.225,705.335 722.067,710.287 706.121,710.287L654.569,710.287ZM693.233,676.319L699.895,676.319C706.958,676.319 710.489,672.897 710.489,666.053L710.489,566.881C710.489,560.473 709.634,556.341 707.923,554.484C706.212,552.628 702.735,551.699 697.492,551.699L693.233,551.699L693.233,676.319Z" style="fill:#151212;fill-rule:nonzero;"/>
                        <path d="M764.881,710.287L764.881,518.059L841.772,518.059L841.772,555.194L803.982,555.194L803.982,592.657L840.243,592.657L840.243,628.809L803.982,628.809L803.982,672.824L844.284,672.824L844.284,710.287L764.881,710.287Z" style="fill:#151212;fill-rule:nonzero;"/>
                        <path d="M856.953,710.287L856.953,518.059L915.932,518.059C925.762,518.059 933.189,520.299 938.213,524.777C943.237,529.255 946.605,535.516 948.316,543.562C950.027,551.608 950.883,561.056 950.883,571.905C950.883,582.39 949.554,590.764 946.896,597.026C944.238,603.287 939.233,607.62 931.878,610.023C937.922,611.261 942.163,614.264 944.603,619.033C947.042,623.803 948.261,629.974 948.261,637.546L948.261,710.287L910.362,710.287L910.362,635.034C910.362,629.427 909.215,625.951 906.922,624.604C904.628,623.257 900.933,622.583 895.836,622.583L895.836,710.287L856.953,710.287ZM896.054,589.271L905.338,589.271C910.653,589.271 913.311,583.482 913.311,571.905C913.311,564.405 912.728,559.49 911.563,557.16C910.398,554.83 908.214,553.665 905.01,553.665L896.054,553.665L896.054,589.271Z" style="fill:#151212;fill-rule:nonzero;"/>
                        <path d="M331.656,871.713C322.458,871.713 315.053,868.848 309.443,863.117C303.832,857.386 301.027,849.368 301.027,839.062L301.027,780.405C301.027,768.077 303.471,758.638 308.359,752.088C313.247,745.539 321.205,742.264 332.234,742.264C338.253,742.264 343.611,743.371 348.307,745.587C353.002,747.802 356.698,751.113 359.395,755.519C362.092,759.926 363.44,765.476 363.44,772.17L363.44,794.13L338.157,794.13L338.157,775.348C338.157,771.544 337.676,768.98 336.712,767.655C335.749,766.331 334.256,765.669 332.234,765.669C329.874,765.669 328.285,766.523 327.466,768.233C326.647,769.943 326.238,772.218 326.238,775.06L326.238,838.701C326.238,842.216 326.756,844.696 327.791,846.141C328.827,847.586 330.307,848.308 332.234,848.308C334.401,848.308 335.93,847.417 336.821,845.635C337.712,843.854 338.157,841.542 338.157,838.701L338.157,815.801L363.729,815.801L363.729,839.856C363.729,851.029 360.912,859.132 355.277,864.164C349.643,869.197 341.769,871.713 331.656,871.713Z" style="fill:#151212;fill-rule:nonzero;"/>
                        <path d="M402.521,871.713C392.359,871.713 384.594,868.643 379.224,862.503C373.854,856.363 371.17,847.49 371.17,835.883L371.17,775.493C371.17,764.609 373.83,756.35 379.152,750.716C384.473,745.081 392.263,742.264 402.521,742.264C412.778,742.264 420.568,745.081 425.889,750.716C431.211,756.35 433.872,764.609 433.872,775.493L433.872,835.883C433.872,847.49 431.187,856.363 425.817,862.503C420.448,868.643 412.682,871.713 402.521,871.713ZM402.737,848.308C406.59,848.308 408.516,844.576 408.516,837.111L408.516,775.06C408.516,768.799 406.638,765.669 402.882,765.669C398.644,765.669 396.525,768.871 396.525,775.276L396.525,837.256C396.525,841.205 397.007,844.034 397.97,845.744C398.933,847.453 400.522,848.308 402.737,848.308Z" style="fill:#151212;fill-rule:nonzero;"/>
                        <path d="M444.129,870.557L444.129,743.42L470.279,743.42L481.982,804.316L481.982,743.42L506.542,743.42L506.542,870.557L481.693,870.557L468.979,806.988L468.979,870.557L444.129,870.557Z" style="fill:#151212;fill-rule:nonzero;"/>
                        <path d="M548.007,871.713C536.401,871.713 528.033,868.824 522.904,863.045C517.775,857.266 515.211,848.067 515.211,835.45L515.211,823.025L540.35,823.025L540.35,838.917C540.35,841.855 540.795,844.155 541.686,845.816C542.577,847.477 544.13,848.308 546.345,848.308C548.657,848.308 550.258,847.634 551.149,846.286C552.04,844.937 552.485,842.722 552.485,839.64C552.485,835.739 552.1,832.476 551.33,829.852C550.559,827.227 549.223,824.723 547.32,822.339C545.418,819.955 542.782,817.174 539.41,813.995L527.997,803.16C519.473,795.117 515.211,785.919 515.211,775.565C515.211,764.73 517.727,756.47 522.76,750.788C527.792,745.105 535.076,742.264 544.612,742.264C556.266,742.264 564.537,745.37 569.425,751.582C574.313,757.795 576.757,767.234 576.757,779.899L550.896,779.899L550.896,771.159C550.896,769.425 550.403,768.077 549.415,767.113C548.428,766.15 547.092,765.669 545.406,765.669C543.384,765.669 541.903,766.235 540.964,767.366C540.025,768.498 539.555,769.955 539.555,771.737C539.555,773.518 540.037,775.445 541,777.516C541.963,779.586 543.865,781.97 546.706,784.667L561.371,798.753C564.308,801.547 567.005,804.496 569.461,807.602C571.917,810.709 573.892,814.321 575.385,818.438C576.878,822.556 577.624,827.576 577.624,833.5C577.624,845.443 575.421,854.798 571.014,861.564C566.608,868.33 558.939,871.713 548.007,871.713Z" style="fill:#151212;fill-rule:nonzero;"/>
                        <path d="M596.984,870.557L596.984,767.836L581.886,767.836L581.886,743.42L637.509,743.42L637.509,767.836L622.411,767.836L622.411,870.557L596.984,870.557Z" style="fill:#151212;fill-rule:nonzero;"/>
                        <path d="M644.588,870.557L644.588,743.42L683.596,743.42C690.098,743.42 695.01,744.9 698.333,747.862C701.656,750.824 703.883,754.965 705.015,760.287C706.146,765.608 706.712,771.857 706.712,779.033C706.712,785.967 705.833,791.506 704.076,795.647C702.318,799.789 699.007,802.654 694.143,804.243C698.14,805.062 700.945,807.049 702.559,810.203C704.172,813.357 704.979,817.439 704.979,822.447L704.979,870.557L679.912,870.557L679.912,820.786C679.912,817.078 679.154,814.778 677.637,813.887C676.12,812.996 673.676,812.551 670.305,812.551L670.305,870.557L644.588,870.557ZM670.449,790.518L676.589,790.518C680.105,790.518 681.863,786.69 681.863,779.033C681.863,774.072 681.477,770.822 680.707,769.281C679.936,767.739 678.492,766.969 676.373,766.969L670.449,766.969L670.449,790.518Z" style="fill:#151212;fill-rule:nonzero;"/>
                        <path d="M744.492,871.713C733.898,871.713 726.096,868.739 721.087,862.792C716.079,856.844 713.575,848.092 713.575,836.534L713.575,743.42L738.28,743.42L738.28,835.522C738.28,837.641 738.4,839.676 738.641,841.626C738.882,843.577 739.436,845.178 740.303,846.43C741.169,847.682 742.566,848.308 744.492,848.308C746.467,848.308 747.888,847.694 748.754,846.466C749.621,845.238 750.163,843.637 750.38,841.662C750.596,839.688 750.705,837.641 750.705,835.522L750.705,743.42L775.41,743.42L775.41,836.534C775.41,848.092 772.906,856.844 767.897,862.792C762.889,868.739 755.087,871.713 744.492,871.713Z" style="fill:#151212;fill-rule:nonzero;"/>
                        <path d="M814.779,871.713C805.581,871.713 798.177,868.848 792.566,863.117C786.956,857.386 784.151,849.368 784.151,839.062L784.151,780.405C784.151,768.077 786.595,758.638 791.483,752.088C796.371,745.539 804.329,742.264 815.357,742.264C821.377,742.264 826.735,743.371 831.43,745.587C836.125,747.802 839.822,751.113 842.519,755.519C845.215,759.926 846.564,765.476 846.564,772.17L846.564,794.13L821.281,794.13L821.281,775.348C821.281,771.544 820.799,768.98 819.836,767.655C818.873,766.331 817.38,765.669 815.357,765.669C812.997,765.669 811.408,766.523 810.59,768.233C809.771,769.943 809.362,772.218 809.362,775.06L809.362,838.701C809.362,842.216 809.879,844.696 810.915,846.141C811.95,847.586 813.431,848.308 815.357,848.308C817.524,848.308 819.053,847.417 819.944,845.635C820.835,843.854 821.281,841.542 821.281,838.701L821.281,815.801L846.853,815.801L846.853,839.856C846.853,851.029 844.035,859.132 838.401,864.164C832.766,869.197 824.893,871.713 814.779,871.713Z" style="fill:#151212;fill-rule:nonzero;"/>
                        <path d="M866.212,870.557L866.212,767.836L851.115,767.836L851.115,743.42L906.738,743.42L906.738,767.836L891.64,767.836L891.64,870.557L866.212,870.557Z" style="fill:#151212;fill-rule:nonzero;"/>
                        <rect x="912.661" y="743.42" width="24.561" height="127.138" style="fill:#151212;fill-rule:nonzero;"/>
                        <path d="M977.675,871.713C967.513,871.713 959.748,868.643 954.378,862.503C949.008,856.363 946.324,847.49 946.324,835.883L946.324,775.493C946.324,764.609 948.984,756.35 954.306,750.716C959.627,745.081 967.417,742.264 977.675,742.264C987.932,742.264 995.722,745.081 1001.04,750.716C1006.37,756.35 1009.03,764.609 1009.03,775.493L1009.03,835.883C1009.03,847.49 1006.34,856.363 1000.97,862.503C995.602,868.643 987.836,871.713 977.675,871.713ZM977.891,848.308C981.744,848.308 983.67,844.576 983.67,837.111L983.67,775.06C983.67,768.799 981.792,765.669 978.036,765.669C973.798,765.669 971.679,768.871 971.679,775.276L971.679,837.256C971.679,841.205 972.161,844.034 973.124,845.744C974.087,847.453 975.676,848.308 977.891,848.308Z" style="fill:#151212;fill-rule:nonzero;"/>
                        <path d="M1019.28,870.557L1019.28,743.42L1045.43,743.42L1057.14,804.316L1057.14,743.42L1081.7,743.42L1081.7,870.557L1056.85,870.557L1044.13,806.988L1044.13,870.557L1019.28,870.557Z" style="fill:#151212;fill-rule:nonzero;"/>
                    </g>
                </g>
            </g>
            <g id="Bolt-Head" serif:id="Bolt Head">
                <path d="M756.493,256.714C789.248,295.438 789.378,349.262 756.782,376.833C724.187,404.404 671.13,395.349 638.375,356.625C605.62,317.901 605.49,264.077 638.086,236.506C670.682,208.935 723.738,217.99 756.493,256.714Z" style="fill:none;stroke:#151212;stroke-width:6px;"/>
                <path d="M756.493,256.714C789.248,295.438 789.378,349.262 756.782,376.833C724.187,404.404 671.13,395.349 638.375,356.625C605.62,317.901 605.49,264.077 638.086,236.506C670.682,208.935 723.738,217.99 756.493,256.714Z" style="fill:#403535;"/>
                <path d="M746.995,248.987C779.151,287.002 779.278,339.841 747.279,366.908C715.28,393.974 663.194,385.085 631.038,347.069C598.882,309.054 598.755,256.215 630.754,229.148C662.754,202.082 714.839,210.971 746.995,248.987Z" style="fill:none;stroke:#988;stroke-width:6px;"/>
                <path d="M746.995,248.987C779.151,287.002 779.278,339.841 747.279,366.908C715.28,393.974 663.194,385.085 631.038,347.069C598.882,309.054 598.755,256.215 630.754,229.148C662.754,202.082 714.839,210.971 746.995,248.987Z" style="fill:url(#_Linear4);"/>
            </g>
        </g>
    </g>
    <defs>
        <radialGradient id="_Radial2" cx="0" cy="0" r="1" gradientUnits="userSpaceOnUse" gradientTransform="matrix(354.684,312.626,-312.626,354.684,588.397,654.492)"><stop offset="0" style="stop-color:#ebebeb;stop-opacity:1"/><stop offset="1" style="stop-color:#dfaf0f;stop-opacity:1"/></radialGradient>
        <linearGradient id="_Linear4" x1="0" y1="0" x2="1" y2="0" gradientUnits="userSpaceOnUse" gradientTransform="matrix(58.2622,68.8797,-68.8797,58.2622,676.818,291.929)"><stop offset="0" style="stop-color:#fff;stop-opacity:1"/><stop offset="1" style="stop-color:#988;stop-opacity:1"/></linearGradient>
    </defs>
</svg>
