<?xml version="1.0" encoding="UTF-8" standalone="no"?>
<!DOCTYPE svg PUBLIC "-//W3C//DTD SVG 1.1//EN" "http://www.w3.org/Graphics/SVG/1.1/DTD/svg11.dtd">
<svg width="100%" height="100%" viewBox="0 0 256 160" xmlns="http://www.w3.org/2000/svg">
    
    <g>
        <path d="M256.183,159.923L256.183,147.361C256.183,147.361 256.029,147.354 255.993,147.353C212.495,145.79 188.93,100.141 165.005,61.477C155.502,46.12 134.28,19.399 103.348,11.315C51.175,-2.32 24.655,12.605 11.957,34.365C4.567,47.029 5.412,56.727 6.085,67.811C6.594,76.202 12.737,92.584 21.646,99.195C19.141,88.331 20.135,69.741 38.154,58.245C54.449,47.849 78.364,52.743 87.542,63.861C107.659,88.228 113.822,137.053 58.142,145.551C42.986,147.864 -0,147.214 -0,147.214L0,159.779" style="fill:#de2726;"/>
    </g>
    
</svg>
