<?xml version="1.0" encoding="UTF-8" standalone="no"?>
<!DOCTYPE svg PUBLIC "-//W3C//DTD SVG 1.1//EN" "http://www.w3.org/Graphics/SVG/1.1/DTD/svg11.dtd">
<svg width="100%" height="100%" viewBox="0 0 163 163" version="1.1" xmlns="http://www.w3.org/2000/svg" xmlns:xlink="http://www.w3.org/1999/xlink" xml:space="preserve" xmlns:serif="http://www.serif.com/" style="fill-rule:evenodd;clip-rule:evenodd;stroke-linejoin:round;stroke-miterlimit:2;">
    <rect id="Artboard6" x="0" y="0" width="162.619" height="162.619" style="fill:none;"/>
    <clipPath id="_clip1">
        <rect x="0" y="0" width="162.619" height="162.619"/>
    </clipPath>
    <g clip-path="url(#_clip1)">
        <g>
            <path d="M86.231,124.625C97.961,124.594 109.67,125.488 121.352,127.309L121.329,127.423C120.326,132.3 119.17,137.145 117.864,141.949C116.539,146.827 115.058,151.663 113.439,156.452L113.391,156.591C104.96,160.118 95.813,162.266 86.231,162.755L86.231,124.625ZM77.823,124.805L77.823,162.755C66.586,162.182 55.948,159.326 46.368,154.646C43.766,146.277 41.645,137.895 40.003,129.501L40.04,129.494C46.273,128.202 52.556,127.152 58.873,126.366C65.113,125.59 71.384,125.071 77.667,124.811L77.823,124.805ZM129.371,128.705C134.754,129.74 140.133,130.973 145.508,132.404C139.366,140.042 131.875,146.551 123.4,151.566L123.445,151.42C124.625,147.647 125.718,143.846 126.715,140.02C127.687,136.293 128.567,132.543 129.357,128.773L129.371,128.705ZM32.056,131.291C33.232,137.133 34.641,142.965 36.28,148.787C30.327,144.733 24.938,139.91 20.254,134.459C24.193,133.3 28.129,132.244 32.056,131.291ZM27.562,85.649C27.516,98.277 28.53,110.86 30.606,123.394C25.432,124.669 20.251,126.118 15.063,127.741C6.698,115.67 1.511,101.235 0.717,85.649L27.562,85.649ZM163.337,85.649C162.591,100.26 157.987,113.859 150.524,125.448C143.993,123.574 137.45,121.991 130.897,120.701C132.905,109.055 133.998,97.369 134.172,85.649L163.337,85.649ZM35.785,85.649L77.823,85.649L77.823,116.589L77.67,116.595C71.194,116.867 64.731,117.411 58.3,118.225C51.716,119.058 45.17,120.173 38.677,121.545L38.594,121.562C36.689,109.613 35.754,97.641 35.785,85.649ZM125.945,85.649L86.231,85.649L86.231,116.402C98.481,116.357 110.689,117.31 122.852,119.263C124.732,108.078 125.762,96.874 125.945,85.649ZM15.568,34.428C21.239,36.089 26.9,37.541 32.56,38.785C29.876,51.65 28.272,64.468 27.75,77.241L0.717,77.241C1.528,61.341 6.909,46.639 15.568,34.428ZM40.463,40.389C52.962,42.711 65.416,44.01 77.823,44.287L77.823,77.241L35.965,77.241C36.459,64.982 37.959,52.699 40.463,40.389ZM122.203,40.881C124.422,53.024 125.663,65.142 125.923,77.241L86.231,77.241L86.231,44.317C98.263,44.137 110.253,42.992 122.203,40.881ZM148.623,34.622C157.205,46.801 162.531,61.43 163.337,77.241L134.142,77.241C133.861,64.654 132.528,52.02 130.142,39.336C136.312,38.023 142.472,36.452 148.623,34.622ZM86.231,0.135C95.756,0.621 104.852,2.747 113.237,6.235C116.211,15.127 118.665,24.006 120.597,32.87C109.162,34.831 97.706,35.904 86.231,36.089L86.231,0.135ZM77.823,0.135L77.823,36.068C65.976,35.814 54.105,34.618 42.209,32.483C44.256,23.887 46.792,15.278 49.816,6.659C58.477,2.919 67.918,0.64 77.823,0.135ZM123.133,11.167C130.709,15.611 137.503,21.244 143.26,27.81L143.248,27.813C138.384,29.149 133.481,30.335 128.544,31.363L128.506,31.371C127.009,24.648 125.219,17.913 123.133,11.167ZM39.731,11.879C37.669,18.243 35.869,24.595 34.332,30.932C29.864,29.975 25.394,28.886 20.92,27.665C26.346,21.506 32.687,16.172 39.731,11.879Z" style="fill:#1a1a1a;"/>
        </g>
    </g>
</svg>
