<?xml version="1.0" encoding="UTF-8" standalone="no"?>
<!DOCTYPE svg PUBLIC "-//W3C//DTD SVG 1.1//EN" "http://www.w3.org/Graphics/SVG/1.1/DTD/svg11.dtd">
<svg width="100%" height="100%" viewBox="0 0 176 249" version="1.1" xmlns="http://www.w3.org/2000/svg" xmlns:xlink="http://www.w3.org/1999/xlink" xml:space="preserve" xmlns:serif="http://www.serif.com/" style="fill-rule:evenodd;clip-rule:evenodd;stroke-linecap:round;stroke-linejoin:round;stroke-miterlimit:1.5;">
    <rect id="Artboard17" x="0" y="0" width="175.803" height="248.133" style="fill:none;"/>
    <clipPath id="_clip1">
        <rect x="0" y="0" width="175.803" height="248.133"/>
    </clipPath>
    <g clip-path="url(#_clip1)">
        <path id="v" d="M31.047,146.252C31.047,146.252 31.024,123.473 31.024,17.89C31.024,-0.025 66.159,-1.039 66.159,18.011L66.159,124.805L66.159,71.862C66.159,56.745 101.731,55.646 101.731,75.087C101.731,79.586 101.748,124.502 101.748,124.502L101.733,83.608C101.733,71.614 137.307,62.214 137.307,91.997C137.307,95.361 137.149,124.466 137.149,124.466C137.149,124.466 137.294,107.842 137.294,100.451C137.294,87.548 172.204,80.033 172.204,106.193C172.204,135.71 172.264,175.722 172.264,175.722C172.264,189.952 163.765,204.337 155.021,215.564L154.998,235.87C154.998,239.239 151.129,243.697 146.353,243.493L56.857,243.999C51.172,243.706 48.24,241.579 47.4,236.764C47.4,231.511 47.542,225.944 47.542,220.53C47.542,215.69 46.497,213.717 44.858,211.565C31.949,195.655 12.97,172.134 6.825,164.374C6.443,163.75 4.44,161.771 4.429,156.811C4.404,146.005 4.32,117.631 4.32,117.631C4.32,89.125 31.032,92.956 31.032,108.137C31.032,108.201 31.047,146.252 31.047,146.252Z" style="fill:#de2726;stroke:#000;stroke-width:7.88px;"/>
    </g>
    <g id="g186">
    </g>
    <g id="g966">
    </g>
</svg>
