<?xml version="1.0" encoding="UTF-8" standalone="no"?>
<!DOCTYPE svg PUBLIC "-//W3C//DTD SVG 1.1//EN" "http://www.w3.org/Graphics/SVG/1.1/DTD/svg11.dtd">
<svg width="100%" height="100%" viewBox="0 0 181 189" version="1.1" xmlns="http://www.w3.org/2000/svg" xmlns:xlink="http://www.w3.org/1999/xlink" xml:space="preserve" xmlns:serif="http://www.serif.com/" style="fill-rule:evenodd;clip-rule:evenodd;stroke-linejoin:round;stroke-miterlimit:2;">
    <rect id="Artboard27" x="0" y="0" width="180.79" height="188.099" style="fill:none;"/>
    <rect id="Artboard26" x="2.733" y="2.277" width="175.822" height="183" style="fill:none;"/>
    <path d="M174.414,79.512C175.792,103.509 146.313,135.216 125.823,140.259C124.448,140.598 125.222,142.688 125.222,142.688C125.222,142.688 144.251,139.943 147.301,145.198C150.351,150.454 146.761,159.018 141.435,159.323C140.393,159.383 138.506,159.239 138.506,159.239C140.431,158.327 141.963,157.183 142.819,155.639C140.716,156.013 138.812,155.99 137,155.78C137,155.78 143.126,152.488 141.998,150.618C141.573,149.913 140.775,149.468 139.511,149.257C138.358,149.065 139.087,151.458 139.087,151.458C137.598,150.848 136.201,150.034 135.102,148.548C134.185,147.788 132.304,147.768 131.144,148.369C130.994,150.585 127.188,152.956 124.07,152.725C124.07,152.725 128.034,148.364 127.027,148.173C123.902,147.152 120.607,147 116.997,148.457C116.997,148.457 116.623,152.926 116.92,155.342C117.307,158.504 118.591,163.416 120.042,167.051C121.469,170.625 123.239,174.183 125.626,177.155C126.672,178.097 138.585,177.473 141.528,178.439C142.907,178.891 145.338,180.77 145.338,180.77C144.018,180.399 142.555,179.983 141.411,180.6L142.788,182.908C140.731,182.735 139.963,182.418 138.376,182.886C139.405,183.508 140.738,184.375 140.823,185.255C139.14,185.222 138.343,184.888 137.205,185.64C127.766,182.99 132.262,184.227 125.674,184.126C124.022,181.373 117.378,180.419 115.593,178.969C114.764,180.25 113.985,180.229 112.301,180.444C111.654,180.527 109.664,180.172 108.805,180.519C107.36,181.101 106.229,182.736 106.229,182.736C106.229,182.736 106.266,179.763 106.756,179.495C112.855,176.163 113.901,172.783 115.224,169.09C115.237,168.098 114.677,167.498 113.391,167.395L109.404,166.02C106.964,164.951 105.286,163.082 104.18,160.612C106.345,161.702 108.601,162.495 111.033,162.717C111.375,161.949 111.14,155.668 110.137,154.151C109.727,153.614 109.04,153.354 108.029,153.418C107.248,152.062 106.726,150.189 106.746,147.231C106.202,146.79 105.03,146.514 103.218,146.406C100.973,144.772 99.552,142.67 98.91,140.128C97.831,140.29 96.65,142.732 95.971,143.222C96.061,142.117 95.246,140.273 94.419,140.586C93.807,138.148 91.514,138.456 88.414,140.082C88.677,138.874 88.924,136.839 88.102,136.882C86.787,135.967 85.694,137.085 84.296,137.912C84.207,134.985 83.643,132.812 81.13,133.85L80.174,126.477C79.058,126.44 78.289,126.899 77.757,127.697L77.053,122.347C77.17,120.85 76.467,119.762 75.082,119.016C74.015,119.365 73.209,120.28 72.642,121.714C71.501,120.076 71.762,118.861 73.124,116.556C74.015,115.681 73.866,113.902 73.839,112.61L69.639,115.621C70.568,112.633 71.171,109.238 70.014,106.416L68.982,103.655C67.819,105.517 68.129,108.13 67.717,109.991L66.049,107.214C66.412,105.451 66.095,103.288 65.04,100.691C63.704,102.322 62.953,104.099 62.952,106.064C62.01,104.665 61.285,103.756 60.676,103.108C61.232,106.303 59.693,109.277 58.83,111.805C57.822,106.182 56.632,101.331 53.121,97.711C52.812,103.351 53.005,108.465 54.365,112.352C52.766,112.336 50.889,111.008 48.706,108.24C49.858,113.638 51.47,118.118 53.457,121.848C49.589,119.184 46.574,115.424 45.042,109.757C43.991,110.633 42.982,112.491 42.519,113.787C41.708,110.128 41.036,107.725 39.057,106.069C38.505,112.044 38.978,117.913 40.846,123.637C37.207,121.619 34.234,117.84 32.013,112.067L26.521,95.944C24.344,96.911 28.261,126.646 34.545,132.349C27.476,129.177 21.283,118.666 18.667,111.099C16.418,104.594 15.401,97.115 14.7,90.835C14.134,85.764 13.923,78.686 15.008,73.223C13.74,72.406 12.25,72.357 10.232,74.127C6.111,78.889 8.779,93.954 9.995,100.969C6.357,96.977 3.64,92.643 2.758,86.563C2.679,82.217 2.725,77.634 3.73,72.954C5.44,66.83 7.553,60.867 10.264,55.143C12.375,51.145 14.781,47.147 17.961,43.15C18.884,41.095 18.166,40.857 16.619,41.538C11.56,45.503 7.406,49.965 3.682,54.663C7.053,45.047 13.508,36.014 19.93,30.798C26.009,25.862 32.729,23.027 42.217,23.369C50.314,23.661 70.167,28.424 70.359,28.952C67.11,25.052 61.602,22.305 55.642,19.968C66.271,20.246 78.66,24.806 84.766,30.377C90.001,35.152 93.285,42.636 94.666,50.578L97.261,74.118C98.809,80.639 115.594,79.974 117.131,74.565C117.131,74.565 120.17,58.51 123.048,52.959C125.144,48.916 128.289,44.895 130.646,41.449C132.796,38.306 137.627,32.409 137.627,32.409C140.011,29.642 142.622,26.871 142.219,24.158L137.756,22.578C136.047,21.729 134.941,19.387 134.248,16.669L131.72,15.224C133.723,14.339 135.896,13.857 138.433,14.24C136.56,12.252 135.232,9.802 134.226,7.08C135.764,7.901 137.594,8.469 140.134,8.422C139.41,6.735 139.093,4.868 138.97,2.915C141.167,5.355 144.409,8.1 147.741,9.739L146.488,3.678C148.647,5.923 150.789,8.29 153.989,9.653L154.633,6.543C155.853,8.206 157.245,9.645 158.986,10.628C159.858,9.117 160.023,7.194 159.933,5.123C161.271,7.68 162.34,10.253 162.957,12.851L164.255,9.414L167.474,17.326C168.188,20.023 168.402,21.025 167.864,23.331C171.235,23.525 179.261,29.593 178.3,32.277C176.21,31.602 168.43,30.688 166.769,32.609C166.769,32.609 168.661,34.22 169.128,36.082C169.565,37.824 170.112,39.826 169.612,41.447C169.112,43.069 168.131,44.9 166.126,45.809C164.548,46.723 162.868,47.308 161.09,47.581C160.519,48.595 160.753,49.98 161.382,51.275C163.062,56.944 170.451,64.52 171.545,66.923C172.348,68.687 173.808,68.948 174.414,79.512Z" style="stroke:#000;stroke-width:2px;"/>
    <path d="M174.496,79.149C175.874,103.146 146.395,134.853 125.905,139.896C124.53,140.235 125.304,142.325 125.304,142.325C125.304,142.325 144.333,139.58 147.383,144.835C150.433,150.091 146.843,158.655 141.517,158.96C140.475,159.02 138.588,158.876 138.588,158.876C140.513,157.964 142.045,156.82 142.901,155.276C140.798,155.65 138.894,155.627 137.082,155.417C137.082,155.417 143.208,152.125 142.08,150.255C141.655,149.55 140.857,149.105 139.593,148.894C138.44,148.702 139.169,151.095 139.169,151.095C137.68,150.485 136.283,149.671 135.184,148.185C134.267,147.425 132.386,147.405 131.226,148.006C131.076,150.222 127.27,152.593 124.152,152.362C124.152,152.362 128.116,148.001 127.109,147.81C123.984,146.789 120.689,146.637 117.079,148.094C117.079,148.094 116.705,152.563 117.002,154.979C117.389,158.141 118.673,163.053 120.124,166.688C121.551,170.262 123.321,173.82 125.708,176.792C126.754,177.734 138.667,177.11 141.61,178.076C142.989,178.528 145.42,180.407 145.42,180.407C144.1,180.036 142.637,179.62 141.493,180.237L142.87,182.545C140.813,182.372 140.045,182.055 138.458,182.523C139.487,183.145 140.82,184.012 140.905,184.892C139.222,184.859 138.425,184.525 137.287,185.277C127.848,182.627 132.344,183.864 125.756,183.763C124.104,181.01 117.46,180.056 115.675,178.606C114.846,179.887 114.067,179.866 112.383,180.081C111.736,180.164 109.746,179.809 108.887,180.156C107.442,180.738 106.311,182.373 106.311,182.373C106.311,182.373 106.348,179.4 106.838,179.132C112.937,175.8 113.983,172.42 115.306,168.727C115.319,167.735 114.759,167.135 113.473,167.032L109.486,165.657C107.046,164.588 105.368,162.719 104.262,160.249C106.427,161.339 108.683,162.132 111.115,162.354C111.457,161.586 111.222,155.305 110.219,153.788C109.809,153.251 109.122,152.991 108.111,153.055C107.33,151.699 106.808,149.826 106.828,146.868C106.284,146.427 105.112,146.151 103.3,146.043C101.055,144.409 99.634,142.307 98.992,139.765C97.913,139.927 96.732,142.369 96.053,142.859C96.143,141.754 95.328,139.91 94.501,140.223C93.889,137.785 91.596,138.093 88.496,139.719C88.759,138.511 89.006,136.476 88.184,136.519C86.869,135.604 85.776,136.722 84.378,137.549C84.289,134.622 83.725,132.449 81.212,133.487L80.256,126.114C79.14,126.077 78.371,126.536 77.839,127.334L77.135,121.984C77.252,120.487 76.549,119.399 75.164,118.653C74.097,119.002 73.291,119.917 72.724,121.351C71.583,119.713 71.844,118.498 73.206,116.193C74.097,115.318 73.948,113.539 73.921,112.247L69.721,115.258C70.65,112.27 71.253,108.875 70.096,106.053L69.064,103.292C67.901,105.154 68.211,107.767 67.799,109.628L66.131,106.851C66.494,105.088 66.177,102.925 65.122,100.328C63.786,101.959 63.035,103.736 63.034,105.701C62.092,104.302 61.367,103.393 60.758,102.745C61.314,105.94 59.775,108.914 58.912,111.442C57.904,105.819 56.714,100.968 53.203,97.348C52.894,102.988 53.087,108.102 54.447,111.989C52.848,111.973 50.971,110.645 48.788,107.877C49.94,113.275 51.552,117.755 53.539,121.485C49.671,118.821 46.656,115.061 45.124,109.394C44.073,110.27 43.064,112.128 42.601,113.424C41.79,109.765 41.118,107.362 39.139,105.706C38.587,111.681 39.06,117.55 40.928,123.274C37.289,121.256 34.316,117.477 32.095,111.704L26.603,95.581C24.426,96.548 28.343,126.283 34.627,131.986C27.558,128.814 21.365,118.303 18.749,110.736C16.5,104.231 15.483,96.752 14.782,90.472C14.216,85.401 14.005,78.323 15.09,72.86C13.822,72.043 12.332,71.994 10.314,73.764C6.193,78.526 8.861,93.591 10.077,100.606C6.439,96.614 3.722,92.28 2.84,86.2C2.761,81.854 2.807,77.271 3.812,72.591C5.522,66.467 7.635,60.504 10.346,54.78C12.457,50.782 14.863,46.784 18.043,42.787C18.966,40.732 18.248,40.494 16.701,41.175C11.642,45.14 7.488,49.602 3.764,54.3C7.135,44.684 13.59,35.651 20.012,30.435C26.091,25.499 32.811,22.664 42.299,23.006C50.396,23.298 70.249,28.061 70.441,28.589C67.192,24.689 61.684,21.942 55.724,19.605C66.353,19.883 78.742,24.443 84.848,30.014C90.083,34.789 93.367,42.273 94.748,50.215L97.343,73.755C98.891,80.276 115.676,79.611 117.213,74.202C117.213,74.202 120.252,58.147 123.13,52.596C125.226,48.553 128.371,44.532 130.728,41.086C132.878,37.943 137.709,32.046 137.709,32.046C140.093,29.279 142.704,26.508 142.301,23.795L137.838,22.215C136.129,21.366 135.023,19.024 134.33,16.306L131.802,14.861C133.805,13.976 135.978,13.494 138.515,13.877C136.642,11.889 135.314,9.439 134.308,6.717C135.846,7.538 137.676,8.106 140.216,8.059C139.492,6.372 139.175,4.505 139.052,2.552C141.249,4.992 144.491,7.737 147.823,9.376L146.57,3.315C148.729,5.56 150.871,7.927 154.071,9.29L154.715,6.18C155.935,7.843 157.327,9.282 159.068,10.265C159.94,8.754 160.105,6.831 160.015,4.76C161.353,7.317 162.422,9.89 163.039,12.488L164.337,9.051L167.556,16.963C168.27,19.66 168.484,20.662 167.946,22.968C171.317,23.162 179.343,29.23 178.382,31.914C176.292,31.239 168.512,30.325 166.851,32.246C166.851,32.246 168.743,33.857 169.21,35.719C169.647,37.461 170.194,39.463 169.694,41.084C169.194,42.706 168.213,44.537 166.208,45.446C164.63,46.36 162.95,46.945 161.172,47.218C160.601,48.232 160.835,49.617 161.464,50.912C163.144,56.581 170.533,64.157 171.627,66.56C172.43,68.324 173.89,68.585 174.496,79.149Z" style="fill:#de2726;"/>
</svg>
