<?xml version="1.0" encoding="UTF-8" standalone="no"?>
<!DOCTYPE svg PUBLIC "-//W3C//DTD SVG 1.1//EN" "http://www.w3.org/Graphics/SVG/1.1/DTD/svg11.dtd">
<svg width="100%" height="100%" viewBox="0 0 181 189" version="1.1" xmlns="http://www.w3.org/2000/svg" xmlns:xlink="http://www.w3.org/1999/xlink" xml:space="preserve" xmlns:serif="http://www.serif.com/" style="fill-rule:evenodd;clip-rule:evenodd;stroke-linejoin:round;stroke-miterlimit:2;">
    <rect id="Artboard27" x="0" y="0" width="180.79" height="188.099" style="fill:none;"/>
    <rect id="Artboard26" x="2.733" y="2.277" width="175.822" height="183" style="fill:none;"/>
    <path d="M175.68,80.172C177.081,104.576 147.103,136.82 126.266,141.949C124.867,142.294 125.654,144.419 125.654,144.419C125.654,144.419 145.006,141.628 148.108,146.972C151.209,152.317 147.558,161.026 142.142,161.336C141.083,161.397 139.164,161.251 139.164,161.251C141.121,160.323 142.679,159.16 143.55,157.59C141.411,157.97 139.475,157.947 137.632,157.733C137.632,157.733 143.862,154.385 142.715,152.483C142.283,151.767 141.471,151.314 140.186,151.099C139.013,150.904 139.754,153.338 139.754,153.338C138.24,152.717 136.819,151.89 135.702,150.378C134.769,149.606 132.856,149.585 131.677,150.196C131.524,152.45 127.654,154.861 124.483,154.626C124.483,154.626 128.514,150.191 127.49,149.997C124.312,148.959 120.961,148.804 117.29,150.286C117.29,150.286 116.91,154.831 117.212,157.288C117.605,160.503 118.911,165.498 120.387,169.195C121.838,172.83 123.638,176.448 126.065,179.47C127.129,180.428 139.244,179.794 142.237,180.776C143.639,181.236 146.111,183.146 146.111,183.146C144.769,182.769 143.281,182.346 142.118,182.974L143.518,185.321C141.426,185.145 140.645,184.822 139.031,185.298C140.078,185.931 141.433,186.813 141.52,187.707C139.808,187.674 138.998,187.334 137.84,188.099C128.242,185.404 132.814,186.662 126.114,186.559C124.434,183.76 117.677,182.79 115.862,181.315C115.019,182.618 114.227,182.596 112.514,182.815C111.856,182.899 109.833,182.538 108.959,182.891C107.49,183.483 106.34,185.146 106.34,185.146C106.34,185.146 106.377,182.122 106.875,181.85C113.078,178.461 114.142,175.024 115.487,171.269C115.5,170.26 114.931,169.65 113.623,169.545L109.568,168.146C107.087,167.059 105.381,165.159 104.256,162.647C106.457,163.755 108.752,164.562 111.225,164.788C111.573,164.007 111.334,157.619 110.314,156.076C109.897,155.53 109.198,155.266 108.17,155.331C107.376,153.952 106.845,152.047 106.865,149.039C106.312,148.591 105.12,148.31 103.277,148.2C100.994,146.538 99.549,144.401 98.896,141.816C97.799,141.98 96.598,144.464 95.908,144.962C95.999,143.838 95.17,141.963 94.329,142.281C93.707,139.802 91.375,140.115 88.223,141.769C88.49,140.54 88.741,138.471 87.905,138.515C86.568,137.584 85.456,138.721 84.035,139.562C83.944,136.586 83.371,134.376 80.815,135.431L79.843,127.933C78.708,127.896 77.926,128.362 77.385,129.174L76.669,123.733C76.788,122.211 76.073,121.105 74.665,120.346C73.58,120.701 72.76,121.631 72.183,123.09C71.023,121.424 71.288,120.188 72.673,117.844C73.58,116.954 73.428,115.145 73.401,113.831L69.129,116.893C70.074,113.855 70.687,110.402 69.511,107.532L68.461,104.725C67.279,106.618 67.594,109.275 67.175,111.168L65.479,108.344C65.848,106.551 65.525,104.351 64.452,101.71C63.094,103.369 62.33,105.176 62.329,107.174C61.371,105.752 60.634,104.827 60.014,104.168C60.58,107.417 59.015,110.442 58.137,113.013C57.112,107.294 55.902,102.361 52.331,98.68C52.017,104.415 52.213,109.616 53.597,113.569C51.97,113.553 50.062,112.202 47.842,109.387C49.013,114.877 50.652,119.433 52.673,123.226C48.74,120.517 45.673,116.693 44.116,110.93C43.047,111.821 42.021,113.71 41.55,115.028C40.725,111.307 40.042,108.864 38.029,107.179C37.468,113.256 37.949,119.224 39.848,125.045C36.148,122.993 33.124,119.15 30.866,113.279L25.281,96.883C23.067,97.866 27.05,128.105 33.441,133.905C26.252,130.679 19.954,119.99 17.294,112.295C15.006,105.679 13.972,98.074 13.259,91.687C12.684,86.53 12.469,79.332 13.573,73.777C12.283,72.946 10.768,72.896 8.716,74.696C4.525,79.539 7.238,94.859 8.475,101.993C4.775,97.933 2.012,93.526 1.115,87.343C1.035,82.923 1.081,78.263 2.103,73.503C3.842,67.275 5.991,61.211 8.748,55.39C10.895,51.325 13.342,47.259 16.576,43.194C17.514,41.104 16.784,40.862 15.211,41.555C10.066,45.587 5.842,50.125 2.055,54.902C5.483,45.123 12.047,35.937 18.578,30.633C24.76,25.613 31.594,22.73 41.243,23.078C49.477,23.375 69.666,28.219 69.862,28.755C66.558,24.789 60.956,21.996 54.895,19.619C65.704,19.902 78.303,24.539 84.513,30.205C89.836,35.061 93.176,42.671 94.581,50.748L97.22,74.687C98.794,81.318 115.863,80.642 117.426,75.142C117.426,75.142 120.517,58.814 123.444,53.169C125.575,49.058 128.773,44.969 131.17,41.464C133.357,38.268 138.27,32.271 138.27,32.271C140.694,29.457 143.349,26.639 142.939,23.88L138.401,22.273C136.663,21.41 135.538,19.028 134.833,16.264L132.263,14.795C134.299,13.895 136.509,13.405 139.089,13.794C137.185,11.772 135.834,9.281 134.811,6.513C136.375,7.348 138.236,7.925 140.819,7.878C140.083,6.162 139.76,4.263 139.635,2.277C141.87,4.759 145.167,7.55 148.555,9.217L147.281,3.053C149.476,5.336 151.655,7.743 154.909,9.129L155.564,5.967C156.805,7.658 158.22,9.121 159.991,10.121C160.877,8.584 161.045,6.629 160.954,4.523C162.314,7.123 163.401,9.74 164.029,12.382L165.349,8.886L168.622,16.932C169.349,19.675 169.566,20.694 169.019,23.039C172.447,23.237 180.609,29.407 179.632,32.137C177.507,31.45 169.595,30.521 167.906,32.474C167.906,32.474 169.83,34.113 170.305,36.006C170.749,37.778 171.305,39.814 170.797,41.462C170.288,43.112 169.291,44.974 167.252,45.898C165.647,46.828 163.938,47.423 162.13,47.7C161.55,48.731 161.788,50.14 162.427,51.457C164.136,57.222 171.65,64.926 172.762,67.37C173.579,69.164 175.064,69.429 175.68,80.172Z" style="fill-opacity:0.62;"/>
    <path d="M174.496,79.149C175.874,103.146 146.395,134.853 125.905,139.896C124.53,140.235 125.304,142.325 125.304,142.325C125.304,142.325 144.333,139.58 147.383,144.835C150.433,150.091 146.843,158.655 141.517,158.96C140.475,159.02 138.588,158.876 138.588,158.876C140.513,157.964 142.045,156.82 142.901,155.276C140.798,155.65 138.894,155.627 137.082,155.417C137.082,155.417 143.208,152.125 142.08,150.255C141.655,149.55 140.857,149.105 139.593,148.894C138.44,148.702 139.169,151.095 139.169,151.095C137.68,150.485 136.283,149.671 135.184,148.185C134.267,147.425 132.386,147.405 131.226,148.006C131.076,150.222 127.27,152.593 124.152,152.362C124.152,152.362 128.116,148.001 127.109,147.81C123.984,146.789 120.689,146.637 117.079,148.094C117.079,148.094 116.705,152.563 117.002,154.979C117.389,158.141 118.673,163.053 120.124,166.688C121.551,170.262 123.321,173.82 125.708,176.792C126.754,177.734 138.667,177.11 141.61,178.076C142.989,178.528 145.42,180.407 145.42,180.407C144.1,180.036 142.637,179.62 141.493,180.237L142.87,182.545C140.813,182.372 140.045,182.055 138.458,182.523C139.487,183.145 140.82,184.012 140.905,184.892C139.222,184.859 138.425,184.525 137.287,185.277C127.848,182.627 132.344,183.864 125.756,183.763C124.104,181.01 117.46,180.056 115.675,178.606C114.846,179.887 114.067,179.866 112.383,180.081C111.736,180.164 109.746,179.809 108.887,180.156C107.442,180.738 106.311,182.373 106.311,182.373C106.311,182.373 106.348,179.4 106.838,179.132C112.937,175.8 113.983,172.42 115.306,168.727C115.319,167.735 114.759,167.135 113.473,167.032L109.486,165.657C107.046,164.588 105.368,162.719 104.262,160.249C106.427,161.339 108.683,162.132 111.115,162.354C111.457,161.586 111.222,155.305 110.219,153.788C109.809,153.251 109.122,152.991 108.111,153.055C107.33,151.699 106.808,149.826 106.828,146.868C106.284,146.427 105.112,146.151 103.3,146.043C101.055,144.409 99.634,142.307 98.992,139.765C97.913,139.927 96.732,142.369 96.053,142.859C96.143,141.754 95.328,139.91 94.501,140.223C93.889,137.785 91.596,138.093 88.496,139.719C88.759,138.511 89.006,136.476 88.184,136.519C86.869,135.604 85.776,136.722 84.378,137.549C84.289,134.622 83.725,132.449 81.212,133.487L80.256,126.114C79.14,126.077 78.371,126.536 77.839,127.334L77.135,121.984C77.252,120.487 76.549,119.399 75.164,118.653C74.097,119.002 73.291,119.917 72.724,121.351C71.583,119.713 71.844,118.498 73.206,116.193C74.097,115.318 73.948,113.539 73.921,112.247L69.721,115.258C70.65,112.27 71.253,108.875 70.096,106.053L69.064,103.292C67.901,105.154 68.211,107.767 67.799,109.628L66.131,106.851C66.494,105.088 66.177,102.925 65.122,100.328C63.786,101.959 63.035,103.736 63.034,105.701C62.092,104.302 61.367,103.393 60.758,102.745C61.314,105.94 59.775,108.914 58.912,111.442C57.904,105.819 56.714,100.968 53.203,97.348C52.894,102.988 53.087,108.102 54.447,111.989C52.848,111.973 50.971,110.645 48.788,107.877C49.94,113.275 51.552,117.755 53.539,121.485C49.671,118.821 46.656,115.061 45.124,109.394C44.073,110.27 43.064,112.128 42.601,113.424C41.79,109.765 41.118,107.362 39.139,105.706C38.587,111.681 39.06,117.55 40.928,123.274C37.289,121.256 34.316,117.477 32.095,111.704L26.603,95.581C24.426,96.548 28.343,126.283 34.627,131.986C27.558,128.814 21.365,118.303 18.749,110.736C16.5,104.231 15.483,96.752 14.782,90.472C14.216,85.401 14.005,78.323 15.09,72.86C13.822,72.043 12.332,71.994 10.314,73.764C6.193,78.526 8.861,93.591 10.077,100.606C6.439,96.614 3.722,92.28 2.84,86.2C2.761,81.854 2.807,77.271 3.812,72.591C5.522,66.467 7.635,60.504 10.346,54.78C12.457,50.782 14.863,46.784 18.043,42.787C18.966,40.732 18.248,40.494 16.701,41.175C11.642,45.14 7.488,49.602 3.764,54.3C7.135,44.684 13.59,35.651 20.012,30.435C26.091,25.499 32.811,22.664 42.299,23.006C50.396,23.298 70.249,28.061 70.441,28.589C67.192,24.689 61.684,21.942 55.724,19.605C66.353,19.883 78.742,24.443 84.848,30.014C90.083,34.789 93.367,42.273 94.748,50.215L97.343,73.755C98.891,80.276 115.676,79.611 117.213,74.202C117.213,74.202 120.252,58.147 123.13,52.596C125.226,48.553 128.371,44.532 130.728,41.086C132.878,37.943 137.709,32.046 137.709,32.046C140.093,29.279 142.704,26.508 142.301,23.795L137.838,22.215C136.129,21.366 135.023,19.024 134.33,16.306L131.802,14.861C133.805,13.976 135.978,13.494 138.515,13.877C136.642,11.889 135.314,9.439 134.308,6.717C135.846,7.538 137.676,8.106 140.216,8.059C139.492,6.372 139.175,4.505 139.052,2.552C141.249,4.992 144.491,7.737 147.823,9.376L146.57,3.315C148.729,5.56 150.871,7.927 154.071,9.29L154.715,6.18C155.935,7.843 157.327,9.282 159.068,10.265C159.94,8.754 160.105,6.831 160.015,4.76C161.353,7.317 162.422,9.89 163.039,12.488L164.337,9.051L167.556,16.963C168.27,19.66 168.484,20.662 167.946,22.968C171.317,23.162 179.343,29.23 178.382,31.914C176.292,31.239 168.512,30.325 166.851,32.246C166.851,32.246 168.743,33.857 169.21,35.719C169.647,37.461 170.194,39.463 169.694,41.084C169.194,42.706 168.213,44.537 166.208,45.446C164.63,46.36 162.95,46.945 161.172,47.218C160.601,48.232 160.835,49.617 161.464,50.912C163.144,56.581 170.533,64.157 171.627,66.56C172.43,68.324 173.89,68.585 174.496,79.149Z" style="fill:#de2726;"/>
</svg>
