<?xml version="1.0" encoding="UTF-8" standalone="no"?>
<!DOCTYPE svg PUBLIC "-//W3C//DTD SVG 1.1//EN" "http://www.w3.org/Graphics/SVG/1.1/DTD/svg11.dtd">
<svg width="100%" height="100%" viewBox="0 0 735 512" version="1.1" xmlns="http://www.w3.org/2000/svg" xmlns:xlink="http://www.w3.org/1999/xlink" xml:space="preserve" xmlns:serif="http://www.serif.com/" style="fill-rule:evenodd;clip-rule:evenodd;stroke-linecap:round;stroke-linejoin:round;stroke-miterlimit:1.5;">
    <g id="Diver-down-flag" serif:id="Diver down flag">
    </g>
    <g id="g186">
    </g>
    <g id="Filigree">
    </g>
    <rect id="Artboard23" x="0" y="0" width="734.074" height="511.373" style="fill:none;"/>
    <clipPath id="_clip1">
        <rect x="0" y="0" width="734.074" height="511.373"/>
    </clipPath>
    <g clip-path="url(#_clip1)">
        <g>
            <path d="M232.254,141.378C232.254,141.378 234.592,73.424 234.592,54.392C234.592,35.36 369.84,5.699 475.686,7.87C589.546,10.205 633.291,30.719 676.267,81.66C705.334,116.114 725.135,185.254 724.3,234.505C723.466,283.755 719.594,372.328 671.178,418.239C622.763,464.151 608.487,474.022 524.177,489.047C461.611,500.197 293.095,500.918 293.095,500.918L221.764,450.557L222.096,342.421L273.723,344.484L274.33,140.003L232.254,141.378Z" style="fill:#de2726;stroke:#fff;stroke-width:16.67px;"/>
            <path d="M238.555,133.35C238.555,133.35 240.501,72.186 240.501,55.149C240.501,38.111 407.124,14.974 445.637,15.693C542.386,17.498 590.219,42.463 613.199,74.745C636.179,107.026 654.72,167.481 654.011,211.57C653.302,255.658 652.925,327.561 611.787,368.66C570.65,409.759 552.587,423.045 480.951,436.496C428.174,446.405 306.532,446.817 306.532,446.817L276.218,447.864L230.128,446.178L230.128,350.937L278.849,351.328L278.857,151.734L278.897,133.505L238.555,133.35Z" style="fill:#151212;"/>
        </g>
        <path d="M425.863,125.418L425.863,336.61C426.034,356.214 479.059,346.63 479.059,315.647L479.059,146.336C479.338,104.17 425.863,108.665 425.863,125.418Z" style="fill:#de2726;"/>
        <g>
            <path d="M21.536,241.583L133.891,146.351L156.411,399.81L21.536,241.583Z" style="fill:#151212;"/>
            <path d="M7.412,223.714C1.353,230.718 -4.888,249.537 5.501,262.132C81.943,354.8 101.066,371.951 102.689,373.854C129.732,405.544 147.115,406.948 168.682,388.67C175.701,382.721 177.757,364.31 177.757,333.576C177.757,236.647 178.253,243.377 178.54,214.818C178.741,194.833 167.22,178.057 145.048,155.885C118.902,129.74 104.74,113.082 95.774,123.447C0.619,233.442 7.412,223.714 7.412,223.714ZM46.25,241.673L128.764,160.878C128.764,160.878 137.229,272.241 137.488,348.708L46.25,241.673Z" style="fill:#fff;"/>
            <path d="M34.317,242.132L130.639,161.976L142.28,363.629L34.317,242.132Z" style="fill:#de2726;"/>
            <path d="M20.295,229.684C14.086,236.678 13.98,247.178 20.047,254.295C20.047,254.295 20.055,254.289 106.118,355.252C138.267,392.967 141.854,386.251 153.552,380.187C161.806,375.908 159.99,358.341 160.343,350.028C160.655,342.685 160.701,324.193 160.749,316.845C160.791,310.296 160.758,294.289 160.758,291.314C160.758,283.834 160.462,336.512 161.782,205.022C161.848,198.457 154.902,188.005 149.548,182.673C145.908,179.047 132.004,161.446 127.346,156.693C112.017,141.053 104.951,135.296 97.981,143.148C20.778,230.116 20.295,229.684 20.295,229.684ZM59.167,242.381L127.089,165.645C126.639,210.391 126.121,275.654 125.671,320.4L59.167,242.381Z" style="fill:#de2726;"/>
            <path d="M19.923,230.367C14.173,236.966 14.094,248.367 19.761,254.871L88.831,334.815C93.534,340.213 100.045,342.45 106.818,339.892C113.591,337.334 112.839,330.75 112.957,323.533L112.897,157.527C112.974,147.587 112.332,144.609 111.05,143.083C107.381,138.716 102.897,136.907 94.184,146.907C20.799,231.138 19.923,230.367 19.923,230.367Z"/>
        </g>
    </g>
</svg>
