<?xml version="1.0" encoding="UTF-8" standalone="no"?>
<!DOCTYPE svg PUBLIC "-//W3C//DTD SVG 1.1//EN" "http://www.w3.org/Graphics/SVG/1.1/DTD/svg11.dtd">
<svg width="100%" height="100%" viewBox="0 0 811 716" version="1.1" xmlns="http://www.w3.org/2000/svg" xmlns:xlink="http://www.w3.org/1999/xlink" xml:space="preserve" xmlns:serif="http://www.serif.com/" style="fill-rule:evenodd;clip-rule:evenodd;stroke-linejoin:round;stroke-miterlimit:2;">
    <g id="Diver-down-flag" serif:id="Diver down flag">
    </g>
    <g id="Diver-down-flag1" serif:id="Diver down flag">
    </g>
    <g id="g186">
    </g>
    <g id="Filigree">
    </g>
    <rect id="Artboard20" x="0" y="0" width="810.06" height="715.575" style="fill:none;"/>
    <clipPath id="_clip1">
        <rect x="0" y="0" width="810.06" height="715.575"/>
    </clipPath>
    <g clip-path="url(#_clip1)">
        <g>
            <path d="M810.155,509.652L810.155,689.954C810.155,689.954 608.01,471.495 428.846,463.555C296.616,457.695 237.94,223.331 0.095,254.345L0.095,74.043C208.555,32.571 310.296,276.539 428.846,283.254C607.899,293.396 676.883,382.432 810.155,509.652Z" style="fill:#ebebeb;"/>
            <path d="M810.155,689.954C676.883,562.733 608.01,472.649 428.846,464.709C296.616,458.849 237.94,224.485 0.095,255.499L0.095,691.108C0.095,691.108 180.628,561.296 369.353,688.629C465.13,753.249 557.444,687.475 625.526,665.55C743.83,627.452 780.153,700.339 810.155,689.954Z" style="fill:#de2726;"/>
            <path d="M0.095,73.261C37.79,36.72 180.628,-64.126 369.353,63.207C465.13,127.827 557.444,62.053 625.526,40.129C743.83,2.03 780.153,82.824 810.155,72.439L810.155,510.806C676.883,383.585 608.01,292.347 428.846,284.407C296.616,278.547 237.94,42.247 0.095,73.261Z" style="fill:#de2726;"/>
        </g>
    </g>
</svg>
