<?xml version="1.0" encoding="UTF-8" standalone="no"?>
<!DOCTYPE svg PUBLIC "-//W3C//DTD SVG 1.1//EN" "http://www.w3.org/Graphics/SVG/1.1/DTD/svg11.dtd">
<svg width="100%" height="100%" viewBox="0 0 1232 529" version="1.1" xmlns="http://www.w3.org/2000/svg" xmlns:xlink="http://www.w3.org/1999/xlink" xml:space="preserve" xmlns:serif="http://www.serif.com/" style="fill-rule:evenodd;clip-rule:evenodd;">
    <g id="g186">
    </g>
    <rect id="Artboard14" x="0" y="0" width="1232" height="528.017" style="fill:none;"/>
    <clipPath id="_clip1">
        <rect x="0" y="0" width="1232" height="528.017"/>
    </clipPath>
    <g clip-path="url(#_clip1)">
        <g>
            <g>
                <path id="path76" d="M62.309,291.877C59.586,289.815 65.053,286.577 66.49,286.356C76.201,284.863 80.596,297.148 79.278,304.729C76.015,323.495 53.551,329.866 37.52,324.605C30.577,322.326 24.773,318.589 20.101,313.862C4.906,298.487 1.682,272.635 10.152,252.372C27.707,210.37 78.343,203.276 119.018,217.007C134.74,222.314 156.063,234.695 189.378,272.926" style="fill:none;stroke:#000;stroke-width:12.5px;"/>
                <path id="path761" serif:id="path76" d="M460.047,98.762C455.847,113.083 434.142,95.773 431.01,90.246C409.846,52.897 453.208,15.886 486.222,9.509C567.938,-6.277 628.812,75.604 632.19,149.246C638.413,284.888 504.994,377.235 379.591,373.103" style="fill:none;stroke:#000;stroke-width:12.5px;"/>
                <path id="path762" serif:id="path76" d="M300.721,177.762C304.839,187.88 319.365,173.671 321.237,169.414C333.888,140.652 299.575,116.906 275.063,114.702C214.389,109.247 176.113,173.374 179.096,227.251C184.592,326.487 288.575,383.872 379.591,371.593" style="fill:none;stroke:#000;stroke-width:12.5px;"/>
            </g>
            <g>
                <path id="path763" serif:id="path76" d="M777.581,131.379C781.119,143.442 799.402,128.862 802.041,124.206C819.868,92.745 783.342,61.569 755.533,56.197C686.699,42.9 635.422,111.872 632.576,173.905C627.334,288.163 739.72,365.951 845.354,362.47" style="fill:none;stroke:#000;stroke-width:12.5px;"/>
                <path id="path764" serif:id="path76" d="M898.76,202.627C895.972,210.958 883.588,200.295 881.868,196.974C870.246,174.535 896.573,153.725 916.134,150.705C964.552,143.23 998.545,192.744 998.901,236.138C999.556,316.065 919.028,367.429 845.354,362.22" style="fill:none;stroke:#000;stroke-width:12.5px;"/>
            </g>
            <g>
                <path id="path765" serif:id="path76" d="M1088.49,196.183C1090.67,203.626 1101.95,194.629 1103.58,191.756C1114.58,172.344 1092.04,153.106 1074.88,149.792C1032.41,141.587 1000.77,184.146 999.014,222.423C995.779,292.926 1065.13,340.925 1130.31,338.777" style="fill:none;stroke:#000;stroke-width:12.5px;"/>
                <path id="path766" serif:id="path76" d="M1163.26,240.146C1161.54,245.287 1153.9,238.707 1152.84,236.658C1145.67,222.812 1161.91,209.971 1173.98,208.108C1203.86,203.495 1224.84,234.048 1225.05,260.824C1225.46,310.143 1175.77,341.837 1130.31,338.623" style="fill:none;stroke:#000;stroke-width:12.5px;"/>
            </g>
            <path id="path76-2" d="M1145.5,445.082C1145.67,446.339 1143.38,445.753 1142.95,445.434C1140,443.275 1142.08,438.894 1144.41,437.249C1150.2,433.177 1157.78,437.404 1160.6,442.997C1165.81,453.298 1158.69,465.109 1148.82,469.159C1133.17,475.581 1116.26,464.884 1110.93,449.853C1103.22,428.094 1118.09,405.309 1139.09,398.644C1167.68,389.566 1197.04,409.151 1205.11,436.854C1215.63,472.967 1190.81,509.549 1155.71,519.089C1111.43,531.123 1067.01,500.602 1055.93,457.445C1042.31,404.388 1079,351.528 1130.83,338.847" style="fill:none;stroke:#000;stroke-width:12.5px;"/>
        </g>
    </g>
    <g id="g966">
    </g>
</svg>
