<?xml version="1.0" encoding="UTF-8" standalone="no"?>
<!DOCTYPE svg PUBLIC "-//W3C//DTD SVG 1.1//EN" "http://www.w3.org/Graphics/SVG/1.1/DTD/svg11.dtd">
<svg width="100%" height="100%" viewBox="0 0 1314 1522" version="1.1" xmlns="http://www.w3.org/2000/svg" xmlns:xlink="http://www.w3.org/1999/xlink" xml:space="preserve" xmlns:serif="http://www.serif.com/" style="fill-rule:evenodd;clip-rule:evenodd;stroke-linecap:round;stroke-linejoin:round;stroke-miterlimit:1.5;">
    <rect id="Artboard3" x="0" y="0" width="1313.71" height="1521.76" style="fill:none;"/>
    <clipPath id="_clip1">
        <rect x="0" y="0" width="1313.71" height="1521.76"/>
    </clipPath>
    <g clip-path="url(#_clip1)">
        <rect id="Artboard2" x="0" y="0" width="1313.71" height="1464.23" style="fill:none;"/>
        <g>
            <path d="M645.303,12.551C993.984,13.798 1276.98,270.716 1275.71,619.331C1275.67,628.407 1275.15,761.665 1234.24,760.711C1187.15,759.613 1107.39,752.567 1012.02,752.225C847.446,751.637 829.379,738.127 775.098,792.007C736.403,830.416 751.955,908.125 747.077,986.138C731.974,1227.66 602.811,1226.03 535.29,1225.79C401.49,1225.31 304.123,1157.92 213.11,1082.81C-17.232,892.709 10.266,905.762 11.23,641.937C12.503,293.322 296.622,11.304 645.303,12.551ZM430.929,829.532C475.292,829.691 511.178,865.83 511.016,910.185C510.854,954.539 474.705,990.421 430.342,990.262C385.979,990.103 350.093,953.964 350.256,909.61C350.418,865.255 386.566,829.373 430.929,829.532ZM436.559,275.943L440.629,203.466C439.128,192.603 550.844,173.563 625.977,173.563C678.389,173.563 733.849,186.875 766.334,214.784C793.119,237.795 800.064,269.536 808.945,297.032C815.941,318.693 816.881,343.155 816.181,366.725C814.623,419.229 800.55,466.789 792.056,479.734C786.039,488.903 770.473,505.214 759.456,515.888C723.191,551.022 674.288,560.136 627.908,564.525C598.179,567.339 473.579,566.571 473.579,566.571L419.125,563.477L422.365,475.933L467.51,477.613L473.548,277.504L436.559,275.943ZM608.767,274.005L602.43,468.201C601.999,486.233 651.053,479.007 651.983,450.517L657.063,294.832C658.585,256.067 609.27,258.6 608.767,274.005Z" style="fill:#de2726;stroke:#403535;stroke-width:4.17px;"/>
        </g>
        <g>
            <path d="M886.88,1107.78L767.576,1007.38C767.576,1007.38 738.737,1030.08 740.645,1031.69L893.401,1160.35L909.412,1289.42C910.192,1295.71 914.382,1301.13 920.399,1303.62L1210.26,1423.51C1215.01,1425.48 1220.41,1425.4 1225.1,1423.3C1229.8,1421.2 1233.36,1417.27 1234.91,1412.48L1276.83,1282.49C1279.74,1273.48 1274.86,1263.86 1265.75,1260.57L927.566,1138.59L915.442,1040.86L905.414,841.197C905.177,836.461 902.993,832.013 899.349,828.848L812.148,753.621C804.627,747.084 783.535,776.37 791.057,782.905L869.229,850.327C871.048,886.532 878.917,1043.21 878.917,1043.21C878.938,1043.63 878.974,1044.06 879.026,1044.47L886.88,1107.78ZM932.483,1178.22L944.487,1275L1206.01,1383.17L1236.72,1287.96L932.483,1178.22Z" style="fill:#151212;"/>
            <path d="M796.925,759.917C824.041,760.02 1028.17,761.816 1185.26,769.04C1219.91,770.633 1253.6,774.508 1254.16,774.572C1274.52,783.928 1279.81,805.059 1277.7,828.307C1271.4,828.702 1260.67,829.196 1250.73,828.827C1132.24,824.432 929.453,810.53 929.453,810.53C929.541,810.535 906.895,809.266 889.369,823.392C878.188,832.404 868.077,847.556 869.118,874.367C871.038,923.757 880.731,1057.2 880.731,1057.2C880.876,1059.2 881.37,1061.16 882.191,1063.01C882.191,1063.01 896.088,1096.14 941.583,1109.89C973.346,1119.48 1189.3,1150.66 1247.49,1158.96L1254.08,1236.7L1176.14,1477.85L956.225,1381.17L922.138,1186.31C921.082,1180.28 916.891,1175.2 911.051,1172.87C911.051,1172.87 776.644,1116.29 728.794,1097.22L711.733,1130.54L887.751,1201.95C894.847,1242.51 921.767,1396.41 921.767,1396.41C922.784,1402.22 926.714,1407.16 932.252,1409.6L1179.87,1518.45C1184.64,1520.55 1190.11,1520.57 1194.9,1518.49C1199.67,1516.4 1203.32,1512.44 1204.88,1507.6L1290.07,1244.01C1290.77,1241.83 1291.04,1239.53 1290.84,1237.25L1282.78,1142.01C1282.09,1133.77 1275.61,1127.09 1267.17,1125.9C1267.17,1125.9 988.584,1086.91 952.469,1076.01C930.557,1069.39 920.227,1056.03 916.968,1050.94C915.387,1028.99 907.408,917.193 905.693,873.032C905.34,863.958 906.922,857.599 910.171,853.343C916.411,845.168 927.45,845.963 927.45,845.963C927.48,845.964 927.51,845.966 927.538,845.967C927.538,845.967 1130.69,859.887 1249.33,864.286C1271.31,865.102 1287.61,864.169 1295.89,861.214C1306.87,857.293 1311.52,850.169 1312.74,842.707C1319.88,798.788 1307.22,759.123 1268.92,742.089C1262.2,739.097 1231.68,735.65 1187,733.594C1022.97,726.05 794.332,721.666 793.337,721.823L796.925,759.917" style="fill:#151212;"/>
        </g>
        <g>
            <path d="M884.88,1102.78L695.698,943.009L619.807,787.115C615.495,778.259 604.58,774.463 595.447,778.642C586.313,782.823 582.397,793.406 586.708,802.261L664.237,961.519C665.317,963.736 666.859,965.713 668.767,967.324L891.401,1155.35L907.412,1284.42C908.192,1290.71 912.382,1296.13 918.399,1298.62L1208.26,1418.51C1213.01,1420.48 1218.41,1420.4 1223.1,1418.3C1227.8,1416.2 1231.36,1412.27 1232.91,1407.48L1274.83,1277.49C1277.74,1268.48 1272.86,1258.86 1263.75,1255.57L925.566,1133.59L913.442,1035.86L903.414,836.197C903.177,831.461 900.993,827.013 897.349,823.848L785.151,726.351C777.63,719.814 766.05,720.429 759.309,727.721C752.569,735.013 753.202,746.24 760.724,752.775L867.229,845.327C869.048,881.532 876.917,1038.21 876.917,1038.21C876.938,1038.63 876.974,1039.06 877.026,1039.47L884.88,1102.78ZM930.483,1173.22L942.487,1270L1204.01,1378.17L1234.72,1282.96L930.483,1173.22Z" style="fill:#de2726;"/>
            <path d="M506.895,934.038C504.957,938.432 504.929,943.399 506.818,947.813L554.535,1059.35C556.401,1063.71 559.98,1067.17 564.483,1068.96L885.751,1196.95C892.847,1237.51 919.767,1391.41 919.767,1391.41C920.784,1397.22 924.714,1402.16 930.252,1404.6L1177.87,1513.45C1182.64,1515.55 1188.11,1515.57 1192.9,1513.49C1197.67,1511.4 1201.32,1507.44 1202.88,1502.6L1288.07,1239.01C1288.77,1236.83 1289.04,1234.53 1288.84,1232.25L1280.78,1137.01C1280.09,1128.77 1273.61,1122.09 1265.17,1120.9C1265.17,1120.9 986.584,1081.91 950.469,1071.01C928.557,1064.39 918.227,1051.03 914.968,1045.94C913.387,1023.99 905.408,912.193 903.693,868.032C903.34,858.958 904.922,852.599 908.171,848.343C914.411,840.168 925.45,840.963 925.45,840.963C925.48,840.964 925.51,840.966 925.538,840.967C925.538,840.967 1128.69,854.887 1247.33,859.286C1269.31,860.102 1285.61,859.169 1293.89,856.214C1304.87,852.293 1309.52,845.169 1310.74,837.707C1317.88,793.788 1305.22,754.123 1266.92,737.089C1260.2,734.097 1229.68,730.65 1185,728.594C1020.97,721.05 721.43,719.759 721.43,719.759C720.422,719.756 719.416,719.832 718.421,719.99C718.421,719.99 682.717,725.487 632.146,748.342C615.723,755.764 596.41,776.229 578.495,802.237C541.183,856.404 506.895,934.038 506.895,934.038ZM1252.16,769.572C1272.52,778.928 1277.81,800.059 1275.7,823.307C1269.4,823.702 1258.67,824.196 1248.73,823.827C1130.24,819.432 927.453,805.53 927.453,805.53C927.541,805.535 904.895,804.266 887.369,818.392C876.188,827.404 866.077,842.556 867.118,869.367C869.038,918.757 878.731,1052.2 878.731,1052.2C878.876,1054.2 879.37,1056.16 880.191,1058.01C880.191,1058.01 894.088,1091.14 939.583,1104.89C971.346,1114.48 1187.3,1145.66 1245.49,1153.96L1252.08,1231.7L1174.14,1472.85L954.225,1376.17L920.138,1181.31C919.082,1175.28 914.891,1170.2 909.051,1167.87C909.051,1167.87 633.278,1058.01 585.429,1038.94L543.614,941.205L543.614,941.204C552.544,921.722 579.747,864.313 608.93,821.946C622.298,802.54 635.355,786.043 647.609,780.504C687.24,762.594 716.543,756.461 722.981,755.251C750.097,755.354 1026.17,756.816 1183.26,764.04C1217.91,765.633 1251.6,769.508 1252.16,769.572Z" style="fill:#de2726;"/>
        </g>
    </g>
</svg>
