<?xml version="1.0" encoding="UTF-8" standalone="no"?>
<!DOCTYPE svg PUBLIC "-//W3C//DTD SVG 1.1//EN" "http://www.w3.org/Graphics/SVG/1.1/DTD/svg11.dtd">
<svg width="100%" height="100%" viewBox="0 0 832 1068" version="1.1" xmlns="http://www.w3.org/2000/svg" xmlns:xlink="http://www.w3.org/1999/xlink" xml:space="preserve" xmlns:serif="http://www.serif.com/" style="fill-rule:evenodd;clip-rule:evenodd;stroke-linecap:round;stroke-linejoin:round;stroke-miterlimit:1.5;">
    <g id="Diver-down-flag" serif:id="Diver down flag">
    </g>
    <g id="g186">
    </g>
    <g id="Filigree">
    </g>
    <rect id="Artboard29" x="0" y="0" width="831.937" height="1067.19" style="fill:none;"/>
    <g>
        <path d="M5.173,534.113C-2.547,330.886 89.84,56.268 89.84,56.268C99.047,19.46 148.926,-2.948 185.734,6.258L319.117,39.621C355.925,48.828 378.334,86.186 369.127,122.994L319.993,281.307C310.787,318.115 258.303,334.956 236.62,331.317C190.482,323.572 170.194,345.095 167.004,357.473C167.004,357.473 147.139,475.233 147.139,534.113C147.139,592.994 167.004,710.754 167.004,710.754C170.194,723.132 180.026,741.31 236.62,736.91C261.897,734.945 310.787,750.112 319.993,786.92L369.127,945.233C378.334,982.041 355.925,1019.4 319.117,1028.61L185.734,1061.97C148.926,1071.17 99.047,1048.77 89.84,1011.96C89.84,1011.96 -2.547,737.341 5.173,534.113Z" style="fill:#de2726;"/>
        <path d="M675.849,169.736C838.824,359.234 825.672,648.459 670.109,858.349" style="fill:none;stroke:#de2726;stroke-width:75px;"/>
        <path d="M539.947,265.221C649.178,381.406 669.991,574.347 538.551,778.469" style="fill:none;stroke:#de2726;stroke-width:75px;"/>
        <path d="M422.151,362.339C491.457,458.292 479.369,596.803 403.019,694.808" style="fill:none;stroke:#de2726;stroke-width:75px;"/>
    </g>
</svg>
