<?xml version="1.0" encoding="UTF-8" standalone="no"?>
<!DOCTYPE svg PUBLIC "-//W3C//DTD SVG 1.1//EN" "http://www.w3.org/Graphics/SVG/1.1/DTD/svg11.dtd">
<svg width="100%" height="100%" viewBox="0 0 159 163" version="1.1" xmlns="http://www.w3.org/2000/svg" xmlns:xlink="http://www.w3.org/1999/xlink" xml:space="preserve" xmlns:serif="http://www.serif.com/" style="fill-rule:evenodd;clip-rule:evenodd;stroke-linejoin:round;stroke-miterlimit:2;">
    <rect id="Artboard7" x="0" y="0" width="158.571" height="162.619" style="fill:none;"/>
    <clipPath id="_clip1">
        <rect x="0" y="0" width="158.571" height="162.619"/>
    </clipPath>
    <g clip-path="url(#_clip1)">
        <path d="M92.407,114.871C84.542,122.351 76.6,126.09 68.58,126.09C61.487,126.09 55.395,123.16 50.306,117.3L50.306,116.837C55.087,121.155 61.255,123.314 68.812,123.314C75.906,123.314 82.922,119.999 89.862,113.368L91.597,111.633C96.532,119.266 102.893,123.083 110.681,123.083C122.556,123.083 132.946,117.088 141.852,105.098C150.758,93.108 155.211,79.093 155.211,63.055C155.211,50.024 151.991,38.651 145.553,28.935C139.114,19.219 129.842,11.779 117.736,6.612L117.968,5.224C130.767,9.697 140.772,17.041 147.982,27.258C155.191,37.475 158.796,49.407 158.796,63.055C158.796,79.864 154.073,94.631 144.628,107.353C135.182,120.076 124.213,126.437 111.722,126.437C103.78,126.437 97.341,122.582 92.407,114.871ZM38.508,147.488L38.508,146.678C48.532,155.468 62.335,159.863 79.915,159.863C91.79,159.863 102.064,158.186 110.739,154.832C119.413,151.478 127.375,146.1 134.623,138.697L136.705,140.548C131.461,147.565 123.828,153.02 113.804,156.914C103.78,160.808 92.484,162.755 79.915,162.755C70.816,162.755 63.164,161.618 56.956,159.343C50.749,157.068 44.6,153.116 38.508,147.488ZM88.127,44.896C86.508,43.431 84.927,42.699 83.385,42.699C77.525,42.699 72.783,46.612 69.159,54.438C65.535,62.265 63.723,72.462 63.723,85.031C63.723,97.599 66.074,105.348 70.778,108.279L70.662,108.972C64.108,107.199 60.831,98.756 60.831,83.643C60.831,70.766 62.913,60.337 67.077,52.356C71.241,44.376 76.677,40.385 83.385,40.385C85.544,40.385 87.395,41.658 88.937,44.202L88.127,44.896ZM117.621,35.99L120.281,39.113L114.035,88.732C113.727,91.122 113.573,92.934 113.573,94.168C113.573,98.794 114.922,102.457 117.621,105.156C123.712,102.071 128.551,96.597 132.136,88.732C135.722,80.867 137.514,71.807 137.514,61.551C137.514,46.67 131.963,33.986 120.859,23.499C109.756,13.012 96.3,7.769 80.493,7.769C62.219,7.769 46.566,14.844 33.535,28.993C20.504,43.142 13.988,60.164 13.988,80.057C13.988,98.563 20.041,114.062 32.147,126.553C44.253,139.044 59.289,145.29 77.255,145.29C92.908,145.29 107.481,140.432 120.975,130.717C123.134,129.175 125.062,128.326 126.758,128.172C128.454,128.018 129.264,128.751 129.187,130.37C129.11,132.914 126.449,135.922 121.206,139.391C107.867,148.336 92.599,152.808 75.404,152.808C54.431,152.808 36.658,145.579 22.085,131.122C7.511,116.664 0.225,99.026 0.225,78.207C0.225,52.761 10.596,32.174 31.338,16.444C45.679,5.571 61.294,0.135 78.18,0.135C98.074,0.135 114.633,6.015 127.857,17.774C141.081,29.533 147.693,44.202 147.693,61.783C147.693,76.125 143.741,88.713 135.837,99.546C127.934,110.38 118.739,115.796 108.252,115.796C97.997,115.796 92.484,110.515 91.713,99.951C85.081,111.054 76.677,116.606 66.498,116.606C57.708,116.606 50.691,113.329 45.448,106.775C40.205,100.221 37.583,91.469 37.583,80.52C37.583,66.486 41.786,54.458 50.19,44.434C58.595,34.41 68.696,29.398 80.493,29.398C85.274,29.398 90.595,30.554 96.455,32.867C99.539,34.101 102.006,34.718 103.857,34.718C106.324,34.718 108.483,34.101 110.334,32.867L111.838,33.908L105.823,80.983L104.782,91.161C104.551,93.551 104.435,95.324 104.435,96.481C104.435,99.411 105.149,101.802 106.575,103.652C108.002,105.503 109.833,106.428 112.069,106.428C112.917,106.428 114.151,106.235 115.77,105.85C112.223,103.305 110.45,99.604 110.45,94.746C110.45,93.59 110.642,91.469 111.028,88.385L117.621,35.99ZM91.019,78.091L92.985,60.857C93.062,60.395 93.101,59.624 93.101,58.544C93.101,51.527 91.77,45.918 89.11,41.716C86.45,37.513 82.922,35.412 78.527,35.412C71.51,35.412 65.805,39.865 61.409,48.771C57.014,57.677 54.817,69.224 54.817,83.411C54.817,91.893 56.108,98.524 58.691,103.305C61.274,108.086 64.879,110.476 69.506,110.476C75.057,110.476 79.722,107.642 83.501,101.975C87.279,96.308 89.785,88.346 91.019,78.091ZM111.375,21.186L108.946,20.492C100.079,18.101 91.982,16.906 84.657,16.906C67.231,16.906 52.716,23.248 41.111,35.933C29.506,48.617 23.704,64.443 23.704,83.411C23.704,95.44 26.46,106.139 31.974,115.507C37.487,124.876 45.101,131.796 54.817,136.269L53.776,137.541C31.569,126.977 20.465,108.895 20.465,83.296C20.465,63.479 26.595,46.959 38.855,33.735C51.116,20.511 66.421,13.899 84.773,13.899C97.033,13.899 105.9,16.328 111.375,21.186Z" style="fill-rule:nonzero;"/>
    </g>
</svg>
