<?xml version="1.0" encoding="UTF-8" standalone="no"?>
<!DOCTYPE svg PUBLIC "-//W3C//DTD SVG 1.1//EN" "http://www.w3.org/Graphics/SVG/1.1/DTD/svg11.dtd">
<svg width="100%" height="100%" viewBox="0 0 494 378" version="1.1" xmlns="http://www.w3.org/2000/svg" xmlns:xlink="http://www.w3.org/1999/xlink" xml:space="preserve" xmlns:serif="http://www.serif.com/" style="fill-rule:evenodd;clip-rule:evenodd;stroke-linecap:round;stroke-linejoin:round;stroke-miterlimit:1.5;">
    <rect id="Artboard1" x="0" y="0" width="493.979" height="377.604" style="fill:none;"/>
    <g id="board">
        <path id="board1" serif:id="board" d="M264.773,218.775C264.773,218.775 165.937,234.707 164.507,234.979C160.12,235.815 5.627,262.936 1.558,264.835L1.993,264.924C6.983,266.039 13.841,266.972 18.947,268.095C26.024,269.652 31.297,270.25 38.095,272.658C41.034,273.699 51.034,277.395 51.863,277.725C81.456,272.345 110.363,267.274 140.198,263.438C152.325,261.879 169.457,258.659 181.167,256.858L291.339,239.227C291.339,239.227 291.33,232.522 291.342,232.538L264.773,218.775Z" style="fill:#ebebeb;"/>
        <path d="M1.498,264.345C2.785,263.894 9.508,262.521 19.557,260.61C61.331,252.668 160.908,235.177 164.418,234.508C165.848,234.236 264.697,218.302 264.697,218.302C264.798,218.286 264.902,218.303 264.993,218.35L291.536,232.099C291.596,232.125 291.658,232.167 291.714,232.236C291.794,232.334 291.829,232.455 291.82,232.573L291.818,232.725C291.811,233.799 291.818,239.227 291.818,239.227C291.818,239.462 291.647,239.663 291.415,239.701L181.24,257.332C169.527,259.133 152.39,262.353 140.259,263.913C110.433,267.748 81.534,272.818 51.948,278.197C51.86,278.213 51.769,278.204 51.685,278.171C50.858,277.84 40.87,274.149 37.935,273.109C31.157,270.709 25.9,270.115 18.844,268.563C13.739,267.44 6.883,266.508 1.892,265.393C1.892,265.393 1.462,265.305 1.462,265.305L1.463,265.305C1.28,265.268 1.132,265.127 1.091,264.939C1.054,264.775 1.107,264.609 1.22,264.496C1.242,264.399 1.322,264.337 1.498,264.345ZM264.693,219.274L290.86,232.828C290.854,233.896 290.858,237.581 290.859,238.819C290.859,238.819 181.093,256.385 181.093,256.385C169.386,258.185 152.26,261.404 140.137,262.963C110.339,266.794 81.466,271.857 51.91,277.23C50.479,276.679 41.089,273.21 38.255,272.206C31.436,269.791 26.148,269.188 19.049,267.627C14.437,266.612 8.394,265.753 3.591,264.775C6.381,264.133 12.083,263.007 19.736,261.552C61.51,253.61 161.087,236.119 164.597,235.45C165.993,235.184 260.33,219.977 264.693,219.274ZM291.623,232.927C291.523,232.999 291.398,233.03 291.276,233.013C291.39,233.03 291.509,233.012 291.623,232.927ZM291.092,232.948C291.138,232.976 291.183,232.993 291.227,233.003C291.191,232.994 291.156,232.981 291.122,232.964L291.092,232.948ZM291.635,232.918L291.624,232.926L291.631,232.921L291.635,232.918Z" style="fill:#ebebeb;"/>
        <path id="board-shadow" serif:id="board shadow" d="M264.8,226.945L21.672,268.362C27.866,268.939 39.291,272.242 52.194,277.725L291.342,239.672L264.8,226.945Z" style="fill:#151212;stroke:#ebebeb;stroke-width:1px;"/>
    </g>
</svg>
