<?xml version="1.0" encoding="UTF-8" standalone="no"?>
<!DOCTYPE svg PUBLIC "-//W3C//DTD SVG 1.1//EN" "http://www.w3.org/Graphics/SVG/1.1/DTD/svg11.dtd">
<svg width="100%" height="100%" viewBox="0 0 3040 3040" version="1.1" xmlns="http://www.w3.org/2000/svg" xmlns:xlink="http://www.w3.org/1999/xlink" xml:space="preserve" xmlns:serif="http://www.serif.com/" style="fill-rule:evenodd;clip-rule:evenodd;stroke-linejoin:round;stroke-miterlimit:2;">
    <circle cx="1519.77" cy="1519.77" r="1519.77" style="fill:#d7005a;"/>
    <rect id="Artboard1" x="0" y="0" width="3039.54" height="3039.54" style="fill:none;"/>
    <g>
        <path d="M1539.98,470.431C1254.91,470.431 1219.16,471.639 1107.2,476.748C995.48,481.848 919.175,499.589 852.405,525.539C783.38,552.364 724.842,588.256 666.488,646.61C608.134,704.964 572.242,763.502 545.417,832.527C519.467,899.294 501.725,975.598 496.625,1087.32C491.517,1199.28 490.313,1235.03 490.313,1520.1C490.313,1805.17 491.517,1840.92 496.625,1952.88C501.725,2064.6 519.467,2140.91 545.417,2207.67C572.242,2276.7 608.134,2335.24 666.488,2393.59C724.842,2451.95 783.38,2487.84 852.405,2514.66C919.175,2540.61 995.48,2558.36 1107.2,2563.45C1219.16,2568.56 1254.91,2569.77 1539.98,2569.77C1825.06,2569.77 1860.8,2568.56 1972.76,2563.45C2084.48,2558.36 2160.79,2540.61 2227.55,2514.66C2296.58,2487.84 2355.12,2451.95 2413.47,2393.59C2471.83,2335.24 2507.72,2276.7 2534.55,2207.67C2560.49,2140.91 2578.24,2064.6 2583.33,1952.88C2588.44,1840.92 2589.65,1805.17 2589.65,1520.1C2589.65,1235.03 2588.44,1199.28 2583.33,1087.32C2578.24,975.598 2560.49,899.294 2534.55,832.527C2507.72,763.502 2471.83,704.964 2413.47,646.61C2355.12,588.256 2296.58,552.364 2227.55,525.539C2160.79,499.589 2084.48,481.848 1972.76,476.748C1860.8,471.639 1825.06,470.431 1539.98,470.431ZM1539.98,659.564C1820.26,659.564 1853.45,660.631 1964.14,665.681C2066.48,670.352 2122.06,687.452 2159.05,701.823C2208.04,720.864 2243.01,743.614 2279.74,780.344C2316.47,817.073 2339.22,852.044 2358.26,901.035C2372.63,938.023 2389.73,993.602 2394.4,1095.94C2399.45,1206.63 2400.52,1239.83 2400.52,1520.1C2400.52,1800.37 2399.45,1833.57 2394.4,1944.26C2389.73,2046.6 2372.63,2102.18 2358.26,2139.16C2339.22,2188.16 2316.47,2223.13 2279.74,2259.86C2243.01,2296.59 2208.04,2319.34 2159.05,2338.38C2122.06,2352.75 2066.48,2369.85 1964.14,2374.52C1853.47,2379.57 1820.28,2380.64 1539.98,2380.64C1259.69,2380.64 1226.5,2379.57 1115.83,2374.52C1013.48,2369.85 957.905,2352.75 920.917,2338.38C871.921,2319.34 836.955,2296.59 800.221,2259.86C763.492,2223.13 740.742,2188.16 721.705,2139.16C707.33,2102.18 690.23,2046.6 685.559,1944.26C680.509,1833.57 679.442,1800.37 679.442,1520.1C679.442,1239.83 680.509,1206.63 685.559,1095.94C690.23,993.602 707.33,938.023 721.705,901.035C740.742,852.044 763.492,817.073 800.221,780.344C836.955,743.614 871.921,720.864 920.917,701.823C957.905,687.452 1013.48,670.352 1115.83,665.681C1226.51,660.631 1259.71,659.564 1539.98,659.564Z" style="fill:#fff;fill-rule:nonzero;"/>
        <path d="M1539.98,1869.99C1346.74,1869.99 1190.09,1713.34 1190.09,1520.1C1190.09,1326.86 1346.74,1170.21 1539.98,1170.21C1733.22,1170.21 1889.87,1326.86 1889.87,1520.1C1889.87,1713.34 1733.22,1869.99 1539.98,1869.99ZM1539.98,981.081C1242.29,981.081 1000.96,1222.41 1000.96,1520.1C1000.96,1817.79 1242.29,2059.12 1539.98,2059.12C1837.67,2059.12 2079,1817.79 2079,1520.1C2079,1222.41 1837.67,981.081 1539.98,981.081Z" style="fill:#fff;fill-rule:nonzero;"/>
        <path d="M2226.26,959.785C2226.26,1029.35 2169.86,1085.74 2100.3,1085.74C2030.73,1085.74 1974.34,1029.35 1974.34,959.785C1974.34,890.219 2030.73,833.827 2100.3,833.827C2169.86,833.827 2226.26,890.219 2226.26,959.785Z" style="fill:#fff;fill-rule:nonzero;"/>
    </g>
</svg>
