<?xml version="1.0" encoding="UTF-8" standalone="no"?>
<!DOCTYPE svg PUBLIC "-//W3C//DTD SVG 1.1//EN" "http://www.w3.org/Graphics/SVG/1.1/DTD/svg11.dtd">
<svg width="100%" height="100%" viewBox="0 0 1013 1013" version="1.1" xmlns="http://www.w3.org/2000/svg" xmlns:xlink="http://www.w3.org/1999/xlink" xml:space="preserve" xmlns:serif="http://www.serif.com/" style="fill-rule:evenodd;clip-rule:evenodd;stroke-linejoin:round;stroke-miterlimit:2;">
    <g>
        <path d="M506.246,0C226.654,0 0,226.658 0,506.246C0,720.721 133.433,904.067 321.758,977.829C317.329,937.775 313.333,876.175 323.517,832.446C332.712,792.938 382.879,580.808 382.879,580.808C382.879,580.808 367.733,550.483 367.733,505.646C367.733,435.254 408.533,382.7 459.337,382.7C502.525,382.7 523.392,415.129 523.392,454.012C523.392,497.45 495.737,562.387 481.463,622.567C469.538,672.958 506.733,714.05 556.429,714.05C646.413,714.05 715.575,619.175 715.575,482.225C715.575,361.017 628.475,276.267 504.112,276.267C360.067,276.267 275.517,384.308 275.517,495.962C275.517,539.475 292.275,586.129 313.192,611.492C317.325,616.504 317.933,620.9 316.704,626.012C312.858,642.004 304.321,676.388 302.642,683.425C300.433,692.692 295.304,694.658 285.712,690.196C222.483,660.763 182.954,568.325 182.954,494.075C182.954,334.379 298.979,187.725 517.45,187.725C693.067,187.725 829.546,312.863 829.546,480.104C829.546,654.579 719.537,794.992 566.846,794.992C515.55,794.992 467.321,768.342 450.817,736.863C450.817,736.863 425.429,833.521 419.275,857.208C407.842,901.183 376.992,956.3 356.354,989.921C403.725,1004.59 454.062,1012.5 506.246,1012.5C785.846,1012.5 1012.5,785.846 1012.5,506.246C1012.5,226.658 785.846,0 506.246,0Z" style="fill:#e71d27;fill-rule:nonzero;"/>
    </g>
</svg>
