<svg id="Layer_1" data-name="Layer 1" xmlns="http://www.w3.org/2000/svg" viewBox="0 0 872.22 872.22"><defs><style>.cls-1{fill:#34e0a1;}</style></defs><title>Tripadvisor_Logo_circle-green_RGB</title><circle class="cls-1" cx="436.11" cy="436.11" r="436.11"/><path d="M818.35,463.9l52.5-57.12H754.46a363.57,363.57,0,0,0-409.1,0H228.67l52.5,57.12A160.45,160.45,0,1,0,498.32,700.16l51.44,56,51.41-55.93a159.81,159.81,0,0,0,109,42.74c88.61,0,160.51-71.84,160.51-160.45A160.07,160.07,0,0,0,818.35,463.9ZM389.28,691.06A108.58,108.58,0,1,1,497.86,582.48,108.58,108.58,0,0,1,389.28,691.06ZM549.76,579.35c0-71.45-52-132.76-120.51-159a313.36,313.36,0,0,1,241,0C601.72,446.6,549.76,507.9,549.76,579.35ZM710.17,691.06A108.58,108.58,0,1,1,818.75,582.48,108.58,108.58,0,0,1,710.17,691.06Zm0-165.5a56.92,56.92,0,1,0,56.92,56.92A56.92,56.92,0,0,0,710.17,525.56Zm-264,56.92a56.92,56.92,0,1,1-56.92-56.92A56.91,56.91,0,0,1,446.2,582.48Z" transform="translate(-113.62 -113.84)"/></svg>