<?xml version="1.0" encoding="UTF-8" standalone="no"?>
<!DOCTYPE svg PUBLIC "-//W3C//DTD SVG 1.1//EN" "http://www.w3.org/Graphics/SVG/1.1/DTD/svg11.dtd">
<svg width="100%" height="100%" viewBox="0 0 1667 1667" version="1.1" xmlns="http://www.w3.org/2000/svg" xmlns:xlink="http://www.w3.org/1999/xlink" xml:space="preserve" xmlns:serif="http://www.serif.com/" style="fill-rule:evenodd;clip-rule:evenodd;stroke-linejoin:round;stroke-miterlimit:2;">
    <rect id="Artboard1" x="0" y="0" width="1666.67" height="1666.66" style="fill:none;"/>
    <clipPath id="_clip1">
        <rect x="0" y="0" width="1666.67" height="1666.66"/>
    </clipPath>
    <g clip-path="url(#_clip1)">
        <g>
            <path d="M1666.76,833.667C1666.76,1293.9 1293.66,1667 833.425,1667C373.188,1667 0.092,1293.9 0.092,833.667C0.092,373.429 373.188,0.338 833.425,0.338C1293.66,0.338 1666.76,373.429 1666.76,833.667Z" style="fill:#4195d1;fill-rule:nonzero;"/>
            <path d="M680.95,1273.22C1050.46,1273.22 1252.53,967.096 1252.53,701.642C1252.53,692.942 1252.35,684.283 1251.95,675.671C1291.17,647.317 1325.28,611.938 1352.17,571.654C1316.17,587.646 1277.44,598.421 1236.8,603.279C1278.28,578.413 1310.12,539.058 1325.14,492.154C1286.32,515.162 1243.35,531.904 1197.58,540.913C1160.92,501.867 1108.72,477.446 1050.95,477.446C939.996,477.446 850.025,567.417 850.025,678.321C850.025,694.088 851.792,709.417 855.237,724.125C688.279,715.733 540.229,635.788 441.158,514.238C423.888,543.917 413.95,578.413 413.95,615.204C413.95,684.904 449.417,746.429 503.346,782.425C470.4,781.412 439.438,772.354 412.362,757.292C412.317,758.133 412.317,758.975 412.317,759.854C412.317,857.158 481.571,938.383 573.488,956.804C556.617,961.392 538.858,963.871 520.529,963.871C507.587,963.871 495,962.587 482.767,960.246C508.337,1040.06 582.5,1098.14 670.438,1099.78C601.667,1153.66 515.054,1185.77 420.929,1185.77C404.721,1185.77 388.733,1184.84 373.008,1182.99C461.917,1239.97 567.479,1273.22 680.95,1273.22Z" style="fill:#fff;fill-rule:nonzero;"/>
        </g>
    </g>
</svg>
