<?xml version="1.0" encoding="UTF-8" standalone="no"?>
<!DOCTYPE svg PUBLIC "-//W3C//DTD SVG 1.1//EN" "http://www.w3.org/Graphics/SVG/1.1/DTD/svg11.dtd">
<svg width="100%" height="100%" viewBox="0 0 45 45" version="1.1" xmlns="http://www.w3.org/2000/svg" xmlns:xlink="http://www.w3.org/1999/xlink" xml:space="preserve" xmlns:serif="http://www.serif.com/" style="fill-rule:evenodd;clip-rule:evenodd;stroke-linejoin:round;stroke-miterlimit:2;">
    <path d="M45,22.5C45,10.082 34.918,0 22.5,0C10.082,0 0,10.082 0,22.5C0,34.918 10.082,45 22.5,45C34.918,45 45,34.918 45,22.5Z" style="fill:#fff;"/>
    <path d="M0,22.5C0,10.074 10.074,0 22.5,0C34.926,0 45,10.074 45,22.5C45,34.926 34.926,45 22.5,45C10.074,45 0,34.926 0,22.5Z" style="fill:url(#_Radial1);fill-rule:nonzero;"/>
    <g>
        <path d="M18.373,26.042L19.828,25.706C19.859,25.699 19.909,25.687 19.971,25.667C20.372,25.56 20.716,25.3 20.93,24.944C21.144,24.587 21.211,24.162 21.118,23.757C21.116,23.748 21.114,23.74 21.112,23.731C21.064,23.537 20.98,23.354 20.865,23.191C20.701,22.984 20.5,22.811 20.27,22.682C20,22.528 19.718,22.397 19.426,22.291L17.83,21.709C16.935,21.377 16.039,21.053 15.135,20.737C14.549,20.528 14.053,20.346 13.621,20.212C13.54,20.187 13.45,20.162 13.377,20.137C12.855,19.977 12.489,19.911 12.178,19.909C11.971,19.901 11.765,19.939 11.574,20.019C11.375,20.105 11.196,20.232 11.049,20.391C10.976,20.474 10.907,20.561 10.843,20.651C10.783,20.743 10.728,20.838 10.678,20.936C10.623,21.041 10.576,21.15 10.537,21.261C10.241,22.136 10.094,23.053 10.102,23.976C10.108,24.811 10.131,25.882 10.591,26.607C10.701,26.794 10.85,26.955 11.027,27.08C11.354,27.306 11.684,27.335 12.028,27.36C12.542,27.397 13.04,27.271 13.536,27.156L18.369,26.041L18.373,26.042Z" style="fill:#fff;fill-rule:nonzero;"/>
        <path d="M34.603,18.321C34.206,17.488 33.671,16.728 33.022,16.072C32.938,15.989 32.848,15.912 32.753,15.841C32.665,15.775 32.574,15.714 32.48,15.658C32.383,15.605 32.283,15.557 32.181,15.514C31.979,15.435 31.763,15.4 31.546,15.41C31.339,15.422 31.137,15.478 30.954,15.576C30.677,15.714 30.376,15.935 29.977,16.306C29.922,16.361 29.853,16.423 29.791,16.481C29.461,16.79 29.095,17.172 28.659,17.616C27.986,18.296 27.323,18.98 26.664,19.672L25.484,20.894C25.268,21.117 25.072,21.359 24.897,21.615C24.747,21.832 24.642,22.076 24.586,22.333C24.554,22.53 24.558,22.732 24.6,22.927C24.602,22.936 24.604,22.945 24.606,22.954C24.7,23.359 24.947,23.711 25.295,23.938C25.644,24.164 26.066,24.247 26.475,24.168C26.539,24.158 26.589,24.147 26.62,24.14L32.91,22.688C33.406,22.573 33.909,22.468 34.354,22.21C34.653,22.037 34.937,21.865 35.132,21.519C35.236,21.329 35.299,21.119 35.316,20.903C35.412,20.047 34.964,19.074 34.603,18.321Z" style="fill:#fff;fill-rule:nonzero;"/>
        <path d="M23.346,20.967C23.801,20.395 23.8,19.543 23.84,18.846C23.976,16.517 24.119,14.187 24.232,11.857C24.275,10.975 24.37,10.104 24.317,9.215C24.273,8.481 24.267,7.639 23.803,7.037C22.984,5.975 21.239,6.062 20.048,6.227C19.684,6.277 19.318,6.345 18.956,6.432C18.593,6.519 18.235,6.614 17.884,6.727C16.741,7.101 15.135,7.787 14.864,9.102C14.711,9.846 15.075,10.607 15.357,11.285C15.699,12.108 16.166,12.849 16.592,13.623C17.718,15.667 18.865,17.699 20.008,19.732C20.35,20.339 20.722,21.108 21.382,21.423C21.426,21.442 21.47,21.459 21.516,21.473C21.812,21.585 22.134,21.607 22.442,21.535C22.461,21.531 22.479,21.526 22.497,21.522C22.782,21.445 23.04,21.29 23.242,21.075C23.278,21.041 23.313,21.005 23.346,20.967Z" style="fill:#fff;fill-rule:nonzero;"/>
        <path d="M22.799,27.201C22.621,26.951 22.368,26.763 22.077,26.665C21.786,26.567 21.471,26.564 21.178,26.655C21.109,26.678 21.042,26.706 20.977,26.739C20.877,26.79 20.782,26.849 20.692,26.917C20.43,27.111 20.209,27.363 20.008,27.616C19.957,27.68 19.911,27.766 19.85,27.821L18.839,29.211C18.266,29.99 17.701,30.771 17.14,31.565C16.775,32.077 16.459,32.509 16.209,32.892C16.161,32.964 16.112,33.044 16.067,33.108C15.768,33.572 15.598,33.91 15.511,34.211C15.446,34.411 15.426,34.623 15.451,34.832C15.479,35.049 15.553,35.258 15.667,35.446C15.727,35.54 15.793,35.631 15.863,35.718C15.935,35.802 16.012,35.882 16.094,35.958C16.18,36.041 16.273,36.117 16.371,36.186C17.07,36.671 17.835,37.02 18.639,37.289C19.308,37.511 20.004,37.644 20.708,37.684C20.828,37.69 20.948,37.688 21.067,37.676C21.178,37.667 21.288,37.651 21.397,37.63C21.506,37.605 21.614,37.573 21.719,37.536C21.925,37.46 22.112,37.341 22.269,37.187C22.417,37.039 22.531,36.859 22.603,36.663C22.72,36.371 22.797,36.002 22.847,35.453C22.851,35.374 22.862,35.281 22.87,35.195C22.91,34.74 22.928,34.205 22.956,33.576C23.006,32.608 23.044,31.645 23.074,30.679C23.074,30.679 23.138,28.962 23.138,28.961C23.153,28.566 23.14,28.127 23.03,27.734C22.982,27.545 22.904,27.365 22.799,27.201Z" style="fill:#fff;fill-rule:nonzero;"/>
        <path d="M34.224,29.885C34.013,29.654 33.713,29.423 33.241,29.138C33.173,29.1 33.093,29.05 33.019,29.006C32.626,28.769 32.153,28.521 31.6,28.221C30.75,27.755 29.9,27.301 29.042,26.851L27.525,26.048C27.447,26.025 27.367,25.968 27.293,25.932C27.001,25.793 26.692,25.663 26.372,25.604C26.261,25.583 26.149,25.571 26.037,25.569C25.964,25.568 25.892,25.573 25.82,25.582C25.517,25.629 25.236,25.77 25.018,25.986C24.8,26.202 24.656,26.481 24.606,26.783C24.583,26.976 24.59,27.17 24.627,27.361C24.702,27.764 24.882,28.162 25.068,28.511L25.879,30.027C26.33,30.882 26.786,31.732 27.254,32.579C27.556,33.132 27.807,33.605 28.042,33.997C28.087,34.07 28.137,34.15 28.176,34.218C28.462,34.689 28.692,34.986 28.925,35.199C29.076,35.344 29.257,35.455 29.455,35.524C29.664,35.593 29.885,35.617 30.103,35.595C30.214,35.582 30.324,35.563 30.433,35.538C30.541,35.509 30.647,35.475 30.751,35.435C30.863,35.393 30.972,35.343 31.077,35.285C31.692,34.94 32.259,34.516 32.763,34.023C33.368,33.428 33.902,32.779 34.318,32.036C34.376,31.932 34.426,31.822 34.468,31.71C34.507,31.606 34.541,31.5 34.569,31.393C34.594,31.284 34.613,31.174 34.626,31.063C34.646,30.844 34.621,30.624 34.551,30.417C34.482,30.218 34.37,30.036 34.224,29.885Z" style="fill:#fff;fill-rule:nonzero;"/>
    </g>
    <defs>
        <radialGradient id="_Radial1" cx="0" cy="0" r="1" gradientUnits="userSpaceOnUse" gradientTransform="matrix(-2.05729e-14,53.7353,-53.7353,-2.05729e-14,22.5,-5.24117)"><stop offset="0" style="stop-color:#ff78a1;stop-opacity:1"/><stop offset="0.51" style="stop-color:#fe375c;stop-opacity:1"/><stop offset="1" style="stop-color:#f00;stop-opacity:1"/></radialGradient>
    </defs>
</svg>
