<?xml version="1.0" encoding="UTF-8" standalone="no"?>
<!DOCTYPE svg PUBLIC "-//W3C//DTD SVG 1.1//EN" "http://www.w3.org/Graphics/SVG/1.1/DTD/svg11.dtd">
<svg width="100%" height="100%" viewBox="0 0 3740 815" version="1.1" xmlns="http://www.w3.org/2000/svg" xmlns:xlink="http://www.w3.org/1999/xlink" xml:space="preserve" xmlns:serif="http://www.serif.com/" style="fill-rule:evenodd;clip-rule:evenodd;stroke-linejoin:round;stroke-miterlimit:2;">
    <rect id="Artboard3" x="0" y="0" width="3739.32" height="814.978" style="fill:none;"/>
    <clipPath id="_clip1">
        <rect x="0" y="0" width="3739.32" height="814.978"/>
    </clipPath>
    <g clip-path="url(#_clip1)">
        <rect x="1" y="0.817" width="3738.61" height="814.978" style="fill:#151212;"/>
        <g>
            <path d="M1951.05,204.562C1951.05,92.112 1859.75,0.817 1747.3,0.817L204.745,0.817C92.295,0.817 1,92.112 1,204.562L1,612.051C1,724.501 92.295,815.796 204.745,815.796L1747.3,815.796C1859.75,815.796 1951.05,724.501 1951.05,612.051L1951.05,204.562Z" style="fill:#ebebeb;"/>
            <path d="M1510.23,453.418L1537.95,447.012C1538.54,446.878 1539.5,446.656 1540.68,446.276C1548.33,444.22 1554.88,439.271 1558.96,432.478C1563.04,425.682 1564.33,417.57 1562.55,409.849C1562.51,409.679 1562.47,409.518 1562.43,409.35C1561.52,405.649 1559.93,402.152 1557.73,399.041C1554.62,395.1 1550.78,391.802 1546.41,389.333C1541.27,386.399 1535.89,383.908 1530.33,381.885L1499.94,370.789C1482.88,364.447 1465.82,358.265 1448.61,352.236C1437.44,348.263 1427.98,344.776 1419.76,342.234C1418.21,341.755 1416.5,341.278 1415.11,340.798C1405.17,337.753 1398.19,336.49 1392.28,336.447C1388.33,336.303 1384.4,337.02 1380.76,338.548C1376.96,340.186 1373.55,342.605 1370.75,345.65C1369.36,347.233 1368.05,348.888 1366.83,350.607C1365.69,352.359 1364.64,354.172 1363.69,356.036C1362.64,358.035 1361.74,360.109 1360.99,362.24C1355.35,378.915 1352.54,396.418 1352.68,414.019C1352.78,429.932 1353.21,450.356 1361.95,464.2C1364.06,467.753 1366.89,470.824 1370.26,473.214C1376.49,477.517 1382.79,478.084 1389.34,478.556C1399.12,479.258 1408.61,476.854 1418.06,474.67L1510.16,453.39L1510.23,453.418Z" style="fill:#ff1a1a;fill-rule:nonzero;"/>
            <path d="M1819.5,306.243C1811.93,290.359 1801.76,275.858 1789.4,263.34C1787.8,261.752 1786.09,260.282 1784.28,258.943C1782.6,257.687 1780.86,256.52 1779.07,255.444C1777.22,254.432 1775.32,253.519 1773.38,252.709C1769.53,251.2 1765.41,250.52 1761.29,250.712C1757.34,250.937 1753.49,252.018 1750,253.88C1744.72,256.508 1739,260.732 1731.39,267.805C1730.34,268.849 1729.02,270.027 1727.83,271.138C1721.55,277.04 1714.57,284.316 1706.26,292.788C1693.42,305.762 1680.78,318.806 1668.22,331.991L1645.74,355.303C1641.62,359.563 1637.87,364.164 1634.53,369.058C1631.68,373.193 1629.67,377.843 1628.6,382.749C1627.99,386.512 1628.08,390.356 1628.87,394.082C1628.91,394.253 1628.95,394.413 1628.99,394.581C1630.76,402.304 1635.46,409.033 1642.1,413.351C1648.74,417.67 1656.79,419.241 1664.57,417.737C1665.8,417.558 1666.75,417.346 1667.34,417.203L1787.19,389.511C1796.64,387.328 1806.22,385.327 1814.71,380.401C1820.4,377.101 1825.81,373.829 1829.53,367.228C1831.51,363.602 1832.71,359.599 1833.06,355.481C1834.89,339.146 1826.36,320.595 1819.5,306.243Z" style="fill:#ff1a1a;fill-rule:nonzero;"/>
            <path d="M1604.98,356.644C1613.67,345.734 1613.64,329.47 1614.42,316.174C1617.04,271.75 1619.79,227.32 1621.97,182.872C1622.81,166.036 1624.62,149.428 1623.62,132.465C1622.79,118.47 1622.69,102.403 1613.86,90.918C1598.26,70.666 1565,72.331 1542.31,75.472C1535.36,76.437 1528.39,77.734 1521.49,79.393C1514.58,81.051 1507.74,82.862 1501.05,85.004C1479.28,92.136 1448.67,105.228 1443.49,130.317C1440.56,144.501 1447.49,159.01 1452.86,171.954C1459.37,187.644 1468.27,201.778 1476.37,216.548C1497.8,255.541 1519.63,294.291 1541.39,333.082C1547.89,344.662 1554.98,359.328 1567.56,365.328C1568.39,365.691 1569.24,366.013 1570.1,366.289C1575.74,368.426 1581.88,368.836 1587.76,367.471C1588.12,367.39 1588.46,367.31 1588.81,367.229C1594.23,365.754 1599.15,362.804 1603,358.706C1603.7,358.054 1604.36,357.367 1604.98,356.644Z" style="fill:#ff1a1a;fill-rule:nonzero;"/>
            <path d="M1594.58,475.576C1591.19,470.805 1586.38,467.232 1580.84,465.364C1575.29,463.495 1569.3,463.43 1563.71,465.175C1562.4,465.611 1561.12,466.141 1559.89,466.763C1557.98,467.736 1556.15,468.873 1554.44,470.159C1549.44,473.86 1545.24,478.669 1541.41,483.491C1540.44,484.721 1539.55,486.359 1538.39,487.41L1519.12,513.929C1508.19,528.786 1497.41,543.68 1486.73,558.811C1479.76,568.578 1473.72,576.827 1468.96,584.125C1468.06,585.5 1467.12,587.036 1466.26,588.257C1460.55,597.093 1457.32,603.539 1455.66,609.281C1454.41,613.098 1454.02,617.14 1454.5,621.124C1455.03,625.274 1456.43,629.265 1458.6,632.838C1459.76,634.631 1461,636.364 1462.34,638.032C1463.72,639.635 1465.19,641.162 1466.73,642.607C1468.39,644.183 1470.15,645.635 1472.02,646.95C1485.33,656.208 1499.9,662.86 1515.22,668.001C1527.97,672.234 1541.22,674.766 1554.64,675.534C1556.92,675.65 1559.21,675.601 1561.48,675.386C1563.59,675.202 1565.69,674.907 1567.77,674.505C1569.85,674.02 1571.89,673.425 1573.91,672.721C1577.83,671.256 1581.39,668.984 1584.38,666.054C1587.2,663.223 1589.38,659.81 1590.75,656.051C1592.98,650.496 1594.45,643.444 1595.41,632.973C1595.5,631.484 1595.71,629.698 1595.86,628.062C1596.62,619.374 1596.97,609.168 1597.52,597.169C1598.47,578.717 1599.21,560.345 1599.79,541.92C1599.79,541.92 1601.03,509.178 1601.03,509.161C1601.31,501.616 1601.08,493.255 1598.99,485.742C1598.07,482.141 1596.58,478.71 1594.58,475.576Z" style="fill:#ff1a1a;fill-rule:nonzero;"/>
            <path d="M1812.2,526.84C1808.17,522.428 1802.47,518.029 1793.48,512.591C1792.18,511.867 1790.66,510.901 1789.26,510.059C1781.77,505.556 1772.75,500.819 1762.21,495.097C1746.03,486.21 1729.84,477.548 1713.49,468.958L1684.6,453.637C1683.1,453.201 1681.58,452.119 1680.17,451.438C1674.62,448.785 1668.74,446.307 1662.63,445.17C1660.53,444.767 1658.39,444.545 1656.25,444.509C1654.87,444.492 1653.49,444.576 1652.12,444.76C1646.34,445.654 1640.99,448.352 1636.84,452.463C1632.68,456.577 1629.93,461.898 1628.97,467.666C1628.53,471.337 1628.66,475.051 1629.37,478.679C1630.78,486.366 1634.21,493.97 1637.76,500.629L1653.19,529.539C1661.77,545.846 1670.46,562.056 1679.36,578.216C1685.11,588.758 1689.89,597.777 1694.37,605.256C1695.22,606.662 1696.18,608.177 1696.9,609.479C1702.36,618.467 1706.74,624.124 1711.17,628.183C1714.05,630.96 1717.5,633.075 1721.28,634.379C1725.25,635.696 1729.45,636.163 1733.62,635.749C1735.73,635.498 1737.83,635.135 1739.91,634.66C1741.96,634.109 1743.98,633.453 1745.96,632.693C1748.09,631.887 1750.17,630.93 1752.17,629.824C1763.89,623.25 1774.7,615.156 1784.32,605.754C1795.85,594.409 1806.04,582.036 1813.97,567.873C1815.07,565.869 1816.02,563.789 1816.82,561.647C1817.57,559.665 1818.22,557.646 1818.76,555.599C1819.23,553.517 1819.59,551.414 1819.84,549.295C1820.23,545.135 1819.75,540.938 1818.42,536.978C1817.11,533.184 1814.99,529.723 1812.2,526.84Z" style="fill:#ff1a1a;fill-rule:nonzero;"/>
            <path d="M817.632,245.601C817.632,221.777 837.04,202.316 860.464,202.316C883.553,202.316 902.291,221.777 903.295,245.936L903.295,583.824C903.295,607.647 883.887,627.108 860.464,627.108C836.37,627.108 817.632,607.647 817.632,583.824L817.632,245.601ZM777.805,454.305C777.471,461.016 775.798,473.431 767.097,482.491C757.727,492.22 745.012,494.57 737.651,494.57C707.033,494.737 676.416,494.822 645.799,494.906C615.18,494.989 584.56,495.073 553.942,495.241C556.619,503.63 561.972,516.379 574.019,528.125C581.381,535.17 588.408,539.197 591.419,540.874C595.101,543.223 607.816,549.934 623.543,549.934C640.275,549.934 654.999,544.564 669.387,537.183L670.59,536.561C680.589,531.379 690.908,526.032 701.846,524.098C712.553,522.42 723.931,524.432 732.296,531.815C742.335,540.538 746.35,553.289 742.669,566.375C738.319,581.138 725.938,593.889 712.887,601.606C705.526,605.968 697.495,609.659 689.465,612.68C679.091,616.371 668.383,619.055 657.676,620.733C646.966,622.41 635.924,623.081 624.881,622.746C619.527,622.746 613.839,622.746 608.15,622.074C602.128,621.403 596.105,620.062 590.415,618.719C581.047,616.707 572.346,613.686 563.646,609.659C555.279,605.968 546.914,601.271 539.218,595.903C531.521,590.534 524.494,584.159 517.802,577.448C511.443,570.737 505.421,563.356 500.067,555.303C481.997,527.789 473.63,493.899 475.304,461.016C476.643,428.804 487.351,396.592 506.759,370.421C508.862,367.143 511.288,364.355 513.587,361.714C514.582,360.572 515.553,359.456 516.463,358.342C540.431,329.04 572.452,319.767 585.661,315.942L586.4,315.727C624.213,304.99 655.667,312.036 668.383,315.727C674.741,317.406 710.546,328.478 738.319,358.342C739.658,359.683 743.339,364.045 748.023,370.421C765.618,394.387 771.686,416.704 773.741,424.265L773.79,424.442C775.798,431.823 777.805,441.89 777.805,454.305ZM581.381,398.942C561.972,414.712 556.619,434.844 555.279,441.219L701.176,441.219C699.838,435.18 694.149,414.712 674.741,398.942C654.999,383.17 634.251,382.165 627.894,382.165C621.536,382.165 600.789,383.17 581.381,398.942ZM1136.19,310.024C1098.04,310.024 1063.24,327.137 1038.48,354.986L1038.48,353.979C1037.47,331.497 1018.73,313.379 995.979,313.379C972.22,313.379 953.148,332.504 953.148,356.328L953.148,678.781C953.148,702.605 972.22,721.731 995.979,721.731C1019.74,721.731 1038.81,702.605 1038.81,678.781L1038.81,578.119C1063.57,605.634 1098.04,623.081 1136.52,623.081C1213.15,623.081 1275.39,553.624 1275.39,467.056C1275.06,380.486 1212.82,310.024 1136.19,310.024ZM1117.45,552.955C1073.95,552.955 1038.48,515.038 1038.48,467.728C1038.48,420.08 1073.61,382.165 1117.45,382.165C1160.95,382.165 1196.42,420.08 1196.42,467.728C1196.09,515.038 1160.95,552.955 1117.45,552.955ZM411.057,489.537L397.003,520.406C390.646,533.828 384.288,547.586 378.265,561.342C376.343,565.564 374.407,569.872 372.444,574.239C345.698,633.748 313.957,704.376 244.749,719.381C211.287,726.762 160.758,716.697 142.019,685.155C123.28,653.279 151.054,616.705 186.859,625.094C192.506,626.353 198.059,629.122 203.66,631.913C212.992,636.567 222.455,641.285 232.703,639.187C242.407,637.509 248.43,630.463 256.126,621.403C266.834,608.988 271.519,595.903 273.527,588.186C273.36,587.85 273.192,587.429 273.025,587.01C272.858,586.591 272.69,586.172 272.523,585.836C263.812,569.585 256.205,555.057 249.85,542.92C245.708,535.009 242.098,528.113 239.06,522.42C232.829,510.608 228.122,501.677 224.461,494.734C213.772,474.455 212.007,471.107 207.271,462.358C196.898,442.562 185.855,423.435 174.478,404.309C162.097,383.506 149.381,360.354 159.754,335.859C168.12,316.063 189.536,305.996 209.948,312.372C231.486,318.908 241.023,339.402 249.943,358.568C251.556,362.032 253.148,365.454 254.788,368.743C269.177,397.264 283.231,425.784 297.285,454.305C298.523,457.141 300.413,461.007 302.711,465.705C304.764,469.9 307.141,474.76 309.666,480.141C310.987,482.937 312.243,485.539 313.379,487.891C314.833,490.901 316.089,493.503 317.028,495.575C323.554,479.303 330.162,463.113 336.771,446.924C343.379,430.735 349.989,414.543 356.514,398.271C356.696,397.361 358.253,393.89 360.6,388.657C362.583,384.233 365.132,378.552 367.891,372.098C368.825,369.893 369.764,367.604 370.725,365.265C379.417,344.098 389.865,318.649 413.066,311.701C429.798,306.667 448.536,313.379 458.24,327.471C463.26,334.517 465.267,342.57 465.601,350.623C465.871,368.431 457.269,387.542 449.886,403.941C448.088,407.935 446.362,411.768 444.856,415.382C444.786,415.52 444.494,416.178 443.968,417.357C441.926,421.942 436.366,434.425 426.785,454.977C423.328,462.343 420.01,469.711 416.65,477.169C414.808,481.26 412.954,485.377 411.057,489.537Z"/>
            <path d="M1307.86,594.85L1310.96,594.85C1312.49,594.85 1313.72,594.458 1314.64,593.673C1315.57,592.868 1316.05,591.855 1316.05,590.629C1316.05,589.193 1315.63,588.169 1314.81,587.555C1313.99,586.925 1312.68,586.608 1310.9,586.608L1307.86,586.608L1307.86,594.85ZM1320.32,590.513C1320.32,592.045 1319.91,593.405 1319.09,594.593C1318.28,595.76 1317.14,596.631 1315.67,597.205L1322.51,608.55L1317.68,608.55L1311.74,598.382L1307.86,598.382L1307.86,608.55L1303.61,608.55L1303.61,582.962L1311.11,582.962C1314.28,582.962 1316.61,583.583 1318.08,584.827C1319.58,586.073 1320.32,587.968 1320.32,590.513ZM1289.97,595.741C1289.97,591.912 1290.92,588.322 1292.84,584.972C1294.75,581.621 1297.39,578.979 1300.74,577.045C1304.09,575.111 1307.7,574.145 1311.56,574.145C1315.39,574.145 1318.98,575.103 1322.33,577.016C1325.68,578.932 1328.33,581.564 1330.26,584.914C1332.19,588.264 1333.16,591.873 1333.16,595.741C1333.16,599.512 1332.23,603.055 1330.38,606.367C1328.52,609.68 1325.91,612.331 1322.56,614.321C1319.21,616.313 1315.55,617.308 1311.56,617.308C1307.6,617.308 1303.94,616.322 1300.59,614.35C1297.24,612.36 1294.63,609.707 1292.75,606.396C1290.9,603.084 1289.97,599.533 1289.97,595.741ZM1292.98,595.741C1292.98,599.054 1293.82,602.155 1295.48,605.045C1297.15,607.918 1299.42,610.186 1302.29,611.852C1305.18,613.498 1308.27,614.321 1311.56,614.321C1314.9,614.321 1317.99,613.49 1320.84,611.823C1323.69,610.157 1325.95,607.908 1327.62,605.074C1329.3,602.221 1330.14,599.11 1330.14,595.741C1330.14,592.41 1329.31,589.317 1327.65,586.465C1325.98,583.612 1323.72,581.353 1320.87,579.688C1318.04,578.003 1314.93,577.16 1311.56,577.16C1308.23,577.16 1305.14,577.993 1302.29,579.659C1299.44,581.324 1297.17,583.583 1295.48,586.436C1293.82,589.27 1292.98,592.371 1292.98,595.741Z" style="fill-rule:nonzero;"/>
        </g>
        <g>
            <g>
                <path d="M3276.53,727.304C3265.59,727.304 3255.55,725.128 3246.39,720.776C3237.24,716.424 3229.94,710.23 3224.47,702.196C3219,694.161 3216.27,684.788 3216.27,674.075C3216.27,662.469 3219.45,652.705 3225.81,644.782C3232.17,636.859 3240.59,630.945 3251.08,627.039C3261.57,623.134 3272.84,621.181 3284.89,621.181C3299.18,621.181 3312.9,623.301 3326.07,627.542L3326.07,620.177C3326.07,611.472 3322.39,604.833 3315.02,600.258C3307.66,595.682 3297.73,593.395 3285.23,593.395C3277.19,593.395 3267.93,594.845 3257.44,597.747C3246.95,600.648 3238.25,604.219 3231.33,608.459L3226.64,606.451L3226.64,558.913C3239.81,554.226 3253.26,550.879 3266.98,548.87C3280.71,546.861 3293.49,545.857 3305.32,545.857C3371.6,545.857 3404.74,564.493 3404.74,601.764L3404.74,675.079L3420.14,675.079L3420.14,724.291L3336.45,724.291L3329.08,697.509C3324.4,706.659 3317.09,713.913 3307.16,719.269C3297.22,724.626 3287.01,727.304 3276.53,727.304ZM3442.24,675.079L3463.33,675.079L3463.33,599.755L3442.24,599.755L3442.24,555.565L3541.66,545.857L3541.66,574.313C3546.8,566.055 3555.39,559.248 3567.44,553.892C3579.49,548.535 3590.1,545.857 3599.24,545.857L3599.24,615.155C3586.52,610.914 3576.03,608.794 3567.78,608.794C3557.29,608.794 3550.31,611.807 3546.85,617.833C3543.39,623.859 3541.66,631.782 3541.66,641.602L3541.66,675.079L3567.78,675.079L3567.78,724.291L3442.24,724.291L3442.24,675.079ZM2938.74,666.71L2970.21,666.71L2970.21,521.753L2943.09,521.753L2943.09,463.838L3076,463.838C3097.87,463.838 3116.28,465.623 3131.23,469.194C3146.19,472.765 3158.07,479.572 3166.89,489.615C3175.7,499.658 3180.11,513.942 3180.11,532.466C3180.11,545.411 3176.37,556.681 3168.89,566.278C3161.42,575.875 3151.88,582.794 3140.27,587.034C3155.45,593.506 3166.66,601.931 3173.92,612.309C3181.17,622.687 3184.8,636.915 3184.8,654.993C3184.8,677.088 3176.15,694.161 3158.85,706.213C3141.56,718.265 3117.06,724.291 3085.37,724.291L2938.74,724.291L2938.74,666.71ZM3307.32,685.457C3310.89,685.457 3314.58,684.843 3318.37,683.616C3322.16,682.388 3324.73,681.105 3326.07,679.766L3326.07,652.315C3324.51,652.091 3321.89,651.478 3318.2,650.473C3314.52,649.469 3311.34,648.967 3308.66,648.967C3302.86,648.967 3298.23,650.752 3294.77,654.323C3291.31,657.894 3289.58,662.693 3289.58,668.719C3289.58,673.182 3291.2,677.088 3294.43,680.436C3297.67,683.783 3301.97,685.457 3307.32,685.457ZM3059.93,666.71C3073.1,666.71 3083.25,664.869 3090.39,661.186C3097.53,657.504 3101.1,649.86 3101.1,638.254C3101.1,620.4 3090.17,611.472 3068.3,611.472C3063.39,611.472 3058.59,611.584 3053.9,611.807L3053.9,666.71L3059.93,666.71ZM3062.94,568.956C3075.44,568.956 3084.64,567.227 3090.56,563.767C3096.47,560.308 3099.43,553.78 3099.43,544.183C3099.43,537.488 3097.37,532.076 3093.24,527.947C3089.11,523.818 3083.7,521.753 3077,521.753L3053.9,521.753L3053.9,568.956L3062.94,568.956ZM2521.69,371.188L2542.78,371.188L2542.78,231.253L2521.69,231.253L2521.69,187.398L2621.12,177.354L2621.12,205.141C2626.7,197.329 2633.9,190.745 2642.71,185.389C2651.53,180.033 2661.85,177.354 2673.68,177.354C2689.3,177.354 2702.58,181.372 2713.52,189.406C2724.45,197.441 2732.71,208.265 2738.29,221.879C2743.87,235.493 2746.66,250.67 2746.66,267.408C2746.66,284.147 2743.93,299.435 2738.46,313.272C2732.99,327.109 2724.73,338.157 2713.69,346.415C2702.64,354.672 2689.19,358.801 2673.35,358.801C2662.41,358.801 2652.42,356.625 2643.38,352.273C2634.35,347.921 2626.92,342.62 2621.12,336.371L2621.12,371.522L2642.21,371.522L2642.21,420.734L2521.69,420.734L2521.69,371.188ZM3619.75,358.801C3599.44,358.801 3581.81,355.063 3566.85,347.586C3551.9,340.11 3540.41,329.453 3532.37,315.615C3524.34,301.778 3520.32,285.598 3520.32,267.073C3520.32,248.773 3524.23,232.871 3532.04,219.368C3539.85,205.866 3550.84,195.488 3565.01,188.235C3579.18,180.981 3595.76,177.354 3614.73,177.354C3632.36,177.354 3647.87,180.814 3661.26,187.732C3674.65,194.651 3685.03,204.471 3692.39,217.192C3699.76,229.914 3703.44,244.755 3703.44,261.717C3703.44,267.52 3702.55,273.099 3700.76,278.456L3598.99,278.456C3598.99,288.722 3602.84,296.924 3610.54,303.061C3618.24,309.199 3627.56,312.268 3638.49,312.268C3646.75,312.268 3655.85,310.817 3665.78,307.916C3675.71,305.014 3685.7,300.551 3695.74,294.525L3698.42,295.529L3698.42,339.384C3687.26,345.857 3675.77,350.711 3663.94,353.947C3652.11,357.183 3637.38,358.801 3619.75,358.801ZM2399.5,358.801C2379.86,358.801 2362.57,355.174 2347.61,347.921C2332.66,340.668 2321.05,330.066 2312.8,316.118C2304.54,302.169 2300.41,285.598 2300.41,266.404C2300.41,247.433 2304.54,231.253 2312.8,217.862C2321.05,204.471 2332.66,194.372 2347.61,187.565C2362.57,180.758 2379.86,177.354 2399.5,177.354C2429.63,177.354 2453.74,185.11 2471.81,200.621C2489.89,216.132 2498.93,238.06 2498.93,266.404C2498.93,285.598 2494.8,302.169 2486.54,316.118C2478.28,330.066 2466.68,340.668 2451.73,347.921C2436.77,355.174 2419.37,358.801 2399.5,358.801ZM2080.13,355.788L2080.13,296.868L2106.91,296.868L2106.91,153.251L2083.81,153.251L2076.78,198.11L2030.92,198.11L2030.92,95.67L2275.64,95.67L2275.64,198.11L2229.77,198.11L2222.74,153.251L2198.97,153.251L2198.97,296.868L2225.76,296.868L2225.76,355.788L2080.13,355.788ZM3136.34,355.788L3136.34,306.577L3157.43,306.577L3157.43,231.253L3136.34,231.253L3136.34,191.08L3235.76,180.702L3235.76,306.577L3256.85,306.577L3256.85,355.788L3136.34,355.788ZM3346.24,355.788L3291.67,231.253L3267.57,231.253L3267.57,180.702L3393.11,180.702L3393.11,231.253L3375.03,231.253L3403.49,313.607L3434.95,231.253L3414.2,231.253L3414.2,180.702L3502.91,180.702L3502.91,231.253L3480.82,231.253L3429.6,355.788L3346.24,355.788ZM2837.72,298.207L2863.83,298.207L2863.83,153.251L2837.72,153.251L2837.72,95.67L2958.24,95.67C3005.55,95.67 3041.76,106.606 3066.87,128.478C3091.98,150.349 3104.53,182.711 3104.53,225.562C3104.53,267.297 3092.03,299.435 3067.04,321.976C3042.04,344.517 3005.66,355.788 2957.9,355.788L2837.72,355.788L2837.72,298.207ZM2399.5,310.929C2406.64,310.929 2411.94,307.414 2415.4,300.383C2418.86,293.353 2420.59,282.027 2420.59,266.404C2420.59,251.897 2418.92,241.408 2415.57,234.935C2412.22,228.463 2406.87,225.227 2399.5,225.227C2392.36,225.227 2387.12,228.463 2383.77,234.935C2380.42,241.408 2378.75,251.897 2378.75,266.404C2378.75,282.027 2380.48,293.353 2383.93,300.383C2387.39,307.414 2392.58,310.929 2399.5,310.929ZM2644.55,310.929C2654.38,310.929 2661.63,307.023 2666.32,299.212C2671,291.4 2673.35,281.134 2673.35,268.413C2673.35,255.245 2670.78,244.755 2665.65,236.944C2660.51,229.133 2653.82,225.227 2645.56,225.227C2639.98,225.227 2634.96,226.622 2630.49,229.412C2626.03,232.201 2622.91,235.828 2621.12,240.292L2621.12,296.868C2626.03,306.242 2633.84,310.929 2644.55,310.929ZM2957.9,298.207C2976.2,298.207 2989.54,291.344 2997.91,277.619C3006.28,263.893 3010.46,246.541 3010.46,225.562C3010.46,204.136 3006.33,186.728 2998.08,173.337C2989.82,159.946 2976.43,153.251 2957.9,153.251L2947.52,153.251L2947.52,298.207L2957.9,298.207ZM3640.84,249.665L3640.84,246.318C3640.84,238.506 3639.05,231.811 3635.48,226.231C3631.91,220.652 3626.67,217.862 3619.75,217.862C3613.95,217.862 3609.03,220.707 3605.02,226.399C3601,232.09 3598.99,238.283 3598.99,244.978L3598.99,249.665L3640.84,249.665ZM3196.6,163.629C3182.98,163.629 3171.77,160.393 3162.95,153.92C3154.14,147.448 3149.73,138.186 3149.73,126.134C3149.73,114.082 3154.14,104.932 3162.95,98.683C3171.77,92.434 3183.09,89.309 3196.93,89.309C3210.77,89.309 3222.04,92.378 3230.74,98.515C3239.45,104.653 3243.8,113.859 3243.8,126.134C3243.8,138.186 3239.33,147.448 3230.41,153.92C3221.48,160.393 3210.21,163.629 3196.6,163.629Z" style="fill:none;fill-rule:nonzero;stroke:#ebebeb;stroke-width:70px;"/>
                <path d="M3276.53,727.304C3265.59,727.304 3255.55,725.128 3246.39,720.776C3237.24,716.424 3229.94,710.23 3224.47,702.196C3219,694.161 3216.27,684.788 3216.27,674.075C3216.27,662.469 3219.45,652.705 3225.81,644.782C3232.17,636.859 3240.59,630.945 3251.08,627.039C3261.57,623.134 3272.84,621.181 3284.89,621.181C3299.18,621.181 3312.9,623.301 3326.07,627.542L3326.07,620.177C3326.07,611.472 3322.39,604.833 3315.02,600.258C3307.66,595.682 3297.73,593.395 3285.23,593.395C3277.19,593.395 3267.93,594.845 3257.44,597.747C3246.95,600.648 3238.25,604.219 3231.33,608.459L3226.64,606.451L3226.64,558.913C3239.81,554.226 3253.26,550.879 3266.98,548.87C3280.71,546.861 3293.49,545.857 3305.32,545.857C3371.6,545.857 3404.74,564.493 3404.74,601.764L3404.74,675.079L3420.14,675.079L3420.14,724.291L3336.45,724.291L3329.08,697.509C3324.4,706.659 3317.09,713.913 3307.16,719.269C3297.22,724.626 3287.01,727.304 3276.53,727.304ZM3442.24,675.079L3463.33,675.079L3463.33,599.755L3442.24,599.755L3442.24,555.565L3541.66,545.857L3541.66,574.313C3546.8,566.055 3555.39,559.248 3567.44,553.892C3579.49,548.535 3590.1,545.857 3599.24,545.857L3599.24,615.155C3586.52,610.914 3576.03,608.794 3567.78,608.794C3557.29,608.794 3550.31,611.807 3546.85,617.833C3543.39,623.859 3541.66,631.782 3541.66,641.602L3541.66,675.079L3567.78,675.079L3567.78,724.291L3442.24,724.291L3442.24,675.079ZM2938.74,666.71L2970.21,666.71L2970.21,521.753L2943.09,521.753L2943.09,463.838L3076,463.838C3097.87,463.838 3116.28,465.623 3131.23,469.194C3146.19,472.765 3158.07,479.572 3166.89,489.615C3175.7,499.658 3180.11,513.942 3180.11,532.466C3180.11,545.411 3176.37,556.681 3168.89,566.278C3161.42,575.875 3151.88,582.794 3140.27,587.034C3155.45,593.506 3166.66,601.931 3173.92,612.309C3181.17,622.687 3184.8,636.915 3184.8,654.993C3184.8,677.088 3176.15,694.161 3158.85,706.213C3141.56,718.265 3117.06,724.291 3085.37,724.291L2938.74,724.291L2938.74,666.71ZM3307.32,685.457C3310.89,685.457 3314.58,684.843 3318.37,683.616C3322.16,682.388 3324.73,681.105 3326.07,679.766L3326.07,652.315C3324.51,652.091 3321.89,651.478 3318.2,650.473C3314.52,649.469 3311.34,648.967 3308.66,648.967C3302.86,648.967 3298.23,650.752 3294.77,654.323C3291.31,657.894 3289.58,662.693 3289.58,668.719C3289.58,673.182 3291.2,677.088 3294.43,680.436C3297.67,683.783 3301.97,685.457 3307.32,685.457ZM3059.93,666.71C3073.1,666.71 3083.25,664.869 3090.39,661.186C3097.53,657.504 3101.1,649.86 3101.1,638.254C3101.1,620.4 3090.17,611.472 3068.3,611.472C3063.39,611.472 3058.59,611.584 3053.9,611.807L3053.9,666.71L3059.93,666.71ZM3062.94,568.956C3075.44,568.956 3084.64,567.227 3090.56,563.767C3096.47,560.308 3099.43,553.78 3099.43,544.183C3099.43,537.488 3097.37,532.076 3093.24,527.947C3089.11,523.818 3083.7,521.753 3077,521.753L3053.9,521.753L3053.9,568.956L3062.94,568.956ZM2521.69,371.188L2542.78,371.188L2542.78,231.253L2521.69,231.253L2521.69,187.398L2621.12,177.354L2621.12,205.141C2626.7,197.329 2633.9,190.745 2642.71,185.389C2651.53,180.033 2661.85,177.354 2673.68,177.354C2689.3,177.354 2702.58,181.372 2713.52,189.406C2724.45,197.441 2732.71,208.265 2738.29,221.879C2743.87,235.493 2746.66,250.67 2746.66,267.408C2746.66,284.147 2743.93,299.435 2738.46,313.272C2732.99,327.109 2724.73,338.157 2713.69,346.415C2702.64,354.672 2689.19,358.801 2673.35,358.801C2662.41,358.801 2652.42,356.625 2643.38,352.273C2634.35,347.921 2626.92,342.62 2621.12,336.371L2621.12,371.522L2642.21,371.522L2642.21,420.734L2521.69,420.734L2521.69,371.188ZM3619.75,358.801C3599.44,358.801 3581.81,355.063 3566.85,347.586C3551.9,340.11 3540.41,329.453 3532.37,315.615C3524.34,301.778 3520.32,285.598 3520.32,267.073C3520.32,248.773 3524.23,232.871 3532.04,219.368C3539.85,205.866 3550.84,195.488 3565.01,188.235C3579.18,180.981 3595.76,177.354 3614.73,177.354C3632.36,177.354 3647.87,180.814 3661.26,187.732C3674.65,194.651 3685.03,204.471 3692.39,217.192C3699.76,229.914 3703.44,244.755 3703.44,261.717C3703.44,267.52 3702.55,273.099 3700.76,278.456L3598.99,278.456C3598.99,288.722 3602.84,296.924 3610.54,303.061C3618.24,309.199 3627.56,312.268 3638.49,312.268C3646.75,312.268 3655.85,310.817 3665.78,307.916C3675.71,305.014 3685.7,300.551 3695.74,294.525L3698.42,295.529L3698.42,339.384C3687.26,345.857 3675.77,350.711 3663.94,353.947C3652.11,357.183 3637.38,358.801 3619.75,358.801ZM2399.5,358.801C2379.86,358.801 2362.57,355.174 2347.61,347.921C2332.66,340.668 2321.05,330.066 2312.8,316.118C2304.54,302.169 2300.41,285.598 2300.41,266.404C2300.41,247.433 2304.54,231.253 2312.8,217.862C2321.05,204.471 2332.66,194.372 2347.61,187.565C2362.57,180.758 2379.86,177.354 2399.5,177.354C2429.63,177.354 2453.74,185.11 2471.81,200.621C2489.89,216.132 2498.93,238.06 2498.93,266.404C2498.93,285.598 2494.8,302.169 2486.54,316.118C2478.28,330.066 2466.68,340.668 2451.73,347.921C2436.77,355.174 2419.37,358.801 2399.5,358.801ZM2080.13,355.788L2080.13,296.868L2106.91,296.868L2106.91,153.251L2083.81,153.251L2076.78,198.11L2030.92,198.11L2030.92,95.67L2275.64,95.67L2275.64,198.11L2229.77,198.11L2222.74,153.251L2198.97,153.251L2198.97,296.868L2225.76,296.868L2225.76,355.788L2080.13,355.788ZM3136.34,355.788L3136.34,306.577L3157.43,306.577L3157.43,231.253L3136.34,231.253L3136.34,191.08L3235.76,180.702L3235.76,306.577L3256.85,306.577L3256.85,355.788L3136.34,355.788ZM3346.24,355.788L3291.67,231.253L3267.57,231.253L3267.57,180.702L3393.11,180.702L3393.11,231.253L3375.03,231.253L3403.49,313.607L3434.95,231.253L3414.2,231.253L3414.2,180.702L3502.91,180.702L3502.91,231.253L3480.82,231.253L3429.6,355.788L3346.24,355.788ZM2837.72,298.207L2863.83,298.207L2863.83,153.251L2837.72,153.251L2837.72,95.67L2958.24,95.67C3005.55,95.67 3041.76,106.606 3066.87,128.478C3091.98,150.349 3104.53,182.711 3104.53,225.562C3104.53,267.297 3092.03,299.435 3067.04,321.976C3042.04,344.517 3005.66,355.788 2957.9,355.788L2837.72,355.788L2837.72,298.207ZM2399.5,310.929C2406.64,310.929 2411.94,307.414 2415.4,300.383C2418.86,293.353 2420.59,282.027 2420.59,266.404C2420.59,251.897 2418.92,241.408 2415.57,234.935C2412.22,228.463 2406.87,225.227 2399.5,225.227C2392.36,225.227 2387.12,228.463 2383.77,234.935C2380.42,241.408 2378.75,251.897 2378.75,266.404C2378.75,282.027 2380.48,293.353 2383.93,300.383C2387.39,307.414 2392.58,310.929 2399.5,310.929ZM2644.55,310.929C2654.38,310.929 2661.63,307.023 2666.32,299.212C2671,291.4 2673.35,281.134 2673.35,268.413C2673.35,255.245 2670.78,244.755 2665.65,236.944C2660.51,229.133 2653.82,225.227 2645.56,225.227C2639.98,225.227 2634.96,226.622 2630.49,229.412C2626.03,232.201 2622.91,235.828 2621.12,240.292L2621.12,296.868C2626.03,306.242 2633.84,310.929 2644.55,310.929ZM2957.9,298.207C2976.2,298.207 2989.54,291.344 2997.91,277.619C3006.28,263.893 3010.46,246.541 3010.46,225.562C3010.46,204.136 3006.33,186.728 2998.08,173.337C2989.82,159.946 2976.43,153.251 2957.9,153.251L2947.52,153.251L2947.52,298.207L2957.9,298.207ZM3640.84,249.665L3640.84,246.318C3640.84,238.506 3639.05,231.811 3635.48,226.231C3631.91,220.652 3626.67,217.862 3619.75,217.862C3613.95,217.862 3609.03,220.707 3605.02,226.399C3601,232.09 3598.99,238.283 3598.99,244.978L3598.99,249.665L3640.84,249.665ZM3196.6,163.629C3182.98,163.629 3171.77,160.393 3162.95,153.92C3154.14,147.448 3149.73,138.186 3149.73,126.134C3149.73,114.082 3154.14,104.932 3162.95,98.683C3171.77,92.434 3183.09,89.309 3196.93,89.309C3210.77,89.309 3222.04,92.378 3230.74,98.515C3239.45,104.653 3243.8,113.859 3243.8,126.134C3243.8,138.186 3239.33,147.448 3230.41,153.92C3221.48,160.393 3210.21,163.629 3196.6,163.629Z" style="fill:none;fill-rule:nonzero;stroke:#de2726;stroke-width:30px;"/>
                <path d="M3276.53,727.304C3265.59,727.304 3255.55,725.128 3246.39,720.776C3237.24,716.424 3229.94,710.23 3224.47,702.196C3219,694.161 3216.27,684.788 3216.27,674.075C3216.27,662.469 3219.45,652.705 3225.81,644.782C3232.17,636.859 3240.59,630.945 3251.08,627.039C3261.57,623.134 3272.84,621.181 3284.89,621.181C3299.18,621.181 3312.9,623.301 3326.07,627.542L3326.07,620.177C3326.07,611.472 3322.39,604.833 3315.02,600.258C3307.66,595.682 3297.73,593.395 3285.23,593.395C3277.19,593.395 3267.93,594.845 3257.44,597.747C3246.95,600.648 3238.25,604.219 3231.33,608.459L3226.64,606.451L3226.64,558.913C3239.81,554.226 3253.26,550.879 3266.98,548.87C3280.71,546.861 3293.49,545.857 3305.32,545.857C3371.6,545.857 3404.74,564.493 3404.74,601.764L3404.74,675.079L3420.14,675.079L3420.14,724.291L3336.45,724.291L3329.08,697.509C3324.4,706.659 3317.09,713.913 3307.16,719.269C3297.22,724.626 3287.01,727.304 3276.53,727.304ZM3442.24,675.079L3463.33,675.079L3463.33,599.755L3442.24,599.755L3442.24,555.565L3541.66,545.857L3541.66,574.313C3546.8,566.055 3555.39,559.248 3567.44,553.892C3579.49,548.535 3590.1,545.857 3599.24,545.857L3599.24,615.155C3586.52,610.914 3576.03,608.794 3567.78,608.794C3557.29,608.794 3550.31,611.807 3546.85,617.833C3543.39,623.859 3541.66,631.782 3541.66,641.602L3541.66,675.079L3567.78,675.079L3567.78,724.291L3442.24,724.291L3442.24,675.079ZM2938.74,666.71L2970.21,666.71L2970.21,521.753L2943.09,521.753L2943.09,463.838L3076,463.838C3097.87,463.838 3116.28,465.623 3131.23,469.194C3146.19,472.765 3158.07,479.572 3166.89,489.615C3175.7,499.658 3180.11,513.942 3180.11,532.466C3180.11,545.411 3176.37,556.681 3168.89,566.278C3161.42,575.875 3151.88,582.794 3140.27,587.034C3155.45,593.506 3166.66,601.931 3173.92,612.309C3181.17,622.687 3184.8,636.915 3184.8,654.993C3184.8,677.088 3176.15,694.161 3158.85,706.213C3141.56,718.265 3117.06,724.291 3085.37,724.291L2938.74,724.291L2938.74,666.71ZM3307.32,685.457C3310.89,685.457 3314.58,684.843 3318.37,683.616C3322.16,682.388 3324.73,681.105 3326.07,679.766L3326.07,652.315C3324.51,652.091 3321.89,651.478 3318.2,650.473C3314.52,649.469 3311.34,648.967 3308.66,648.967C3302.86,648.967 3298.23,650.752 3294.77,654.323C3291.31,657.894 3289.58,662.693 3289.58,668.719C3289.58,673.182 3291.2,677.088 3294.43,680.436C3297.67,683.783 3301.97,685.457 3307.32,685.457ZM3059.93,666.71C3073.1,666.71 3083.25,664.869 3090.39,661.186C3097.53,657.504 3101.1,649.86 3101.1,638.254C3101.1,620.4 3090.17,611.472 3068.3,611.472C3063.39,611.472 3058.59,611.584 3053.9,611.807L3053.9,666.71L3059.93,666.71ZM3062.94,568.956C3075.44,568.956 3084.64,567.227 3090.56,563.767C3096.47,560.308 3099.43,553.78 3099.43,544.183C3099.43,537.488 3097.37,532.076 3093.24,527.947C3089.11,523.818 3083.7,521.753 3077,521.753L3053.9,521.753L3053.9,568.956L3062.94,568.956ZM2521.69,371.188L2542.78,371.188L2542.78,231.253L2521.69,231.253L2521.69,187.398L2621.12,177.354L2621.12,205.141C2626.7,197.329 2633.9,190.745 2642.71,185.389C2651.53,180.033 2661.85,177.354 2673.68,177.354C2689.3,177.354 2702.58,181.372 2713.52,189.406C2724.45,197.441 2732.71,208.265 2738.29,221.879C2743.87,235.493 2746.66,250.67 2746.66,267.408C2746.66,284.147 2743.93,299.435 2738.46,313.272C2732.99,327.109 2724.73,338.157 2713.69,346.415C2702.64,354.672 2689.19,358.801 2673.35,358.801C2662.41,358.801 2652.42,356.625 2643.38,352.273C2634.35,347.921 2626.92,342.62 2621.12,336.371L2621.12,371.522L2642.21,371.522L2642.21,420.734L2521.69,420.734L2521.69,371.188ZM3619.75,358.801C3599.44,358.801 3581.81,355.063 3566.85,347.586C3551.9,340.11 3540.41,329.453 3532.37,315.615C3524.34,301.778 3520.32,285.598 3520.32,267.073C3520.32,248.773 3524.23,232.871 3532.04,219.368C3539.85,205.866 3550.84,195.488 3565.01,188.235C3579.18,180.981 3595.76,177.354 3614.73,177.354C3632.36,177.354 3647.87,180.814 3661.26,187.732C3674.65,194.651 3685.03,204.471 3692.39,217.192C3699.76,229.914 3703.44,244.755 3703.44,261.717C3703.44,267.52 3702.55,273.099 3700.76,278.456L3598.99,278.456C3598.99,288.722 3602.84,296.924 3610.54,303.061C3618.24,309.199 3627.56,312.268 3638.49,312.268C3646.75,312.268 3655.85,310.817 3665.78,307.916C3675.71,305.014 3685.7,300.551 3695.74,294.525L3698.42,295.529L3698.42,339.384C3687.26,345.857 3675.77,350.711 3663.94,353.947C3652.11,357.183 3637.38,358.801 3619.75,358.801ZM2399.5,358.801C2379.86,358.801 2362.57,355.174 2347.61,347.921C2332.66,340.668 2321.05,330.066 2312.8,316.118C2304.54,302.169 2300.41,285.598 2300.41,266.404C2300.41,247.433 2304.54,231.253 2312.8,217.862C2321.05,204.471 2332.66,194.372 2347.61,187.565C2362.57,180.758 2379.86,177.354 2399.5,177.354C2429.63,177.354 2453.74,185.11 2471.81,200.621C2489.89,216.132 2498.93,238.06 2498.93,266.404C2498.93,285.598 2494.8,302.169 2486.54,316.118C2478.28,330.066 2466.68,340.668 2451.73,347.921C2436.77,355.174 2419.37,358.801 2399.5,358.801ZM2080.13,355.788L2080.13,296.868L2106.91,296.868L2106.91,153.251L2083.81,153.251L2076.78,198.11L2030.92,198.11L2030.92,95.67L2275.64,95.67L2275.64,198.11L2229.77,198.11L2222.74,153.251L2198.97,153.251L2198.97,296.868L2225.76,296.868L2225.76,355.788L2080.13,355.788ZM3136.34,355.788L3136.34,306.577L3157.43,306.577L3157.43,231.253L3136.34,231.253L3136.34,191.08L3235.76,180.702L3235.76,306.577L3256.85,306.577L3256.85,355.788L3136.34,355.788ZM3346.24,355.788L3291.67,231.253L3267.57,231.253L3267.57,180.702L3393.11,180.702L3393.11,231.253L3375.03,231.253L3403.49,313.607L3434.95,231.253L3414.2,231.253L3414.2,180.702L3502.91,180.702L3502.91,231.253L3480.82,231.253L3429.6,355.788L3346.24,355.788ZM2837.72,298.207L2863.83,298.207L2863.83,153.251L2837.72,153.251L2837.72,95.67L2958.24,95.67C3005.55,95.67 3041.76,106.606 3066.87,128.478C3091.98,150.349 3104.53,182.711 3104.53,225.562C3104.53,267.297 3092.03,299.435 3067.04,321.976C3042.04,344.517 3005.66,355.788 2957.9,355.788L2837.72,355.788L2837.72,298.207ZM2399.5,310.929C2406.64,310.929 2411.94,307.414 2415.4,300.383C2418.86,293.353 2420.59,282.027 2420.59,266.404C2420.59,251.897 2418.92,241.408 2415.57,234.935C2412.22,228.463 2406.87,225.227 2399.5,225.227C2392.36,225.227 2387.12,228.463 2383.77,234.935C2380.42,241.408 2378.75,251.897 2378.75,266.404C2378.75,282.027 2380.48,293.353 2383.93,300.383C2387.39,307.414 2392.58,310.929 2399.5,310.929ZM2644.55,310.929C2654.38,310.929 2661.63,307.023 2666.32,299.212C2671,291.4 2673.35,281.134 2673.35,268.413C2673.35,255.245 2670.78,244.755 2665.65,236.944C2660.51,229.133 2653.82,225.227 2645.56,225.227C2639.98,225.227 2634.96,226.622 2630.49,229.412C2626.03,232.201 2622.91,235.828 2621.12,240.292L2621.12,296.868C2626.03,306.242 2633.84,310.929 2644.55,310.929ZM2957.9,298.207C2976.2,298.207 2989.54,291.344 2997.91,277.619C3006.28,263.893 3010.46,246.541 3010.46,225.562C3010.46,204.136 3006.33,186.728 2998.08,173.337C2989.82,159.946 2976.43,153.251 2957.9,153.251L2947.52,153.251L2947.52,298.207L2957.9,298.207ZM3640.84,249.665L3640.84,246.318C3640.84,238.506 3639.05,231.811 3635.48,226.231C3631.91,220.652 3626.67,217.862 3619.75,217.862C3613.95,217.862 3609.03,220.707 3605.02,226.399C3601,232.09 3598.99,238.283 3598.99,244.978L3598.99,249.665L3640.84,249.665ZM3196.6,163.629C3182.98,163.629 3171.77,160.393 3162.95,153.92C3154.14,147.448 3149.73,138.186 3149.73,126.134C3149.73,114.082 3154.14,104.932 3162.95,98.683C3171.77,92.434 3183.09,89.309 3196.93,89.309C3210.77,89.309 3222.04,92.378 3230.74,98.515C3239.45,104.653 3243.8,113.859 3243.8,126.134C3243.8,138.186 3239.33,147.448 3230.41,153.92C3221.48,160.393 3210.21,163.629 3196.6,163.629Z" style="fill:#151212;fill-rule:nonzero;"/>
            </g>
        </g>
        <g>
            <g>
                <path d="M2092.64,588.288C2081.36,588.288 2071.04,585.912 2061.7,581.16C2052.35,576.409 2044.88,569.255 2039.3,559.7C2033.71,550.145 2030.92,538.423 2030.92,524.534C2030.92,512.838 2033.03,502.264 2037.26,492.813C2041.49,483.363 2047.7,475.87 2055.9,470.335C2064.1,464.8 2073.99,462.033 2085.59,462.033C2091.54,462.033 2096.86,463.417 2101.56,466.184C2106.26,468.951 2109.66,472.476 2111.74,476.757L2114.88,464.383L2138.69,464.383L2138.69,514.352L2114.25,514.352L2114.25,511.846C2114.25,505.371 2112.76,500.071 2109.79,495.946C2106.81,491.821 2102.4,489.759 2096.55,489.759C2092.58,489.759 2088.95,491.273 2085.66,494.302C2082.38,497.33 2079.79,501.298 2077.91,506.206C2076.03,511.115 2075.09,516.179 2075.09,521.401C2075.09,531.635 2077.65,539.65 2082.77,545.446C2087.88,551.241 2094.88,554.139 2103.76,554.139C2110.02,554.139 2115.84,553.095 2121.22,551.007C2126.6,548.918 2131.01,546.673 2134.46,544.271L2136.18,545.681L2136.18,578.262C2129.71,582.022 2122.87,584.633 2115.66,586.095C2108.46,587.557 2100.78,588.288 2092.64,588.288Z" style="fill:#ebebeb;fill-rule:nonzero;"/>
                <path d="M2196.49,587.504C2187.3,587.504 2179.21,585.807 2172.21,582.414C2165.21,579.02 2159.78,574.059 2155.92,567.532C2152.05,561.006 2150.12,553.252 2150.12,544.271C2150.12,535.394 2152.05,527.823 2155.92,521.558C2159.78,515.292 2165.21,510.566 2172.21,507.381C2179.21,504.196 2187.3,502.604 2196.49,502.604C2210.59,502.604 2221.87,506.233 2230.33,513.49C2238.78,520.748 2243.01,531.008 2243.01,544.271C2243.01,553.252 2241.08,561.006 2237.22,567.532C2233.35,574.059 2227.92,579.02 2220.93,582.414C2213.93,585.807 2205.78,587.504 2196.49,587.504ZM2196.49,565.104C2199.83,565.104 2202.31,563.46 2203.93,560.17C2205.55,556.881 2206.36,551.581 2206.36,544.271C2206.36,537.483 2205.58,532.575 2204.01,529.546C2202.44,526.518 2199.94,525.004 2196.49,525.004C2193.15,525.004 2190.69,526.518 2189.13,529.546C2187.56,532.575 2186.78,537.483 2186.78,544.271C2186.78,551.581 2187.59,556.881 2189.21,560.17C2190.82,563.46 2193.25,565.104 2196.49,565.104Z" style="fill:#ebebeb;fill-rule:nonzero;"/>
                <path d="M2255.86,586.095L2255.86,563.068L2269.33,563.068L2269.33,492.578L2255.86,492.578L2255.86,471.745L2305.98,466.732L2305.98,563.068L2317.73,563.068L2317.73,586.095L2255.86,586.095Z" style="fill:#ebebeb;fill-rule:nonzero;"/>
                <path d="M2375.85,587.504C2366.66,587.504 2358.56,585.807 2351.57,582.414C2344.57,579.02 2339.14,574.059 2335.28,567.532C2331.41,561.006 2329.48,553.252 2329.48,544.271C2329.48,535.394 2331.41,527.823 2335.28,521.558C2339.14,515.292 2344.57,510.566 2351.57,507.381C2358.56,504.196 2366.66,502.604 2375.85,502.604C2389.95,502.604 2401.22,506.233 2409.68,513.49C2418.14,520.748 2422.37,531.008 2422.37,544.271C2422.37,553.252 2420.44,561.006 2416.57,567.532C2412.71,574.059 2407.28,579.02 2400.28,582.414C2393.29,585.807 2385.14,587.504 2375.85,587.504ZM2375.85,565.104C2379.19,565.104 2381.67,563.46 2383.29,560.17C2384.91,556.881 2385.72,551.581 2385.72,544.271C2385.72,537.483 2384.93,532.575 2383.37,529.546C2381.8,526.518 2379.29,525.004 2375.85,525.004C2372.51,525.004 2370.05,526.518 2368.48,529.546C2366.92,532.575 2366.14,537.483 2366.14,544.271C2366.14,551.581 2366.94,556.881 2368.56,560.17C2370.18,563.46 2372.61,565.104 2375.85,565.104Z" style="fill:#ebebeb;fill-rule:nonzero;"/>
                <path d="M2433.02,563.068L2442.89,563.068L2442.89,527.823L2433.02,527.823L2433.02,507.146L2479.55,502.604L2479.55,515.918C2481.95,512.054 2485.97,508.869 2491.61,506.363C2497.24,503.857 2502.21,502.604 2506.49,502.604L2506.49,535.029C2500.53,533.045 2495.63,532.053 2491.76,532.053C2486.86,532.053 2483.59,533.462 2481.97,536.282C2480.35,539.102 2479.55,542.809 2479.55,547.404L2479.55,563.068L2491.76,563.068L2491.76,586.095L2433.02,586.095L2433.02,563.068Z" style="fill:#ebebeb;fill-rule:nonzero;"/>
                <path d="M2544.24,587.504C2539.12,587.504 2534.42,586.486 2530.14,584.45C2525.86,582.414 2522.44,579.516 2519.88,575.756C2517.32,571.997 2516.04,567.611 2516.04,562.598C2516.04,557.168 2517.53,552.599 2520.51,548.892C2523.48,545.185 2527.43,542.417 2532.33,540.59C2537.24,538.762 2542.51,537.848 2548.16,537.848C2554.84,537.848 2561.26,538.841 2567.42,540.825L2567.42,537.379C2567.42,533.306 2565.7,530.199 2562.25,528.058C2558.81,525.917 2554.16,524.847 2548.31,524.847C2544.55,524.847 2540.22,525.526 2535.31,526.883C2530.4,528.241 2526.33,529.912 2523.09,531.896L2520.9,530.956L2520.9,508.713C2527.06,506.52 2533.35,504.953 2539.77,504.013C2546.2,503.074 2552.18,502.604 2557.71,502.604C2588.72,502.604 2604.23,511.323 2604.23,528.763L2604.23,563.068L2611.44,563.068L2611.44,586.095L2572.28,586.095L2568.83,573.563C2566.64,577.845 2563.22,581.239 2558.57,583.745C2553.92,586.251 2549.15,587.504 2544.24,587.504ZM2558.65,567.924C2560.32,567.924 2562.04,567.637 2563.82,567.062C2565.59,566.488 2566.8,565.888 2567.42,565.261L2567.42,552.416C2566.69,552.312 2565.46,552.025 2563.74,551.555C2562.02,551.085 2560.53,550.85 2559.28,550.85C2556.56,550.85 2554.39,551.685 2552.78,553.356C2551.16,555.027 2550.35,557.272 2550.35,560.092C2550.35,562.18 2551.11,564.008 2552.62,565.574C2554.13,567.141 2556.14,567.924 2558.65,567.924Z" style="fill:#ebebeb;fill-rule:nonzero;"/>
                <path d="M2657.96,587.504C2650.55,587.504 2644.15,585.546 2638.77,581.63C2633.39,577.714 2629.32,572.441 2626.55,565.809C2623.79,559.178 2622.4,551.894 2622.4,543.958C2622.4,536.648 2623.81,529.834 2626.63,523.516C2629.45,517.198 2633.5,512.133 2638.77,508.321C2644.05,504.509 2650.23,502.604 2657.34,502.604C2662.56,502.604 2667.02,503.439 2670.73,505.11C2674.43,506.781 2677.91,509.287 2681.14,512.629L2681.14,492.578L2668.93,492.578L2668.93,471.745L2717.96,466.732L2717.96,563.068L2727.67,563.068L2727.67,586.095L2680.52,586.095L2680.52,576.226C2678.01,579.568 2674.83,582.257 2670.96,584.293C2667.1,586.33 2662.77,587.4 2657.96,587.504ZM2670.18,565.104C2672.58,565.104 2674.75,564.53 2676.68,563.381C2678.61,562.233 2680.1,560.875 2681.14,559.309L2681.14,530.33C2680,528.972 2678.43,527.745 2676.45,526.648C2674.46,525.552 2672.37,525.004 2670.18,525.004C2666.21,525.004 2662.97,526.622 2660.47,529.86C2657.96,533.097 2656.71,537.796 2656.71,543.958C2656.71,550.223 2657.86,555.314 2660.16,559.23C2662.45,563.146 2665.79,565.104 2670.18,565.104Z" style="fill:#ebebeb;fill-rule:nonzero;"/>
                <path d="M2784.84,587.504C2775.65,587.504 2767.56,585.807 2760.56,582.414C2753.57,579.02 2748.14,574.059 2744.27,567.532C2740.41,561.006 2738.48,553.252 2738.48,544.271C2738.48,535.394 2740.41,527.823 2744.27,521.558C2748.14,515.292 2753.57,510.566 2760.56,507.381C2767.56,504.196 2775.65,502.604 2784.84,502.604C2798.94,502.604 2810.22,506.233 2818.68,513.49C2827.14,520.748 2831.37,531.008 2831.37,544.271C2831.37,553.252 2829.43,561.006 2825.57,567.532C2821.71,574.059 2816.28,579.02 2809.28,582.414C2802.28,585.807 2794.14,587.504 2784.84,587.504ZM2784.84,565.104C2788.18,565.104 2790.66,563.46 2792.28,560.17C2793.9,556.881 2794.71,551.581 2794.71,544.271C2794.71,537.483 2793.93,532.575 2792.36,529.546C2790.8,526.518 2788.29,525.004 2784.84,525.004C2781.5,525.004 2779.05,526.518 2777.48,529.546C2775.91,532.575 2775.13,537.483 2775.13,544.271C2775.13,551.581 2775.94,556.881 2777.56,560.17C2779.18,563.46 2781.61,565.104 2784.84,565.104Z" style="fill:#ebebeb;fill-rule:nonzero;"/>
            </g>
            <g>
                <path d="M2434.3,723.198C2443.91,719.543 2452.11,714.896 2458.9,709.257C2465.06,704.035 2469.44,699.414 2472.05,695.394C2474.66,691.373 2475.97,686.543 2475.97,680.904C2475.97,677.249 2474.93,674.142 2472.84,671.584C2470.75,669.025 2468.24,667.746 2465.32,667.746C2462.08,667.746 2459.57,668.764 2457.8,670.801C2456.02,672.837 2455.14,675.421 2455.14,678.554C2455.14,680.33 2455.61,682.131 2456.55,683.959C2457.49,685.786 2458.58,687.326 2459.84,688.58L2442.61,701.894C2439.05,698.761 2436.21,694.61 2434.07,689.441C2431.93,684.272 2430.96,679.181 2431.17,674.168C2431.07,667.798 2432.81,662.133 2436.42,657.173C2440.02,652.212 2445.09,648.322 2451.61,645.503C2458.14,642.683 2465.58,641.273 2473.93,641.273C2481.87,641.273 2488.95,642.735 2495.16,645.659C2501.37,648.583 2506.23,652.682 2509.73,657.956C2513.22,663.229 2514.97,669.208 2514.97,675.891C2514.97,682.157 2513.17,688.11 2509.57,693.749C2505.97,699.388 2501.95,704.139 2497.51,708.003C2493.07,711.867 2487.98,715.888 2482.24,720.065L2479.26,722.101L2491.63,722.101C2496.65,721.997 2500.64,721.214 2503.62,719.752C2506.59,718.29 2508.08,715.313 2508.08,710.823L2521.24,710.823L2521.71,746.381L2434.3,746.381L2434.3,723.198Z" style="fill:#de2726;fill-rule:nonzero;"/>
                <path d="M2580.14,748.417C2565.2,748.417 2553.56,743.561 2545.21,733.85C2536.85,724.138 2532.68,710.614 2532.68,693.279C2532.68,676.884 2536.83,664.117 2545.13,654.98C2553.43,645.842 2565.05,641.273 2579.98,641.273C2594.91,641.273 2606.53,645.842 2614.83,654.98C2623.14,664.117 2627.29,676.884 2627.29,693.279C2627.29,704.766 2625.41,714.635 2621.65,722.885C2617.89,731.134 2612.49,737.452 2605.44,741.838C2598.39,746.224 2589.95,748.417 2580.14,748.417ZM2589.85,695.472C2589.85,688.997 2589.56,683.959 2588.99,680.356C2588.41,676.753 2587.42,674.168 2586.01,672.602C2584.6,671.035 2582.64,670.252 2580.14,670.252C2577.53,670.252 2575.47,671.035 2573.95,672.602C2572.44,674.168 2571.37,676.727 2570.74,680.277C2570.11,683.828 2569.8,688.841 2569.8,695.315C2569.8,701.581 2570.11,706.463 2570.74,709.961C2571.37,713.46 2572.41,715.966 2573.87,717.48C2575.33,718.995 2577.32,719.752 2579.82,719.752C2582.43,719.752 2584.45,718.995 2585.86,717.48C2587.26,715.966 2588.28,713.486 2588.91,710.04C2589.54,706.594 2589.85,701.738 2589.85,695.472Z" style="fill:#de2726;fill-rule:nonzero;"/>
                <path d="M2641.7,723.198C2651.31,719.543 2659.5,714.896 2666.29,709.257C2672.45,704.035 2676.84,699.414 2679.45,695.394C2682.06,691.373 2683.37,686.543 2683.37,680.904C2683.37,677.249 2682.32,674.142 2680.23,671.584C2678.14,669.025 2675.64,667.746 2672.71,667.746C2669.48,667.746 2666.97,668.764 2665.2,670.801C2663.42,672.837 2662.53,675.421 2662.53,678.554C2662.53,680.33 2663,682.131 2663.94,683.959C2664.88,685.786 2665.98,687.326 2667.23,688.58L2650,701.894C2646.45,698.761 2643.61,694.61 2641.46,689.441C2639.32,684.272 2638.36,679.181 2638.57,674.168C2638.46,667.798 2640.21,662.133 2643.81,657.173C2647.42,652.212 2652.48,648.322 2659.01,645.503C2665.53,642.683 2672.97,641.273 2681.33,641.273C2689.27,641.273 2696.34,642.735 2702.55,645.659C2708.77,648.583 2713.62,652.682 2717.12,657.956C2720.62,663.229 2722.37,669.208 2722.37,675.891C2722.37,682.157 2720.57,688.11 2716.97,693.749C2713.36,699.388 2709.34,704.139 2704.9,708.003C2700.47,711.867 2695.38,715.888 2689.63,720.065L2686.66,722.101L2699.03,722.101C2704.04,721.997 2708.04,721.214 2711.01,719.752C2713.99,718.29 2715.48,715.313 2715.48,710.823L2728.64,710.823L2729.11,746.381L2641.7,746.381L2641.7,723.198Z" style="fill:#de2726;fill-rule:nonzero;"/>
                <path d="M2743.36,723.198C2752.97,719.543 2761.17,714.896 2767.95,709.257C2774.12,704.035 2778.5,699.414 2781.11,695.394C2783.72,691.373 2785.03,686.543 2785.03,680.904C2785.03,677.249 2783.98,674.142 2781.89,671.584C2779.81,669.025 2777.3,667.746 2774.38,667.746C2771.14,667.746 2768.63,668.764 2766.86,670.801C2765.08,672.837 2764.19,675.421 2764.19,678.554C2764.19,680.33 2764.66,682.131 2765.6,683.959C2766.54,685.786 2767.64,687.326 2768.89,688.58L2751.66,701.894C2748.11,698.761 2745.27,694.61 2743.12,689.441C2740.99,684.272 2740.02,679.181 2740.23,674.168C2740.12,667.798 2741.87,662.133 2745.47,657.173C2749.08,652.212 2754.14,648.322 2760.67,645.503C2767.2,642.683 2774.64,641.273 2782.99,641.273C2790.93,641.273 2798,642.735 2804.22,645.659C2810.43,648.583 2815.29,652.682 2818.78,657.956C2822.28,663.229 2824.03,669.208 2824.03,675.891C2824.03,682.157 2822.23,688.11 2818.63,693.749C2815.03,699.388 2811,704.139 2806.57,708.003C2802.13,711.867 2797.04,715.888 2791.29,720.065L2788.32,722.101L2800.69,722.101C2805.7,721.997 2809.7,721.214 2812.68,719.752C2815.65,718.29 2817.14,715.313 2817.14,710.823L2830.3,710.823L2830.77,746.381L2743.36,746.381L2743.36,723.198Z" style="fill:#de2726;fill-rule:nonzero;"/>
            </g>
        </g>
    </g>
</svg>
