<?xml version="1.0" encoding="UTF-8" standalone="no"?>
<!DOCTYPE svg PUBLIC "-//W3C//DTD SVG 1.1//EN" "http://www.w3.org/Graphics/SVG/1.1/DTD/svg11.dtd">
<svg width="100%" height="100%" viewBox="0 0 3739 947" version="1.1" xmlns="http://www.w3.org/2000/svg" xmlns:xlink="http://www.w3.org/1999/xlink" xml:space="preserve" xmlns:serif="http://www.serif.com/" style="fill-rule:evenodd;clip-rule:evenodd;stroke-linejoin:round;stroke-miterlimit:2;">
    <g transform="matrix(1,0,0,1,-4754,-190)">
        <g transform="matrix(1,0,0,1.16185,-0.834388,-31.8795)">
            <rect id="Artboard4" x="4754.83" y="190.971" width="3738.61" height="814.978" style="fill:none;"/>
            <clipPath id="_clip1">
                <rect id="Artboard41" serif:id="Artboard4" x="4754.83" y="190.971" width="3738.61" height="814.978"/>
            </clipPath>
            <g clip-path="url(#_clip1)">
                <g transform="matrix(2.1556,0,0,1.18551,4684.81,101.31)">
                    <rect x="32.874" y="76.335" width="1734.38" height="686.708" style="fill:rgb(21,18,18);"/>
                </g>
                <g transform="matrix(5.02099,0,0,6.03482,2992.68,-686.639)">
                    <g transform="matrix(0.32386,0,0,0.302137,208.316,87.3681)">
                        <path d="M1640.17,304.264C1640.17,242.641 1575,192.61 1494.71,192.61L586.417,192.61C506.135,192.61 440.956,242.641 440.956,304.264L440.956,527.571C440.956,589.194 506.135,639.225 586.417,639.225L1494.71,639.225C1575,639.225 1640.17,589.194 1640.17,527.571L1640.17,304.264Z" style="fill:rgb(235,235,235);"/>
                    </g>
                    <g transform="matrix(1,0,0,1,-2.88227,10.7231)">
                        <g transform="matrix(0.339368,0,0,0.24177,378.01,154.862)">
                            <path d="M806.495,227.151L822.764,223.392C823.106,223.313 823.671,223.183 824.361,222.96C828.85,221.753 832.697,218.849 835.091,214.862C837.485,210.874 838.241,206.113 837.198,201.582C837.175,201.482 837.153,201.388 837.13,201.289C836.596,199.117 835.66,197.065 834.37,195.239C832.547,192.926 830.291,190.991 827.728,189.542C824.711,187.82 821.553,186.358 818.289,185.171L800.452,178.659C790.441,174.937 780.432,171.309 770.328,167.771C763.776,165.439 758.224,163.393 753.4,161.901C752.49,161.62 751.485,161.34 750.669,161.058C744.837,159.271 740.739,158.53 737.272,158.505C734.956,158.42 732.649,158.841 730.511,159.738C728.283,160.699 726.282,162.119 724.639,163.906C723.822,164.835 723.054,165.806 722.337,166.815C721.665,167.843 721.049,168.907 720.491,170.001C719.876,171.174 719.348,172.391 718.911,173.642C715.6,183.428 713.951,193.7 714.032,204.029C714.091,213.368 714.342,225.354 719.475,233.479C720.712,235.564 722.372,237.366 724.348,238.769C728.004,241.294 731.7,241.627 735.544,241.904C741.289,242.316 746.855,240.905 752.403,239.623L806.45,227.135L806.495,227.151Z" style="fill:rgb(255,26,26);fill-rule:nonzero;"/>
                        </g>
                        <g transform="matrix(0.339368,0,0,0.24177,378.01,154.862)">
                            <path d="M987.995,140.779C983.553,131.457 977.581,122.947 970.328,115.601C969.39,114.669 968.385,113.806 967.321,113.02C966.339,112.283 965.318,111.598 964.264,110.967C963.18,110.373 962.065,109.837 960.924,109.362C958.668,108.476 956.25,108.077 953.829,108.19C951.513,108.322 949.254,108.956 947.207,110.049C944.105,111.591 940.748,114.07 936.283,118.221C935.666,118.834 934.891,119.525 934.195,120.177C930.511,123.641 926.413,127.911 921.536,132.883C914.002,140.497 906.583,148.152 899.21,155.89L886.017,169.571C883.601,172.071 881.401,174.771 879.441,177.643C877.771,180.07 876.59,182.799 875.963,185.678C875.6,187.886 875.653,190.142 876.12,192.329C876.143,192.429 876.164,192.523 876.187,192.622C877.229,197.154 879.988,201.103 883.883,203.637C887.778,206.172 892.505,207.094 897.068,206.211C897.791,206.106 898.352,205.982 898.693,205.898L969.033,189.646C974.576,188.365 980.202,187.191 985.182,184.3C988.522,182.363 991.699,180.443 993.878,176.569C995.043,174.441 995.748,172.092 995.948,169.675C997.027,160.089 992.021,149.202 987.995,140.779Z" style="fill:rgb(255,26,26);fill-rule:nonzero;"/>
                        </g>
                        <g transform="matrix(0.339368,0,0,0.24177,378.01,154.862)">
                            <path d="M862.1,170.358C867.197,163.955 867.184,154.41 867.64,146.607C869.174,120.536 870.79,94.462 872.07,68.377C872.56,58.496 873.624,48.75 873.036,38.794C872.552,30.582 872.492,21.152 867.307,14.412C858.154,2.527 838.636,3.504 825.319,5.347C821.239,5.914 817.153,6.675 813.099,7.648C809.045,8.621 805.033,9.684 801.108,10.941C788.329,15.127 770.365,22.81 767.323,37.534C765.608,45.858 769.672,54.373 772.824,61.969C776.645,71.177 781.865,79.472 786.622,88.14C799.198,111.024 812.008,133.765 824.782,156.53C828.597,163.326 832.755,171.933 840.135,175.454C840.623,175.667 841.121,175.856 841.628,176.018C844.937,177.272 848.545,177.513 851.993,176.712C852.201,176.664 852.405,176.617 852.608,176.57C855.792,175.704 858.675,173.973 860.937,171.568C861.345,171.185 861.734,170.782 862.1,170.358Z" style="fill:rgb(255,26,26);fill-rule:nonzero;"/>
                        </g>
                        <g transform="matrix(0.339368,0,0,0.24177,378.01,154.862)">
                            <path d="M855.997,240.155C854.008,237.355 851.184,235.258 847.931,234.162C844.677,233.065 841.16,233.027 837.881,234.051C837.111,234.307 836.361,234.618 835.636,234.983C834.515,235.554 833.445,236.221 832.439,236.976C829.507,239.148 827.039,241.97 824.791,244.8C824.221,245.522 823.7,246.483 823.022,247.1L811.708,262.663C805.295,271.382 798.971,280.123 792.7,289.003C788.608,294.735 785.068,299.576 782.273,303.859C781.743,304.666 781.193,305.567 780.689,306.284C777.338,311.469 775.441,315.252 774.467,318.622C773.735,320.862 773.503,323.234 773.788,325.572C774.1,328.008 774.92,330.35 776.195,332.447C776.873,333.499 777.604,334.516 778.385,335.495C779.196,336.436 780.058,337.332 780.966,338.18C781.936,339.105 782.973,339.957 784.07,340.729C791.879,346.162 800.428,350.066 809.421,353.083C816.904,355.567 824.682,357.053 832.555,357.504C833.894,357.572 835.237,357.543 836.572,357.417C837.809,357.309 839.04,357.136 840.26,356.9C841.479,356.615 842.681,356.266 843.863,355.853C846.162,354.993 848.255,353.66 850.008,351.94C851.667,350.279 852.944,348.276 853.749,346.07C855.057,342.81 855.917,338.671 856.483,332.526C856.532,331.652 856.657,330.604 856.744,329.644C857.19,324.545 857.395,318.556 857.723,311.514C858.276,300.685 858.71,289.903 859.053,279.09C859.053,279.09 859.782,259.875 859.78,259.865C859.946,255.437 859.81,250.53 858.582,246.121C858.042,244.008 857.17,241.994 855.997,240.155Z" style="fill:rgb(255,26,26);fill-rule:nonzero;"/>
                        </g>
                        <g transform="matrix(0.339368,0,0,0.24177,378.01,154.862)">
                            <path d="M983.707,270.24C981.346,267.651 978,265.069 972.722,261.878C971.961,261.453 971.068,260.886 970.244,260.392C965.85,257.749 960.557,254.969 954.374,251.611C944.876,246.396 935.372,241.312 925.778,236.271L908.825,227.28C907.946,227.024 907.053,226.389 906.225,225.989C902.968,224.432 899.516,222.978 895.932,222.311C894.697,222.074 893.444,221.944 892.186,221.923C891.375,221.913 890.565,221.962 889.761,222.07C886.371,222.595 883.234,224.178 880.795,226.591C878.356,229.005 876.74,232.128 876.178,235.513C875.919,237.667 875.998,239.847 876.411,241.976C877.24,246.487 879.254,250.95 881.338,254.858L890.391,271.824C895.428,281.394 900.526,290.907 905.752,300.391C909.123,306.578 911.929,311.871 914.557,316.26C915.055,317.085 915.62,317.974 916.046,318.738C919.245,324.013 921.815,327.333 924.421,329.715C926.109,331.345 928.132,332.586 930.349,333.351C932.68,334.124 935.146,334.398 937.59,334.155C938.832,334.008 940.066,333.795 941.286,333.516C942.488,333.193 943.672,332.808 944.833,332.362C946.087,331.889 947.305,331.327 948.478,330.678C955.36,326.82 961.703,322.07 967.345,316.552C974.112,309.894 980.093,302.633 984.745,294.321C985.392,293.145 985.952,291.924 986.422,290.667C986.86,289.504 987.24,288.319 987.558,287.118C987.834,285.896 988.045,284.662 988.191,283.418C988.422,280.977 988.138,278.514 987.358,276.19C986.591,273.963 985.345,271.932 983.707,270.24Z" style="fill:rgb(255,26,26);fill-rule:nonzero;"/>
                        </g>
                    </g>
                    <g transform="matrix(0.339368,0,0,0.24177,378.65,159.426)">
                        <path d="M400.03,105.19C400.03,91.209 411.42,79.788 425.167,79.788C438.717,79.788 449.714,91.209 450.303,105.387L450.303,303.682C450.303,317.663 438.913,329.084 425.167,329.084C411.027,329.084 400.03,317.663 400.03,303.682L400.03,105.19ZM376.657,227.672C376.461,231.61 375.479,238.896 370.373,244.213C364.874,249.923 357.412,251.302 353.092,251.302C335.123,251.4 317.155,251.45 299.187,251.499C281.218,251.548 263.248,251.597 245.279,251.696C246.85,256.619 249.992,264.101 257.062,270.994C261.382,275.129 265.506,277.492 267.273,278.476C269.434,279.855 276.896,283.793 286.126,283.793C295.945,283.793 304.586,280.642 313.03,276.31L313.736,275.945C319.604,272.904 325.66,269.766 332.079,268.631C338.363,267.646 345.04,268.827 349.949,273.16C355.841,278.279 358.197,285.762 356.037,293.442C353.484,302.106 346.218,309.589 338.559,314.118C334.239,316.678 329.526,318.844 324.813,320.617C318.725,322.783 312.441,324.358 306.157,325.343C299.872,326.327 293.392,326.721 286.911,326.524C283.769,326.524 280.431,326.524 277.092,326.13C273.558,325.736 270.023,324.949 266.684,324.161C261.186,322.98 256.08,321.207 250.974,318.844C246.064,316.678 241.155,313.921 236.638,310.771C232.121,307.62 227.997,303.879 224.07,299.94C220.338,296.002 216.804,291.67 213.662,286.944C203.057,270.797 198.147,250.908 199.129,231.61C199.915,212.706 206.199,193.802 217.589,178.443C218.823,176.519 220.247,174.883 221.596,173.333C222.18,172.663 222.75,172.008 223.284,171.354C237.35,154.158 256.142,148.716 263.894,146.471L264.328,146.345C286.519,140.044 304.978,144.179 312.441,146.345C316.172,147.33 337.185,153.828 353.484,171.354C354.27,172.141 356.43,174.701 359.179,178.443C369.505,192.508 373.066,205.605 374.272,210.042L374.301,210.146C375.479,214.478 376.657,220.386 376.657,227.672ZM261.382,195.181C249.992,204.436 246.85,216.251 246.064,219.992L331.686,219.992C330.901,216.448 327.562,204.436 316.172,195.181C304.586,185.925 292.41,185.335 288.679,185.335C284.948,185.335 272.772,185.925 261.382,195.181ZM586.98,142.998C564.593,142.998 544.169,153.041 529.637,169.385L529.637,168.794C529.048,155.6 518.05,144.967 504.696,144.967C490.753,144.967 479.56,156.191 479.56,170.172L479.56,359.409C479.56,373.391 490.753,384.615 504.696,384.615C518.64,384.615 529.833,373.391 529.833,359.409L529.833,300.334C544.365,316.482 564.593,326.721 587.176,326.721C632.147,326.721 668.674,285.959 668.674,235.155C668.478,184.35 631.951,142.998 586.98,142.998ZM575.983,285.566C550.453,285.566 529.637,263.314 529.637,235.549C529.637,207.586 550.257,185.335 575.983,185.335C601.512,185.335 622.328,207.586 622.328,235.549C622.132,263.314 601.512,285.566 575.983,285.566ZM161.425,248.348L153.177,266.464C149.446,274.341 145.715,282.415 142.18,290.488C141.052,292.966 139.916,295.494 138.764,298.057C123.068,332.981 104.44,374.43 63.824,383.236C44.186,387.568 14.533,381.661 3.535,363.15C-7.462,344.443 8.838,322.979 29.85,327.902C33.165,328.641 36.423,330.266 39.71,331.904C45.187,334.635 50.741,337.404 56.755,336.173C62.45,335.188 65.984,331.053 70.501,325.736C76.785,318.45 79.535,310.771 80.713,306.242C80.615,306.045 80.516,305.798 80.418,305.552C80.32,305.306 80.222,305.06 80.124,304.863C75.012,295.326 70.547,286.8 66.818,279.677C64.387,275.034 62.268,270.987 60.486,267.646C56.829,260.714 54.066,255.473 51.918,251.398C45.645,239.497 44.609,237.532 41.83,232.398C35.742,220.78 29.261,209.555 22.584,198.331C15.318,186.122 7.856,172.535 13.944,158.16C18.853,146.542 31.421,140.634 43.401,144.376C56.04,148.212 61.638,160.239 66.872,171.487C67.819,173.52 68.753,175.528 69.716,177.458C78.16,194.196 86.408,210.934 94.656,227.672C95.382,229.336 96.492,231.605 97.84,234.362C99.045,236.824 100.44,239.676 101.922,242.834C102.697,244.475 103.434,246.002 104.101,247.382C104.954,249.149 105.691,250.676 106.242,251.892C110.072,242.342 113.95,232.841 117.829,223.34C121.707,213.839 125.586,204.337 129.415,194.787C129.522,194.253 130.436,192.216 131.813,189.145C132.977,186.549 134.473,183.215 136.092,179.427C136.64,178.133 137.191,176.79 137.755,175.417C142.856,162.995 148.988,148.06 162.604,143.982C172.423,141.028 183.42,144.967 189.115,153.237C192.061,157.372 193.239,162.098 193.435,166.824C193.593,177.275 188.545,188.491 184.212,198.115C183.157,200.459 182.144,202.708 181.26,204.829C181.219,204.91 181.048,205.296 180.739,205.988C179.541,208.679 176.278,216.005 170.655,228.066C168.626,232.389 166.679,236.713 164.707,241.09C163.626,243.491 162.538,245.907 161.425,248.348Z"/>
                    </g>
                    <g transform="matrix(0.339368,0,0,0.24177,378.01,154.862)">
                        <path d="M687.728,310.153L689.549,310.153C690.447,310.153 691.167,309.923 691.706,309.462C692.256,308.99 692.532,308.395 692.532,307.676C692.532,306.833 692.29,306.232 691.807,305.872C691.324,305.502 690.56,305.316 689.515,305.316L687.728,305.316L687.728,310.153ZM695.043,307.608C695.043,308.507 694.801,309.305 694.318,310.002C693.846,310.687 693.178,311.198 692.313,311.535L696.324,318.193L693.492,318.193L690.004,312.226L687.728,312.226L687.728,318.193L685.234,318.193L685.234,303.176L689.633,303.176C691.498,303.176 692.863,303.541 693.728,304.271C694.605,305.002 695.043,306.114 695.043,307.608ZM677.228,310.676C677.228,308.429 677.79,306.322 678.914,304.356C680.037,302.389 681.582,300.839 683.549,299.704C685.515,298.569 687.633,298.002 689.902,298.002C692.15,298.002 694.256,298.564 696.223,299.687C698.189,300.811 699.74,302.356 700.874,304.322C702.009,306.288 702.577,308.406 702.577,310.676C702.577,312.889 702.032,314.968 700.942,316.912C699.852,318.856 698.324,320.412 696.358,321.58C694.391,322.749 692.24,323.333 689.902,323.333C687.577,323.333 685.431,322.754 683.464,321.597C681.498,320.429 679.964,318.872 678.863,316.929C677.773,314.985 677.228,312.901 677.228,310.676ZM678.998,310.676C678.998,312.62 679.487,314.44 680.464,316.136C681.442,317.822 682.773,319.153 684.459,320.131C686.155,321.097 687.97,321.58 689.902,321.58C691.858,321.58 693.672,321.092 695.346,320.114C697.02,319.136 698.346,317.816 699.324,316.153C700.313,314.479 700.807,312.653 700.807,310.676C700.807,308.721 700.318,306.906 699.341,305.232C698.363,303.558 697.037,302.232 695.363,301.255C693.7,300.266 691.88,299.771 689.902,299.771C687.947,299.771 686.133,300.26 684.459,301.238C682.785,302.215 681.453,303.541 680.464,305.215C679.487,306.878 678.998,308.698 678.998,310.676Z" style="fill-rule:nonzero;"/>
                    </g>
                </g>
                <g transform="matrix(2.09345,0,0,2.47847,5214.59,-1161.88)">
                    <g>
                        <path d="M1370.48,863.238C1364.45,863.238 1358.9,862.199 1353.86,860.12C1348.81,858.041 1344.77,855.083 1341.76,851.245C1338.74,847.407 1337.23,842.929 1337.23,837.812C1337.23,832.268 1338.98,827.604 1342.49,823.819C1346,820.035 1350.65,817.209 1356.44,815.344C1362.23,813.478 1368.45,812.545 1375.1,812.545C1382.98,812.545 1390.56,813.558 1397.82,815.584L1397.82,812.065C1397.82,807.908 1395.79,804.736 1391.73,802.551C1387.66,800.365 1382.18,799.272 1375.28,799.272C1370.85,799.272 1365.74,799.965 1359.95,801.351C1354.16,802.737 1349.36,804.443 1345.54,806.468L1342.96,805.509L1342.96,782.801C1350.22,780.562 1357.64,778.963 1365.22,778.004C1372.79,777.044 1379.84,776.564 1386.37,776.564C1422.94,776.564 1441.23,785.466 1441.23,803.27L1441.23,838.291L1449.73,838.291L1449.73,861.799L1403.55,861.799L1399.48,849.006C1396.9,853.377 1392.87,856.842 1387.38,859.4C1381.9,861.959 1376.27,863.238 1370.48,863.238ZM1461.92,838.291L1473.56,838.291L1473.56,802.311L1461.92,802.311L1461.92,781.202L1516.79,776.564L1516.79,790.157C1519.62,786.213 1524.36,782.961 1531.01,780.402C1537.66,777.844 1543.51,776.564 1548.56,776.564L1548.56,809.667C1541.54,807.641 1535.76,806.628 1531.2,806.628C1525.41,806.628 1521.56,808.068 1519.65,810.946C1517.74,813.825 1516.79,817.609 1516.79,822.3L1516.79,838.291L1531.2,838.291L1531.2,861.799L1461.92,861.799L1461.92,838.291ZM1184.09,834.294L1201.45,834.294L1201.45,765.051L1186.49,765.051L1186.49,737.385L1259.83,737.385C1271.89,737.385 1282.06,738.238 1290.31,739.944C1298.56,741.65 1305.12,744.901 1309.98,749.699C1314.85,754.496 1317.28,761.319 1317.28,770.168C1317.28,776.351 1315.21,781.735 1311.09,786.319C1306.96,790.903 1301.7,794.208 1295.3,796.234C1303.67,799.326 1309.86,803.35 1313.86,808.307C1317.86,813.265 1319.86,820.061 1319.86,828.697C1319.86,839.251 1315.09,847.407 1305.55,853.164C1296,858.92 1282.49,861.799 1265,861.799L1184.09,861.799L1184.09,834.294ZM1387.48,843.249C1389.45,843.249 1391.48,842.956 1393.57,842.369C1395.67,841.783 1397.08,841.17 1397.82,840.53L1397.82,827.417C1396.96,827.311 1395.51,827.018 1393.48,826.538C1391.45,826.058 1389.69,825.818 1388.21,825.818C1385.01,825.818 1382.46,826.671 1380.55,828.377C1378.64,830.083 1377.69,832.375 1377.69,835.253C1377.69,837.385 1378.58,839.251 1380.36,840.85C1382.15,842.449 1384.52,843.249 1387.48,843.249ZM1250.96,834.294C1258.23,834.294 1263.83,833.414 1267.77,831.655C1271.71,829.896 1273.68,826.245 1273.68,820.701C1273.68,812.172 1267.65,807.908 1255.58,807.908C1252.87,807.908 1250.22,807.961 1247.63,808.068L1247.63,834.294L1250.96,834.294ZM1252.62,787.599C1259.52,787.599 1264.6,786.772 1267.86,785.12C1271.13,783.467 1272.76,780.349 1272.76,775.765C1272.76,772.567 1271.62,769.981 1269.34,768.009C1267.06,766.037 1264.08,765.051 1260.38,765.051L1247.63,765.051L1247.63,787.599L1252.62,787.599ZM984.871,693.128L994.945,693.128L994.945,626.284L984.871,626.284L984.871,605.335L1032.37,600.538L1032.37,613.811C1035.03,610.079 1038.47,606.934 1042.68,604.376C1046.89,601.817 1051.82,600.538 1057.47,600.538C1064.93,600.538 1071.28,602.457 1076.5,606.295C1081.73,610.132 1085.67,615.303 1088.34,621.806C1091,628.309 1092.33,635.559 1092.33,643.555C1092.33,651.55 1091.03,658.853 1088.41,665.463C1085.8,672.073 1081.86,677.35 1076.58,681.294C1071.31,685.239 1064.88,687.211 1057.31,687.211C1052.09,687.211 1047.32,686.172 1043,684.093C1038.68,682.014 1035.14,679.482 1032.37,676.497L1032.37,693.288L1042.44,693.288L1042.44,716.796L984.871,716.796L984.871,693.128ZM1509.39,687.211C1499.69,687.211 1491.27,685.426 1484.12,681.854C1476.98,678.283 1471.49,673.192 1467.65,666.582C1463.82,659.973 1461.9,652.243 1461.9,643.395C1461.9,634.653 1463.76,627.057 1467.49,620.607C1471.22,614.157 1476.48,609.2 1483.25,605.735C1490.01,602.27 1497.93,600.538 1506.99,600.538C1515.41,600.538 1522.82,602.19 1529.22,605.495C1535.62,608.8 1540.57,613.491 1544.09,619.567C1547.61,625.644 1549.37,632.734 1549.37,640.836C1549.37,643.608 1548.94,646.273 1548.09,648.832L1499.48,648.832C1499.48,653.736 1501.32,657.654 1504.99,660.586C1508.67,663.517 1513.12,664.983 1518.35,664.983C1522.29,664.983 1526.63,664.29 1531.38,662.904C1536.12,661.518 1540.89,659.386 1545.69,656.508L1546.97,656.987L1546.97,677.936C1541.64,681.028 1536.15,683.347 1530.5,684.893C1524.85,686.438 1517.81,687.211 1509.39,687.211ZM926.502,687.211C917.12,687.211 908.858,685.479 901.715,682.014C894.572,678.549 889.029,673.485 885.084,666.822C881.139,660.159 879.167,652.243 879.167,643.075C879.167,634.013 881.139,626.284 885.084,619.887C889.029,613.491 894.572,608.667 901.715,605.415C908.858,602.163 917.12,600.538 926.502,600.538C940.894,600.538 952.408,604.242 961.043,611.652C969.679,619.061 973.997,629.535 973.997,643.075C973.997,652.243 972.024,660.159 968.08,666.822C964.135,673.485 958.591,678.549 951.449,682.014C944.306,685.479 935.99,687.211 926.502,687.211ZM773.943,685.772L773.943,657.627L786.737,657.627L786.737,589.024L775.702,589.024L772.344,610.452L750.436,610.452L750.436,561.518L867.333,561.518L867.333,610.452L845.425,610.452L842.067,589.024L830.713,589.024L830.713,657.627L843.506,657.627L843.506,685.772L773.943,685.772ZM1278.47,685.772L1278.47,662.265L1288.55,662.265L1288.55,626.284L1278.47,626.284L1278.47,607.094L1325.97,602.137L1325.97,662.265L1336.04,662.265L1336.04,685.772L1278.47,685.772ZM1378.74,685.772L1352.67,626.284L1341.16,626.284L1341.16,602.137L1401.13,602.137L1401.13,626.284L1392.49,626.284L1406.09,665.623L1421.12,626.284L1411.2,626.284L1411.2,602.137L1453.58,602.137L1453.58,626.284L1443.03,626.284L1418.56,685.772L1378.74,685.772ZM1135.83,658.267L1148.3,658.267L1148.3,589.024L1135.83,589.024L1135.83,561.518L1193.4,561.518C1216,561.518 1233.3,566.742 1245.29,577.19C1257.29,587.638 1263.28,603.096 1263.28,623.565C1263.28,643.501 1257.31,658.853 1245.37,669.621C1233.43,680.388 1216.05,685.772 1193.24,685.772L1135.83,685.772L1135.83,658.267ZM926.502,664.344C929.913,664.344 932.445,662.664 934.098,659.306C935.75,655.948 936.576,650.538 936.576,643.075C936.576,636.145 935.777,631.135 934.178,628.043C932.579,624.951 930.02,623.405 926.502,623.405C923.09,623.405 920.585,624.951 918.986,628.043C917.387,631.135 916.587,636.145 916.587,643.075C916.587,650.538 917.413,655.948 919.066,659.306C920.718,662.664 923.197,664.344 926.502,664.344ZM1043.56,664.344C1048.25,664.344 1051.71,662.478 1053.95,658.747C1056.19,655.015 1057.31,650.111 1057.31,644.034C1057.31,637.744 1056.09,632.734 1053.63,629.002C1051.18,625.271 1047.98,623.405 1044.04,623.405C1041.37,623.405 1038.97,624.072 1036.84,625.404C1034.71,626.737 1033.22,628.469 1032.37,630.602L1032.37,657.627C1034.71,662.105 1038.44,664.344 1043.56,664.344ZM1193.24,658.267C1201.98,658.267 1208.35,654.989 1212.35,648.432C1216.35,641.876 1218.35,633.587 1218.35,623.565C1218.35,613.331 1216.37,605.015 1212.43,598.619C1208.49,592.222 1202.09,589.024 1193.24,589.024L1188.28,589.024L1188.28,658.267L1193.24,658.267ZM1519.46,635.079L1519.46,633.48C1519.46,629.749 1518.61,626.55 1516.91,623.885C1515.2,621.22 1512.7,619.887 1509.39,619.887C1506.62,619.887 1504.27,621.247 1502.35,623.965C1500.43,626.684 1499.48,629.642 1499.48,632.84L1499.48,635.079L1519.46,635.079ZM1307.26,593.981C1300.76,593.981 1295.4,592.435 1291.19,589.344C1286.98,586.252 1284.87,581.828 1284.87,576.071C1284.87,570.314 1286.98,565.943 1291.19,562.958C1295.4,559.973 1300.81,558.48 1307.42,558.48C1314.03,558.48 1319.41,559.946 1323.57,562.878C1327.73,565.809 1329.81,570.207 1329.81,576.071C1329.81,581.828 1327.67,586.252 1323.41,589.344C1319.15,592.435 1313.76,593.981 1307.26,593.981Z" style="fill:none;fill-rule:nonzero;stroke:rgb(235,235,235);stroke-width:27.81px;"/>
                        <path d="M1370.48,863.238C1364.45,863.238 1358.9,862.199 1353.86,860.12C1348.81,858.041 1344.77,855.083 1341.76,851.245C1338.74,847.407 1337.23,842.929 1337.23,837.812C1337.23,832.268 1338.98,827.604 1342.49,823.819C1346,820.035 1350.65,817.209 1356.44,815.344C1362.23,813.478 1368.45,812.545 1375.1,812.545C1382.98,812.545 1390.56,813.558 1397.82,815.584L1397.82,812.065C1397.82,807.908 1395.79,804.736 1391.73,802.551C1387.66,800.365 1382.18,799.272 1375.28,799.272C1370.85,799.272 1365.74,799.965 1359.95,801.351C1354.16,802.737 1349.36,804.443 1345.54,806.468L1342.96,805.509L1342.96,782.801C1350.22,780.562 1357.64,778.963 1365.22,778.004C1372.79,777.044 1379.84,776.564 1386.37,776.564C1422.94,776.564 1441.23,785.466 1441.23,803.27L1441.23,838.291L1449.73,838.291L1449.73,861.799L1403.55,861.799L1399.48,849.006C1396.9,853.377 1392.87,856.842 1387.38,859.4C1381.9,861.959 1376.27,863.238 1370.48,863.238ZM1461.92,838.291L1473.56,838.291L1473.56,802.311L1461.92,802.311L1461.92,781.202L1516.79,776.564L1516.79,790.157C1519.62,786.213 1524.36,782.961 1531.01,780.402C1537.66,777.844 1543.51,776.564 1548.56,776.564L1548.56,809.667C1541.54,807.641 1535.76,806.628 1531.2,806.628C1525.41,806.628 1521.56,808.068 1519.65,810.946C1517.74,813.825 1516.79,817.609 1516.79,822.3L1516.79,838.291L1531.2,838.291L1531.2,861.799L1461.92,861.799L1461.92,838.291ZM1184.09,834.294L1201.45,834.294L1201.45,765.051L1186.49,765.051L1186.49,737.385L1259.83,737.385C1271.89,737.385 1282.06,738.238 1290.31,739.944C1298.56,741.65 1305.12,744.901 1309.98,749.699C1314.85,754.496 1317.28,761.319 1317.28,770.168C1317.28,776.351 1315.21,781.735 1311.09,786.319C1306.96,790.903 1301.7,794.208 1295.3,796.234C1303.67,799.326 1309.86,803.35 1313.86,808.307C1317.86,813.265 1319.86,820.061 1319.86,828.697C1319.86,839.251 1315.09,847.407 1305.55,853.164C1296,858.92 1282.49,861.799 1265,861.799L1184.09,861.799L1184.09,834.294ZM1387.48,843.249C1389.45,843.249 1391.48,842.956 1393.57,842.369C1395.67,841.783 1397.08,841.17 1397.82,840.53L1397.82,827.417C1396.96,827.311 1395.51,827.018 1393.48,826.538C1391.45,826.058 1389.69,825.818 1388.21,825.818C1385.01,825.818 1382.46,826.671 1380.55,828.377C1378.64,830.083 1377.69,832.375 1377.69,835.253C1377.69,837.385 1378.58,839.251 1380.36,840.85C1382.15,842.449 1384.52,843.249 1387.48,843.249ZM1250.96,834.294C1258.23,834.294 1263.83,833.414 1267.77,831.655C1271.71,829.896 1273.68,826.245 1273.68,820.701C1273.68,812.172 1267.65,807.908 1255.58,807.908C1252.87,807.908 1250.22,807.961 1247.63,808.068L1247.63,834.294L1250.96,834.294ZM1252.62,787.599C1259.52,787.599 1264.6,786.772 1267.86,785.12C1271.13,783.467 1272.76,780.349 1272.76,775.765C1272.76,772.567 1271.62,769.981 1269.34,768.009C1267.06,766.037 1264.08,765.051 1260.38,765.051L1247.63,765.051L1247.63,787.599L1252.62,787.599ZM984.871,693.128L994.945,693.128L994.945,626.284L984.871,626.284L984.871,605.335L1032.37,600.538L1032.37,613.811C1035.03,610.079 1038.47,606.934 1042.68,604.376C1046.89,601.817 1051.82,600.538 1057.47,600.538C1064.93,600.538 1071.28,602.457 1076.5,606.295C1081.73,610.132 1085.67,615.303 1088.34,621.806C1091,628.309 1092.33,635.559 1092.33,643.555C1092.33,651.55 1091.03,658.853 1088.41,665.463C1085.8,672.073 1081.86,677.35 1076.58,681.294C1071.31,685.239 1064.88,687.211 1057.31,687.211C1052.09,687.211 1047.32,686.172 1043,684.093C1038.68,682.014 1035.14,679.482 1032.37,676.497L1032.37,693.288L1042.44,693.288L1042.44,716.796L984.871,716.796L984.871,693.128ZM1509.39,687.211C1499.69,687.211 1491.27,685.426 1484.12,681.854C1476.98,678.283 1471.49,673.192 1467.65,666.582C1463.82,659.973 1461.9,652.243 1461.9,643.395C1461.9,634.653 1463.76,627.057 1467.49,620.607C1471.22,614.157 1476.48,609.2 1483.25,605.735C1490.01,602.27 1497.93,600.538 1506.99,600.538C1515.41,600.538 1522.82,602.19 1529.22,605.495C1535.62,608.8 1540.57,613.491 1544.09,619.567C1547.61,625.644 1549.37,632.734 1549.37,640.836C1549.37,643.608 1548.94,646.273 1548.09,648.832L1499.48,648.832C1499.48,653.736 1501.32,657.654 1504.99,660.586C1508.67,663.517 1513.12,664.983 1518.35,664.983C1522.29,664.983 1526.63,664.29 1531.38,662.904C1536.12,661.518 1540.89,659.386 1545.69,656.508L1546.97,656.987L1546.97,677.936C1541.64,681.028 1536.15,683.347 1530.5,684.893C1524.85,686.438 1517.81,687.211 1509.39,687.211ZM926.502,687.211C917.12,687.211 908.858,685.479 901.715,682.014C894.572,678.549 889.029,673.485 885.084,666.822C881.139,660.159 879.167,652.243 879.167,643.075C879.167,634.013 881.139,626.284 885.084,619.887C889.029,613.491 894.572,608.667 901.715,605.415C908.858,602.163 917.12,600.538 926.502,600.538C940.894,600.538 952.408,604.242 961.043,611.652C969.679,619.061 973.997,629.535 973.997,643.075C973.997,652.243 972.024,660.159 968.08,666.822C964.135,673.485 958.591,678.549 951.449,682.014C944.306,685.479 935.99,687.211 926.502,687.211ZM773.943,685.772L773.943,657.627L786.737,657.627L786.737,589.024L775.702,589.024L772.344,610.452L750.436,610.452L750.436,561.518L867.333,561.518L867.333,610.452L845.425,610.452L842.067,589.024L830.713,589.024L830.713,657.627L843.506,657.627L843.506,685.772L773.943,685.772ZM1278.47,685.772L1278.47,662.265L1288.55,662.265L1288.55,626.284L1278.47,626.284L1278.47,607.094L1325.97,602.137L1325.97,662.265L1336.04,662.265L1336.04,685.772L1278.47,685.772ZM1378.74,685.772L1352.67,626.284L1341.16,626.284L1341.16,602.137L1401.13,602.137L1401.13,626.284L1392.49,626.284L1406.09,665.623L1421.12,626.284L1411.2,626.284L1411.2,602.137L1453.58,602.137L1453.58,626.284L1443.03,626.284L1418.56,685.772L1378.74,685.772ZM1135.83,658.267L1148.3,658.267L1148.3,589.024L1135.83,589.024L1135.83,561.518L1193.4,561.518C1216,561.518 1233.3,566.742 1245.29,577.19C1257.29,587.638 1263.28,603.096 1263.28,623.565C1263.28,643.501 1257.31,658.853 1245.37,669.621C1233.43,680.388 1216.05,685.772 1193.24,685.772L1135.83,685.772L1135.83,658.267ZM926.502,664.344C929.913,664.344 932.445,662.664 934.098,659.306C935.75,655.948 936.576,650.538 936.576,643.075C936.576,636.145 935.777,631.135 934.178,628.043C932.579,624.951 930.02,623.405 926.502,623.405C923.09,623.405 920.585,624.951 918.986,628.043C917.387,631.135 916.587,636.145 916.587,643.075C916.587,650.538 917.413,655.948 919.066,659.306C920.718,662.664 923.197,664.344 926.502,664.344ZM1043.56,664.344C1048.25,664.344 1051.71,662.478 1053.95,658.747C1056.19,655.015 1057.31,650.111 1057.31,644.034C1057.31,637.744 1056.09,632.734 1053.63,629.002C1051.18,625.271 1047.98,623.405 1044.04,623.405C1041.37,623.405 1038.97,624.072 1036.84,625.404C1034.71,626.737 1033.22,628.469 1032.37,630.602L1032.37,657.627C1034.71,662.105 1038.44,664.344 1043.56,664.344ZM1193.24,658.267C1201.98,658.267 1208.35,654.989 1212.35,648.432C1216.35,641.876 1218.35,633.587 1218.35,623.565C1218.35,613.331 1216.37,605.015 1212.43,598.619C1208.49,592.222 1202.09,589.024 1193.24,589.024L1188.28,589.024L1188.28,658.267L1193.24,658.267ZM1519.46,635.079L1519.46,633.48C1519.46,629.749 1518.61,626.55 1516.91,623.885C1515.2,621.22 1512.7,619.887 1509.39,619.887C1506.62,619.887 1504.27,621.247 1502.35,623.965C1500.43,626.684 1499.48,629.642 1499.48,632.84L1499.48,635.079L1519.46,635.079ZM1307.26,593.981C1300.76,593.981 1295.4,592.435 1291.19,589.344C1286.98,586.252 1284.87,581.828 1284.87,576.071C1284.87,570.314 1286.98,565.943 1291.19,562.958C1295.4,559.973 1300.81,558.48 1307.42,558.48C1314.03,558.48 1319.41,559.946 1323.57,562.878C1327.73,565.809 1329.81,570.207 1329.81,576.071C1329.81,581.828 1327.67,586.252 1323.41,589.344C1319.15,592.435 1313.76,593.981 1307.26,593.981Z" style="fill:none;fill-rule:nonzero;stroke:rgb(222,39,38);stroke-width:11.92px;"/>
                        <path d="M1370.48,863.238C1364.45,863.238 1358.9,862.199 1353.86,860.12C1348.81,858.041 1344.77,855.083 1341.76,851.245C1338.74,847.407 1337.23,842.929 1337.23,837.812C1337.23,832.268 1338.98,827.604 1342.49,823.819C1346,820.035 1350.65,817.209 1356.44,815.344C1362.23,813.478 1368.45,812.545 1375.1,812.545C1382.98,812.545 1390.56,813.558 1397.82,815.584L1397.82,812.065C1397.82,807.908 1395.79,804.736 1391.73,802.551C1387.66,800.365 1382.18,799.272 1375.28,799.272C1370.85,799.272 1365.74,799.965 1359.95,801.351C1354.16,802.737 1349.36,804.443 1345.54,806.468L1342.96,805.509L1342.96,782.801C1350.22,780.562 1357.64,778.963 1365.22,778.004C1372.79,777.044 1379.84,776.564 1386.37,776.564C1422.94,776.564 1441.23,785.466 1441.23,803.27L1441.23,838.291L1449.73,838.291L1449.73,861.799L1403.55,861.799L1399.48,849.006C1396.9,853.377 1392.87,856.842 1387.38,859.4C1381.9,861.959 1376.27,863.238 1370.48,863.238ZM1461.92,838.291L1473.56,838.291L1473.56,802.311L1461.92,802.311L1461.92,781.202L1516.79,776.564L1516.79,790.157C1519.62,786.213 1524.36,782.961 1531.01,780.402C1537.66,777.844 1543.51,776.564 1548.56,776.564L1548.56,809.667C1541.54,807.641 1535.76,806.628 1531.2,806.628C1525.41,806.628 1521.56,808.068 1519.65,810.946C1517.74,813.825 1516.79,817.609 1516.79,822.3L1516.79,838.291L1531.2,838.291L1531.2,861.799L1461.92,861.799L1461.92,838.291ZM1184.09,834.294L1201.45,834.294L1201.45,765.051L1186.49,765.051L1186.49,737.385L1259.83,737.385C1271.89,737.385 1282.06,738.238 1290.31,739.944C1298.56,741.65 1305.12,744.901 1309.98,749.699C1314.85,754.496 1317.28,761.319 1317.28,770.168C1317.28,776.351 1315.21,781.735 1311.09,786.319C1306.96,790.903 1301.7,794.208 1295.3,796.234C1303.67,799.326 1309.86,803.35 1313.86,808.307C1317.86,813.265 1319.86,820.061 1319.86,828.697C1319.86,839.251 1315.09,847.407 1305.55,853.164C1296,858.92 1282.49,861.799 1265,861.799L1184.09,861.799L1184.09,834.294ZM1387.48,843.249C1389.45,843.249 1391.48,842.956 1393.57,842.369C1395.67,841.783 1397.08,841.17 1397.82,840.53L1397.82,827.417C1396.96,827.311 1395.51,827.018 1393.48,826.538C1391.45,826.058 1389.69,825.818 1388.21,825.818C1385.01,825.818 1382.46,826.671 1380.55,828.377C1378.64,830.083 1377.69,832.375 1377.69,835.253C1377.69,837.385 1378.58,839.251 1380.36,840.85C1382.15,842.449 1384.52,843.249 1387.48,843.249ZM1250.96,834.294C1258.23,834.294 1263.83,833.414 1267.77,831.655C1271.71,829.896 1273.68,826.245 1273.68,820.701C1273.68,812.172 1267.65,807.908 1255.58,807.908C1252.87,807.908 1250.22,807.961 1247.63,808.068L1247.63,834.294L1250.96,834.294ZM1252.62,787.599C1259.52,787.599 1264.6,786.772 1267.86,785.12C1271.13,783.467 1272.76,780.349 1272.76,775.765C1272.76,772.567 1271.62,769.981 1269.34,768.009C1267.06,766.037 1264.08,765.051 1260.38,765.051L1247.63,765.051L1247.63,787.599L1252.62,787.599ZM984.871,693.128L994.945,693.128L994.945,626.284L984.871,626.284L984.871,605.335L1032.37,600.538L1032.37,613.811C1035.03,610.079 1038.47,606.934 1042.68,604.376C1046.89,601.817 1051.82,600.538 1057.47,600.538C1064.93,600.538 1071.28,602.457 1076.5,606.295C1081.73,610.132 1085.67,615.303 1088.34,621.806C1091,628.309 1092.33,635.559 1092.33,643.555C1092.33,651.55 1091.03,658.853 1088.41,665.463C1085.8,672.073 1081.86,677.35 1076.58,681.294C1071.31,685.239 1064.88,687.211 1057.31,687.211C1052.09,687.211 1047.32,686.172 1043,684.093C1038.68,682.014 1035.14,679.482 1032.37,676.497L1032.37,693.288L1042.44,693.288L1042.44,716.796L984.871,716.796L984.871,693.128ZM1509.39,687.211C1499.69,687.211 1491.27,685.426 1484.12,681.854C1476.98,678.283 1471.49,673.192 1467.65,666.582C1463.82,659.973 1461.9,652.243 1461.9,643.395C1461.9,634.653 1463.76,627.057 1467.49,620.607C1471.22,614.157 1476.48,609.2 1483.25,605.735C1490.01,602.27 1497.93,600.538 1506.99,600.538C1515.41,600.538 1522.82,602.19 1529.22,605.495C1535.62,608.8 1540.57,613.491 1544.09,619.567C1547.61,625.644 1549.37,632.734 1549.37,640.836C1549.37,643.608 1548.94,646.273 1548.09,648.832L1499.48,648.832C1499.48,653.736 1501.32,657.654 1504.99,660.586C1508.67,663.517 1513.12,664.983 1518.35,664.983C1522.29,664.983 1526.63,664.29 1531.38,662.904C1536.12,661.518 1540.89,659.386 1545.69,656.508L1546.97,656.987L1546.97,677.936C1541.64,681.028 1536.15,683.347 1530.5,684.893C1524.85,686.438 1517.81,687.211 1509.39,687.211ZM926.502,687.211C917.12,687.211 908.858,685.479 901.715,682.014C894.572,678.549 889.029,673.485 885.084,666.822C881.139,660.159 879.167,652.243 879.167,643.075C879.167,634.013 881.139,626.284 885.084,619.887C889.029,613.491 894.572,608.667 901.715,605.415C908.858,602.163 917.12,600.538 926.502,600.538C940.894,600.538 952.408,604.242 961.043,611.652C969.679,619.061 973.997,629.535 973.997,643.075C973.997,652.243 972.024,660.159 968.08,666.822C964.135,673.485 958.591,678.549 951.449,682.014C944.306,685.479 935.99,687.211 926.502,687.211ZM773.943,685.772L773.943,657.627L786.737,657.627L786.737,589.024L775.702,589.024L772.344,610.452L750.436,610.452L750.436,561.518L867.333,561.518L867.333,610.452L845.425,610.452L842.067,589.024L830.713,589.024L830.713,657.627L843.506,657.627L843.506,685.772L773.943,685.772ZM1278.47,685.772L1278.47,662.265L1288.55,662.265L1288.55,626.284L1278.47,626.284L1278.47,607.094L1325.97,602.137L1325.97,662.265L1336.04,662.265L1336.04,685.772L1278.47,685.772ZM1378.74,685.772L1352.67,626.284L1341.16,626.284L1341.16,602.137L1401.13,602.137L1401.13,626.284L1392.49,626.284L1406.09,665.623L1421.12,626.284L1411.2,626.284L1411.2,602.137L1453.58,602.137L1453.58,626.284L1443.03,626.284L1418.56,685.772L1378.74,685.772ZM1135.83,658.267L1148.3,658.267L1148.3,589.024L1135.83,589.024L1135.83,561.518L1193.4,561.518C1216,561.518 1233.3,566.742 1245.29,577.19C1257.29,587.638 1263.28,603.096 1263.28,623.565C1263.28,643.501 1257.31,658.853 1245.37,669.621C1233.43,680.388 1216.05,685.772 1193.24,685.772L1135.83,685.772L1135.83,658.267ZM926.502,664.344C929.913,664.344 932.445,662.664 934.098,659.306C935.75,655.948 936.576,650.538 936.576,643.075C936.576,636.145 935.777,631.135 934.178,628.043C932.579,624.951 930.02,623.405 926.502,623.405C923.09,623.405 920.585,624.951 918.986,628.043C917.387,631.135 916.587,636.145 916.587,643.075C916.587,650.538 917.413,655.948 919.066,659.306C920.718,662.664 923.197,664.344 926.502,664.344ZM1043.56,664.344C1048.25,664.344 1051.71,662.478 1053.95,658.747C1056.19,655.015 1057.31,650.111 1057.31,644.034C1057.31,637.744 1056.09,632.734 1053.63,629.002C1051.18,625.271 1047.98,623.405 1044.04,623.405C1041.37,623.405 1038.97,624.072 1036.84,625.404C1034.71,626.737 1033.22,628.469 1032.37,630.602L1032.37,657.627C1034.71,662.105 1038.44,664.344 1043.56,664.344ZM1193.24,658.267C1201.98,658.267 1208.35,654.989 1212.35,648.432C1216.35,641.876 1218.35,633.587 1218.35,623.565C1218.35,613.331 1216.37,605.015 1212.43,598.619C1208.49,592.222 1202.09,589.024 1193.24,589.024L1188.28,589.024L1188.28,658.267L1193.24,658.267ZM1519.46,635.079L1519.46,633.48C1519.46,629.749 1518.61,626.55 1516.91,623.885C1515.2,621.22 1512.7,619.887 1509.39,619.887C1506.62,619.887 1504.27,621.247 1502.35,623.965C1500.43,626.684 1499.48,629.642 1499.48,632.84L1499.48,635.079L1519.46,635.079ZM1307.26,593.981C1300.76,593.981 1295.4,592.435 1291.19,589.344C1286.98,586.252 1284.87,581.828 1284.87,576.071C1284.87,570.314 1286.98,565.943 1291.19,562.958C1295.4,559.973 1300.81,558.48 1307.42,558.48C1314.03,558.48 1319.41,559.946 1323.57,562.878C1327.73,565.809 1329.81,570.207 1329.81,576.071C1329.81,581.828 1327.67,586.252 1323.41,589.344C1319.15,592.435 1313.76,593.981 1307.26,593.981Z" style="fill:rgb(21,18,18);fill-rule:nonzero;"/>
                    </g>
                </g>
                <g transform="matrix(3.84645,0,0,4.64707,4290.07,-95.8311)">
                    <g transform="matrix(0.187881,0,0,0.106782,641.218,118.146)">
                        <path d="M121.222,695.8C105.616,695.8 91.346,691.679 78.413,683.438C65.48,675.196 55.148,662.789 47.417,646.215C39.686,629.641 35.82,609.309 35.82,585.219C35.82,564.932 38.746,546.592 44.599,530.2C50.451,513.807 59.049,500.811 70.393,491.211C81.736,481.611 95.428,476.811 111.468,476.811C119.705,476.811 127.074,479.211 133.577,484.011C140.08,488.811 144.776,494.924 147.666,502.351L152.001,480.887L184.948,480.887L184.948,567.558L151.134,567.558L151.134,563.211C151.134,551.981 149.075,542.789 144.957,535.634C140.838,528.479 134.733,524.902 126.641,524.902C121.15,524.902 116.128,527.528 111.576,532.781C107.024,538.034 103.448,544.917 100.847,553.43C98.246,561.943 96.945,570.728 96.945,579.785C96.945,597.536 100.486,611.438 107.566,621.49C114.647,631.543 124.329,636.57 136.612,636.57C145.282,636.57 153.338,634.758 160.78,631.136C168.222,627.513 174.327,623.619 179.096,619.453L181.48,621.898L181.48,678.411C172.521,684.932 163.056,689.46 153.085,691.996C143.114,694.532 132.493,695.8 121.222,695.8Z" style="fill:rgb(235,235,235);fill-rule:nonzero;"/>
                        <path d="M264.931,694.441C252.215,694.441 241.016,691.498 231.334,685.611C221.652,679.724 214.138,671.121 208.791,659.8C203.445,648.479 200.771,635.03 200.771,619.453C200.771,604.056 203.445,590.924 208.791,580.056C214.138,569.189 221.652,560.992 231.334,555.468C241.016,549.943 252.215,547.181 264.931,547.181C284.439,547.181 300.045,553.475 311.75,566.064C323.455,578.653 329.307,596.449 329.307,619.453C329.307,635.03 326.634,648.479 321.287,659.8C315.941,671.121 308.427,679.724 298.745,685.611C289.063,691.498 277.792,694.441 264.931,694.441ZM264.931,655.589C269.555,655.589 272.987,652.736 275.227,647.03C277.467,641.324 278.587,632.132 278.587,619.453C278.587,607.679 277.503,599.166 275.335,593.913C273.168,588.66 269.7,586.034 264.931,586.034C260.307,586.034 256.911,588.66 254.743,593.913C252.576,599.166 251.492,607.679 251.492,619.453C251.492,632.132 252.612,641.324 254.852,647.03C257.092,652.736 260.451,655.589 264.931,655.589Z" style="fill:rgb(235,235,235);fill-rule:nonzero;"/>
                        <path d="M347.081,691.996L347.081,652.056L365.722,652.056L365.722,529.792L347.081,529.792L347.081,493.657L416.443,484.962L416.443,652.056L432.7,652.056L432.7,691.996L347.081,691.996Z" style="fill:rgb(235,235,235);fill-rule:nonzero;"/>
                        <path d="M513.116,694.441C500.4,694.441 489.201,691.498 479.519,685.611C469.837,679.724 462.323,671.121 456.977,659.8C451.63,648.479 448.957,635.03 448.957,619.453C448.957,604.056 451.63,590.924 456.977,580.056C462.323,569.189 469.837,560.992 479.519,555.468C489.201,549.943 500.4,547.181 513.116,547.181C532.624,547.181 548.231,553.475 559.936,566.064C571.64,578.653 577.493,596.449 577.493,619.453C577.493,635.03 574.819,648.479 569.473,659.8C564.126,671.121 556.612,679.724 546.93,685.611C537.248,691.498 525.977,694.441 513.116,694.441ZM513.116,655.589C517.74,655.589 521.172,652.736 523.412,647.03C525.652,641.324 526.772,632.132 526.772,619.453C526.772,607.679 525.688,599.166 523.521,593.913C521.353,588.66 517.885,586.034 513.116,586.034C508.492,586.034 505.096,588.66 502.929,593.913C500.761,599.166 499.677,607.679 499.677,619.453C499.677,632.132 500.797,641.324 503.037,647.03C505.277,652.736 508.637,655.589 513.116,655.589Z" style="fill:rgb(235,235,235);fill-rule:nonzero;"/>
                        <path d="M592.232,652.056L605.888,652.056L605.888,590.924L592.232,590.924L592.232,555.06L656.609,547.181L656.609,570.275C659.932,563.573 665.496,558.049 673.299,553.702C681.102,549.355 687.966,547.181 693.891,547.181L693.891,603.423C685.654,599.981 678.862,598.26 673.515,598.26C666.724,598.26 662.208,600.706 659.968,605.596C657.728,610.487 656.609,616.917 656.609,624.887L656.609,652.056L673.515,652.056L673.515,691.996L592.232,691.996L592.232,652.056Z" style="fill:rgb(235,235,235);fill-rule:nonzero;"/>
                        <path d="M746.129,694.441C739.048,694.441 732.545,692.675 726.621,689.143C720.696,685.611 715.963,680.585 712.423,674.064C708.883,667.543 707.113,659.936 707.113,651.241C707.113,641.823 709.172,633.898 713.29,627.468C717.409,621.038 722.864,616.238 729.655,613.068C736.447,609.898 743.744,608.313 751.548,608.313C760.796,608.313 769.683,610.034 778.208,613.475L778.208,607.498C778.208,600.434 775.824,595.045 771.056,591.332C766.287,587.619 759.856,585.762 751.764,585.762C746.562,585.762 740.565,586.94 733.774,589.294C726.982,591.649 721.346,594.547 716.867,597.989L713.832,596.358L713.832,557.777C722.358,553.973 731.064,551.256 739.951,549.626C748.838,547.996 757.111,547.181 764.77,547.181C807.687,547.181 829.146,562.306 829.146,592.555L829.146,652.056L839.117,652.056L839.117,691.996L784.928,691.996L780.159,670.26C777.125,677.687 772.392,683.573 765.962,687.921C759.531,692.268 752.92,694.441 746.129,694.441ZM766.07,660.479C768.382,660.479 770.767,659.981 773.223,658.985C775.68,657.989 777.341,656.947 778.208,655.86L778.208,633.581C777.197,633.4 775.499,632.902 773.115,632.087C770.73,631.272 768.671,630.864 766.937,630.864C763.18,630.864 760.182,632.313 757.942,635.211C755.702,638.109 754.582,642.004 754.582,646.894C754.582,650.517 755.63,653.687 757.725,656.404C759.82,659.121 762.602,660.479 766.07,660.479Z" style="fill:rgb(235,235,235);fill-rule:nonzero;"/>
                        <path d="M903.493,694.441C893.233,694.441 884.383,691.045 876.941,684.253C869.499,677.46 863.863,668.313 860.034,656.811C856.204,645.309 854.29,632.675 854.29,618.909C854.29,606.23 856.241,594.411 860.142,583.453C864.044,572.494 869.643,563.709 876.941,557.098C884.238,550.487 892.8,547.181 902.626,547.181C909.851,547.181 916.029,548.63 921.159,551.528C926.289,554.426 931.093,558.773 935.573,564.57L935.573,529.792L918.666,529.792L918.666,493.657L986.511,484.962L986.511,652.056L999.95,652.056L999.95,691.996L934.706,691.996L934.706,674.879C931.238,680.675 926.831,685.34 921.484,688.872C916.137,692.404 910.14,694.26 903.493,694.441ZM920.4,655.589C923.724,655.589 926.722,654.592 929.396,652.6C932.069,650.607 934.128,648.253 935.573,645.536L935.573,595.272C933.984,592.917 931.816,590.789 929.07,588.887C926.325,586.985 923.435,586.034 920.4,586.034C914.909,586.034 910.429,588.841 906.961,594.456C903.493,600.072 901.759,608.223 901.759,618.909C901.759,629.777 903.349,638.607 906.528,645.4C909.707,652.192 914.331,655.589 920.4,655.589Z" style="fill:rgb(235,235,235);fill-rule:nonzero;"/>
                        <path d="M1079.07,694.441C1066.35,694.441 1055.15,691.498 1045.47,685.611C1035.79,679.724 1028.27,671.121 1022.93,659.8C1017.58,648.479 1014.91,635.03 1014.91,619.453C1014.91,604.056 1017.58,590.924 1022.93,580.056C1028.27,569.189 1035.79,560.992 1045.47,555.468C1055.15,549.943 1066.35,547.181 1079.07,547.181C1098.57,547.181 1114.18,553.475 1125.88,566.064C1137.59,578.653 1143.44,596.449 1143.44,619.453C1143.44,635.03 1140.77,648.479 1135.42,659.8C1130.08,671.121 1122.56,679.724 1112.88,685.611C1103.2,691.498 1091.93,694.441 1079.07,694.441ZM1079.07,655.589C1083.69,655.589 1087.12,652.736 1089.36,647.03C1091.6,641.324 1092.72,632.132 1092.72,619.453C1092.72,607.679 1091.64,599.166 1089.47,593.913C1087.3,588.66 1083.83,586.034 1079.07,586.034C1074.44,586.034 1071.05,588.66 1068.88,593.913C1066.71,599.166 1065.63,607.679 1065.63,619.453C1065.63,632.132 1066.75,641.324 1068.99,647.03C1071.23,652.736 1074.59,655.589 1079.07,655.589Z" style="fill:rgb(235,235,235);fill-rule:nonzero;"/>
                    </g>
                    <g transform="matrix(0.108827,0,0,0.106782,747.372,147.833)">
                        <path d="M50.057,651.785C73.008,645.445 92.592,637.385 108.808,627.604C123.527,618.547 134.005,610.532 140.242,603.558C146.479,596.585 149.597,588.207 149.597,578.426C149.597,572.087 147.102,566.698 142.113,562.26C137.123,557.823 131.136,555.604 124.151,555.604C116.417,555.604 110.429,557.37 106.188,560.902C101.947,564.434 99.827,568.917 99.827,574.351C99.827,577.43 100.949,580.555 103.195,583.724C105.44,586.894 108.059,589.566 111.053,591.74L69.89,614.834C61.408,609.4 54.61,602.2 49.495,593.234C44.381,584.268 42.073,575.438 42.572,566.743C42.323,555.694 46.502,545.868 55.109,537.264C63.715,528.66 75.815,521.913 91.407,517.023C106.999,512.132 124.774,509.687 144.732,509.687C163.692,509.687 180.594,512.223 195.438,517.294C210.282,522.366 221.882,529.475 230.24,538.623C238.597,547.77 242.776,558.14 242.776,569.732C242.776,580.6 238.472,590.924 229.865,600.706C221.258,610.487 211.654,618.728 201.051,625.43C190.448,632.132 178.287,639.106 164.565,646.351L157.455,649.883L187.018,649.883C198.993,649.702 208.535,648.343 215.645,645.807C222.755,643.272 226.31,638.109 226.31,630.321L257.744,630.321L258.867,691.996L50.057,691.996L50.057,651.785Z" style="fill:rgb(222,39,38);fill-rule:nonzero;"/>
                        <path d="M398.448,695.528C362.773,695.528 334.956,687.106 314.998,670.26C295.041,653.415 285.062,629.958 285.062,599.89C285.062,571.453 294.978,549.309 314.811,533.46C334.645,517.611 362.399,509.687 398.073,509.687C433.748,509.687 461.502,517.611 481.336,533.46C501.169,549.309 511.085,571.453 511.085,599.89C511.085,619.815 506.595,636.932 497.614,651.241C488.633,665.551 475.722,676.509 458.883,684.117C442.043,691.724 421.898,695.528 398.448,695.528ZM421.649,603.694C421.649,592.464 420.963,583.724 419.591,577.475C418.218,571.226 415.848,566.743 412.481,564.026C409.113,561.309 404.435,559.951 398.448,559.951C392.211,559.951 387.284,561.309 383.666,564.026C380.049,566.743 377.492,571.181 375.995,577.34C374.498,583.498 373.75,592.192 373.75,603.423C373.75,614.29 374.498,622.758 375.995,628.826C377.492,634.894 379.987,639.241 383.479,641.868C386.972,644.494 391.712,645.807 397.699,645.807C403.936,645.807 408.738,644.494 412.106,641.868C415.474,639.241 417.907,634.94 419.403,628.962C420.9,622.985 421.649,614.562 421.649,603.694Z" style="fill:rgb(222,39,38);fill-rule:nonzero;"/>
                        <path d="M545.513,651.785C568.464,645.445 588.048,637.385 604.264,627.604C618.983,618.547 629.461,610.532 635.698,603.558C641.935,596.585 645.053,588.207 645.053,578.426C645.053,572.087 642.558,566.698 637.569,562.26C632.579,557.823 626.592,555.604 619.607,555.604C611.873,555.604 605.886,557.37 601.645,560.902C597.403,564.434 595.283,568.917 595.283,574.351C595.283,577.43 596.406,580.555 598.651,583.724C600.896,586.894 603.516,589.566 606.509,591.74L565.346,614.834C556.864,609.4 550.066,602.2 544.951,593.234C539.837,584.268 537.53,575.438 538.029,566.743C537.779,555.694 541.958,545.868 550.565,537.264C559.172,528.66 571.271,521.913 586.863,517.023C602.455,512.132 620.23,509.687 640.188,509.687C659.148,509.687 676.05,512.223 690.894,517.294C705.738,522.366 717.338,529.475 725.696,538.623C734.053,547.77 738.232,558.14 738.232,569.732C738.232,580.6 733.928,590.924 725.321,600.706C716.715,610.487 707.11,618.728 696.507,625.43C685.905,632.132 673.743,639.106 660.022,646.351L652.912,649.883L682.474,649.883C694.449,649.702 703.991,648.343 711.101,645.807C718.211,643.272 721.766,638.109 721.766,630.321L753.2,630.321L754.323,691.996L545.513,691.996L545.513,651.785Z" style="fill:rgb(222,39,38);fill-rule:nonzero;"/>
                        <path d="M788.376,651.785C811.328,645.445 830.911,637.385 847.127,627.604C861.846,618.547 872.324,610.532 878.561,603.558C884.798,596.585 887.916,588.207 887.916,578.426C887.916,572.087 885.422,566.698 880.432,562.26C875.443,557.823 869.455,555.604 862.47,555.604C854.736,555.604 848.749,557.37 844.508,560.902C840.267,564.434 838.146,568.917 838.146,574.351C838.146,577.43 839.269,580.555 841.514,583.724C843.759,586.894 846.379,589.566 849.373,591.74L808.209,614.834C799.727,609.4 792.929,602.2 787.815,593.234C782.701,584.268 780.393,575.438 780.892,566.743C780.642,555.694 784.821,545.868 793.428,537.264C802.035,528.66 814.134,521.913 829.726,517.023C845.319,512.132 863.094,509.687 883.052,509.687C902.012,509.687 918.914,512.223 933.757,517.294C948.601,522.366 960.202,529.475 968.559,538.623C976.916,547.77 981.095,558.14 981.095,569.732C981.095,580.6 976.792,590.924 968.185,600.706C959.578,610.487 949.973,618.728 939.37,625.43C928.768,632.132 916.606,639.106 902.885,646.351L895.775,649.883L925.338,649.883C937.312,649.702 946.855,648.343 953.965,645.807C961.075,643.272 964.63,638.109 964.63,630.321L996.064,630.321L997.186,691.996L788.376,691.996L788.376,651.785Z" style="fill:rgb(222,39,38);fill-rule:nonzero;"/>
                    </g>
                </g>
            </g>
        </g>
    </g>
</svg>
