<?xml version="1.0" encoding="utf-8"?>
<!DOCTYPE svg PUBLIC "-//W3C//DTD SVG 1.1//EN" "http://www.w3.org/Graphics/SVG/1.1/DTD/svg11.dtd">
<svg xmlns="http://www.w3.org/2000/svg" shape-rendering="crispEdges" height="128" width="128" viewBox="0 0 33 33" data-reactroot=""><path fill="#FFFFFF" d="M0,0 h33v33H0z"></path><path fill="#000000" d="M0 0h7v1H0zM8 0h1v1H8zM11 0h2v1H11zM15 0h2v1H15zM21 0h1v1H21zM26,0 h7v1H26zM0 1h1v1H0zM6 1h1v1H6zM9 1h2v1H9zM16 1h1v1H16zM18 1h2v1H18zM22 1h1v1H22zM24 1h1v1H24zM26 1h1v1H26zM32,1 h1v1H32zM0 2h1v1H0zM2 2h3v1H2zM6 2h1v1H6zM10 2h1v1H10zM12 2h1v1H12zM15 2h2v1H15zM19 2h1v1H19zM21 2h1v1H21zM26 2h1v1H26zM28 2h3v1H28zM32,2 h1v1H32zM0 3h1v1H0zM2 3h3v1H2zM6 3h1v1H6zM12 3h1v1H12zM16 3h3v1H16zM20 3h2v1H20zM23 3h2v1H23zM26 3h1v1H26zM28 3h3v1H28zM32,3 h1v1H32zM0 4h1v1H0zM2 4h3v1H2zM6 4h1v1H6zM9 4h1v1H9zM11 4h1v1H11zM14 4h3v1H14zM19 4h1v1H19zM21 4h1v1H21zM26 4h1v1H26zM28 4h3v1H28zM32,4 h1v1H32zM0 5h1v1H0zM6 5h1v1H6zM10 5h1v1H10zM12 5h1v1H12zM15 5h2v1H15zM21 5h3v1H21zM26 5h1v1H26zM32,5 h1v1H32zM0 6h7v1H0zM8 6h1v1H8zM10 6h1v1H10zM12 6h1v1H12zM14 6h1v1H14zM16 6h1v1H16zM18 6h1v1H18zM20 6h1v1H20zM22 6h1v1H22zM24 6h1v1H24zM26,6 h7v1H26zM8 7h1v1H8zM10 7h2v1H10zM13 7h1v1H13zM15 7h2v1H15zM19 7h2v1H19zM22 7h3v1H22zM0 8h2v1H0zM3 8h2v1H3zM6 8h1v1H6zM9 8h3v1H9zM13 8h1v1H13zM16 8h2v1H16zM19 8h2v1H19zM24 8h1v1H24zM26 8h1v1H26zM32,8 h1v1H32zM0 9h1v1H0zM2 9h4v1H2zM9 9h1v1H9zM12 9h2v1H12zM16 9h1v1H16zM19 9h1v1H19zM21 9h3v1H21zM25 9h1v1H25zM27 9h2v1H27zM30 9h2v1H30zM0 10h2v1H0zM3 10h1v1H3zM5 10h2v1H5zM10 10h2v1H10zM13 10h1v1H13zM15 10h1v1H15zM17 10h1v1H17zM23 10h1v1H23zM26 10h1v1H26zM31,10 h2v1H31zM0 11h1v1H0zM2 11h1v1H2zM7 11h1v1H7zM9 11h5v1H9zM15 11h1v1H15zM17 11h2v1H17zM20 11h1v1H20zM25 11h2v1H25zM28 11h3v1H28zM2 12h1v1H2zM6 12h1v1H6zM8 12h2v1H8zM11 12h3v1H11zM16 12h1v1H16zM18 12h1v1H18zM20 12h1v1H20zM22 12h1v1H22zM24 12h1v1H24zM26 12h2v1H26zM31,12 h2v1H31zM1 13h2v1H1zM7 13h1v1H7zM13 13h5v1H13zM20 13h2v1H20zM23 13h2v1H23zM27 13h1v1H27zM0 14h1v1H0zM2 14h1v1H2zM4 14h1v1H4zM6 14h2v1H6zM10 14h4v1H10zM15 14h2v1H15zM19 14h1v1H19zM0 15h6v1H0zM8 15h1v1H8zM11 15h1v1H11zM15 15h1v1H15zM26 15h2v1H26zM30 15h1v1H30zM32,15 h1v1H32zM0 16h2v1H0zM5 16h2v1H5zM8 16h1v1H8zM14 16h1v1H14zM17 16h1v1H17zM20 16h1v1H20zM22 16h1v1H22zM24 16h6v1H24zM31,16 h2v1H31zM0 17h1v1H0zM4 17h2v1H4zM8 17h8v1H8zM17 17h6v1H17zM25 17h4v1H25zM31,17 h2v1H31zM0 18h3v1H0zM4 18h3v1H4zM8 18h4v1H8zM15 18h1v1H15zM17 18h1v1H17zM19 18h2v1H19zM23 18h1v1H23zM26 18h3v1H26zM32,18 h1v1H32zM2 19h1v1H2zM4 19h1v1H4zM8 19h2v1H8zM12 19h1v1H12zM14 19h1v1H14zM18 19h1v1H18zM22 19h2v1H22zM25 19h3v1H25zM30,19 h3v1H30zM3 20h1v1H3zM6 20h1v1H6zM9 20h1v1H9zM12 20h3v1H12zM16 20h2v1H16zM23 20h2v1H23zM0 21h1v1H0zM3 21h1v1H3zM8 21h3v1H8zM14 21h1v1H14zM17 21h3v1H17zM23 21h1v1H23zM27 21h3v1H27zM31 21h1v1H31zM0 22h1v1H0zM2 22h1v1H2zM4 22h1v1H4zM6 22h3v1H6zM10 22h1v1H10zM12 22h1v1H12zM14 22h2v1H14zM17 22h2v1H17zM23 22h1v1H23zM26 22h3v1H26zM31,22 h2v1H31zM0 23h1v1H0zM3 23h1v1H3zM9 23h1v1H9zM14 23h1v1H14zM16 23h2v1H16zM22 23h1v1H22zM24 23h2v1H24zM27 23h1v1H27zM30 23h1v1H30zM0 24h2v1H0zM4 24h5v1H4zM10 24h1v1H10zM13 24h3v1H13zM19 24h2v1H19zM23 24h6v1H23zM31 24h1v1H31zM8 25h3v1H8zM12 25h1v1H12zM15 25h1v1H15zM24 25h1v1H24zM28 25h4v1H28zM0 26h7v1H0zM14 26h4v1H14zM19 26h3v1H19zM23 26h2v1H23zM26 26h1v1H26zM28 26h2v1H28zM0 27h1v1H0zM6 27h1v1H6zM9 27h1v1H9zM12 27h5v1H12zM18 27h1v1H18zM22 27h3v1H22zM28,27 h5v1H28zM0 28h1v1H0zM2 28h3v1H2zM6 28h1v1H6zM8 28h1v1H8zM11 28h2v1H11zM15 28h2v1H15zM19 28h2v1H19zM22 28h7v1H22zM0 29h1v1H0zM2 29h3v1H2zM6 29h1v1H6zM8 29h2v1H8zM11 29h1v1H11zM15 29h5v1H15zM22 29h2v1H22zM25 29h1v1H25zM30,29 h3v1H30zM0 30h1v1H0zM2 30h3v1H2zM6 30h1v1H6zM9 30h2v1H9zM12 30h4v1H12zM17 30h1v1H17zM19 30h3v1H19zM25 30h1v1H25zM27 30h2v1H27zM31,30 h2v1H31zM0 31h1v1H0zM6 31h1v1H6zM8 31h1v1H8zM10 31h2v1H10zM13 31h1v1H13zM16 31h1v1H16zM20 31h1v1H20zM22 31h1v1H22zM25,31 h8v1H25zM0 32h7v1H0zM8 32h4v1H8zM13 32h1v1H13zM15 32h6v1H15zM24 32h3v1H24zM28 32h2v1H28z"></path></svg>