<?xml version="1.0" encoding="UTF-8" standalone="no"?>
<!DOCTYPE svg PUBLIC "-//W3C//DTD SVG 1.1//EN" "http://www.w3.org/Graphics/SVG/1.1/DTD/svg11.dtd">
<svg width="100%" height="100%" viewBox="0 0 494 378" version="1.1" xmlns="http://www.w3.org/2000/svg" xmlns:xlink="http://www.w3.org/1999/xlink" xml:space="preserve" xmlns:serif="http://www.serif.com/" style="fill-rule:evenodd;clip-rule:evenodd;stroke-linecap:round;stroke-linejoin:round;stroke-miterlimit:1.5;">
    <rect id="Artboard1" x="0" y="0" width="493.979" height="377.604" style="fill:none;"/>
    <g id="outline">
        <g id="leg-front" serif:id="leg front">
            <path d="M225.897,250.757C225.897,250.757 231.556,239.198 228.457,230.507C225.357,221.815 210.467,209.418 201.237,205.241C192.006,201.063 176.24,195.808 171.928,193.854C167.616,191.9 157.577,192.557 151.311,197.282C145.045,202.006 142.471,211.306 146.932,219.389C149.508,224.059 154.852,226.738 158.591,228.947C163.146,231.639 165.234,232.607 170.391,234.259C170.391,234.259 191.554,240.001 201.138,241.1C196.101,243.76 186.495,250.871 181.342,256.892C181.342,256.892 176.907,261.5 174.791,265.176C168.145,276.719 164.307,290.679 157.055,301.681C150.804,311.163 146.47,306.498 141.157,310.276C137.368,312.971 141.259,315.663 134.481,323.24C131.238,326.866 125.708,331.21 123.377,335.462C122.208,337.594 123.763,339.579 124.597,342.357C125.762,346.241 127.093,350.494 131.496,348.439C131.496,348.439 133.236,347.237 133.786,346.637C134.489,345.871 134.737,344.698 135.507,344.034C136.356,343.302 137.428,342.77 138.388,342.204C141.235,340.525 144.198,339.206 147.142,337.704C148.584,336.968 149.83,335.973 151.136,335.029C152.981,333.695 154.864,332.324 156.492,330.725C160.034,327.245 163.718,319.779 166.463,315.628C170.258,309.891 172.97,307.298 177.25,301.872C179.841,298.586 191.3,288.603 191.744,288.207C193.916,286.267 196.432,284.682 198.496,282.618C206.65,274.464 214.666,266.354 221.644,257.142C223.115,255.201 224.548,253.041 225.897,250.757Z" style="fill:#ebebeb;"/>
            <path d="M227.619,251.774L225.897,252.757L227.693,251.637C227.693,251.637 233.675,239.186 230.34,229.835C229.024,226.142 225.747,221.789 221.609,217.648C215.587,211.62 207.769,206.001 202.061,203.418C192.831,199.241 177.066,193.986 172.754,192.032C168.021,189.888 156.984,190.5 150.107,195.685C143.112,200.959 140.201,211.332 145.181,220.356C147.936,225.349 153.575,228.306 157.574,230.669C162.286,233.454 164.446,234.455 169.781,236.164C169.81,236.173 169.839,236.181 169.868,236.189C169.868,236.189 184.908,240.264 195.465,242.231C190.279,245.727 183.807,250.948 179.854,255.555C179.387,256.046 175.147,260.549 173.057,264.178C166.431,275.686 162.615,289.611 155.385,300.58C152.162,305.469 149.569,306.037 146.995,306.366C144.694,306.66 142.446,306.906 139.998,308.647C137.914,310.129 137.469,311.581 137.15,313.492C136.838,315.355 136.626,317.842 132.99,321.907C129.658,325.632 124.019,330.132 121.623,334.501C120.753,336.086 120.811,337.613 121.327,339.264C121.672,340.367 122.267,341.551 122.681,342.932C123.191,344.633 123.749,346.391 124.52,347.754C125.295,349.121 126.301,350.127 127.541,350.623C128.804,351.128 130.372,351.171 132.342,350.251C132.443,350.204 132.541,350.148 132.633,350.085C132.633,350.085 134.626,348.681 135.26,347.989C135.657,347.557 135.966,347.042 136.245,346.509C136.423,346.169 136.536,345.788 136.813,345.549C137.573,344.893 138.544,344.434 139.404,343.927C142.216,342.269 145.143,340.969 148.051,339.485C149.586,338.703 150.919,337.654 152.308,336.65C154.233,335.257 156.195,333.82 157.893,332.151C161.517,328.591 165.323,320.978 168.132,316.732C171.89,311.049 174.581,308.485 178.82,303.11C181.366,299.882 192.64,290.088 193.076,289.699C195.276,287.734 197.82,286.123 199.911,284.032C208.129,275.814 216.204,267.635 223.238,258.35C224.754,256.35 226.23,254.126 227.619,251.774ZM224.135,249.807C222.839,251.998 221.463,254.07 220.05,255.935C213.127,265.073 205.171,273.115 197.082,281.204C195.045,283.242 192.556,284.8 190.412,286.715C189.96,287.118 178.316,297.29 175.679,300.633C171.359,306.111 168.626,308.733 164.795,314.525C162.113,318.58 158.551,325.898 155.09,329.298C153.533,330.827 151.728,332.132 149.963,333.409C148.742,334.292 147.583,335.234 146.233,335.922C143.252,337.443 140.254,338.782 137.372,340.482C136.312,341.107 135.138,341.711 134.201,342.519C133.715,342.938 133.34,343.469 133.019,344.052C132.79,344.468 132.628,344.941 132.312,345.286C131.938,345.693 130.907,346.418 130.514,346.688C129.902,346.96 129.428,347.069 129.027,346.909C128.573,346.727 128.284,346.282 128.001,345.782C127.362,344.655 126.934,343.189 126.512,341.782C126.165,340.625 125.701,339.598 125.343,338.642C125.047,337.852 124.728,337.158 125.13,336.424C127.398,332.288 132.817,328.1 135.971,324.573C139.753,320.346 140.52,317.461 140.909,315.278C141.156,313.89 140.973,312.862 142.317,311.906C144.119,310.624 145.808,310.55 147.502,310.333C150.919,309.897 154.447,309.271 158.725,302.781C165.998,291.747 169.858,277.751 176.524,266.174C178.543,262.667 182.783,258.279 182.783,258.279C182.81,258.251 182.837,258.222 182.862,258.192C187.862,252.349 197.184,245.45 202.072,242.869C202.847,242.459 203.265,241.593 203.103,240.731C202.941,239.869 202.237,239.213 201.365,239.113C192.14,238.055 172.083,232.645 170.964,232.342C166.011,230.754 163.994,229.817 159.609,227.226C156.129,225.169 151.081,222.768 148.683,218.423C144.741,211.28 146.978,203.054 152.515,198.879C155.96,196.282 160.659,195.056 164.712,194.853C167.286,194.725 169.598,194.994 171.103,195.676C175.415,197.63 191.181,202.885 200.412,207.063C205.781,209.492 213.115,214.805 218.78,220.475C222.434,224.132 225.41,227.917 226.573,231.178C229.301,238.828 224.589,248.87 224.135,249.807Z" style="fill:#ebebeb;"/>
        </g>
    </g>
    <g id="leg-front1" serif:id="leg front">
        <path id="leg-front2" serif:id="leg front" d="M225.897,250.757C225.897,250.757 231.556,239.198 228.457,230.507C225.357,221.815 210.467,209.418 201.237,205.241C192.006,201.063 176.24,195.808 171.928,193.854C167.616,191.9 157.577,192.557 151.311,197.282C145.045,202.006 142.471,211.306 146.932,219.389C149.508,224.059 154.852,226.738 158.591,228.947C163.146,231.639 165.234,232.607 170.391,234.259C170.391,234.259 191.554,240.001 201.138,241.1C196.101,243.76 186.495,250.871 181.342,256.892C181.342,256.892 176.907,261.5 174.791,265.176C168.145,276.719 164.307,290.679 157.055,301.681C150.804,311.163 146.47,306.498 141.157,310.276C137.368,312.971 141.259,315.663 134.481,323.24C131.238,326.866 125.708,331.21 123.377,335.462C122.208,337.594 123.763,339.579 124.597,342.357C125.762,346.241 127.093,350.494 131.496,348.439C131.496,348.439 133.236,347.237 133.786,346.637C134.489,345.871 134.737,344.698 135.507,344.034C136.356,343.302 137.428,342.77 138.388,342.204C141.235,340.525 144.198,339.206 147.142,337.704C148.584,336.968 149.83,335.973 151.136,335.029C152.981,333.695 154.864,332.324 156.492,330.725C160.034,327.245 163.718,319.779 166.463,315.628C170.258,309.891 172.97,307.298 177.25,301.872C179.841,298.586 191.3,288.603 191.744,288.207C193.916,286.267 196.432,284.682 198.496,282.618C206.65,274.464 214.666,266.354 221.644,257.142C223.115,255.201 224.548,253.041 225.897,250.757Z" style="fill:#ebebeb;"/>
        <path d="M225.897,251.236L226.327,250.968C226.327,250.968 232.064,239.195 228.908,230.346C227.65,226.817 224.488,222.68 220.534,218.723C214.647,212.831 207.013,207.329 201.434,204.804C192.204,200.627 176.438,195.371 172.126,193.418C167.713,191.418 157.435,192.064 151.023,196.899C144.582,201.755 141.927,211.312 146.512,219.621C149.132,224.368 154.546,227.114 158.348,229.36C162.94,232.074 165.045,233.05 170.245,234.715C170.252,234.717 170.259,234.72 170.266,234.721C170.266,234.721 189.506,239.94 199.636,241.389C194.348,244.475 185.761,250.992 180.98,256.579C180.75,256.817 176.456,261.323 174.375,264.937C167.734,276.471 163.901,290.423 156.655,301.417C153.031,306.915 150.082,307.504 147.187,307.874C145.117,308.139 143.082,308.32 140.88,309.886C139.228,311.061 138.903,312.228 138.65,313.743C138.31,315.774 138.087,318.49 134.124,322.921C130.859,326.57 125.303,330.952 122.956,335.232C122.304,336.422 122.391,337.571 122.778,338.81C123.125,339.919 123.722,341.108 124.138,342.495C124.614,344.084 125.122,345.731 125.844,347.004C126.431,348.041 127.165,348.834 128.106,349.211C129.052,349.589 130.222,349.562 131.699,348.873C131.723,348.862 131.746,348.849 131.769,348.833C131.769,348.833 133.569,347.583 134.139,346.961C134.518,346.548 134.78,346.028 135.046,345.519C135.264,345.102 135.48,344.69 135.82,344.397C136.647,343.684 137.696,343.169 138.631,342.617C141.47,340.943 144.424,339.629 147.36,338.131C148.824,337.384 150.091,336.376 151.417,335.417C153.281,334.069 155.183,332.683 156.828,331.067C160.389,327.567 164.103,320.067 166.863,315.893C170.649,310.168 173.356,307.582 177.626,302.169C180.207,298.897 191.621,288.959 192.063,288.564C194.242,286.618 196.765,285.028 198.835,282.957C207.005,274.788 215.034,266.661 222.026,257.432C223.508,255.476 224.951,253.301 226.309,251.001L225.897,251.236ZM225.474,250.53C224.139,252.791 222.719,254.93 221.262,256.853C214.297,266.047 206.296,274.141 198.158,282.279C196.1,284.337 193.591,285.916 191.425,287.849C190.979,288.247 179.476,298.276 176.874,301.575C172.584,307.013 169.867,309.613 166.064,315.364C163.334,319.492 159.678,326.922 156.156,330.383C154.545,331.965 152.68,333.32 150.855,334.641C149.57,335.571 148.344,336.553 146.925,337.277C143.971,338.784 141,340.108 138.145,341.792C137.161,342.372 136.064,342.921 135.194,343.671C134.764,344.042 134.471,344.548 134.196,345.076C133.97,345.51 133.756,345.961 133.433,346.314C132.95,346.84 131.511,347.846 131.261,348.019C130.109,348.55 129.201,348.617 128.462,348.321C127.71,348.02 127.147,347.361 126.677,346.531C125.988,345.315 125.511,343.738 125.056,342.219C124.638,340.828 124.041,339.636 123.693,338.524C123.387,337.544 123.281,336.634 123.797,335.693C126.113,331.469 131.616,327.161 134.838,323.56C139.008,318.898 139.238,316.038 139.595,313.901C139.807,312.636 140.056,311.648 141.435,310.667C143.483,309.211 145.384,309.071 147.309,308.825C150.406,308.429 153.578,307.826 157.455,301.944C164.712,290.935 168.555,276.966 175.206,265.415C177.299,261.779 181.688,257.224 181.688,257.224C181.694,257.217 181.7,257.211 181.706,257.203C186.822,251.225 196.361,244.165 201.361,241.524C201.547,241.426 201.647,241.218 201.609,241.012C201.57,240.805 201.401,240.648 201.192,240.624C191.76,239.542 171.086,233.951 170.528,233.8C165.42,232.163 163.35,231.202 158.835,228.535C155.158,226.362 149.885,223.749 147.351,219.158C143.015,211.3 145.508,202.257 151.6,197.665C155.284,194.887 160.301,193.551 164.637,193.335C167.496,193.192 170.058,193.533 171.73,194.29C176.042,196.244 191.809,201.5 201.039,205.677C206.537,208.165 214.055,213.594 219.856,219.4C223.694,223.241 226.784,227.243 228.005,230.667C230.981,239.012 225.709,250.046 225.474,250.53Z" style="fill:url(#_Linear1);"/>
        <path d="M146.32,196.909C146.32,196.909 141.782,207.573 152.241,218.514C162.7,229.454 172.491,229.53 181.524,230.001C190.477,230.467 202.504,238.786 202.629,241.225C202.629,241.225 202.374,243.71 201.295,244.56C196.627,248.234 183.838,255.504 179.452,262.751C174.051,271.674 170.8,284.097 170.565,290.34C170.33,296.582 170.565,295.408 174.557,293.295C178.549,291.181 192.403,279.676 198.273,274.51C204.143,269.344 220.109,257.134 222.341,253.377C224.572,249.62 229.747,244.943 228.329,239.743C226.737,233.905 227.692,233.276 227.989,231.845C228.109,231.265 227.783,229.548 227.267,228.582C227.267,228.582 228.536,231.048 228.834,231.796C229.675,233.906 230.189,236.108 230.139,238.387C230.118,239.319 230.017,240.252 229.848,241.18C229.363,242.769 228.076,246.986 225.897,250.757C224.548,253.041 223.115,255.201 221.644,257.142C214.666,266.354 206.65,274.464 198.496,282.618C196.432,284.682 193.916,286.267 191.744,288.207C191.3,288.603 179.841,298.586 177.25,301.872C172.97,307.298 170.258,309.891 166.463,315.628C163.718,319.779 160.034,327.245 156.492,330.725C154.864,332.324 152.981,333.695 151.136,335.029C149.83,335.973 148.584,336.968 147.142,337.704C144.198,339.206 141.235,340.525 138.388,342.204C137.428,342.77 136.356,343.302 135.507,344.034C134.737,344.698 134.081,346.798 133.699,347.765C133.356,348.633 131.49,350.179 131.318,349.955C129.216,350.761 126.395,348.356 126.856,347.34C126.607,349.329 131.739,349.053 132.122,346.476C132.249,345.625 132.33,344.763 132.404,343.906C132.648,341.107 133.733,338.78 136.164,337.233C140.201,334.664 145.272,334.267 149.486,331.959C153.062,330.001 155.421,326.492 157.58,323.162C158.671,321.481 159.621,319.582 160.335,317.709C160.675,316.817 160.834,315.711 160.263,314.868C159.711,314.054 158.603,313.919 157.708,313.883C155.625,313.8 151.909,316.079 151.497,313.996C151.268,312.841 150.614,312.369 149.394,312.762C149.266,312.803 147.066,313.6 146.499,315.534C145.906,317.552 147.489,320.616 147.382,320.523C147.279,320.432 144.859,318.004 145.189,316.024C145.577,313.703 148.208,311.744 148.075,311.652C146.567,310.6 144.651,310.606 142.971,311.221C139.132,312.625 140.052,317.938 138.216,320.972C136.914,323.123 134.778,324.455 132.928,326.081C129.606,329 123.469,335.473 123.377,335.462C125.708,331.21 131.238,326.866 134.481,323.24C141.259,315.663 137.368,312.971 141.157,310.276C146.47,306.498 150.804,311.163 157.055,301.681C164.307,290.679 168.145,276.719 174.791,265.176C175.826,263.378 178.683,257.968 181.418,254.974C187.77,248.016 201.441,241.013 201.441,241.013C201.441,241.013 181.131,236.581 172.807,234.922C164.8,233.326 154.328,229.721 146.903,219.745C141.912,213.039 143.996,201.836 146.32,196.909Z" style="fill:#151212;"/>
        <path d="M147.697,311.717C146.297,310.867 144.577,310.911 143.061,311.466C141.23,312.136 140.553,313.753 140.096,315.55C139.61,317.458 139.37,319.57 138.44,321.107C137.124,323.282 134.97,324.634 133.1,326.277C130.114,328.901 124.85,334.402 123.759,335.468C123.622,335.603 123.532,335.676 123.508,335.689C123.436,335.729 123.378,335.726 123.347,335.722C123.26,335.712 123.184,335.66 123.144,335.583C123.104,335.505 123.105,335.413 123.147,335.337C125.488,331.069 131.031,326.704 134.286,323.066C138.296,318.582 138.521,315.834 138.865,313.778C139.108,312.321 139.416,311.194 141.006,310.063C143.173,308.522 145.178,308.35 147.215,308.09C150.156,307.714 153.155,307.122 156.836,301.537C164.086,290.539 167.921,276.584 174.564,265.046C175.604,263.239 178.477,257.806 181.225,254.797C186.779,248.714 197.907,242.592 200.684,241.115C197.04,240.322 180.158,236.654 172.756,235.179C164.698,233.573 154.165,229.94 146.693,219.901C144.666,217.178 143.783,213.726 143.611,210.241C143.354,205.045 144.676,199.781 146.083,196.797C146.144,196.668 146.297,196.612 146.427,196.67C146.557,196.728 146.616,196.88 146.56,197.011C146.56,197.011 142.104,207.533 152.43,218.333C162.825,229.207 172.56,229.272 181.538,229.74C187.856,230.069 195.695,234.27 199.871,237.609C200.957,238.477 201.797,239.289 202.304,239.959C202.677,240.452 202.873,240.883 202.89,241.212C202.89,241.225 202.89,241.238 202.889,241.252C202.889,241.252 202.794,242.175 202.478,243.103C202.257,243.752 201.924,244.397 201.456,244.765C198.656,246.97 192.932,250.469 187.853,254.481C184.494,257.134 181.416,260.011 179.676,262.886C174.299,271.769 171.06,284.135 170.826,290.349C170.757,292.199 170.726,293.389 170.828,294.093C170.857,294.296 170.896,294.454 170.953,294.569C170.987,294.638 171.024,294.687 171.078,294.71C171.14,294.736 171.215,294.729 171.305,294.71C171.44,294.681 171.596,294.619 171.778,294.532C172.385,294.243 173.242,293.695 174.435,293.064C178.418,290.955 192.242,279.469 198.1,274.314C202.209,270.698 211.265,263.631 217.093,258.427C219.564,256.221 221.454,254.358 222.116,253.243C223.232,251.364 225.084,249.255 226.48,246.965C227.837,244.739 228.766,242.341 228.077,239.811C226.46,233.883 227.431,233.245 227.733,231.792C227.843,231.263 227.548,229.737 227.089,228.808L227.034,228.702C226.968,228.574 227.018,228.417 227.145,228.351C227.272,228.284 227.429,228.332 227.497,228.459C227.516,228.494 227.534,228.53 227.553,228.567C227.798,229.047 228.814,231.038 229.077,231.699C229.931,233.842 230.451,236.079 230.4,238.392C230.379,239.339 230.277,240.285 230.105,241.227C230.103,241.237 230.101,241.247 230.098,241.257C229.61,242.854 228.315,247.096 226.123,250.888C226.123,250.889 226.122,250.889 226.122,250.89C224.768,253.183 223.329,255.351 221.852,257.3C214.867,266.521 206.844,274.641 198.681,282.803C196.614,284.871 194.094,286.459 191.918,288.402C191.475,288.797 180.04,298.756 177.455,302.034C173.181,307.453 170.471,310.042 166.681,315.772C163.928,319.936 160.228,327.421 156.675,330.911C155.038,332.52 153.144,333.899 151.289,335.241C149.973,336.193 148.715,337.195 147.261,337.937C144.321,339.437 141.363,340.753 138.521,342.43C137.574,342.988 136.515,343.51 135.678,344.232C135.391,344.479 135.128,344.944 134.885,345.466C134.496,346.302 134.17,347.284 133.942,347.861C133.651,348.597 132.334,349.8 131.722,350.127C131.563,350.212 131.432,350.242 131.352,350.238C131.338,350.237 131.325,350.236 131.315,350.234C130.7,350.442 130.034,350.412 129.398,350.229C128.424,349.948 127.525,349.307 127.015,348.669C126.594,348.143 126.449,347.604 126.618,347.232C126.672,347.114 126.803,347.053 126.927,347.088C127.051,347.124 127.132,347.244 127.115,347.372C127.079,347.665 127.204,347.89 127.424,348.049C127.691,348.241 128.078,348.346 128.51,348.376C129.331,348.434 130.314,348.218 131.015,347.721C131.455,347.409 131.783,346.983 131.864,346.438C131.99,345.591 132.07,344.735 132.144,343.883C132.395,341 133.519,338.606 136.024,337.012C138.062,335.715 140.36,334.964 142.682,334.248C144.964,333.545 147.269,332.875 149.36,331.73C152.898,329.793 155.224,326.314 157.361,323.02C158.442,321.354 159.383,319.472 160.091,317.616C160.402,316.799 160.569,315.786 160.047,315.014C159.805,314.658 159.439,314.456 159.038,314.333C158.602,314.2 158.124,314.161 157.698,314.144C157.096,314.12 156.353,314.305 155.596,314.516C154.799,314.738 153.988,314.99 153.299,315.091C152.228,315.247 151.435,315.032 151.24,314.046C151.143,313.556 150.972,313.202 150.68,313.021C150.388,312.84 149.991,312.844 149.474,313.011C149.353,313.049 147.282,313.791 146.749,315.607C146.548,316.295 146.619,317.111 146.78,317.87C147.031,319.053 147.508,320.102 147.611,320.366C147.655,320.478 147.647,320.553 147.644,320.571C147.629,320.651 147.587,320.699 147.547,320.731C147.497,320.77 147.436,320.792 147.362,320.785C147.327,320.782 147.271,320.773 147.21,320.719C147.146,320.663 146.218,319.739 145.561,318.565C145.108,317.755 144.79,316.828 144.932,315.981C145.113,314.891 145.763,313.875 146.417,313.081C146.927,312.463 147.435,311.984 147.697,311.717ZM228.248,231.132C228.397,231.445 228.521,231.717 228.591,231.893C229.419,233.97 229.927,236.138 229.877,238.381C229.857,239.292 229.759,240.204 229.595,241.111L229.593,241.119C229.108,242.709 227.831,246.888 225.671,250.625C224.328,252.9 222.901,255.051 221.436,256.985C214.465,266.187 206.457,274.288 198.312,282.433C196.251,284.494 193.739,286.075 191.57,288.012C191.125,288.409 179.642,298.417 177.045,301.71C172.76,307.143 170.044,309.739 166.245,315.484C163.509,319.623 159.84,327.069 156.309,330.538C154.69,332.128 152.817,333.49 150.982,334.817C149.688,335.754 148.453,336.742 147.024,337.471C144.074,338.976 141.107,340.298 138.255,341.979C137.282,342.553 136.196,343.094 135.336,343.836C135.007,344.12 134.691,344.645 134.411,345.245C134.017,346.091 133.687,347.085 133.456,347.669C133.229,348.242 132.289,349.121 131.695,349.529C131.583,349.606 131.446,349.675 131.388,349.703C131.335,349.689 131.278,349.69 131.224,349.711C130.085,350.148 128.726,349.549 127.87,348.803C128.058,348.851 128.261,348.883 128.474,348.898C129.406,348.963 130.521,348.712 131.317,348.147C131.875,347.752 132.278,347.206 132.381,346.514C132.508,345.658 132.59,344.79 132.665,343.929C132.901,341.214 133.947,338.954 136.305,337.453C138.303,336.181 140.559,335.45 142.836,334.748C145.152,334.034 147.489,333.351 149.611,332.189C153.225,330.21 155.617,326.669 157.8,323.304C158.9,321.608 159.859,319.692 160.579,317.803C160.948,316.834 161.099,315.635 160.479,314.721C159.881,313.838 158.69,313.661 157.719,313.622C156.456,313.571 154.597,314.373 153.223,314.574C152.481,314.682 151.888,314.628 151.753,313.945C151.621,313.28 151.351,312.822 150.955,312.576C150.557,312.33 150.017,312.287 149.314,312.513C149.178,312.557 146.85,313.408 146.248,315.46C146.023,316.226 146.089,317.134 146.268,317.978C146.363,318.424 146.488,318.851 146.615,319.227C146.412,318.953 146.203,318.642 146.017,318.309C145.623,317.605 145.324,316.804 145.447,316.067C145.614,315.068 146.221,314.142 146.821,313.414C147.448,312.653 148.073,312.102 148.239,311.9C148.428,311.669 148.292,311.484 148.225,311.437C146.645,310.336 144.64,310.332 142.881,310.975C140.874,311.71 140.091,313.451 139.589,315.421C139.116,317.279 138.898,319.34 137.993,320.837C136.705,322.965 134.585,324.276 132.755,325.885C130.557,327.817 127.125,331.304 125.026,333.443C127.723,329.914 131.988,326.418 134.676,323.414C138.799,318.805 139.027,315.978 139.38,313.865C139.601,312.543 139.868,311.515 141.309,310.489C143.392,309.008 145.324,308.859 147.281,308.609C150.332,308.219 153.454,307.619 157.273,301.825C164.528,290.819 168.369,276.853 175.017,265.307C176.048,263.517 178.889,258.131 181.611,255.15C187.938,248.219 201.56,241.245 201.56,241.245C201.659,241.195 201.715,241.088 201.7,240.979C201.686,240.87 201.605,240.781 201.497,240.757C201.497,240.757 181.183,236.325 172.858,234.666C164.901,233.08 154.491,229.503 147.112,219.589C145.146,216.947 144.3,213.595 144.133,210.216C143.972,206.959 144.442,203.675 145.162,200.963L145.16,200.971C144.772,205.125 145.516,211.858 152.052,218.694C162.576,229.702 172.422,229.788 181.511,230.262C187.727,230.586 195.435,234.732 199.544,238.017C200.589,238.852 201.399,239.63 201.887,240.274C202.169,240.647 202.344,240.963 202.366,241.216C202.351,241.357 202.253,242.144 201.983,242.935C201.796,243.485 201.53,244.042 201.133,244.354C198.333,246.559 192.608,250.058 187.529,254.07C184.117,256.766 180.997,259.694 179.228,262.616C173.803,271.579 170.54,284.059 170.304,290.33C170.22,292.556 170.203,293.857 170.38,294.514C170.482,294.894 170.657,295.1 170.875,295.192C171.081,295.279 171.352,295.265 171.697,295.136C172.321,294.901 173.268,294.273 174.679,293.526C178.679,291.408 192.563,279.882 198.446,274.706C202.555,271.09 211.612,264.021 217.442,258.817C219.967,256.562 221.889,254.65 222.565,253.51C223.681,251.633 225.532,249.525 226.926,247.237C228.36,244.886 229.31,242.345 228.581,239.674C227.013,233.926 227.953,233.307 228.245,231.898C228.281,231.725 228.28,231.454 228.248,231.132Z" style="fill:#151212;"/>
    </g>
    <g id="arm-front" serif:id="arm front">
        <path id="arm-front1" serif:id="arm front" d="M251.701,220.311C253.67,221.603 258.897,217.737 261.279,224.234C263.451,230.155 258.647,227.392 258.516,230.155C258.384,232.919 260.2,230.939 260.203,231.71C260.205,232.173 260.134,231.641 260.272,232.71C260.41,233.78 262.253,232.954 262.464,233.085C262.693,233.225 262.248,233.937 262.747,234.127C263.376,234.367 264.506,233.954 264.73,233.983C264.954,234.012 264.563,234.578 265.034,234.824C265.244,234.934 266.097,234.663 266.241,234.279C266.386,233.896 270.722,229.934 271.128,229.554C272.284,228.473 271.453,220.872 269.879,219.723C267.782,218.191 263.42,215.029 261.057,213.668C259.84,212.967 258.21,213.272 256.685,213.309C254.9,213.352 248.773,202.626 246.078,198.141C244.098,194.847 240.374,185.263 237.787,180.196C235.2,175.129 232.24,170.464 231.011,167.838C229.846,165.348 227.766,164.48 225.287,160.761C222.807,157.042 217.256,140.387 214.291,133.811C211.327,127.235 209.278,119.473 208.685,115.754C208.093,112.035 208.484,111.373 208.464,110.401C208.443,109.334 208.797,107.485 208.38,105.849C207.233,101.342 195.593,99.453 189.815,105.464C181.623,113.985 186.529,129.147 188.895,133.689C191.59,138.861 208.063,160.346 208.274,163.82C208.484,167.294 210.519,170.894 212.55,172.263C214.582,173.631 213.736,174.551 215.875,179.678C218.089,184.987 242.913,209.31 249.153,216.088C250.126,217.145 250.181,219.314 251.701,220.311Z" style="fill:#ebebeb;stroke:url(#_Linear2);stroke-width:1px;"/>
        <path id="arm-front2" serif:id="arm front" d="M251.58,220.664C252.721,221.413 253.298,221.369 254.526,221.999C254.938,222.21 256.81,223.274 257.712,223.749C258.389,224.105 262.031,226.448 262.163,225.887C262.536,224.306 261.86,221.324 261.163,220.445C260.056,219.047 258.593,219.434 258.549,219.347C258.41,219.068 253.892,219.074 253.373,218.775C252.156,218.074 251.938,215.389 250.412,215.426C248.627,215.469 227.21,191.837 224.515,187.352C223.376,185.457 224.724,187.803 222.291,183.685C220.495,180.645 220.131,176.6 219.032,174.449C218.245,172.909 219.667,164.872 213.463,162.048C212.986,161.83 215.144,163.352 215.867,165.54C216.833,168.465 216.446,171.471 215.956,170.425C214.791,167.936 214.847,170.9 211.645,166.257C209.107,162.578 205.855,154.931 202.891,148.355C201.321,144.873 198.274,139.533 197.092,137.413C196.042,135.53 193.111,133.104 192.089,130.808C190.557,127.368 189.716,122.003 188.729,117.372C188.066,114.263 188.32,108.197 192.766,101.26C192.766,101.26 191.191,102.665 189.866,104.616C181.383,117.11 186.529,129.147 188.895,133.689C191.59,138.861 208.063,160.346 208.274,163.82C208.484,167.294 210.519,170.894 212.55,172.263C214.582,173.631 213.736,174.551 215.875,179.678C218.089,184.987 242.913,209.31 249.153,216.088C250.126,217.145 250.06,219.667 251.58,220.664Z" style="fill:#151212;"/>
    </g>
    <defs>
        <linearGradient id="_Linear1" x1="0" y1="0" x2="1" y2="0" gradientUnits="userSpaceOnUse" gradientTransform="matrix(-7.16374,-45.5061,66.7666,-10.5106,181.202,241.623)"><stop offset="0" style="stop-color:#000;stop-opacity:1"/><stop offset="0.87" style="stop-color:#0d0d0d;stop-opacity:0.95"/><stop offset="1" style="stop-color:#fff;stop-opacity:0"/></linearGradient>
        <linearGradient id="_Linear2" x1="0" y1="0" x2="1" y2="0" gradientUnits="userSpaceOnUse" gradientTransform="matrix(24.909,119.875,-184.044,38.2429,196.286,101.459)"><stop offset="0" style="stop-color:#151212;stop-opacity:0"/><stop offset="0.07" style="stop-color:#161313;stop-opacity:0.15"/><stop offset="0.09" style="stop-color:#191616;stop-opacity:0.54"/><stop offset="0.1" style="stop-color:#1d1a1a;stop-opacity:1"/><stop offset="1" style="stop-color:#161313;stop-opacity:1"/></linearGradient>
    </defs>
</svg>
