<?xml version="1.0" encoding="UTF-8" standalone="no"?>
<!DOCTYPE svg PUBLIC "-//W3C//DTD SVG 1.1//EN" "http://www.w3.org/Graphics/SVG/1.1/DTD/svg11.dtd">
<svg width="100%" height="100%" viewBox="0 0 494 378" version="1.1" xmlns="http://www.w3.org/2000/svg" xmlns:xlink="http://www.w3.org/1999/xlink" xml:space="preserve" xmlns:serif="http://www.serif.com/" style="fill-rule:evenodd;clip-rule:evenodd;stroke-linecap:round;stroke-linejoin:round;stroke-miterlimit:1.5;">
    <rect id="Artboard1" x="0" y="0" width="493.979" height="377.604" style="fill:none;"/>
    <g>
        <g>
            <path d="M10.519,243.281L10.279,243.666L17.384,252.126C17.384,252.126 31.155,253.992 36.093,243.883C40.336,235.197 44.688,223.675 43.237,190.343C42.23,167.204 41.95,160.366 32.189,153.642C31.953,153.479 31.719,153.331 31.488,153.197C30.9,152.66 30.229,152.258 29.42,151.857C27.131,150.724 14.653,157.638 10.961,158.134L10.657,177.419L13.238,177.722L13.39,222.821L10.961,222.821L10.519,243.281Z" style="fill:none;stroke:#ebebeb;stroke-width:8px;"/>
            <path d="M60.042,141.914L65.664,155.033L65.393,172.658L62.953,173.194L62.139,214.416L65.664,219.568L65.393,247.226C59.246,245.325 53.989,246.178 50.063,248.721L44.085,238.536L44.218,238.256C44.124,238.299 44.031,238.342 43.937,238.386L43.937,217.006L47.474,214.914L47.948,167.17L44.909,166.228L45.394,144.362L54.627,144.119L59.972,140.231L60.042,141.914Z" style="fill:none;stroke:#ebebeb;stroke-width:8px;"/>
            <path d="M105.859,125.697L111.638,135.054L111.222,160.182L105.807,161.154L97.477,241.954C93.827,241.373 90.53,242.027 87.62,244.037L82.622,232.514L82.63,232.375L82.527,232.444L72.031,160.296L68.533,160.918L68.533,138.177L80.583,133.512L80.679,134.331L88.968,149.172L90.652,128.964L97.843,129.042L105.851,124.766L105.859,125.697Z" style="fill:none;stroke:#ebebeb;stroke-width:8px;"/>
            <path d="M154.651,106.15C154.656,105.858 154.662,105.708 154.668,105.722C154.722,105.85 154.715,105.993 154.651,106.15L154.648,106.374C154.647,106.47 154.645,106.566 154.644,106.662L154.643,106.841L154.799,106.686L160.768,121.541L160.768,158.053L149.523,159.997L149.245,179.295L153.51,180.412L155.513,180.315L156.997,207.139L158.825,232.19C144.224,231.75 132.054,233.741 123.006,238.854C123.006,238.854 113.804,225.973 113.588,226.08L113.297,202.205L118.156,197.848L117.428,145.11L113.297,144.138L113.783,119.6C115.037,123.151 153.037,110.134 154.651,106.15Z" style="fill:none;stroke:#ebebeb;stroke-width:8px;"/>
            <path d="M288.548,65.624L288.563,65.6L298.325,83.171L297.457,107.901L291.817,106.382L290.299,165.169L297.024,171.677L295.505,208.12C289.558,205.842 280.989,206.71 269.257,211.374L258.993,199.613L258.764,199.714L259.274,168.131L265.172,164.094L266.487,101.925L260.033,101.628L261.552,72.018L275.218,72.018L288.505,64.426L288.548,65.624Z" style="fill:none;stroke:#ebebeb;stroke-width:8px;"/>
            <path d="M372.424,40.95L381.446,54.232L381.446,82.703L372.769,86.228L373.853,152.662L380.361,158.627L379.276,197.403C370.034,195.284 362.306,195.815 355.957,198.758L336.434,160.525L336.434,203.097C328.548,202.577 320.368,203.526 311.758,206.622L302.987,193.863C302.707,193.996 302.425,194.132 302.141,194.27L301.667,166.232L309.259,158.681L309.259,90.824L302.616,90.824L303.565,59.979C311.201,60.987 318.074,58.182 324.444,52.862L325.627,55.559L340.742,69.475L342.001,49.065C354.292,48.461 364.202,44.177 372.371,37.202L372.424,40.95Z" style="fill:none;stroke:#ebebeb;stroke-width:8px;"/>
            <path d="M475.4,6.327L475.714,6.028L489.25,21.994L489.25,53.925L477.796,57.743L478.143,133.407L488.209,141.043L486.82,185.469C474.226,183.036 464.244,183.737 456.277,186.857L431.288,140.696L431.635,192.063C422.225,190.462 412.005,191.698 400.744,196.575L387.456,181.019L387.556,150.139L397.046,144.919L397.521,68.521L389.454,65.199L389.454,34.355C401.358,32.114 410.263,28.187 416.027,22.492L417.132,24.752L437.155,40.325L437.381,17.747C449.4,17.342 462.067,12.828 475.343,4.46L475.4,6.327Z" style="fill:none;stroke:#ebebeb;stroke-width:8px;"/>
        </g>
        <g id="Dive-Inn-Sides" serif:id="Dive Inn Sides">
            <path d="M10.279,242.666L17.384,251.126C17.384,251.126 31.155,252.992 36.093,242.883C40.336,234.197 44.688,222.675 43.237,189.343C42.23,166.204 41.95,159.366 32.189,152.642C22.427,145.917 16.57,164.356 16.57,164.356L17.438,231.169L10.279,242.666Z" style="fill:#de2726;stroke:#151212;stroke-width:2.5px;"/>
            <path d="M62.139,213.416L65.664,218.568L65.393,246.226C59.246,244.325 53.989,245.178 50.063,247.721L44.085,237.536L52.106,220.737L52.378,153.219L59.699,141.831L59.97,140.746L65.664,154.033L65.393,171.658L62.953,172.194L62.139,213.416Z" style="fill:#de2726;stroke:#151212;stroke-width:2.5px;"/>
            <path d="M80.54,133.082L89.147,148.492L105.807,124.613L111.638,134.054L111.222,159.182L105.807,160.154L97.477,240.954C93.827,240.373 90.53,241.027 87.62,243.037L82.622,231.514L85.815,177.924L80.54,133.082Z" style="fill:#de2726;stroke:#151212;stroke-width:2.5px;"/>
            <path d="M154.799,105.686L160.768,120.541L160.768,157.053L149.523,158.997L149.245,178.295L155.076,179.822L158.825,231.19C144.224,230.75 132.054,232.741 123.006,237.854L115.055,225.498L124.95,200.647L124.394,135.951L154.799,105.686Z" style="fill:#de2726;stroke:#151212;stroke-width:2.5px;"/>
            <path d="M258.845,198.443L269.257,210.374C280.989,205.71 289.558,204.842 295.505,207.12L297.024,170.677L290.299,164.169L291.817,105.382L297.457,106.901L298.325,82.171L288.563,64.6L276.85,82.605L273.813,155.926L258.845,198.443Z" style="fill:#de2726;stroke:#151212;stroke-width:2.5px;"/>
            <path d="M303.337,192.958L311.758,205.622C320.368,202.526 328.548,201.577 336.434,202.097L338.043,157.614C343.503,171.379 349.424,184.798 355.957,197.758C362.306,194.815 370.034,194.284 379.276,196.403L380.361,157.627L373.853,151.662L372.769,85.228L381.446,81.703L381.446,53.232L371.684,38.861L341.857,69.501L324.774,53.774L319.351,158.983L303.337,192.958Z" style="fill:#de2726;stroke:#151212;stroke-width:2.5px;"/>
            <path d="M388.25,180.998L400.744,195.575C412.005,190.698 422.225,189.462 431.635,191.063L431.68,136.552L456.277,185.857C464.244,182.737 474.226,182.036 486.82,184.469L488.209,140.043L478.143,132.407L477.796,56.743L489.25,52.925L489.25,20.994L475.714,5.028L438.576,40.431L416.71,23.424L408.727,138.307L388.25,180.998Z" style="fill:#de2726;stroke:#151212;stroke-width:2.5px;"/>
        </g>
        <g id="Dive-Inn-Face" serif:id="Dive Inn Face">
            <path d="M10.161,156.734L10.657,176.419L13.238,176.722L13.39,221.821L10.961,221.821L9.192,242.336C9.192,242.336 26.784,243.637 30.689,238.75C34.888,233.496 37.686,227.136 38.597,203.296C39.508,179.456 37.838,171.863 35.712,162.904C33.586,153.945 30.629,150.968 27.319,150.015C25.029,149.356 13.932,154.878 10.161,156.734ZM23.104,172.167L23.104,219.999C23.104,219.999 25.969,220.753 27.032,218.627C28.095,216.501 29.13,178.914 27.057,173.382C25.685,169.723 23.104,172.167 23.104,172.167Z" style="fill:#151212;"/>
            <path d="M45.394,143.362L54.627,143.119L59.485,139.676L60.944,162.555L57.785,163.527L57.163,212.017L61.187,214.085L60.701,234.956C55.699,234.007 49.328,234.531 43.03,237.468L43.937,216.006L47.474,213.914L47.948,166.17L44.909,165.228L45.394,143.362Z" style="fill:#151212;"/>
            <path d="M68.533,137.177L80.318,131.93L85.841,177.574L86.534,177.398L90.652,127.964L97.843,128.042L105.851,123.766L106.084,149.616L100.914,150.421L92.401,228.84L86.026,229.112L82.527,231.444L72.031,159.296L68.533,159.918L68.533,137.177Z" style="fill:#151212;"/>
            <path d="M118.156,196.848L117.428,144.11L113.297,143.138L113.783,118.6C115.086,122.291 156.096,108.08 154.668,104.722C154.573,104.499 154.6,144.839 154.6,144.839L142.452,148.241L141.995,135.5L131.519,139.231L131.655,153.997C134.453,154.768 137.681,154.109 141.723,150.732L141.48,177.605C137.095,177.685 133.365,179.508 131.053,181.662L131.101,195.092L142.19,193.411L142.695,179.932L155.513,179.315L157.758,219.913C143.1,216.835 128.442,218.455 113.783,225.744L113.297,201.205L118.156,196.848Z" style="fill:#151212;"/>
            <path d="M261.552,71.018C270.5,72.448 278.921,69.836 287.869,63.755L289.644,94.934L283.19,98.351L282.811,162.127L288.505,165.232L290.011,194.858C278.25,192.544 271.623,193.002 258.764,198.714L259.274,167.131L265.172,163.094L266.487,100.925L260.033,100.628L261.552,71.018Z" style="fill:#151212;"/>
            <path d="M303.565,58.979C311.201,59.987 318.357,58.199 324.727,52.879L339.629,86.502L342.001,48.065C352.286,46.864 362.158,43.391 371.693,38.068L372.846,69.894L364.779,72.741L363.83,147.716L371.897,151.037L369.998,179.978L347.221,182.356L328.715,137.808L327.766,188.309C320.5,186.774 311.938,188.477 302.141,193.27L301.667,165.232L309.259,157.681L309.259,89.824L302.616,89.824L303.565,58.979Z" style="fill:#151212;"/>
            <path d="M389.454,33.355C398.531,32.204 407.147,28.289 416.032,22.533L436.906,64.199L437.381,16.747C449.672,15.64 462.409,11.187 475.538,3.793L476.504,41.155L467.276,44.744L466.327,128.26L475.343,133.954L475.343,164.324C464.894,164.898 455.896,166.439 449.244,169.544L420.773,120.193L420.298,176.187C410.775,174.327 397.758,175.455 386.969,181.187L387.556,149.139L397.046,143.919L397.521,67.521L389.454,64.199L389.454,33.355Z" style="fill:#151212;"/>
        </g>
    </g>
    <g id="outline">
    </g>
</svg>
