<?xml version="1.0" encoding="UTF-8" standalone="no"?>
<!DOCTYPE svg PUBLIC "-//W3C//DTD SVG 1.1//EN" "http://www.w3.org/Graphics/SVG/1.1/DTD/svg11.dtd">
<svg width="100%" height="100%" viewBox="0 0 794 291" version="1.1" xmlns="http://www.w3.org/2000/svg" xmlns:xlink="http://www.w3.org/1999/xlink" xml:space="preserve" xmlns:serif="http://www.serif.com/" style="fill-rule:evenodd;clip-rule:evenodd;stroke-linejoin:round;stroke-miterlimit:2;">
    <g id="Diver-down-flag" serif:id="Diver down flag">
    </g>
    <g id="g186">
    </g>
    <g id="Filigree">
    </g>
    <rect id="Artboard35" x="0" y="0" width="793.332" height="290.958" style="fill:none;"/>
    <g>
        <path d="M792.145,203.163C791.015,211.346 729.746,249.351 662.286,270.854C592.581,293.073 541.673,290.986 383.26,286.318C115.118,278.418 77.995,275.09 77.995,275.09C69.463,253.673 45.558,242.951 8.046,241.02C-0.582,233.139 -2.334,225.64 3.119,218.542L46.982,207.624C58.907,188.057 93.742,175.867 121.918,170.64L282.769,154.529C337.384,131.246 401.547,109.669 469.508,110.818L563.385,153.612C645.451,152.918 790.487,172.812 792.145,203.163ZM369.457,161.514L379.092,126.904C397.898,122.773 418.04,119.396 436.98,117.951C452.806,128.075 482.44,152.01 501.851,163.356C454.79,171.268 407.137,166.109 369.457,161.514ZM375.062,127.805L365.706,160.923C342.861,158.475 321.332,156.139 302.593,153.68C293.261,152.456 329.667,138.134 375.062,127.805ZM458.491,116.068L527.461,159.723C519.476,160.905 515.622,161.283 507.687,162.047C489.6,152.003 459.919,128.839 442.54,117.251C447.352,116.71 453.381,116.326 458.491,116.068ZM530.303,159.154L461.255,115.936C465.896,115.727 469.249,115.636 469.249,115.636C471.552,116.022 474.926,117.602 479.77,119.901C484.414,122.105 533.691,142.106 557.275,154.319C552.081,155.463 536.032,158.282 530.303,159.154Z" style="fill:#de2726;"/>
        <g>
            <g>
                <path d="M126.535,90.009C136.739,73.644 141.379,62.719 159.338,57.254C172.592,53.22 172.446,27.932 197.368,24.89L208.698,69.057C208.698,69.057 187.017,60.591 171.194,78.41C163.164,87.452 152.093,83.185 144.62,82.733C131.634,81.947 129.847,90.282 126.535,90.009Z" style="fill:#de2726;"/>
                <path d="M192.628,6.413C187.855,3.688 170.75,-2.821 154.927,14.998C146.897,24.041 135.826,19.773 128.353,19.321C115.367,18.535 113.786,27.671 110.474,27.399L121.876,71.845C132.079,55.48 136.689,44.438 154.648,38.973C167.903,34.939 167.706,9.455 192.628,6.413Z" style="fill:#de2726;"/>
            </g>
            <path d="M223.51,223.92C224.831,149.002 214.373,75.293 189.248,3.087C189.123,2.303 189.659,1.564 190.444,1.439L193.288,0.986C194.073,0.862 194.811,1.397 194.936,2.182C218.642,70.539 229.195,144.532 229.168,223.06L223.51,223.92Z" style="fill:#de2726;"/>
        </g>
    </g>
    <path d="M585.742,154.653C533.172,152.172 499.12,164.432 446.55,164.702C395.147,164.965 325.227,153.179 273.824,156.026L273.838,159.235C325.824,155.319 395.749,166.493 446.545,166.146C499.805,165.783 533.877,154.082 585.756,157.862L585.742,154.653Z" style="fill:#de2726;"/>
    <path d="M220.532,216.494C219.177,216.494 218.06,216.172 217.182,215.528C216.305,214.883 215.866,213.961 215.866,212.761C215.866,211.561 216.305,210.65 217.182,210.028C218.06,209.405 219.188,209.094 220.566,209.094C221.944,209.094 223.066,209.4 223.932,210.011C224.799,210.622 225.232,211.539 225.232,212.761C225.232,213.961 224.788,214.883 223.899,215.528C223.01,216.172 221.888,216.494 220.532,216.494ZM214.532,235.628L214.532,230.728L216.632,230.728L216.632,223.228L214.532,223.228L214.532,219.228L224.432,218.194L224.432,230.728L226.532,230.728L226.532,235.628L214.532,235.628Z" style="fill:#151212;fill-rule:nonzero;"/>
    <path d="M264.032,230.928L264.032,235.628L253.966,235.628L253.966,224.528C253.966,224.061 253.816,223.65 253.516,223.294C253.216,222.939 252.855,222.761 252.432,222.761C251.632,222.761 251.127,223.155 250.916,223.944C250.705,224.733 250.599,225.872 250.599,227.361L250.599,235.628L242.799,235.628L242.799,224.528C242.799,224.061 242.649,223.65 242.349,223.294C242.049,222.939 241.688,222.761 241.266,222.761C240.466,222.761 239.96,223.155 239.749,223.944C239.538,224.733 239.432,225.872 239.432,227.361L239.432,230.928L239.466,230.928L239.466,235.628L229.299,235.628L229.299,230.928L231.666,230.928L231.666,223.228L229.299,223.228L229.299,218.828L239.432,217.861L239.432,220.294C240.188,219.405 241.044,218.778 241.999,218.411C242.955,218.044 244.032,217.861 245.232,217.861C247.699,217.861 249.31,218.905 250.066,220.994C250.866,219.861 251.788,219.055 252.832,218.578C253.877,218.1 255.066,217.861 256.399,217.861C259.977,217.861 261.766,220.094 261.766,224.561L261.766,230.928L264.032,230.928Z" style="fill:#151212;fill-rule:nonzero;"/>
    <path d="M271.699,235.928C270.61,235.928 269.61,235.711 268.699,235.278C267.788,234.844 267.06,234.228 266.516,233.428C265.971,232.628 265.699,231.694 265.699,230.628C265.699,229.472 266.016,228.5 266.649,227.711C267.282,226.922 268.121,226.333 269.166,225.944C270.21,225.555 271.332,225.361 272.532,225.361C273.955,225.361 275.321,225.572 276.632,225.994L276.632,225.261C276.632,224.394 276.266,223.733 275.532,223.278C274.799,222.822 273.81,222.594 272.566,222.594C271.766,222.594 270.844,222.739 269.799,223.028C268.755,223.316 267.888,223.672 267.199,224.094L266.732,223.894L266.732,219.161C268.044,218.694 269.382,218.361 270.749,218.161C272.116,217.961 273.388,217.861 274.566,217.861C281.166,217.861 284.466,219.716 284.466,223.428L284.466,230.728L285.999,230.728L285.999,235.628L277.666,235.628L276.932,232.961C276.466,233.872 275.738,234.594 274.749,235.128C273.76,235.661 272.744,235.928 271.699,235.928ZM274.766,231.761C275.121,231.761 275.488,231.7 275.866,231.578C276.244,231.455 276.499,231.328 276.632,231.194L276.632,228.461C276.477,228.439 276.216,228.378 275.849,228.278C275.482,228.178 275.166,228.128 274.899,228.128C274.321,228.128 273.86,228.305 273.516,228.661C273.171,229.016 272.999,229.494 272.999,230.094C272.999,230.539 273.16,230.928 273.482,231.261C273.805,231.594 274.232,231.761 274.766,231.761Z" style="fill:#151212;fill-rule:nonzero;"/>
    <path d="M297.832,241.961C295.521,241.961 293.077,241.628 290.499,240.961L290.499,236.261C291.944,236.705 293.138,237.044 294.082,237.278C295.027,237.511 295.955,237.628 296.866,237.628C299.488,237.628 300.799,236.328 300.799,233.728C300.199,234.261 299.466,234.711 298.599,235.078C297.732,235.444 296.755,235.628 295.666,235.628C294.088,235.628 292.755,235.233 291.666,234.444C290.577,233.655 289.76,232.594 289.216,231.261C288.671,229.928 288.399,228.45 288.399,226.828C288.399,225.161 288.677,223.65 289.232,222.294C289.788,220.939 290.61,219.861 291.699,219.061C292.788,218.261 294.11,217.861 295.666,217.861C297.799,217.861 299.51,218.783 300.799,220.628L301.966,218.194L310.266,218.194L310.266,223.228L308.699,223.228L308.699,233.428C308.699,236.25 307.71,238.378 305.732,239.811C303.755,241.244 301.121,241.961 297.832,241.961ZM298.732,231.161C299.244,231.161 299.71,231.005 300.132,230.694C300.555,230.383 300.81,230.072 300.899,229.761L300.899,223.828C300.699,223.45 300.399,223.155 299.999,222.944C299.599,222.733 299.132,222.628 298.599,222.628C297.71,222.628 296.999,223.011 296.466,223.778C295.932,224.544 295.666,225.594 295.666,226.928C295.666,228.194 295.932,229.216 296.466,229.994C296.999,230.772 297.755,231.161 298.732,231.161Z" style="fill:#151212;fill-rule:nonzero;"/>
    <path d="M322.366,235.928C320.344,235.928 318.588,235.555 317.099,234.811C315.61,234.066 314.466,233.005 313.666,231.628C312.866,230.25 312.466,228.639 312.466,226.794C312.466,224.972 312.855,223.389 313.632,222.044C314.41,220.7 315.505,219.666 316.916,218.944C318.327,218.222 319.977,217.861 321.866,217.861C323.621,217.861 325.166,218.205 326.499,218.894C327.832,219.583 328.866,220.561 329.599,221.828C330.332,223.094 330.699,224.572 330.699,226.261C330.699,226.839 330.61,227.394 330.432,227.928L320.299,227.928C320.299,228.95 320.682,229.766 321.449,230.378C322.216,230.989 323.144,231.294 324.232,231.294C325.055,231.294 325.96,231.15 326.949,230.861C327.938,230.572 328.932,230.128 329.932,229.528L330.199,229.628L330.199,233.994C329.088,234.639 327.944,235.122 326.766,235.444C325.588,235.766 324.121,235.928 322.366,235.928ZM324.466,225.061L324.466,224.728C324.466,223.95 324.288,223.283 323.932,222.728C323.577,222.172 323.055,221.894 322.366,221.894C321.788,221.894 321.299,222.178 320.899,222.744C320.499,223.311 320.299,223.928 320.299,224.594L320.299,225.061L324.466,225.061Z" style="fill:#151212;fill-rule:nonzero;"/>
    <path d="M349.999,235.928C348.021,235.928 346.288,235.55 344.799,234.794C343.31,234.039 342.155,232.972 341.332,231.594C340.51,230.216 340.099,228.594 340.099,226.728C340.099,225.039 340.444,223.522 341.132,222.178C341.821,220.833 342.805,219.778 344.082,219.011C345.36,218.244 346.844,217.861 348.532,217.861C349.488,217.861 350.505,218.033 351.582,218.378C352.66,218.722 353.344,219.239 353.632,219.928L354.299,218.194L357.832,218.194L357.832,225.394L353.132,225.394C353.044,224.528 352.788,223.85 352.366,223.361C351.944,222.872 351.421,222.628 350.799,222.628C349.866,222.628 349.155,222.922 348.666,223.511C348.177,224.1 347.932,225.183 347.932,226.761C347.932,228.383 348.355,229.505 349.199,230.128C350.044,230.75 351.01,231.061 352.099,231.061C352.877,231.061 353.721,230.922 354.632,230.644C355.544,230.366 356.355,229.928 357.066,229.328L357.299,229.494L357.299,234.028C357.299,234.072 356.966,234.261 356.299,234.594C355.632,234.928 354.755,235.233 353.666,235.511C352.577,235.789 351.355,235.928 349.999,235.928Z" style="fill:#151212;fill-rule:nonzero;"/>
    <path d="M370.499,235.928C368.544,235.928 366.821,235.566 365.332,234.844C363.844,234.122 362.688,233.066 361.866,231.678C361.044,230.289 360.632,228.639 360.632,226.728C360.632,224.839 361.044,223.228 361.866,221.894C362.688,220.561 363.844,219.555 365.332,218.878C366.821,218.2 368.544,217.861 370.499,217.861C373.499,217.861 375.899,218.633 377.699,220.178C379.499,221.722 380.399,223.905 380.399,226.728C380.399,228.639 379.988,230.289 379.166,231.678C378.344,233.066 377.188,234.122 375.699,234.844C374.21,235.566 372.477,235.928 370.499,235.928ZM370.499,231.161C371.21,231.161 371.738,230.811 372.082,230.111C372.427,229.411 372.599,228.283 372.599,226.728C372.599,225.283 372.432,224.239 372.099,223.594C371.766,222.95 371.232,222.628 370.499,222.628C369.788,222.628 369.266,222.95 368.932,223.594C368.599,224.239 368.432,225.283 368.432,226.728C368.432,228.283 368.605,229.411 368.949,230.111C369.294,230.811 369.81,231.161 370.499,231.161Z" style="fill:#151212;fill-rule:nonzero;"/>
    <path d="M418.066,230.928L418.066,235.628L407.999,235.628L407.999,224.528C407.999,224.061 407.849,223.65 407.549,223.294C407.249,222.939 406.888,222.761 406.466,222.761C405.666,222.761 405.16,223.155 404.949,223.944C404.738,224.733 404.632,225.872 404.632,227.361L404.632,235.628L396.832,235.628L396.832,224.528C396.832,224.061 396.682,223.65 396.382,223.294C396.082,222.939 395.721,222.761 395.299,222.761C394.499,222.761 393.994,223.155 393.782,223.944C393.571,224.733 393.466,225.872 393.466,227.361L393.466,230.928L393.499,230.928L393.499,235.628L383.332,235.628L383.332,230.928L385.699,230.928L385.699,223.228L383.332,223.228L383.332,218.828L393.466,217.861L393.466,220.294C394.221,219.405 395.077,218.778 396.032,218.411C396.988,218.044 398.066,217.861 399.266,217.861C401.732,217.861 403.344,218.905 404.099,220.994C404.899,219.861 405.821,219.055 406.866,218.578C407.91,218.1 409.099,217.861 410.432,217.861C414.01,217.861 415.799,220.094 415.799,224.561L415.799,230.928L418.066,230.928Z" style="fill:#151212;fill-rule:nonzero;"/>
    <path d="M425.866,216.494C424.51,216.494 423.394,216.172 422.516,215.528C421.638,214.883 421.199,213.961 421.199,212.761C421.199,211.561 421.638,210.65 422.516,210.028C423.394,209.405 424.521,209.094 425.899,209.094C427.277,209.094 428.399,209.4 429.266,210.011C430.132,210.622 430.566,211.539 430.566,212.761C430.566,213.961 430.121,214.883 429.232,215.528C428.344,216.172 427.221,216.494 425.866,216.494ZM419.866,235.628L419.866,230.728L421.966,230.728L421.966,223.228L419.866,223.228L419.866,219.228L429.766,218.194L429.766,230.728L431.866,230.728L431.866,235.628L419.866,235.628Z" style="fill:#151212;fill-rule:nonzero;"/>
    <path d="M458.199,230.928L458.199,235.628L448.132,235.628L448.132,224.528C448.132,224.061 447.982,223.65 447.682,223.294C447.382,222.939 447.021,222.761 446.599,222.761C445.799,222.761 445.294,223.155 445.082,223.944C444.871,224.733 444.766,225.872 444.766,227.361L444.766,230.928L444.799,230.928L444.799,235.628L434.632,235.628L434.632,230.928L436.999,230.928L436.999,223.228L434.632,223.228L434.632,218.828L444.766,217.861L444.766,220.294C445.521,219.405 446.377,218.778 447.332,218.411C448.288,218.044 449.366,217.861 450.566,217.861C454.144,217.861 455.932,220.094 455.932,224.561L455.932,230.928L458.199,230.928Z" style="fill:#151212;fill-rule:nonzero;"/>
    <path d="M469.299,241.961C466.988,241.961 464.544,241.628 461.966,240.961L461.966,236.261C463.41,236.705 464.605,237.044 465.549,237.278C466.494,237.511 467.421,237.628 468.332,237.628C470.955,237.628 472.266,236.328 472.266,233.728C471.666,234.261 470.932,234.711 470.066,235.078C469.199,235.444 468.221,235.628 467.132,235.628C465.555,235.628 464.221,235.233 463.132,234.444C462.044,233.655 461.227,232.594 460.682,231.261C460.138,229.928 459.866,228.45 459.866,226.828C459.866,225.161 460.144,223.65 460.699,222.294C461.255,220.939 462.077,219.861 463.166,219.061C464.255,218.261 465.577,217.861 467.132,217.861C469.266,217.861 470.977,218.783 472.266,220.628L473.432,218.194L481.732,218.194L481.732,223.228L480.166,223.228L480.166,233.428C480.166,236.25 479.177,238.378 477.199,239.811C475.221,241.244 472.588,241.961 469.299,241.961ZM470.199,231.161C470.71,231.161 471.177,231.005 471.599,230.694C472.021,230.383 472.277,230.072 472.366,229.761L472.366,223.828C472.166,223.45 471.866,223.155 471.466,222.944C471.066,222.733 470.599,222.628 470.066,222.628C469.177,222.628 468.466,223.011 467.932,223.778C467.399,224.544 467.132,225.594 467.132,226.928C467.132,228.194 467.399,229.216 467.932,229.994C468.466,230.772 469.221,231.161 470.199,231.161Z" style="fill:#151212;fill-rule:nonzero;"/>
    <path d="M500.266,235.928C498.044,235.928 496.077,235.339 494.366,234.161L493.832,235.628L490.799,235.628L490.799,229.194L494.432,229.194C494.566,230.016 494.949,230.755 495.582,231.411C496.216,232.066 496.944,232.394 497.766,232.394C498.077,232.394 498.349,232.305 498.582,232.128C498.816,231.95 498.932,231.661 498.932,231.261C498.932,230.861 498.705,230.5 498.249,230.178C497.794,229.855 497.099,229.472 496.166,229.028C495.055,228.472 494.144,227.966 493.432,227.511C492.721,227.055 492.105,226.455 491.582,225.711C491.06,224.966 490.799,224.072 490.799,223.028C490.799,221.939 491.149,221.005 491.849,220.228C492.549,219.45 493.477,218.861 494.632,218.461C495.788,218.061 497.044,217.861 498.399,217.861C500.177,217.861 501.821,218.328 503.332,219.261L503.732,218.194L506.432,218.194L506.432,223.394L503.299,223.394C503.032,222.683 502.644,222.128 502.132,221.728C501.621,221.328 501.021,221.128 500.332,221.128C499.955,221.128 499.66,221.183 499.449,221.294C499.238,221.405 499.132,221.605 499.132,221.894C499.155,222.25 499.366,222.55 499.766,222.794C500.166,223.039 500.832,223.361 501.766,223.761C502.921,224.25 503.877,224.716 504.632,225.161C505.388,225.605 506.049,226.233 506.616,227.044C507.182,227.855 507.466,228.861 507.466,230.061C507.466,231.328 507.132,232.4 506.466,233.278C505.799,234.155 504.921,234.816 503.832,235.261C502.744,235.705 501.555,235.928 500.266,235.928Z" style="fill:#151212;fill-rule:nonzero;"/>
    <path d="M520.166,235.928C518.21,235.928 516.488,235.566 514.999,234.844C513.51,234.122 512.355,233.066 511.532,231.678C510.71,230.289 510.299,228.639 510.299,226.728C510.299,224.839 510.71,223.228 511.532,221.894C512.355,220.561 513.51,219.555 514.999,218.878C516.488,218.2 518.21,217.861 520.166,217.861C523.166,217.861 525.566,218.633 527.366,220.178C529.166,221.722 530.066,223.905 530.066,226.728C530.066,228.639 529.655,230.289 528.832,231.678C528.01,233.066 526.855,234.122 525.366,234.844C523.877,235.566 522.144,235.928 520.166,235.928ZM520.166,231.161C520.877,231.161 521.405,230.811 521.749,230.111C522.094,229.411 522.266,228.283 522.266,226.728C522.266,225.283 522.099,224.239 521.766,223.594C521.432,222.95 520.899,222.628 520.166,222.628C519.455,222.628 518.932,222.95 518.599,223.594C518.266,224.239 518.099,225.283 518.099,226.728C518.099,228.283 518.271,229.411 518.616,230.111C518.96,230.811 519.477,231.161 520.166,231.161Z" style="fill:#151212;fill-rule:nonzero;"/>
    <path d="M542.399,235.928C540.444,235.928 538.721,235.566 537.232,234.844C535.744,234.122 534.588,233.066 533.766,231.678C532.944,230.289 532.532,228.639 532.532,226.728C532.532,224.839 532.944,223.228 533.766,221.894C534.588,220.561 535.744,219.555 537.232,218.878C538.721,218.2 540.444,217.861 542.399,217.861C545.399,217.861 547.799,218.633 549.599,220.178C551.399,221.722 552.299,223.905 552.299,226.728C552.299,228.639 551.888,230.289 551.066,231.678C550.244,233.066 549.088,234.122 547.599,234.844C546.11,235.566 544.377,235.928 542.399,235.928ZM542.399,231.161C543.11,231.161 543.638,230.811 543.982,230.111C544.327,229.411 544.499,228.283 544.499,226.728C544.499,225.283 544.332,224.239 543.999,223.594C543.666,222.95 543.132,222.628 542.399,222.628C541.688,222.628 541.166,222.95 540.832,223.594C540.499,224.239 540.332,225.283 540.332,226.728C540.332,228.283 540.505,229.411 540.849,230.111C541.194,230.811 541.71,231.161 542.399,231.161Z" style="fill:#151212;fill-rule:nonzero;"/>
    <path d="M578.799,230.928L578.799,235.628L568.732,235.628L568.732,224.528C568.732,224.061 568.582,223.65 568.282,223.294C567.982,222.939 567.621,222.761 567.199,222.761C566.399,222.761 565.894,223.155 565.682,223.944C565.471,224.733 565.366,225.872 565.366,227.361L565.366,230.928L565.399,230.928L565.399,235.628L555.232,235.628L555.232,230.928L557.599,230.928L557.599,223.228L555.232,223.228L555.232,218.828L565.366,217.861L565.366,220.294C566.121,219.405 566.977,218.778 567.932,218.411C568.888,218.044 569.966,217.861 571.166,217.861C574.744,217.861 576.532,220.094 576.532,224.561L576.532,230.928L578.799,230.928Z" style="fill:#151212;fill-rule:nonzero;"/>
</svg>
