<?xml version="1.0" encoding="UTF-8" standalone="no"?>
<!DOCTYPE svg PUBLIC "-//W3C//DTD SVG 1.1//EN" "http://www.w3.org/Graphics/SVG/1.1/DTD/svg11.dtd">
<svg width="100%" height="100%" viewBox="0 0 632 636" version="1.1" xmlns="http://www.w3.org/2000/svg" xmlns:xlink="http://www.w3.org/1999/xlink" xml:space="preserve" xmlns:serif="http://www.serif.com/" style="fill-rule:evenodd;clip-rule:evenodd;stroke-linejoin:round;stroke-miterlimit:2;">
    <g transform="matrix(1,0,0,1,-3141,-8257)">
        <g id="Diver-down-flag" serif:id="Diver down flag">
        </g>
        <g id="g186">
        </g>
        <g id="Filigree">
        </g>
        <g id="Occupancy-Meter-2" serif:id="Occupancy Meter 2">
        </g>
        <g id="Discover-Deals" serif:id="Discover Deals">
        </g>
        <g id="Deals" transform="matrix(1,0,0,0.87181,-0.8937,1057.63)">
            <rect x="3141.89" y="8257.96" width="631.366" height="728.922" style="fill:none;"/>
            <g id="Deals1" serif:id="Deals" transform="matrix(1,0,0,1.14704,2790.68,-1375.09)">
                <g transform="matrix(0.889943,0,0,0.889943,38.6535,993.765)">
                    <circle cx="705.937" cy="8674.83" r="354.723" style="fill:rgb(21,18,18);"/>
                </g>
                <g transform="matrix(4.85611,0,0,3.76066,-3058.69,-23753.3)">
                    <clipPath id="_clip1">
                        <ellipse cx="767.196" cy="8630.11" rx="53.641" ry="69.266"/>
                    </clipPath>
                    <g clip-path="url(#_clip1)">
                        <g>
                            <path d="M774.927,8594.26L793.97,8594.26L793.97,8612.08L757.918,8612.08C756.671,8612.08 755.613,8612.5 754.745,8613.34C753.876,8614.18 753.442,8615.2 753.442,8616.4C753.442,8617.64 753.876,8618.7 754.745,8619.57C755.613,8620.44 756.671,8620.87 757.918,8620.87L776.473,8620.87C779.511,8620.87 782.373,8621.39 785.059,8622.42C787.744,8623.45 790.091,8624.89 792.098,8626.73C794.105,8628.58 795.692,8630.77 796.859,8633.32C798.025,8635.87 798.608,8638.67 798.608,8641.7C798.608,8644.8 798.025,8647.7 796.859,8650.41C795.692,8653.12 794.105,8655.47 792.098,8657.45C790.091,8659.43 787.744,8661.01 785.059,8662.17C782.373,8663.34 779.511,8663.92 776.473,8663.92L774.927,8663.92L774.927,8688.91L759.953,8688.91L759.953,8663.92L735.783,8663.92L735.783,8646.26L776.473,8646.26C777.612,8646.26 778.616,8645.81 779.484,8644.92C780.352,8644.02 780.786,8642.95 780.786,8641.7C780.786,8640.46 780.352,8639.66 779.484,8639.3C778.616,8638.95 777.612,8638.77 776.473,8638.77L757.918,8638.77C754.826,8638.77 751.937,8638.19 749.251,8637.02C746.566,8635.86 744.233,8634.26 742.253,8632.22C740.272,8630.19 738.699,8627.82 737.533,8625.1C736.366,8622.39 735.783,8619.49 735.783,8616.4C735.783,8613.36 736.366,8610.5 737.533,8607.81C738.699,8605.12 740.272,8602.78 742.253,8600.77C744.233,8598.76 746.566,8597.18 749.251,8596.01C751.937,8594.84 754.826,8594.26 757.918,8594.26L759.953,8594.26L759.953,8572.21L774.927,8572.21L774.927,8594.26Z" style="fill:none;fill-rule:nonzero;stroke:rgb(223,175,15);stroke-width:16.42px;"/>
                            <path d="M774.927,8594.26L793.97,8594.26L793.97,8612.08L757.918,8612.08C756.671,8612.08 755.613,8612.5 754.745,8613.34C753.876,8614.18 753.442,8615.2 753.442,8616.4C753.442,8617.64 753.876,8618.7 754.745,8619.57C755.613,8620.44 756.671,8620.87 757.918,8620.87L776.473,8620.87C779.511,8620.87 782.373,8621.39 785.059,8622.42C787.744,8623.45 790.091,8624.89 792.098,8626.73C794.105,8628.58 795.692,8630.77 796.859,8633.32C798.025,8635.87 798.608,8638.67 798.608,8641.7C798.608,8644.8 798.025,8647.7 796.859,8650.41C795.692,8653.12 794.105,8655.47 792.098,8657.45C790.091,8659.43 787.744,8661.01 785.059,8662.17C782.373,8663.34 779.511,8663.92 776.473,8663.92L774.927,8663.92L774.927,8688.91L759.953,8688.91L759.953,8663.92L735.783,8663.92L735.783,8646.26L776.473,8646.26C777.612,8646.26 778.616,8645.81 779.484,8644.92C780.352,8644.02 780.786,8642.95 780.786,8641.7C780.786,8640.46 780.352,8639.66 779.484,8639.3C778.616,8638.95 777.612,8638.77 776.473,8638.77L757.918,8638.77C754.826,8638.77 751.937,8638.19 749.251,8637.02C746.566,8635.86 744.233,8634.26 742.253,8632.22C740.272,8630.19 738.699,8627.82 737.533,8625.1C736.366,8622.39 735.783,8619.49 735.783,8616.4C735.783,8613.36 736.366,8610.5 737.533,8607.81C738.699,8605.12 740.272,8602.78 742.253,8600.77C744.233,8598.76 746.566,8597.18 749.251,8596.01C751.937,8594.84 754.826,8594.26 757.918,8594.26L759.953,8594.26L759.953,8572.21L774.927,8572.21L774.927,8594.26Z" style="fill:none;fill-rule:nonzero;stroke:rgb(21,18,18);stroke-width:9.01px;"/>
                            <path d="M774.927,8594.26L793.97,8594.26L793.97,8612.08L757.918,8612.08C756.671,8612.08 755.613,8612.5 754.745,8613.34C753.876,8614.18 753.442,8615.2 753.442,8616.4C753.442,8617.64 753.876,8618.7 754.745,8619.57C755.613,8620.44 756.671,8620.87 757.918,8620.87L776.473,8620.87C779.511,8620.87 782.373,8621.39 785.059,8622.42C787.744,8623.45 790.091,8624.89 792.098,8626.73C794.105,8628.58 795.692,8630.77 796.859,8633.32C798.025,8635.87 798.608,8638.67 798.608,8641.7C798.608,8644.8 798.025,8647.7 796.859,8650.41C795.692,8653.12 794.105,8655.47 792.098,8657.45C790.091,8659.43 787.744,8661.01 785.059,8662.17C782.373,8663.34 779.511,8663.92 776.473,8663.92L774.927,8663.92L774.927,8688.91L759.953,8688.91L759.953,8663.92L735.783,8663.92L735.783,8646.26L776.473,8646.26C777.612,8646.26 778.616,8645.81 779.484,8644.92C780.352,8644.02 780.786,8642.95 780.786,8641.7C780.786,8640.46 780.352,8639.66 779.484,8639.3C778.616,8638.95 777.612,8638.77 776.473,8638.77L757.918,8638.77C754.826,8638.77 751.937,8638.19 749.251,8637.02C746.566,8635.86 744.233,8634.26 742.253,8632.22C740.272,8630.19 738.699,8627.82 737.533,8625.1C736.366,8622.39 735.783,8619.49 735.783,8616.4C735.783,8613.36 736.366,8610.5 737.533,8607.81C738.699,8605.12 740.272,8602.78 742.253,8600.77C744.233,8598.76 746.566,8597.18 749.251,8596.01C751.937,8594.84 754.826,8594.26 757.918,8594.26L759.953,8594.26L759.953,8572.21L774.927,8572.21L774.927,8594.26Z" style="fill:rgb(223,175,15);fill-rule:nonzero;"/>
                        </g>
                    </g>
                </g>
                <g id="Deals2" serif:id="Deals" transform="matrix(0.671949,-0.738772,0.73024,0.664189,-6809.22,4225.01)">
                    <path d="M1511.3,8716.51C1506.15,8718.09 1501,8718.93 1495.84,8719.05C1490.68,8719.17 1485.66,8718.62 1480.79,8717.42C1475.92,8716.21 1471.27,8714.42 1466.84,8712.05C1462.41,8709.67 1458.34,8706.75 1454.63,8703.29C1450.93,8699.84 1447.7,8695.9 1444.93,8691.5C1442.16,8687.09 1440,8682.28 1438.44,8677.07L1428.23,8642.99L1540.07,8608.71L1550.28,8642.8C1551.84,8648.01 1552.67,8653.22 1552.79,8658.44C1552.9,8663.66 1552.37,8668.75 1551.19,8673.7C1550,8678.66 1548.22,8683.37 1545.84,8687.83C1543.46,8692.3 1540.57,8696.4 1537.18,8700.14C1533.78,8703.87 1529.91,8707.14 1525.55,8709.94C1521.2,8712.74 1516.45,8714.93 1511.3,8716.51ZM1504.52,8693.86C1509.14,8692.45 1513.22,8690.23 1516.75,8687.23C1520.28,8684.22 1523.1,8680.72 1525.22,8676.71C1527.34,8672.7 1528.67,8668.36 1529.2,8663.69C1529.73,8659.02 1529.3,8654.34 1527.89,8649.66L1524.52,8638.38L1457.44,8658.93L1460.82,8670.21C1462.23,8674.9 1464.41,8679.03 1467.39,8682.63C1470.37,8686.23 1473.84,8689.09 1477.81,8691.24C1481.77,8693.39 1486.05,8694.71 1490.66,8695.22C1495.27,8695.74 1499.89,8695.28 1504.52,8693.86Z" style="fill:none;fill-rule:nonzero;stroke:rgb(223,175,15);stroke-width:25.18px;"/>
                    <path d="M1511.3,8716.51C1506.15,8718.09 1501,8718.93 1495.84,8719.05C1490.68,8719.17 1485.66,8718.62 1480.79,8717.42C1475.92,8716.21 1471.27,8714.42 1466.84,8712.05C1462.41,8709.67 1458.34,8706.75 1454.63,8703.29C1450.93,8699.84 1447.7,8695.9 1444.93,8691.5C1442.16,8687.09 1440,8682.28 1438.44,8677.07L1428.23,8642.99L1540.07,8608.71L1550.28,8642.8C1551.84,8648.01 1552.67,8653.22 1552.79,8658.44C1552.9,8663.66 1552.37,8668.75 1551.19,8673.7C1550,8678.66 1548.22,8683.37 1545.84,8687.83C1543.46,8692.3 1540.57,8696.4 1537.18,8700.14C1533.78,8703.87 1529.91,8707.14 1525.55,8709.94C1521.2,8712.74 1516.45,8714.93 1511.3,8716.51ZM1504.52,8693.86C1509.14,8692.45 1513.22,8690.23 1516.75,8687.23C1520.28,8684.22 1523.1,8680.72 1525.22,8676.71C1527.34,8672.7 1528.67,8668.36 1529.2,8663.69C1529.73,8659.02 1529.3,8654.34 1527.89,8649.66L1524.52,8638.38L1457.44,8658.93L1460.82,8670.21C1462.23,8674.9 1464.41,8679.03 1467.39,8682.63C1470.37,8686.23 1473.84,8689.09 1477.81,8691.24C1481.77,8693.39 1486.05,8694.71 1490.66,8695.22C1495.27,8695.74 1499.89,8695.28 1504.52,8693.86Z" style="fill:rgb(21,18,18);fill-rule:nonzero;"/>
                    <path d="M1504.48,8771.17C1504.75,8772.05 1505.1,8772.88 1505.53,8773.65C1505.95,8774.42 1506.41,8775.17 1506.9,8775.89C1508.13,8777.7 1509.57,8779.28 1511.2,8780.61C1512.83,8781.94 1514.61,8783.02 1516.52,8783.86C1518.44,8784.69 1520.45,8785.22 1522.56,8785.46C1524.66,8785.69 1526.77,8785.61 1528.87,8785.22L1524.62,8808.19C1521.03,8808.16 1517.52,8807.69 1514.07,8806.78C1510.62,8805.88 1507.34,8804.6 1504.22,8802.93C1501.11,8801.26 1498.23,8799.23 1495.58,8796.84C1492.93,8794.45 1490.57,8791.73 1488.51,8788.7C1485.03,8783.58 1482.7,8778.12 1481.51,8772.3C1480.33,8766.49 1480.27,8760.73 1481.33,8755.02C1482.39,8749.31 1484.58,8743.87 1487.88,8738.7C1491.19,8733.52 1495.62,8729.01 1501.17,8725.14C1506.85,8721.19 1512.71,8718.55 1518.73,8717.22C1524.75,8715.9 1530.57,8715.77 1536.17,8716.84C1541.78,8717.9 1547.03,8720.05 1551.93,8723.28C1556.83,8726.51 1561.02,8730.68 1564.5,8735.79C1566.56,8738.83 1568.22,8742.04 1569.48,8745.44C1570.73,8748.84 1571.58,8752.3 1572,8755.84C1572.43,8759.38 1572.44,8762.96 1572.04,8766.58C1571.63,8770.19 1570.8,8773.71 1569.56,8777.11L1504.48,8771.17ZM1548.75,8754.37C1548.47,8753.29 1548.1,8752.3 1547.62,8751.4C1547.14,8750.5 1546.59,8749.6 1545.97,8748.69C1544.25,8746.16 1542.16,8744.09 1539.72,8742.49C1537.28,8740.88 1534.65,8739.85 1531.82,8739.38C1529,8738.91 1526.07,8739.03 1523.02,8739.75C1519.98,8740.47 1516.96,8741.87 1513.96,8743.96C1513.29,8744.42 1512.56,8744.99 1511.75,8745.65C1510.95,8746.31 1510.16,8747.02 1509.4,8747.79C1508.63,8748.55 1507.92,8749.33 1507.27,8750.12C1506.62,8750.9 1506.11,8751.7 1505.73,8752.49L1548.75,8754.37Z" style="fill:none;fill-rule:nonzero;stroke:rgb(223,175,15);stroke-width:25.18px;"/>
                    <path d="M1504.48,8771.17C1504.75,8772.05 1505.1,8772.88 1505.53,8773.65C1505.95,8774.42 1506.41,8775.17 1506.9,8775.89C1508.13,8777.7 1509.57,8779.28 1511.2,8780.61C1512.83,8781.94 1514.61,8783.02 1516.52,8783.86C1518.44,8784.69 1520.45,8785.22 1522.56,8785.46C1524.66,8785.69 1526.77,8785.61 1528.87,8785.22L1524.62,8808.19C1521.03,8808.16 1517.52,8807.69 1514.07,8806.78C1510.62,8805.88 1507.34,8804.6 1504.22,8802.93C1501.11,8801.26 1498.23,8799.23 1495.58,8796.84C1492.93,8794.45 1490.57,8791.73 1488.51,8788.7C1485.03,8783.58 1482.7,8778.12 1481.51,8772.3C1480.33,8766.49 1480.27,8760.73 1481.33,8755.02C1482.39,8749.31 1484.58,8743.87 1487.88,8738.7C1491.19,8733.52 1495.62,8729.01 1501.17,8725.14C1506.85,8721.19 1512.71,8718.55 1518.73,8717.22C1524.75,8715.9 1530.57,8715.77 1536.17,8716.84C1541.78,8717.9 1547.03,8720.05 1551.93,8723.28C1556.83,8726.51 1561.02,8730.68 1564.5,8735.79C1566.56,8738.83 1568.22,8742.04 1569.48,8745.44C1570.73,8748.84 1571.58,8752.3 1572,8755.84C1572.43,8759.38 1572.44,8762.96 1572.04,8766.58C1571.63,8770.19 1570.8,8773.71 1569.56,8777.11L1504.48,8771.17ZM1548.75,8754.37C1548.47,8753.29 1548.1,8752.3 1547.62,8751.4C1547.14,8750.5 1546.59,8749.6 1545.97,8748.69C1544.25,8746.16 1542.16,8744.09 1539.72,8742.49C1537.28,8740.88 1534.65,8739.85 1531.82,8739.38C1529,8738.91 1526.07,8739.03 1523.02,8739.75C1519.98,8740.47 1516.96,8741.87 1513.96,8743.96C1513.29,8744.42 1512.56,8744.99 1511.75,8745.65C1510.95,8746.31 1510.16,8747.02 1509.4,8747.79C1508.63,8748.55 1507.92,8749.33 1507.27,8750.12C1506.62,8750.9 1506.11,8751.7 1505.73,8752.49L1548.75,8754.37Z" style="fill:rgb(21,18,18);fill-rule:nonzero;"/>
                    <path d="M1590.7,8887.43L1586.51,8884.02L1587.32,8869.1C1584.47,8869.25 1581.61,8869.23 1578.73,8869.03C1575.85,8868.83 1573.02,8868.38 1570.22,8867.69C1567.42,8866.99 1564.73,8866.05 1562.15,8864.87C1559.58,8863.68 1557.19,8862.19 1554.99,8860.39C1550.21,8856.49 1546.37,8852.01 1543.46,8846.95C1540.55,8841.89 1538.76,8836.52 1538.08,8830.85C1537.41,8825.18 1537.95,8819.35 1539.72,8813.38C1541.48,8807.41 1544.65,8801.55 1549.23,8795.82C1553.49,8790.48 1558.32,8786.31 1563.7,8783.33C1569.08,8780.34 1574.63,8778.53 1580.34,8777.9C1586.05,8777.26 1591.71,8777.77 1597.34,8779.43C1602.96,8781.09 1608.16,8783.87 1612.93,8787.77C1615.13,8789.57 1617.09,8791.63 1618.8,8793.94C1620.51,8796.26 1621.99,8798.74 1623.23,8801.38C1624.48,8804.02 1625.49,8806.75 1626.27,8809.58C1627.05,8812.41 1627.63,8815.25 1628.01,8818.1L1641.23,8815.44L1645.42,8818.86L1590.7,8887.43ZM1601.16,8838.23C1603.07,8835.84 1604.47,8833.15 1605.35,8830.16C1606.23,8827.17 1606.58,8824.17 1606.4,8821.16C1606.22,8818.16 1605.5,8815.27 1604.24,8812.51C1602.99,8809.76 1601.17,8807.41 1598.81,8805.48C1596.44,8803.55 1593.88,8802.13 1591.14,8801.24C1588.4,8800.34 1585.63,8800.05 1582.82,8800.37C1580.02,8800.7 1577.24,8801.66 1574.5,8803.27C1571.75,8804.87 1569.18,8807.17 1566.79,8810.17C1564.4,8813.16 1562.72,8816.18 1561.75,8819.24C1560.78,8822.3 1560.43,8825.25 1560.71,8828.09C1560.99,8830.93 1561.85,8833.61 1563.3,8836.13C1564.74,8838.65 1566.65,8840.88 1569.02,8842.82C1571.38,8844.75 1574.03,8846.05 1576.96,8846.71C1579.89,8847.37 1582.83,8847.47 1585.77,8847.02C1588.72,8846.56 1591.54,8845.58 1594.24,8844.08C1596.94,8842.58 1599.25,8840.63 1601.16,8838.23Z" style="fill:none;fill-rule:nonzero;stroke:rgb(223,175,15);stroke-width:25.18px;"/>
                    <path d="M1590.7,8887.43L1586.51,8884.02L1587.32,8869.1C1584.47,8869.25 1581.61,8869.23 1578.73,8869.03C1575.85,8868.83 1573.02,8868.38 1570.22,8867.69C1567.42,8866.99 1564.73,8866.05 1562.15,8864.87C1559.58,8863.68 1557.19,8862.19 1554.99,8860.39C1550.21,8856.49 1546.37,8852.01 1543.46,8846.95C1540.55,8841.89 1538.76,8836.52 1538.08,8830.85C1537.41,8825.18 1537.95,8819.35 1539.72,8813.38C1541.48,8807.41 1544.65,8801.55 1549.23,8795.82C1553.49,8790.48 1558.32,8786.31 1563.7,8783.33C1569.08,8780.34 1574.63,8778.53 1580.34,8777.9C1586.05,8777.26 1591.71,8777.77 1597.34,8779.43C1602.96,8781.09 1608.16,8783.87 1612.93,8787.77C1615.13,8789.57 1617.09,8791.63 1618.8,8793.94C1620.51,8796.26 1621.99,8798.74 1623.23,8801.38C1624.48,8804.02 1625.49,8806.75 1626.27,8809.58C1627.05,8812.41 1627.63,8815.25 1628.01,8818.1L1641.23,8815.44L1645.42,8818.86L1590.7,8887.43ZM1601.16,8838.23C1603.07,8835.84 1604.47,8833.15 1605.35,8830.16C1606.23,8827.17 1606.58,8824.17 1606.4,8821.16C1606.22,8818.16 1605.5,8815.27 1604.24,8812.51C1602.99,8809.76 1601.17,8807.41 1598.81,8805.48C1596.44,8803.55 1593.88,8802.13 1591.14,8801.24C1588.4,8800.34 1585.63,8800.05 1582.82,8800.37C1580.02,8800.7 1577.24,8801.66 1574.5,8803.27C1571.75,8804.87 1569.18,8807.17 1566.79,8810.17C1564.4,8813.16 1562.72,8816.18 1561.75,8819.24C1560.78,8822.3 1560.43,8825.25 1560.71,8828.09C1560.99,8830.93 1561.85,8833.61 1563.3,8836.13C1564.74,8838.65 1566.65,8840.88 1569.02,8842.82C1571.38,8844.75 1574.03,8846.05 1576.96,8846.71C1579.89,8847.37 1582.83,8847.47 1585.77,8847.02C1588.72,8846.56 1591.54,8845.58 1594.24,8844.08C1596.94,8842.58 1599.25,8840.63 1601.16,8838.23Z" style="fill:rgb(21,18,18);fill-rule:nonzero;"/>
                    <path d="M1636.1,8908.47L1615.85,8898.74L1668.17,8787.25L1688.41,8796.98L1636.1,8908.47Z" style="fill:none;fill-rule:nonzero;stroke:rgb(223,175,15);stroke-width:25.18px;"/>
                    <path d="M1636.1,8908.47L1615.85,8898.74L1668.17,8787.25L1688.41,8796.98L1636.1,8908.47Z" style="fill:rgb(21,18,18);fill-rule:nonzero;"/>
                    <path d="M1707.33,8931.13L1657.83,8919.36L1662.9,8897.53L1712.4,8909.3C1713.88,8909.65 1715.28,8909.42 1716.58,8908.6C1717.89,8907.78 1718.72,8906.62 1719.07,8905.12C1719.42,8903.57 1719.13,8902.43 1718.19,8901.69C1717.24,8900.96 1716.03,8900.42 1714.55,8900.07L1692.02,8894.71C1688.26,8893.82 1684.91,8892.26 1681.97,8890.04C1679.03,8887.81 1676.63,8885.17 1674.77,8882.1C1672.92,8879.04 1671.67,8875.68 1671.04,8872.03C1670.41,8868.38 1670.54,8864.65 1671.42,8860.85C1672.3,8857.05 1673.83,8853.66 1676,8850.68C1678.17,8847.69 1680.76,8845.26 1683.76,8843.38C1686.77,8841.5 1690.07,8840.23 1693.68,8839.6C1697.29,8838.96 1700.97,8839.08 1704.73,8839.98L1748.6,8850.4L1743.53,8872.23L1699.66,8861.81C1698.18,8861.45 1696.78,8861.69 1695.48,8862.51C1694.17,8863.33 1693.34,8864.48 1693,8865.98C1692.64,8867.53 1692.86,8868.98 1693.66,8870.33C1694.46,8871.68 1695.61,8872.53 1697.09,8872.88L1719.62,8878.24C1723.32,8879.12 1726.66,8880.58 1729.65,8882.61C1732.64,8884.65 1735.09,8887.08 1737,8889.91C1738.91,8892.73 1740.21,8895.89 1740.9,8899.39C1741.6,8902.88 1741.51,8906.5 1740.64,8910.25C1739.76,8914.05 1738.22,8917.42 1736.03,8920.38C1733.84,8923.33 1731.24,8925.76 1728.23,8927.67C1725.22,8929.58 1721.91,8930.85 1718.3,8931.49C1714.69,8932.13 1711.04,8932.01 1707.33,8931.13Z" style="fill:none;fill-rule:nonzero;stroke:rgb(223,175,15);stroke-width:25.18px;"/>
                    <path d="M1707.33,8931.13L1657.83,8919.36L1662.9,8897.53L1712.4,8909.3C1713.88,8909.65 1715.28,8909.42 1716.58,8908.6C1717.89,8907.78 1718.72,8906.62 1719.07,8905.12C1719.42,8903.57 1719.13,8902.43 1718.19,8901.69C1717.24,8900.96 1716.03,8900.42 1714.55,8900.07L1692.02,8894.71C1688.26,8893.82 1684.91,8892.26 1681.97,8890.04C1679.03,8887.81 1676.63,8885.17 1674.77,8882.1C1672.92,8879.04 1671.67,8875.68 1671.04,8872.03C1670.41,8868.38 1670.54,8864.65 1671.42,8860.85C1672.3,8857.05 1673.83,8853.66 1676,8850.68C1678.17,8847.69 1680.76,8845.26 1683.76,8843.38C1686.77,8841.5 1690.07,8840.23 1693.68,8839.6C1697.29,8838.96 1700.97,8839.08 1704.73,8839.98L1748.6,8850.4L1743.53,8872.23L1699.66,8861.81C1698.18,8861.45 1696.78,8861.69 1695.48,8862.51C1694.17,8863.33 1693.34,8864.48 1693,8865.98C1692.64,8867.53 1692.86,8868.98 1693.66,8870.33C1694.46,8871.68 1695.61,8872.53 1697.09,8872.88L1719.62,8878.24C1723.32,8879.12 1726.66,8880.58 1729.65,8882.61C1732.64,8884.65 1735.09,8887.08 1737,8889.91C1738.91,8892.73 1740.21,8895.89 1740.9,8899.39C1741.6,8902.88 1741.51,8906.5 1740.64,8910.25C1739.76,8914.05 1738.22,8917.42 1736.03,8920.38C1733.84,8923.33 1731.24,8925.76 1728.23,8927.67C1725.22,8929.58 1721.91,8930.85 1718.3,8931.49C1714.69,8932.13 1711.04,8932.01 1707.33,8931.13Z" style="fill:rgb(21,18,18);fill-rule:nonzero;"/>
                </g>
            </g>
        </g>
        <g id="See-Spaces" serif:id="See Spaces">
        </g>
        <g id="Binoculars">
        </g>
    </g>
</svg>
