<?xml version="1.0" encoding="UTF-8" standalone="no"?>
<!DOCTYPE svg PUBLIC "-//W3C//DTD SVG 1.1//EN" "http://www.w3.org/Graphics/SVG/1.1/DTD/svg11.dtd">
<svg width="100%" height="100%" viewBox="0 0 632 636" version="1.1" xmlns="http://www.w3.org/2000/svg" xmlns:xlink="http://www.w3.org/1999/xlink" xml:space="preserve" xmlns:serif="http://www.serif.com/" style="fill-rule:evenodd;clip-rule:evenodd;stroke-linejoin:round;stroke-miterlimit:2;">
    <g transform="matrix(1,0,0,1,-3141,-8257)">
        <g id="Diver-down-flag" serif:id="Diver down flag">
        </g>
        <g id="g186">
        </g>
        <g id="Filigree">
        </g>
        <g id="Occupancy-Meter-2" serif:id="Occupancy Meter 2">
        </g>
        <g id="Discover-Deals" serif:id="Discover Deals">
        </g>
        <g id="Deals" transform="matrix(1,0,0,0.87181,-0.8937,1057.63)">
            <rect x="3141.89" y="8257.96" width="631.366" height="728.922" style="fill:none;"/>
            <g transform="matrix(0.889943,0,0,1.0208,2829.33,-235.198)">
                <g id="Deals1" serif:id="Deals">
                    <circle cx="705.937" cy="8674.83" r="354.723" style="fill:rgb(21,18,18);"/>
                </g>
            </g>
            <g transform="matrix(0.634318,-3.53688e-17,0,0.637148,852.115,3047.69)">
                <path d="M4103.16,8815.9L3971.12,8815.9L3971.12,8795.07L4145.19,8795.07C4190.92,8795.07 4228.04,8757.94 4228.04,8712.22C4228.04,8666.49 4190.92,8629.36 4145.19,8629.36L4145.17,8629.36C4145.17,8629.36 4108.28,8629.31 4056.82,8629.31C3999.47,8629.31 3957.39,8582.64 3957.39,8525.3C3957.39,8468.07 4003.85,8421.61 4061.08,8421.61L4101.86,8421.61L4101.86,8307.9L4122.69,8307.9L4122.69,8421.61L4237.75,8421.61L4237.75,8442.44L4061.08,8442.44C4015.35,8442.44 3978.22,8479.57 3978.22,8525.3C3978.22,8570.91 4011.21,8608.48 4056.82,8608.48C4108.3,8608.48 4145.2,8608.53 4145.19,8608.53C4202.41,8608.53 4248.88,8654.99 4248.88,8712.22C4248.88,8769.44 4202.41,8815.9 4145.19,8815.9L4124,8815.9L4122.69,8946.43L4101.86,8946.22L4103.16,8815.9Z" style="fill:none;stroke:rgb(21,18,18);stroke-width:173.07px;"/>
                <path d="M4103.16,8815.9L3971.12,8815.9L3971.12,8795.07L4145.19,8795.07C4190.92,8795.07 4228.04,8757.94 4228.04,8712.22C4228.04,8666.49 4190.92,8629.36 4145.19,8629.36L4145.17,8629.36C4145.17,8629.36 4108.28,8629.31 4056.82,8629.31C3999.47,8629.31 3957.39,8582.64 3957.39,8525.3C3957.39,8468.07 4003.85,8421.61 4061.08,8421.61L4101.86,8421.61L4101.86,8307.9L4122.69,8307.9L4122.69,8421.61L4237.75,8421.61L4237.75,8442.44L4061.08,8442.44C4015.35,8442.44 3978.22,8479.57 3978.22,8525.3C3978.22,8570.91 4011.21,8608.48 4056.82,8608.48C4108.3,8608.48 4145.2,8608.53 4145.19,8608.53C4202.41,8608.53 4248.88,8654.99 4248.88,8712.22C4248.88,8769.44 4202.41,8815.9 4145.19,8815.9L4124,8815.9L4122.69,8946.43L4101.86,8946.22L4103.16,8815.9Z" style="fill:none;stroke:rgb(223,175,15);stroke-width:188.7px;"/>
                <path d="M4103.16,8815.9L3971.12,8815.9L3971.12,8795.07L4145.19,8795.07C4190.92,8795.07 4228.04,8757.94 4228.04,8712.22C4228.04,8666.49 4190.92,8629.36 4145.19,8629.36L4145.17,8629.36C4145.17,8629.36 4108.28,8629.31 4056.82,8629.31C3999.47,8629.31 3957.39,8582.64 3957.39,8525.3C3957.39,8468.07 4003.85,8421.61 4061.08,8421.61L4101.86,8421.61L4101.86,8307.9L4122.69,8307.9L4122.69,8421.61L4237.75,8421.61L4237.75,8442.44L4061.08,8442.44C4015.35,8442.44 3978.22,8479.57 3978.22,8525.3C3978.22,8570.91 4011.21,8608.48 4056.82,8608.48C4108.3,8608.48 4145.2,8608.53 4145.19,8608.53C4202.41,8608.53 4248.88,8654.99 4248.88,8712.22C4248.88,8769.44 4202.41,8815.9 4145.19,8815.9L4124,8815.9L4122.69,8946.43L4101.86,8946.22L4103.16,8815.9Z" style="fill:none;stroke:rgb(21,18,18);stroke-width:125.8px;"/>
                <path d="M4103.16,8815.9L3971.12,8815.9L3971.12,8795.07L4145.19,8795.07C4190.92,8795.07 4228.04,8757.94 4228.04,8712.22C4228.04,8666.49 4190.92,8629.36 4145.19,8629.36L4145.17,8629.36C4145.17,8629.36 4108.28,8629.31 4056.82,8629.31C3999.47,8629.31 3957.39,8582.64 3957.39,8525.3C3957.39,8468.07 4003.85,8421.61 4061.08,8421.61L4101.86,8421.61L4101.86,8307.9L4122.69,8307.9L4122.69,8421.61L4237.75,8421.61L4237.75,8442.44L4061.08,8442.44C4015.35,8442.44 3978.22,8479.57 3978.22,8525.3C3978.22,8570.91 4011.21,8608.48 4056.82,8608.48C4108.3,8608.48 4145.2,8608.53 4145.19,8608.53C4202.41,8608.53 4248.88,8654.99 4248.88,8712.22C4248.88,8769.44 4202.41,8815.9 4145.19,8815.9L4124,8815.9L4122.69,8946.43L4101.86,8946.22L4103.16,8815.9Z" style="fill:none;stroke:rgb(223,175,15);stroke-width:62.9px;"/>
                <path d="M4103.16,8815.9L3971.12,8815.9L3971.12,8795.07L4145.19,8795.07C4190.92,8795.07 4228.04,8757.94 4228.04,8712.22C4228.04,8666.49 4190.92,8629.36 4145.19,8629.36L4145.17,8629.36C4145.17,8629.36 4108.28,8629.31 4056.82,8629.31C3999.47,8629.31 3957.39,8582.64 3957.39,8525.3C3957.39,8468.07 4003.85,8421.61 4061.08,8421.61L4101.86,8421.61L4101.86,8307.9L4122.69,8307.9L4122.69,8421.61L4237.75,8421.61L4237.75,8442.44L4061.08,8442.44C4015.35,8442.44 3978.22,8479.57 3978.22,8525.3C3978.22,8570.91 4011.21,8608.48 4056.82,8608.48C4108.3,8608.48 4145.2,8608.53 4145.19,8608.53C4202.41,8608.53 4248.88,8654.99 4248.88,8712.22C4248.88,8769.44 4202.41,8815.9 4145.19,8815.9L4124,8815.9L4122.69,8946.43L4101.86,8946.22L4103.16,8815.9Z" style="fill:rgb(21,18,18);"/>
            </g>
        </g>
        <g id="Dollar-stripe" serif:id="Dollar stripe">
        </g>
        <g id="Deals2" serif:id="Deals" transform="matrix(0.889943,5.55112e-17,5.55112e-17,0.889943,2824.38,813.216)">
            <path d="M586.135,8946.28C582.964,8951.06 579.298,8955.24 575.136,8958.84C570.975,8962.44 566.487,8965.41 561.673,8967.74C556.859,8970.07 551.835,8971.77 546.6,8972.85C541.366,8973.93 536.066,8974.32 530.7,8974.02C525.335,8973.73 520.036,8972.73 514.805,8971.03C509.573,8969.33 504.569,8966.89 499.792,8963.72L468.526,8942.97L537.426,8839.18L568.692,8859.94C573.469,8863.11 577.656,8866.77 581.254,8870.93C584.852,8875.1 587.829,8879.59 590.183,8884.42C592.538,8889.25 594.234,8894.29 595.272,8899.53C596.31,8904.77 596.69,8910.07 596.411,8915.41C596.133,8920.75 595.143,8926.04 593.443,8931.27C591.742,8936.5 589.306,8941.5 586.135,8946.28ZM565.363,8932.49C568.214,8928.2 570.081,8923.63 570.963,8918.79C571.845,8913.96 571.811,8909.19 570.863,8904.49C569.914,8899.8 568.09,8895.37 565.392,8891.22C562.693,8887.06 559.197,8883.56 554.902,8880.71L544.553,8873.84L503.232,8936.08L513.581,8942.95C517.876,8945.8 522.453,8947.68 527.314,8948.58C532.175,8949.47 536.953,8949.45 541.65,8948.5C546.346,8947.55 550.76,8945.72 554.891,8943C559.022,8940.29 562.512,8936.78 565.363,8932.49Z" style="fill:none;fill-rule:nonzero;stroke:rgb(21,18,18);stroke-width:32.77px;"/>
            <path d="M586.135,8946.28C582.964,8951.06 579.298,8955.24 575.136,8958.84C570.975,8962.44 566.487,8965.41 561.673,8967.74C556.859,8970.07 551.835,8971.77 546.6,8972.85C541.366,8973.93 536.066,8974.32 530.7,8974.02C525.335,8973.73 520.036,8972.73 514.805,8971.03C509.573,8969.33 504.569,8966.89 499.792,8963.72L468.526,8942.97L537.426,8839.18L568.692,8859.94C573.469,8863.11 577.656,8866.77 581.254,8870.93C584.852,8875.1 587.829,8879.59 590.183,8884.42C592.538,8889.25 594.234,8894.29 595.272,8899.53C596.31,8904.77 596.69,8910.07 596.411,8915.41C596.133,8920.75 595.143,8926.04 593.443,8931.27C591.742,8936.5 589.306,8941.5 586.135,8946.28ZM565.363,8932.49C568.214,8928.2 570.081,8923.63 570.963,8918.79C571.845,8913.96 571.811,8909.19 570.863,8904.49C569.914,8899.8 568.09,8895.37 565.392,8891.22C562.693,8887.06 559.197,8883.56 554.902,8880.71L544.553,8873.84L503.232,8936.08L513.581,8942.95C517.876,8945.8 522.453,8947.68 527.314,8948.58C532.175,8949.47 536.953,8949.45 541.65,8948.5C546.346,8947.55 550.76,8945.72 554.891,8943C559.022,8940.29 562.512,8936.78 565.363,8932.49Z" style="fill:rgb(223,175,15);fill-rule:nonzero;"/>
            <path d="M631.772,8998.47C632.612,8998.95 633.475,8999.34 634.36,8999.63C635.245,8999.91 636.14,9000.16 637.044,9000.36C639.304,9000.87 641.55,9001.05 643.78,9000.9C646.011,9000.74 648.174,9000.29 650.271,8999.55C652.367,8998.8 654.323,8997.76 656.138,8996.41C657.953,8995.07 659.541,8993.48 660.902,8991.65L674.03,9012.49C671.197,9015.06 668.11,9017.25 664.767,9019.05C661.425,9020.85 657.938,9022.24 654.309,9023.2C650.679,9024.17 646.971,9024.69 643.187,9024.76C639.402,9024.83 635.616,9024.44 631.83,9023.59C625.445,9022.15 619.707,9019.62 614.617,9015.98C609.528,9012.35 605.354,9007.94 602.095,9002.76C598.837,8997.57 596.649,8991.78 595.532,8985.39C594.416,8979 594.644,8972.3 596.217,8965.29C597.828,8958.11 600.514,8951.83 604.276,8946.44C608.038,8941.05 612.494,8936.74 617.642,8933.51C622.791,8930.27 628.437,8928.12 634.579,8927.07C640.722,8926.01 646.986,8926.2 653.371,8927.64C657.157,8928.49 660.757,8929.77 664.171,8931.49C667.584,8933.2 670.725,8935.27 673.594,8937.7C676.463,8940.12 679.034,8942.88 681.307,8945.97C683.581,8949.07 685.449,8952.38 686.911,8955.91L631.772,8998.47ZM654.352,8953.41C653.367,8952.77 652.365,8952.28 651.345,8951.93C650.325,8951.59 649.249,8951.28 648.119,8951.03C644.955,8950.32 641.844,8950.23 638.787,8950.76C635.73,8951.29 632.929,8952.4 630.384,8954.08C627.839,8955.77 625.634,8957.99 623.769,8960.75C621.904,8963.5 620.546,8966.77 619.696,8970.56C619.506,8971.41 619.332,8972.38 619.176,8973.47C619.02,8974.56 618.917,8975.68 618.867,8976.83C618.818,8977.97 618.82,8979.09 618.874,8980.17C618.928,8981.25 619.093,8982.24 619.367,8983.13L654.352,8953.41Z" style="fill:none;fill-rule:nonzero;stroke:rgb(21,18,18);stroke-width:32.77px;"/>
            <path d="M631.772,8998.47C632.612,8998.95 633.475,8999.34 634.36,8999.63C635.245,8999.91 636.14,9000.16 637.044,9000.36C639.304,9000.87 641.55,9001.05 643.78,9000.9C646.011,9000.74 648.174,9000.29 650.271,8999.55C652.367,8998.8 654.323,8997.76 656.138,8996.41C657.953,8995.07 659.541,8993.48 660.902,8991.65L674.03,9012.49C671.197,9015.06 668.11,9017.25 664.767,9019.05C661.425,9020.85 657.938,9022.24 654.309,9023.2C650.679,9024.17 646.971,9024.69 643.187,9024.76C639.402,9024.83 635.616,9024.44 631.83,9023.59C625.445,9022.15 619.707,9019.62 614.617,9015.98C609.528,9012.35 605.354,9007.94 602.095,9002.76C598.837,8997.57 596.649,8991.78 595.532,8985.39C594.416,8979 594.644,8972.3 596.217,8965.29C597.828,8958.11 600.514,8951.83 604.276,8946.44C608.038,8941.05 612.494,8936.74 617.642,8933.51C622.791,8930.27 628.437,8928.12 634.579,8927.07C640.722,8926.01 646.986,8926.2 653.371,8927.64C657.157,8928.49 660.757,8929.77 664.171,8931.49C667.584,8933.2 670.725,8935.27 673.594,8937.7C676.463,8940.12 679.034,8942.88 681.307,8945.97C683.581,8949.07 685.449,8952.38 686.911,8955.91L631.772,8998.47ZM654.352,8953.41C653.367,8952.77 652.365,8952.28 651.345,8951.93C650.325,8951.59 649.249,8951.28 648.119,8951.03C644.955,8950.32 641.844,8950.23 638.787,8950.76C635.73,8951.29 632.929,8952.4 630.384,8954.08C627.839,8955.77 625.634,8957.99 623.769,8960.75C621.904,8963.5 620.546,8966.77 619.696,8970.56C619.506,8971.41 619.332,8972.38 619.176,8973.47C619.02,8974.56 618.917,8975.68 618.867,8976.83C618.818,8977.97 618.82,8979.09 618.874,8980.17C618.928,8981.25 619.093,8982.24 619.367,8983.13L654.352,8953.41Z" style="fill:rgb(223,175,15);fill-rule:nonzero;"/>
            <path d="M798.773,9020.55L793.086,9021.29L782.321,9009.8C780.34,9012.1 778.213,9014.28 775.94,9016.36C773.667,9018.43 771.236,9020.29 768.645,9021.94C766.055,9023.59 763.357,9024.97 760.553,9026.09C757.748,9027.21 754.853,9027.97 751.866,9028.35C745.375,9029.19 739.131,9028.88 733.135,9027.44C727.138,9025.99 721.732,9023.46 716.916,9019.85C712.1,9016.24 708.069,9011.57 704.821,9005.86C701.574,9000.15 699.455,8993.44 698.463,8985.75C697.537,8978.57 697.923,8971.82 699.619,8965.49C701.316,8959.17 704.026,8953.58 707.75,8948.72C711.474,8943.86 716.04,8939.87 721.448,8936.75C726.856,8933.63 732.805,8931.66 739.296,8930.82C742.283,8930.43 745.289,8930.43 748.315,8930.8C751.34,8931.16 754.317,8931.83 757.244,8932.8C760.172,8933.76 762.999,8934.98 765.728,8936.43C768.456,8937.89 771.044,8939.51 773.493,8941.3L781.216,8929.18L786.903,8928.45L798.773,9020.55ZM769.027,8976.65C768.613,8973.43 767.594,8970.4 765.97,8967.54C764.347,8964.68 762.322,8962.23 759.897,8960.18C757.472,8958.13 754.747,8956.58 751.723,8955.54C748.698,8954.5 745.577,8954.18 742.361,8954.6C739.144,8955.01 736.184,8955.95 733.482,8957.41C730.779,8958.86 728.517,8960.79 726.694,8963.19C724.871,8965.58 723.559,8968.42 722.756,8971.71C721.953,8975 721.811,8978.65 722.329,8982.67C722.847,8986.69 723.911,8990.19 725.521,8993.16C727.13,8996.14 729.12,8998.55 731.491,9000.41C733.861,9002.26 736.538,9003.55 739.522,9004.28C742.506,9005 745.607,9005.16 748.823,9004.74C752.04,9004.33 754.979,9003.24 757.641,9001.46C760.303,8999.69 762.547,8997.5 764.372,8994.9C766.197,8992.3 767.533,8989.41 768.38,8986.24C769.226,8983.06 769.442,8979.87 769.027,8976.65Z" style="fill:none;fill-rule:nonzero;stroke:rgb(21,18,18);stroke-width:32.77px;"/>
            <path d="M798.773,9020.55L793.086,9021.29L782.321,9009.8C780.34,9012.1 778.213,9014.28 775.94,9016.36C773.667,9018.43 771.236,9020.29 768.645,9021.94C766.055,9023.59 763.357,9024.97 760.553,9026.09C757.748,9027.21 754.853,9027.97 751.866,9028.35C745.375,9029.19 739.131,9028.88 733.135,9027.44C727.138,9025.99 721.732,9023.46 716.916,9019.85C712.1,9016.24 708.069,9011.57 704.821,9005.86C701.574,9000.15 699.455,8993.44 698.463,8985.75C697.537,8978.57 697.923,8971.82 699.619,8965.49C701.316,8959.17 704.026,8953.58 707.75,8948.72C711.474,8943.86 716.04,8939.87 721.448,8936.75C726.856,8933.63 732.805,8931.66 739.296,8930.82C742.283,8930.43 745.289,8930.43 748.315,8930.8C751.34,8931.16 754.317,8931.83 757.244,8932.8C760.172,8933.76 762.999,8934.98 765.728,8936.43C768.456,8937.89 771.044,8939.51 773.493,8941.3L781.216,8929.18L786.903,8928.45L798.773,9020.55ZM769.027,8976.65C768.613,8973.43 767.594,8970.4 765.97,8967.54C764.347,8964.68 762.322,8962.23 759.897,8960.18C757.472,8958.13 754.747,8956.58 751.723,8955.54C748.698,8954.5 745.577,8954.18 742.361,8954.6C739.144,8955.01 736.184,8955.95 733.482,8957.41C730.779,8958.86 728.517,8960.79 726.694,8963.19C724.871,8965.58 723.559,8968.42 722.756,8971.71C721.953,8975 721.811,8978.65 722.329,8982.67C722.847,8986.69 723.911,8990.19 725.521,8993.16C727.13,8996.14 729.12,8998.55 731.491,9000.41C733.861,9002.26 736.538,9003.55 739.522,9004.28C742.506,9005 745.607,9005.16 748.823,9004.74C752.04,9004.33 754.979,9003.24 757.641,9001.46C760.303,8999.69 762.547,8997.5 764.372,8994.9C766.197,8992.3 767.533,8989.41 768.38,8986.24C769.226,8983.06 769.442,8979.87 769.027,8976.65Z" style="fill:rgb(223,175,15);fill-rule:nonzero;"/>
            <path d="M862.503,8993.39L840.729,9003.22L787.214,8884.7L808.987,8874.86L862.503,8993.39Z" style="fill:none;fill-rule:nonzero;stroke:rgb(21,18,18);stroke-width:32.77px;"/>
            <path d="M862.503,8993.39L840.729,9003.22L787.214,8884.7L808.987,8874.86L862.503,8993.39Z" style="fill:rgb(223,175,15);fill-rule:nonzero;"/>
            <path d="M941.829,8939.95L900.126,8974.58L885.03,8956.4L926.733,8921.77C927.981,8920.73 928.68,8919.4 928.831,8917.77C928.982,8916.14 928.54,8914.7 927.504,8913.45C926.431,8912.16 925.282,8911.68 924.058,8912.02C922.834,8912.36 921.598,8913.05 920.351,8914.08L901.37,8929.84C898.207,8932.47 894.745,8934.33 890.983,8935.42C887.222,8936.51 883.456,8936.87 879.686,8936.5C875.916,8936.14 872.294,8935.06 868.819,8933.28C865.344,8931.5 862.294,8929.02 859.667,8925.86C857.039,8922.7 855.169,8919.24 854.056,8915.5C852.943,8911.76 852.56,8908.01 852.907,8904.26C853.255,8900.51 854.319,8896.89 856.101,8893.42C857.883,8889.94 860.356,8886.89 863.519,8884.27L900.477,8853.58L915.573,8871.75L878.615,8902.44C877.368,8903.48 876.668,8904.81 876.517,8906.44C876.366,8908.08 876.809,8909.51 877.845,8910.76C878.918,8912.06 880.279,8912.79 881.929,8912.96C883.578,8913.13 885.027,8912.7 886.274,8911.67L905.255,8895.91C908.373,8893.32 911.749,8891.4 915.381,8890.15C919.012,8888.9 922.63,8888.36 926.234,8888.53C929.837,8888.7 933.332,8889.6 936.718,8891.23C940.104,8892.86 943.092,8895.24 945.682,8898.35C948.309,8901.52 950.159,8904.97 951.231,8908.71C952.304,8912.45 952.676,8916.2 952.347,8919.98C952.018,8923.75 950.962,8927.38 949.18,8930.85C947.398,8934.33 944.948,8937.36 941.829,8939.95Z" style="fill:none;fill-rule:nonzero;stroke:rgb(21,18,18);stroke-width:32.77px;"/>
            <path d="M941.829,8939.95L900.126,8974.58L885.03,8956.4L926.733,8921.77C927.981,8920.73 928.68,8919.4 928.831,8917.77C928.982,8916.14 928.54,8914.7 927.504,8913.45C926.431,8912.16 925.282,8911.68 924.058,8912.02C922.834,8912.36 921.598,8913.05 920.351,8914.08L901.37,8929.84C898.207,8932.47 894.745,8934.33 890.983,8935.42C887.222,8936.51 883.456,8936.87 879.686,8936.5C875.916,8936.14 872.294,8935.06 868.819,8933.28C865.344,8931.5 862.294,8929.02 859.667,8925.86C857.039,8922.7 855.169,8919.24 854.056,8915.5C852.943,8911.76 852.56,8908.01 852.907,8904.26C853.255,8900.51 854.319,8896.89 856.101,8893.42C857.883,8889.94 860.356,8886.89 863.519,8884.27L900.477,8853.58L915.573,8871.75L878.615,8902.44C877.368,8903.48 876.668,8904.81 876.517,8906.44C876.366,8908.08 876.809,8909.51 877.845,8910.76C878.918,8912.06 880.279,8912.79 881.929,8912.96C883.578,8913.13 885.027,8912.7 886.274,8911.67L905.255,8895.91C908.373,8893.32 911.749,8891.4 915.381,8890.15C919.012,8888.9 922.63,8888.36 926.234,8888.53C929.837,8888.7 933.332,8889.6 936.718,8891.23C940.104,8892.86 943.092,8895.24 945.682,8898.35C948.309,8901.52 950.159,8904.97 951.231,8908.71C952.304,8912.45 952.676,8916.2 952.347,8919.98C952.018,8923.75 950.962,8927.38 949.18,8930.85C947.398,8934.33 944.948,8937.36 941.829,8939.95Z" style="fill:rgb(223,175,15);fill-rule:nonzero;"/>
        </g>
        <g id="See-Spaces" serif:id="See Spaces">
        </g>
        <g id="Binoculars">
        </g>
    </g>
</svg>
