<?xml version="1.0" encoding="UTF-8" standalone="no"?>
<!DOCTYPE svg PUBLIC "-//W3C//DTD SVG 1.1//EN" "http://www.w3.org/Graphics/SVG/1.1/DTD/svg11.dtd">
<svg width="100%" height="100%" viewBox="0 0 2008 1899" version="1.1" xmlns="http://www.w3.org/2000/svg" xmlns:xlink="http://www.w3.org/1999/xlink" xml:space="preserve" xmlns:serif="http://www.serif.com/" style="fill-rule:evenodd;clip-rule:evenodd;stroke-linecap:round;stroke-linejoin:round;stroke-miterlimit:1.5;">
    <g id="Diver-down-flag" serif:id="Diver down flag">
    </g>
    <g id="g186">
    </g>
    <g id="Filigree">
    </g>
    <rect id="Artboard33" x="-0" y="0" width="2007.25" height="1898.21" style="fill:none;"/>
    <g>
        <path d="M1010.58,189.455C1469.39,189.455 1841.89,561.954 1841.89,1020.77C1841.89,1479.58 1469.39,1852.08 1010.58,1852.08C551.761,1852.08 179.261,1479.58 179.261,1020.77C179.261,561.954 551.761,189.455 1010.58,189.455ZM1010.58,514.638C1289.92,514.638 1516.7,741.428 1516.7,1020.77C1516.7,1300.11 1289.92,1526.9 1010.58,1526.9C731.234,1526.9 504.445,1300.11 504.445,1020.77C504.445,741.428 731.234,514.638 1010.58,514.638Z" style="fill:#ebebeb;"/>
        <path d="M1142.9,1842.48C1056.26,1857.27 969.33,1857.39 882.096,1842.48L946.204,1522.75C987.471,1527.67 1030.98,1527.58 1076.61,1522.75L1142.9,1842.48Z" style="fill:#de2726;"/>
        <path d="M230.316,727.663C260.825,645.234 304.192,569.889 360.72,501.796L605.558,717.179C580.663,750.457 558.987,788.181 540.356,830.112L230.316,727.663Z" style="fill:#de2726;"/>
        <path d="M1784.42,719.57C1753.91,637.142 1710.54,561.797 1654.01,493.704L1409.18,709.087C1434.07,742.364 1455.75,780.089 1474.38,822.02L1784.42,719.57Z" style="fill:#de2726;"/>
    </g>
    <g transform="matrix(1,0,0,1,-6399.39,-5823.06)">
        <g transform="matrix(0.840122,-0.542398,0.542398,0.840122,-2332.81,4828.33)">
            <g transform="matrix(166.667,0,0,166.667,7023.81,6371.28)">
                <path d="M0.04,-0.175L0.116,-0.175L0.116,-0.605L0.042,-0.605L0.042,-0.778L0.458,-0.778C0.553,-0.778 0.632,-0.762 0.694,-0.73C0.755,-0.697 0.786,-0.638 0.786,-0.553C0.786,-0.454 0.759,-0.382 0.705,-0.339C0.651,-0.295 0.57,-0.273 0.462,-0.273C0.435,-0.273 0.411,-0.275 0.389,-0.278L0.389,-0.175L0.46,-0.175L0.46,-0L0.04,-0L0.04,-0.175ZM0.41,-0.432C0.484,-0.432 0.521,-0.465 0.521,-0.53C0.521,-0.554 0.513,-0.573 0.497,-0.586C0.48,-0.599 0.458,-0.605 0.431,-0.605L0.39,-0.605L0.39,-0.432L0.41,-0.432Z" style="fill:#de2726;fill-rule:nonzero;"/>
            </g>
        </g>
        <g transform="matrix(0.925759,-0.378114,0.378114,0.925759,-1851.6,3167.39)">
            <g transform="matrix(166.667,0,0,166.667,7140.06,6298.85)">
                <path d="M0.031,-0.147L0.094,-0.147L0.094,-0.372L0.031,-0.372L0.031,-0.504L0.328,-0.533L0.328,-0.448C0.343,-0.473 0.369,-0.493 0.405,-0.509C0.441,-0.525 0.473,-0.533 0.5,-0.533L0.5,-0.326C0.462,-0.339 0.431,-0.345 0.406,-0.345C0.375,-0.345 0.354,-0.336 0.344,-0.318C0.333,-0.3 0.328,-0.276 0.328,-0.247L0.328,-0.147L0.406,-0.147L0.406,-0L0.031,-0L0.031,-0.147Z" style="fill:#de2726;fill-rule:nonzero;"/>
            </g>
        </g>
        <g transform="matrix(0.973169,-0.230093,0.230093,0.973169,-1247.85,1829.54)">
            <g transform="matrix(166.667,0,0,166.667,7220.7,6265.27)">
                <path d="M0.328,0.009C0.267,0.009 0.215,-0.002 0.17,-0.025C0.125,-0.047 0.091,-0.079 0.067,-0.12C0.043,-0.161 0.031,-0.21 0.031,-0.265C0.031,-0.32 0.043,-0.367 0.066,-0.407C0.089,-0.448 0.122,-0.479 0.165,-0.5C0.207,-0.522 0.256,-0.533 0.313,-0.533C0.366,-0.533 0.412,-0.523 0.452,-0.502C0.492,-0.481 0.523,-0.452 0.545,-0.414C0.567,-0.376 0.578,-0.332 0.578,-0.281C0.578,-0.264 0.575,-0.247 0.57,-0.231L0.266,-0.231C0.266,-0.2 0.278,-0.176 0.301,-0.158C0.324,-0.139 0.351,-0.13 0.384,-0.13C0.409,-0.13 0.436,-0.134 0.466,-0.143C0.495,-0.152 0.525,-0.165 0.555,-0.183L0.563,-0.18L0.563,-0.049C0.53,-0.03 0.495,-0.015 0.46,-0.006C0.425,0.004 0.381,0.009 0.328,0.009ZM0.391,-0.317L0.391,-0.327C0.391,-0.35 0.386,-0.37 0.375,-0.387C0.364,-0.404 0.349,-0.412 0.328,-0.412C0.311,-0.412 0.296,-0.404 0.284,-0.387C0.272,-0.37 0.266,-0.351 0.266,-0.331L0.266,-0.317L0.391,-0.317Z" style="fill:#de2726;fill-rule:nonzero;"/>
            </g>
        </g>
        <g transform="matrix(0.99776,-0.0668954,0.0668954,0.99776,-401.15,503.799)">
            <g transform="matrix(166.667,0,0,166.667,7322.14,6241.86)">
                <path d="M0.315,0.009C0.248,0.009 0.189,-0.009 0.138,-0.044L0.122,-0L0.031,-0L0.031,-0.193L0.14,-0.193C0.144,-0.168 0.156,-0.146 0.174,-0.127C0.194,-0.107 0.215,-0.097 0.24,-0.097C0.249,-0.097 0.258,-0.1 0.265,-0.105C0.272,-0.11 0.275,-0.119 0.275,-0.131C0.275,-0.143 0.268,-0.154 0.255,-0.164C0.241,-0.173 0.22,-0.185 0.192,-0.198C0.159,-0.215 0.131,-0.23 0.11,-0.244C0.089,-0.257 0.07,-0.275 0.055,-0.298C0.039,-0.32 0.031,-0.347 0.031,-0.378C0.031,-0.411 0.042,-0.439 0.063,-0.462C0.084,-0.485 0.111,-0.503 0.146,-0.515C0.181,-0.527 0.218,-0.533 0.259,-0.533C0.312,-0.533 0.362,-0.519 0.407,-0.491L0.419,-0.523L0.5,-0.523L0.5,-0.367L0.406,-0.367C0.398,-0.388 0.386,-0.405 0.371,-0.417C0.356,-0.429 0.338,-0.435 0.317,-0.435C0.306,-0.435 0.297,-0.433 0.291,-0.43C0.284,-0.427 0.281,-0.421 0.281,-0.412C0.282,-0.401 0.288,-0.392 0.3,-0.385C0.312,-0.378 0.332,-0.368 0.36,-0.356C0.395,-0.341 0.423,-0.327 0.446,-0.314C0.469,-0.301 0.489,-0.282 0.505,-0.258C0.523,-0.233 0.531,-0.203 0.531,-0.167C0.531,-0.129 0.521,-0.097 0.501,-0.07C0.481,-0.044 0.455,-0.024 0.422,-0.011C0.389,0.002 0.354,0.009 0.315,0.009Z" style="fill:#de2726;fill-rule:nonzero;"/>
            </g>
        </g>
        <g transform="matrix(0.995338,0.0964482,-0.0964482,0.995338,635.969,-686.437)">
            <g transform="matrix(166.667,0,0,166.667,7418.55,6235.31)">
                <path d="M0.328,0.009C0.267,0.009 0.215,-0.002 0.17,-0.025C0.125,-0.047 0.091,-0.079 0.067,-0.12C0.043,-0.161 0.031,-0.21 0.031,-0.265C0.031,-0.32 0.043,-0.367 0.066,-0.407C0.089,-0.448 0.122,-0.479 0.165,-0.5C0.207,-0.522 0.256,-0.533 0.313,-0.533C0.366,-0.533 0.412,-0.523 0.452,-0.502C0.492,-0.481 0.523,-0.452 0.545,-0.414C0.567,-0.376 0.578,-0.332 0.578,-0.281C0.578,-0.264 0.575,-0.247 0.57,-0.231L0.266,-0.231C0.266,-0.2 0.278,-0.176 0.301,-0.158C0.324,-0.139 0.351,-0.13 0.384,-0.13C0.409,-0.13 0.436,-0.134 0.466,-0.143C0.495,-0.152 0.525,-0.165 0.555,-0.183L0.563,-0.18L0.563,-0.049C0.53,-0.03 0.495,-0.015 0.46,-0.006C0.425,0.004 0.381,0.009 0.328,0.009ZM0.391,-0.317L0.391,-0.327C0.391,-0.35 0.386,-0.37 0.375,-0.387C0.364,-0.404 0.349,-0.412 0.328,-0.412C0.311,-0.412 0.296,-0.404 0.284,-0.387C0.272,-0.37 0.266,-0.351 0.266,-0.331L0.266,-0.317L0.391,-0.317Z" style="fill:#de2726;fill-rule:nonzero;"/>
            </g>
        </g>
        <g transform="matrix(0.966925,0.25506,-0.25506,0.966925,1841.91,-1712)">
            <g transform="matrix(166.667,0,0,166.667,7522.07,6246.06)">
                <path d="M0.031,-0.147L0.094,-0.147L0.094,-0.372L0.031,-0.372L0.031,-0.504L0.328,-0.533L0.328,-0.448C0.343,-0.473 0.369,-0.493 0.405,-0.509C0.441,-0.525 0.473,-0.533 0.5,-0.533L0.5,-0.326C0.462,-0.339 0.431,-0.345 0.406,-0.345C0.375,-0.345 0.354,-0.336 0.344,-0.318C0.333,-0.3 0.328,-0.276 0.328,-0.247L0.328,-0.147L0.406,-0.147L0.406,-0L0.031,-0L0.031,-0.147Z" style="fill:#de2726;fill-rule:nonzero;"/>
            </g>
        </g>
        <g transform="matrix(0.910462,0.413592,-0.413592,0.910462,3273.14,-2585.03)">
            <g transform="matrix(166.667,0,0,166.667,7606.96,6267.11)">
                <path d="M0.235,-0L0.072,-0.372L0,-0.372L0,-0.523L0.375,-0.523L0.375,-0.372L0.321,-0.372L0.406,-0.126L0.5,-0.372L0.438,-0.372L0.438,-0.523L0.703,-0.523L0.703,-0.372L0.637,-0.372L0.484,-0L0.235,-0Z" style="fill:#de2726;fill-rule:nonzero;"/>
            </g>
        </g>
        <g transform="matrix(0.818106,0.575068,-0.575068,0.818106,5036.98,-3288.36)">
            <g transform="matrix(166.667,0,0,166.667,7716.64,6318.15)">
                <path d="M0.328,0.009C0.267,0.009 0.215,-0.002 0.17,-0.025C0.125,-0.047 0.091,-0.079 0.067,-0.12C0.043,-0.161 0.031,-0.21 0.031,-0.265C0.031,-0.32 0.043,-0.367 0.066,-0.407C0.089,-0.448 0.122,-0.479 0.165,-0.5C0.207,-0.522 0.256,-0.533 0.313,-0.533C0.366,-0.533 0.412,-0.523 0.452,-0.502C0.492,-0.481 0.523,-0.452 0.545,-0.414C0.567,-0.376 0.578,-0.332 0.578,-0.281C0.578,-0.264 0.575,-0.247 0.57,-0.231L0.266,-0.231C0.266,-0.2 0.278,-0.176 0.301,-0.158C0.324,-0.139 0.351,-0.13 0.384,-0.13C0.409,-0.13 0.436,-0.134 0.466,-0.143C0.495,-0.152 0.525,-0.165 0.555,-0.183L0.563,-0.18L0.563,-0.049C0.53,-0.03 0.495,-0.015 0.46,-0.006C0.425,0.004 0.381,0.009 0.328,0.009ZM0.391,-0.317L0.391,-0.327C0.391,-0.35 0.386,-0.37 0.375,-0.387C0.364,-0.404 0.349,-0.412 0.328,-0.412C0.311,-0.412 0.296,-0.404 0.284,-0.387C0.272,-0.37 0.266,-0.351 0.266,-0.331L0.266,-0.317L0.391,-0.317Z" style="fill:#de2726;fill-rule:nonzero;"/>
            </g>
        </g>
    </g>
    <g transform="matrix(1.21233,0,0,1.21233,-8046.62,-7350.08)">
        <g transform="matrix(0.299091,0.954225,-0.954225,0.299091,11559.4,-1646.52)">
            <g transform="matrix(166.667,0,0,166.667,6900.47,7045.26)">
                <path d="M0.282,0.009C0.219,0.009 0.172,-0.007 0.141,-0.04C0.11,-0.072 0.094,-0.121 0.094,-0.187L0.094,-0.38L0.016,-0.38L0.016,-0.523L0.094,-0.523L0.094,-0.635L0.328,-0.687L0.328,-0.523L0.422,-0.523L0.422,-0.38L0.328,-0.38L0.328,-0.204C0.328,-0.189 0.334,-0.177 0.344,-0.168C0.356,-0.158 0.369,-0.153 0.386,-0.153C0.398,-0.153 0.41,-0.154 0.422,-0.156L0.422,-0.02C0.379,-0.001 0.333,0.009 0.282,0.009Z" style="fill:#de2726;fill-rule:nonzero;"/>
            </g>
        </g>
        <g transform="matrix(0.468867,0.883269,-0.883269,0.468867,9965.49,-2331.78)">
            <g transform="matrix(166.667,0,0,166.667,6921.61,7120.36)">
                <path d="M0.047,-0.147L0.109,-0.147L0.109,-0.597L0.047,-0.597L0.047,-0.73L0.344,-0.762L0.344,-0.447C0.357,-0.47 0.379,-0.491 0.41,-0.507C0.442,-0.525 0.477,-0.533 0.516,-0.533C0.573,-0.533 0.616,-0.516 0.645,-0.483C0.674,-0.45 0.688,-0.403 0.688,-0.343L0.688,-0.147L0.75,-0.147L0.75,-0L0.453,-0L0.453,-0.319C0.453,-0.338 0.447,-0.354 0.436,-0.367C0.425,-0.38 0.412,-0.386 0.397,-0.386C0.38,-0.386 0.367,-0.38 0.358,-0.369C0.349,-0.358 0.344,-0.342 0.344,-0.323L0.344,-0.147L0.391,-0.147L0.391,-0L0.047,-0L0.047,-0.147Z" style="fill:#de2726;fill-rule:nonzero;"/>
            </g>
        </g>
        <g transform="matrix(0.62616,0.779694,-0.779694,0.62616,8248.73,-2740.14)">
            <g transform="matrix(166.667,0,0,166.667,6981.84,7231.86)">
                <path d="M0.328,0.009C0.267,0.009 0.215,-0.002 0.17,-0.025C0.125,-0.047 0.091,-0.079 0.067,-0.12C0.043,-0.161 0.031,-0.21 0.031,-0.265C0.031,-0.32 0.043,-0.367 0.066,-0.407C0.089,-0.448 0.122,-0.479 0.165,-0.5C0.207,-0.522 0.256,-0.533 0.313,-0.533C0.366,-0.533 0.412,-0.523 0.452,-0.502C0.492,-0.481 0.523,-0.452 0.545,-0.414C0.567,-0.376 0.578,-0.332 0.578,-0.281C0.578,-0.264 0.575,-0.247 0.57,-0.231L0.266,-0.231C0.266,-0.2 0.278,-0.176 0.301,-0.158C0.324,-0.139 0.351,-0.13 0.384,-0.13C0.409,-0.13 0.436,-0.134 0.466,-0.143C0.495,-0.152 0.525,-0.165 0.555,-0.183L0.563,-0.18L0.563,-0.049C0.53,-0.03 0.495,-0.015 0.46,-0.006C0.425,0.004 0.381,0.009 0.328,0.009ZM0.391,-0.317L0.391,-0.327C0.391,-0.35 0.386,-0.37 0.375,-0.387C0.364,-0.404 0.349,-0.412 0.328,-0.412C0.311,-0.412 0.296,-0.404 0.284,-0.387C0.272,-0.37 0.266,-0.351 0.266,-0.331L0.266,-0.317L0.391,-0.317Z" style="fill:#de2726;fill-rule:nonzero;"/>
            </g>
        </g>
        <g transform="matrix(0.767403,-0.641165,0.641165,0.767403,-2923.05,6722.68)">
            <g transform="matrix(150,0,0,150,7804.17,7390.1)">
                <path d="M0.031,0.046L0.094,0.046L0.094,-0.372L0.031,-0.372L0.031,-0.503L0.328,-0.533L0.328,-0.45C0.345,-0.473 0.366,-0.493 0.393,-0.509C0.419,-0.525 0.45,-0.533 0.485,-0.533C0.532,-0.533 0.571,-0.521 0.604,-0.497C0.637,-0.473 0.661,-0.441 0.678,-0.4C0.695,-0.359 0.703,-0.314 0.703,-0.264C0.703,-0.214 0.695,-0.168 0.679,-0.127C0.662,-0.086 0.637,-0.053 0.605,-0.028C0.572,-0.003 0.531,0.009 0.484,0.009C0.451,0.009 0.422,0.002 0.395,-0.011C0.368,-0.024 0.345,-0.039 0.328,-0.058L0.328,0.047L0.391,0.047L0.391,0.194L0.031,0.194L0.031,0.046ZM0.398,-0.134C0.427,-0.134 0.449,-0.146 0.463,-0.169C0.477,-0.192 0.484,-0.223 0.484,-0.261C0.484,-0.3 0.476,-0.332 0.461,-0.355C0.446,-0.378 0.426,-0.39 0.401,-0.39C0.384,-0.39 0.369,-0.386 0.356,-0.378C0.343,-0.369 0.333,-0.358 0.328,-0.345L0.328,-0.176C0.343,-0.148 0.366,-0.134 0.398,-0.134Z" style="fill:#de2726;fill-rule:nonzero;"/>
            </g>
        </g>
        <g transform="matrix(0.639447,-0.768835,0.768835,0.639447,-2782.54,8704.09)">
            <g transform="matrix(150,0,0,150,7888.93,7318.76)">
                <path d="M0.218,0.009C0.185,0.009 0.155,0.002 0.128,-0.011C0.101,-0.024 0.079,-0.042 0.063,-0.066C0.046,-0.09 0.038,-0.118 0.038,-0.15C0.038,-0.185 0.048,-0.214 0.067,-0.237C0.086,-0.261 0.111,-0.279 0.142,-0.291C0.173,-0.302 0.207,-0.308 0.243,-0.308C0.286,-0.308 0.327,-0.302 0.366,-0.289L0.366,-0.311C0.366,-0.337 0.355,-0.357 0.333,-0.371C0.311,-0.384 0.281,-0.391 0.244,-0.391C0.22,-0.391 0.192,-0.387 0.161,-0.378C0.13,-0.369 0.104,-0.359 0.083,-0.346L0.069,-0.352L0.069,-0.494C0.108,-0.508 0.149,-0.518 0.19,-0.524C0.231,-0.53 0.269,-0.533 0.304,-0.533C0.502,-0.533 0.601,-0.477 0.601,-0.366L0.601,-0.147L0.647,-0.147L0.647,-0L0.397,-0L0.375,-0.08C0.361,-0.053 0.339,-0.031 0.31,-0.015C0.28,0.001 0.249,0.009 0.218,0.009ZM0.31,-0.116C0.321,-0.116 0.332,-0.118 0.343,-0.122C0.354,-0.125 0.362,-0.129 0.366,-0.133L0.366,-0.215C0.361,-0.216 0.354,-0.218 0.343,-0.221C0.332,-0.224 0.322,-0.225 0.314,-0.225C0.297,-0.225 0.283,-0.22 0.273,-0.209C0.262,-0.198 0.257,-0.184 0.257,-0.166C0.257,-0.153 0.262,-0.141 0.272,-0.131C0.281,-0.121 0.294,-0.116 0.31,-0.116Z" style="fill:#de2726;fill-rule:nonzero;"/>
            </g>
        </g>
        <g transform="matrix(0.513632,-0.85801,0.85801,0.513632,-2343.02,10345.5)">
            <g transform="matrix(150,0,0,150,7953.8,7239.41)">
                <path d="M0.031,-0.147L0.094,-0.147L0.094,-0.372L0.031,-0.372L0.031,-0.504L0.328,-0.533L0.328,-0.448C0.343,-0.473 0.369,-0.493 0.405,-0.509C0.441,-0.525 0.473,-0.533 0.5,-0.533L0.5,-0.326C0.462,-0.339 0.431,-0.345 0.406,-0.345C0.375,-0.345 0.354,-0.336 0.344,-0.318C0.333,-0.3 0.328,-0.276 0.328,-0.247L0.328,-0.147L0.406,-0.147L0.406,-0L0.031,-0L0.031,-0.147Z" style="fill:#de2726;fill-rule:nonzero;"/>
            </g>
        </g>
        <g transform="matrix(0.40523,-0.914215,0.914215,0.40523,-1802.17,11573.7)">
            <g transform="matrix(150,0,0,150,7993.81,7171.89)">
                <path d="M0.282,0.009C0.219,0.009 0.172,-0.007 0.141,-0.04C0.11,-0.072 0.094,-0.121 0.094,-0.187L0.094,-0.38L0.016,-0.38L0.016,-0.523L0.094,-0.523L0.094,-0.635L0.328,-0.687L0.328,-0.523L0.422,-0.523L0.422,-0.38L0.328,-0.38L0.328,-0.204C0.328,-0.189 0.334,-0.177 0.344,-0.168C0.356,-0.158 0.369,-0.153 0.386,-0.153C0.398,-0.153 0.41,-0.154 0.422,-0.156L0.422,-0.02C0.379,-0.001 0.333,0.009 0.282,0.009Z" style="fill:#de2726;fill-rule:nonzero;"/>
            </g>
        </g>
        <g transform="matrix(0.253554,-0.967321,0.967321,0.253554,-886.857,13067.5)">
            <g transform="matrix(150,0,0,150,8023.67,7108.39)">
                <path d="M0.195,0.184L0.195,0.03L0.294,0.03L0.321,-0.015L0.093,-0.372L0.031,-0.372L0.031,-0.523L0.397,-0.523L0.397,-0.372L0.349,-0.372L0.43,-0.222L0.504,-0.372L0.451,-0.372L0.451,-0.523L0.724,-0.523L0.724,-0.372L0.671,-0.372L0.458,0.03L0.533,0.03L0.533,0.184L0.195,0.184Z" style="fill:#de2726;fill-rule:nonzero;"/>
            </g>
        </g>
    </g>
    <path d="M282.675,617.925C341.306,504.062 462.673,9.254 1010.58,9.254C1558.48,9.254 1675.74,502.553 1729.69,600.877" style="fill:none;stroke:#de2726;stroke-width:16.67px;"/>
    <path d="M1729.69,600.107C1797.21,708.936 2165.84,1074.67 1884.14,1544.61C1602.45,2014.56 1119.06,1861.52 1006.99,1857.24" style="fill:none;stroke:#de2726;stroke-width:16.67px;"/>
    <path d="M282.675,617.925C215.156,726.755 -169.264,1074.67 112.426,1544.61C394.117,2014.56 894.112,1861.52 1006.18,1857.24" style="fill:none;stroke:#de2726;stroke-width:16.67px;"/>
    <path d="M282.675,617.925C341.306,504.062 462.673,9.254 1010.58,9.254C1558.48,9.254 1675.74,502.553 1729.69,600.877" style="fill:none;stroke:#de2726;stroke-width:16.67px;"/>
</svg>
