<?xml version="1.0" encoding="UTF-8" standalone="no"?>
<!DOCTYPE svg PUBLIC "-//W3C//DTD SVG 1.1//EN" "http://www.w3.org/Graphics/SVG/1.1/DTD/svg11.dtd">
<svg width="100%" height="100%" viewBox="0 0 1687 1686" version="1.1" xmlns="http://www.w3.org/2000/svg" xmlns:xlink="http://www.w3.org/1999/xlink" xml:space="preserve" xmlns:serif="http://www.serif.com/" style="fill-rule:evenodd;clip-rule:evenodd;stroke-linejoin:round;stroke-miterlimit:2;">
    <g id="Diver-down-flag" serif:id="Diver down flag">
    </g>
    <g id="g186">
    </g>
    <g id="Filigree">
    </g>
    <rect id="Artboard34" x="0" y="0" width="1686.08" height="1685.97" style="fill:none;"/>
    <g>
        <path d="M841.063,11.593C1299.88,11.593 1672.38,384.092 1672.38,842.907C1672.38,1301.72 1299.88,1674.22 841.063,1674.22C382.248,1674.22 9.749,1301.72 9.749,842.907C9.749,384.092 382.248,11.593 841.063,11.593ZM841.063,336.776C1120.4,336.776 1347.19,563.566 1347.19,842.907C1347.19,1122.25 1120.4,1349.04 841.063,1349.04C561.722,1349.04 334.932,1122.25 334.932,842.907C334.932,563.566 561.722,336.776 841.063,336.776Z" style="fill:#de2726;"/>
        <g>
            <path d="M977.709,1669.02C888.403,1684.27 798.793,1684.39 708.874,1669.02L754.004,1336.85C821.62,1344.92 861.696,1343.66 929.413,1336.49L977.709,1669.02Z" style="fill:#151212;"/>
            <path d="M977.709,14.992C887.665,-0.381 797.317,-0.502 706.655,14.992L752.061,350.859C820.236,342.729 861.187,343.492 929.463,350.72L977.709,14.992Z" style="fill:#151212;"/>
            <path d="M1669.31,707.824C1684.72,798.05 1684.84,888.583 1669.31,979.428L1332.43,933.69C1341.77,871.616 1343.72,819.584 1333.35,756.618L1669.31,707.824Z" style="fill:#151212;"/>
            <path d="M13.674,707.824C-1.649,797.573 -1.769,887.625 13.674,977.99L348.774,932.494C339.486,870.749 337.543,818.992 347.855,756.36L13.674,707.824Z" style="fill:#151212;"/>
        </g>
    </g>
</svg>
