<?xml version="1.0" encoding="UTF-8" standalone="no"?>
<!DOCTYPE svg PUBLIC "-//W3C//DTD SVG 1.1//EN" "http://www.w3.org/Graphics/SVG/1.1/DTD/svg11.dtd">
<svg width="100%" height="100%" viewBox="0 0 1667 1668" version="1.1" xmlns="http://www.w3.org/2000/svg" xmlns:xlink="http://www.w3.org/1999/xlink" xml:space="preserve" xmlns:serif="http://www.serif.com/" style="fill-rule:evenodd;clip-rule:evenodd;stroke-linejoin:round;stroke-miterlimit:2;">
    <g id="Diver-down-flag" serif:id="Diver down flag">
    </g>
    <g id="g186">
    </g>
    <g id="Filigree">
    </g>
    <rect id="Artboard34" x="0" y="0" width="1666.01" height="1667.61" style="fill:none;"/>
    <clipPath id="_clip1">
        <rect x="0" y="0" width="1666.01" height="1667.61"/>
    </clipPath>
    <g clip-path="url(#_clip1)">
        <g>
            <path d="M831.883,2.415C1290.7,2.415 1663.2,374.914 1663.2,833.728C1663.2,1292.54 1290.7,1665.04 831.883,1665.04C373.069,1665.04 0.57,1292.54 0.57,833.728C0.57,374.914 373.069,2.415 831.883,2.415ZM831.883,327.598C1111.22,327.598 1338.01,554.387 1338.01,833.728C1338.01,1113.07 1111.22,1339.86 831.883,1339.86C552.542,1339.86 325.753,1113.07 325.753,833.728C325.753,554.387 552.542,327.598 831.883,327.598Z" style="fill:#de2726;"/>
            <g>
                <path d="M964.821,1655.41C877.979,1670.24 790.842,1670.36 703.404,1655.41L747.288,1332.41C813.039,1340.25 852.009,1339.03 917.857,1332.06L964.821,1655.41Z" style="fill:#5a1716;"/>
                <path d="M963.711,11.578C876.869,-3.248 789.733,-3.365 702.295,11.578L746.086,335.504C811.837,327.663 851.332,328.399 917.18,335.37L963.711,11.578Z" style="fill:#5a1716;"/>
                <path d="M1654.03,703.739C1668.86,790.581 1668.98,877.718 1654.03,965.155L1329.79,921.133C1338.77,861.387 1340.65,811.307 1330.67,750.703L1654.03,703.739Z" style="fill:#5a1716;"/>
                <path d="M9.733,703.02C-5.093,789.862 -5.209,876.999 9.733,964.436L333.982,920.414C324.994,860.668 323.115,810.588 333.093,749.984L9.733,703.02Z" style="fill:#5a1716;"/>
            </g>
        </g>
    </g>
</svg>
