<?xml version="1.0" encoding="UTF-8" standalone="no"?>
<!DOCTYPE svg PUBLIC "-//W3C//DTD SVG 1.1//EN" "http://www.w3.org/Graphics/SVG/1.1/DTD/svg11.dtd">
<svg width="100%" height="100%" viewBox="0 0 1550 1021" version="1.1" xmlns="http://www.w3.org/2000/svg" xmlns:xlink="http://www.w3.org/1999/xlink" xml:space="preserve" xmlns:serif="http://www.serif.com/" style="fill-rule:evenodd;clip-rule:evenodd;stroke-linejoin:round;stroke-miterlimit:2;">
    <g id="Diver-down-flag" serif:id="Diver down flag">
    </g>
    <g id="g186">
    </g>
    <g id="Filigree">
    </g>
    <rect id="Artboard36" x="0" y="0" width="1549.92" height="1020.22" style="fill:none;"/>
    <clipPath id="_clip1">
        <rect x="0" y="0" width="1549.92" height="1020.22"/>
    </clipPath>
    <g clip-path="url(#_clip1)">
        <rect x="759.943" y="19.952" width="31.884" height="995.419" style="fill:#de2726;"/>
        <path d="M213.404,579.203L307.563,811.485L293.936,1015.37L320.214,1015.37L349.607,834.259L486.821,835.642L513.444,1015.16L534.632,1014.9L521.08,816.217L333.532,814.633L236.366,572.73L213.404,579.203Z" style="fill:#de2726;"/>
        <path d="M1334.49,579.203L1240.33,811.485L1253.96,1015.37L1227.68,1015.37L1198.29,834.259L1061.07,835.642L1034.45,1015.16L1013.26,1014.9L1026.81,816.217L1214.36,814.633L1311.53,572.73L1334.49,579.203Z" style="fill:#de2726;"/>
        <ellipse cx="775.885" cy="705.613" rx="357.375" ry="26.862" style="fill:#de2726;"/>
        <path d="M775.885,0.905L1550.85,271.296C1009.04,342.589 492.897,341.187 0.924,271.296L775.885,0.905Z" style="fill:#de2726;"/>
        <path d="M469.052,187.182C466.691,187.182 464.745,186.621 463.216,185.498C461.687,184.375 460.922,182.769 460.922,180.678C460.922,178.588 461.687,177.001 463.216,175.917C464.745,174.833 466.71,174.291 469.11,174.291C471.51,174.291 473.465,174.823 474.975,175.888C476.485,176.952 477.24,178.549 477.24,180.678C477.24,182.769 476.465,184.375 474.917,185.498C473.368,186.621 471.413,187.182 469.052,187.182ZM458.6,220.513L458.6,211.977L462.258,211.977L462.258,198.912L458.6,198.912L458.6,191.944L475.846,190.144L475.846,211.977L479.504,211.977L479.504,220.513L458.6,220.513Z" style="fill:#151212;fill-rule:nonzero;"/>
        <path d="M544.831,212.326L544.831,220.513L527.294,220.513L527.294,201.177C527.294,200.364 527.033,199.647 526.511,199.028C525.988,198.409 525.359,198.099 524.623,198.099C523.23,198.099 522.349,198.786 521.981,200.16C521.613,201.535 521.43,203.519 521.43,206.112L521.43,220.513L507.842,220.513L507.842,201.177C507.842,200.364 507.58,199.647 507.058,199.028C506.535,198.409 505.906,198.099 505.17,198.099C503.777,198.099 502.896,198.786 502.528,200.16C502.161,201.535 501.977,203.519 501.977,206.112L501.977,212.326L502.035,212.326L502.035,220.513L484.324,220.513L484.324,212.326L488.447,212.326L488.447,198.912L484.324,198.912L484.324,191.247L501.977,189.563L501.977,193.802C503.293,192.253 504.783,191.16 506.448,190.521C508.113,189.882 509.99,189.563 512.081,189.563C516.378,189.563 519.184,191.382 520.501,195.021C521.894,193.047 523.501,191.644 525.32,190.811C527.14,189.979 529.211,189.563 531.533,189.563C537.766,189.563 540.882,193.453 540.882,201.235L540.882,212.326L544.831,212.326Z" style="fill:#151212;fill-rule:nonzero;"/>
        <path d="M558.187,221.036C556.29,221.036 554.548,220.658 552.961,219.904C551.373,219.149 550.106,218.074 549.157,216.681C548.209,215.287 547.735,213.661 547.735,211.803C547.735,209.79 548.286,208.096 549.389,206.722C550.493,205.348 551.954,204.322 553.774,203.644C555.593,202.967 557.548,202.628 559.639,202.628C562.116,202.628 564.497,202.996 566.781,203.732L566.781,202.454C566.781,200.944 566.142,199.793 564.865,198.999C563.587,198.205 561.864,197.809 559.697,197.809C558.303,197.809 556.696,198.06 554.877,198.563C553.057,199.067 551.548,199.686 550.348,200.422L549.535,200.073L549.535,191.828C551.819,191.015 554.151,190.434 556.532,190.085C558.913,189.737 561.129,189.563 563.181,189.563C574.678,189.563 580.427,192.795 580.427,199.26L580.427,211.977L583.098,211.977L583.098,220.513L568.581,220.513L567.304,215.868C566.491,217.455 565.223,218.713 563.5,219.642C561.777,220.571 560.006,221.036 558.187,221.036ZM563.529,213.777C564.148,213.777 564.787,213.671 565.445,213.458C566.103,213.245 566.549,213.022 566.781,212.79L566.781,208.029C566.51,207.99 566.055,207.883 565.416,207.709C564.778,207.535 564.226,207.448 563.761,207.448C562.755,207.448 561.952,207.758 561.352,208.377C560.752,208.996 560.451,209.829 560.451,210.874C560.451,211.648 560.732,212.326 561.293,212.906C561.855,213.487 562.6,213.777 563.529,213.777Z" style="fill:#151212;fill-rule:nonzero;"/>
        <path d="M603.712,231.546C599.686,231.546 595.428,230.966 590.937,229.804L590.937,221.617C593.454,222.391 595.534,222.981 597.18,223.388C598.825,223.794 600.441,223.997 602.028,223.997C606.596,223.997 608.88,221.733 608.88,217.203C607.835,218.132 606.558,218.916 605.048,219.555C603.538,220.194 601.835,220.513 599.938,220.513C597.189,220.513 594.867,219.826 592.97,218.452C591.073,217.078 589.65,215.229 588.702,212.906C587.753,210.584 587.279,208.009 587.279,205.183C587.279,202.28 587.763,199.647 588.731,197.286C589.699,194.925 591.131,193.047 593.028,191.653C594.925,190.26 597.228,189.563 599.938,189.563C603.654,189.563 606.635,191.169 608.88,194.383L610.913,190.144L625.372,190.144L625.372,198.912L622.643,198.912L622.643,216.681C622.643,221.597 620.92,225.304 617.475,227.801C614.029,230.298 609.442,231.546 603.712,231.546ZM605.28,212.732C606.171,212.732 606.984,212.461 607.719,211.919C608.455,211.377 608.9,210.835 609.055,210.293L609.055,199.957C608.706,199.299 608.184,198.786 607.487,198.418C606.79,198.051 605.977,197.867 605.048,197.867C603.499,197.867 602.261,198.534 601.332,199.87C600.402,201.206 599.938,203.035 599.938,205.357C599.938,207.564 600.402,209.345 601.332,210.7C602.261,212.055 603.577,212.732 605.28,212.732Z" style="fill:#151212;fill-rule:nonzero;"/>
        <path d="M646.451,221.036C642.928,221.036 639.87,220.387 637.276,219.091C634.682,217.794 632.688,215.945 631.295,213.545C629.901,211.145 629.204,208.338 629.204,205.125C629.204,201.951 629.882,199.193 631.237,196.85C632.592,194.508 634.498,192.708 636.956,191.45C639.415,190.192 642.289,189.563 645.58,189.563C648.638,189.563 651.328,190.163 653.651,191.363C655.974,192.563 657.774,194.266 659.051,196.473C660.329,198.68 660.968,201.254 660.968,204.196C660.968,205.203 660.813,206.17 660.503,207.099L642.85,207.099C642.85,208.88 643.518,210.303 644.854,211.368C646.189,212.432 647.806,212.964 649.702,212.964C651.135,212.964 652.712,212.713 654.435,212.21C656.158,211.706 657.89,210.932 659.632,209.887L660.097,210.061L660.097,217.668C658.161,218.791 656.167,219.633 654.116,220.194C652.064,220.755 649.509,221.036 646.451,221.036ZM650.109,202.106L650.109,201.525C650.109,200.17 649.799,199.009 649.18,198.041C648.56,197.073 647.651,196.589 646.451,196.589C645.444,196.589 644.592,197.083 643.896,198.07C643.199,199.057 642.85,200.131 642.85,201.293L642.85,202.106L650.109,202.106Z" style="fill:#151212;fill-rule:nonzero;"/>
        <path d="M694.589,221.036C691.144,221.036 688.124,220.378 685.531,219.062C682.937,217.745 680.924,215.887 679.491,213.487C678.059,211.087 677.343,208.261 677.343,205.009C677.343,202.067 677.943,199.425 679.143,197.083C680.343,194.741 682.056,192.902 684.282,191.566C686.508,190.231 689.092,189.563 692.034,189.563C693.699,189.563 695.47,189.863 697.347,190.463C699.225,191.063 700.415,191.963 700.919,193.163L702.08,190.144L708.235,190.144L708.235,202.686L700.048,202.686C699.893,201.177 699.448,199.996 698.712,199.144C697.977,198.292 697.067,197.867 695.983,197.867C694.357,197.867 693.118,198.38 692.266,199.405C691.415,200.431 690.989,202.319 690.989,205.067C690.989,207.893 691.725,209.848 693.196,210.932C694.667,212.016 696.351,212.558 698.248,212.558C699.602,212.558 701.074,212.316 702.661,211.832C704.248,211.348 705.661,210.584 706.9,209.538L707.306,209.829L707.306,217.726C707.306,217.803 706.725,218.132 705.564,218.713C704.403,219.294 702.874,219.826 700.977,220.31C699.08,220.794 696.951,221.036 694.589,221.036Z" style="fill:#151212;fill-rule:nonzero;"/>
        <path d="M730.301,221.036C726.895,221.036 723.894,220.407 721.301,219.149C718.707,217.891 716.694,216.052 715.262,213.632C713.829,211.213 713.113,208.338 713.113,205.009C713.113,201.718 713.829,198.912 715.262,196.589C716.694,194.266 718.707,192.515 721.301,191.334C723.894,190.153 726.895,189.563 730.301,189.563C735.527,189.563 739.708,190.908 742.844,193.599C745.98,196.289 747.547,200.093 747.547,205.009C747.547,208.338 746.831,211.213 745.399,213.632C743.967,216.052 741.954,217.891 739.36,219.149C736.766,220.407 733.747,221.036 730.301,221.036ZM730.301,212.732C731.54,212.732 732.459,212.122 733.059,210.903C733.66,209.684 733.96,207.719 733.96,205.009C733.96,202.493 733.669,200.673 733.088,199.551C732.508,198.428 731.579,197.867 730.301,197.867C729.062,197.867 728.153,198.428 727.572,199.551C726.991,200.673 726.701,202.493 726.701,205.009C726.701,207.719 727.001,209.684 727.601,210.903C728.201,212.122 729.101,212.732 730.301,212.732Z" style="fill:#151212;fill-rule:nonzero;"/>
        <path d="M813.165,212.326L813.165,220.513L795.628,220.513L795.628,201.177C795.628,200.364 795.367,199.647 794.844,199.028C794.322,198.409 793.692,198.099 792.957,198.099C791.563,198.099 790.683,198.786 790.315,200.16C789.947,201.535 789.763,203.519 789.763,206.112L789.763,220.513L776.175,220.513L776.175,201.177C776.175,200.364 775.914,199.647 775.391,199.028C774.869,198.409 774.24,198.099 773.504,198.099C772.11,198.099 771.23,198.786 770.862,200.16C770.494,201.535 770.31,203.519 770.31,206.112L770.31,212.326L770.368,212.326L770.368,220.513L752.658,220.513L752.658,212.326L756.78,212.326L756.78,198.912L752.658,198.912L752.658,191.247L770.31,189.563L770.31,193.802C771.626,192.253 773.117,191.16 774.782,190.521C776.446,189.882 778.324,189.563 780.414,189.563C784.711,189.563 787.518,191.382 788.834,195.021C790.228,193.047 791.834,191.644 793.654,190.811C795.473,189.979 797.544,189.563 799.867,189.563C806.1,189.563 809.216,193.453 809.216,201.235L809.216,212.326L813.165,212.326Z" style="fill:#151212;fill-rule:nonzero;"/>
        <path d="M826.753,187.182C824.391,187.182 822.446,186.621 820.917,185.498C819.388,184.375 818.623,182.769 818.623,180.678C818.623,178.588 819.388,177.001 820.917,175.917C822.446,174.833 824.411,174.291 826.811,174.291C829.211,174.291 831.166,174.823 832.676,175.888C834.185,176.952 834.94,178.549 834.94,180.678C834.94,182.769 834.166,184.375 832.618,185.498C831.069,186.621 829.114,187.182 826.753,187.182ZM816.3,220.513L816.3,211.977L819.959,211.977L819.959,198.912L816.3,198.912L816.3,191.944L833.547,190.144L833.547,211.977L837.205,211.977L837.205,220.513L816.3,220.513Z" style="fill:#151212;fill-rule:nonzero;"/>
        <path d="M883.079,212.326L883.079,220.513L865.542,220.513L865.542,201.177C865.542,200.364 865.281,199.647 864.758,199.028C864.236,198.409 863.607,198.099 862.871,198.099C861.477,198.099 860.597,198.786 860.229,200.16C859.861,201.535 859.677,203.519 859.677,206.112L859.677,212.326L859.735,212.326L859.735,220.513L842.025,220.513L842.025,212.326L846.147,212.326L846.147,198.912L842.025,198.912L842.025,191.247L859.677,189.563L859.677,193.802C860.994,192.253 862.484,191.16 864.149,190.521C865.813,189.882 867.691,189.563 869.781,189.563C876.014,189.563 879.13,193.453 879.13,201.235L879.13,212.326L883.079,212.326Z" style="fill:#151212;fill-rule:nonzero;"/>
        <path d="M902.416,231.546C898.39,231.546 894.131,230.966 889.641,229.804L889.641,221.617C892.157,222.391 894.238,222.981 895.883,223.388C897.528,223.794 899.144,223.997 900.732,223.997C905.3,223.997 907.584,221.733 907.584,217.203C906.538,218.132 905.261,218.916 903.751,219.555C902.241,220.194 900.538,220.513 898.641,220.513C895.893,220.513 893.57,219.826 891.673,218.452C889.776,217.078 888.353,215.229 887.405,212.906C886.457,210.584 885.982,208.009 885.982,205.183C885.982,202.28 886.466,199.647 887.434,197.286C888.402,194.925 889.834,193.047 891.731,191.653C893.628,190.26 895.931,189.563 898.641,189.563C902.358,189.563 905.338,191.169 907.584,194.383L909.616,190.144L924.075,190.144L924.075,198.912L921.346,198.912L921.346,216.681C921.346,221.597 919.623,225.304 916.178,227.801C912.732,230.298 908.145,231.546 902.416,231.546ZM903.983,212.732C904.874,212.732 905.687,212.461 906.422,211.919C907.158,211.377 907.603,210.835 907.758,210.293L907.758,199.957C907.409,199.299 906.887,198.786 906.19,198.418C905.493,198.051 904.68,197.867 903.751,197.867C902.203,197.867 900.964,198.534 900.035,199.87C899.106,201.206 898.641,203.035 898.641,205.357C898.641,207.564 899.106,209.345 900.035,210.7C900.964,212.055 902.28,212.732 903.983,212.732Z" style="fill:#151212;fill-rule:nonzero;"/>
        <path d="M956.361,221.036C952.49,221.036 949.064,220.01 946.083,217.958L945.154,220.513L939.87,220.513L939.87,209.306L946.199,209.306C946.431,210.738 947.099,212.026 948.202,213.168C949.306,214.31 950.574,214.881 952.006,214.881C952.548,214.881 953.022,214.726 953.429,214.416C953.835,214.106 954.038,213.603 954.038,212.906C954.038,212.21 953.642,211.58 952.848,211.019C952.054,210.458 950.845,209.79 949.219,209.016C947.283,208.048 945.696,207.167 944.457,206.374C943.218,205.58 942.144,204.535 941.234,203.238C940.325,201.941 939.87,200.383 939.87,198.563C939.87,196.667 940.479,195.041 941.699,193.686C942.918,192.331 944.534,191.305 946.548,190.608C948.561,189.911 950.748,189.563 953.109,189.563C956.206,189.563 959.071,190.376 961.703,192.002L962.4,190.144L967.104,190.144L967.104,199.202L961.645,199.202C961.181,197.963 960.503,196.996 959.613,196.299C958.722,195.602 957.677,195.254 956.477,195.254C955.819,195.254 955.306,195.35 954.938,195.544C954.571,195.737 954.387,196.086 954.387,196.589C954.425,197.209 954.793,197.731 955.49,198.157C956.187,198.583 957.348,199.144 958.974,199.841C960.987,200.693 962.652,201.506 963.968,202.28C965.284,203.054 966.436,204.148 967.423,205.561C968.41,206.974 968.904,208.725 968.904,210.816C968.904,213.022 968.323,214.89 967.162,216.419C966,217.949 964.471,219.1 962.574,219.875C960.677,220.649 958.606,221.036 956.361,221.036Z" style="fill:#151212;fill-rule:nonzero;"/>
        <path d="M991.028,221.036C987.621,221.036 984.621,220.407 982.027,219.149C979.434,217.891 977.42,216.052 975.988,213.632C974.556,211.213 973.84,208.338 973.84,205.009C973.84,201.718 974.556,198.912 975.988,196.589C977.42,194.266 979.434,192.515 982.027,191.334C984.621,190.153 987.621,189.563 991.028,189.563C996.254,189.563 1000.44,190.908 1003.57,193.599C1006.71,196.289 1008.27,200.093 1008.27,205.009C1008.27,208.338 1007.56,211.213 1006.13,213.632C1004.69,216.052 1002.68,217.891 1000.09,219.149C997.493,220.407 994.473,221.036 991.028,221.036ZM991.028,212.732C992.267,212.732 993.186,212.122 993.786,210.903C994.386,209.684 994.686,207.719 994.686,205.009C994.686,202.493 994.396,200.673 993.815,199.551C993.234,198.428 992.305,197.867 991.028,197.867C989.789,197.867 988.879,198.428 988.299,199.551C987.718,200.673 987.428,202.493 987.428,205.009C987.428,207.719 987.728,209.684 988.328,210.903C988.928,212.122 989.828,212.732 991.028,212.732Z" style="fill:#151212;fill-rule:nonzero;"/>
        <path d="M1029.76,221.036C1026.35,221.036 1023.35,220.407 1020.76,219.149C1018.17,217.891 1016.15,216.052 1014.72,213.632C1013.29,211.213 1012.57,208.338 1012.57,205.009C1012.57,201.718 1013.29,198.912 1014.72,196.589C1016.15,194.266 1018.17,192.515 1020.76,191.334C1023.35,190.153 1026.35,189.563 1029.76,189.563C1034.99,189.563 1039.17,190.908 1042.3,193.599C1045.44,196.289 1047.01,200.093 1047.01,205.009C1047.01,208.338 1046.29,211.213 1044.86,213.632C1043.42,216.052 1041.41,217.891 1038.82,219.149C1036.22,220.407 1033.2,221.036 1029.76,221.036ZM1029.76,212.732C1031,212.732 1031.92,212.122 1032.52,210.903C1033.12,209.684 1033.42,207.719 1033.42,205.009C1033.42,202.493 1033.13,200.673 1032.55,199.551C1031.97,198.428 1031.04,197.867 1029.76,197.867C1028.52,197.867 1027.61,198.428 1027.03,199.551C1026.45,200.673 1026.16,202.493 1026.16,205.009C1026.16,207.719 1026.46,209.684 1027.06,210.903C1027.66,212.122 1028.56,212.732 1029.76,212.732Z" style="fill:#151212;fill-rule:nonzero;"/>
        <path d="M1093.17,212.326L1093.17,220.513L1075.63,220.513L1075.63,201.177C1075.63,200.364 1075.37,199.647 1074.85,199.028C1074.33,198.409 1073.7,198.099 1072.96,198.099C1071.57,198.099 1070.69,198.786 1070.32,200.16C1069.95,201.535 1069.77,203.519 1069.77,206.112L1069.77,212.326L1069.83,212.326L1069.83,220.513L1052.12,220.513L1052.12,212.326L1056.24,212.326L1056.24,198.912L1052.12,198.912L1052.12,191.247L1069.77,189.563L1069.77,193.802C1071.09,192.253 1072.58,191.16 1074.24,190.521C1075.9,189.882 1077.78,189.563 1079.87,189.563C1086.11,189.563 1089.22,193.453 1089.22,201.235L1089.22,212.326L1093.17,212.326Z" style="fill:#151212;fill-rule:nonzero;"/>
    </g>
</svg>
