<?xml version="1.0" encoding="UTF-8" standalone="no"?>
<!DOCTYPE svg PUBLIC "-//W3C//DTD SVG 1.1//EN" "http://www.w3.org/Graphics/SVG/1.1/DTD/svg11.dtd">
<svg width="100%" height="100%" viewBox="0 0 610 610" version="1.1" xmlns="http://www.w3.org/2000/svg" xmlns:xlink="http://www.w3.org/1999/xlink" xml:space="preserve" xmlns:serif="http://www.serif.com/" style="fill-rule:evenodd;clip-rule:evenodd;stroke-linecap:round;stroke-linejoin:round;stroke-miterlimit:1.5;">
    <g transform="matrix(1,0,0,1,-2357.86,-8283)">
        <g id="Diver-down-flag" serif:id="Diver down flag">
        </g>
        <g id="g186">
        </g>
        <g id="Filigree">
        </g>
        <g id="Occupancy-Meter-2" serif:id="Occupancy Meter 2">
        </g>
        <g id="Discover-Deals" serif:id="Discover Deals">
        </g>
        <g id="See-Spaces" serif:id="See Spaces">
        </g>
        <g id="Photos" transform="matrix(0.987102,0,0,0.985517,2735.15,-942.45)">
            <rect x="-382.216" y="9361.03" width="617.395" height="618.563" style="fill:none;"/>
            <g id="See-Spaces1" serif:id="See Spaces" transform="matrix(1.01307,0,0,1.0147,-749.284,826.739)">
                <g transform="matrix(0.854599,0,0,0.854599,63.6045,1300.37)">
                    <circle cx="705.937" cy="8674.83" r="354.723" style="fill:rgb(21,18,18);"/>
                </g>
                <g transform="matrix(1,0,-1.11022e-16,1,913.199,-19.3549)">
                    <clipPath id="_clip1">
                        <circle cx="-246.302" cy="8733.22" r="303.146"/>
                    </clipPath>
                    <g clip-path="url(#_clip1)">
                        <path d="M-543.461,8796.21L-385.169,8670.29L-219.634,8822.88L-105.35,8733.22L35.119,8845.69C-33.208,9012.84 -182.292,9060.28 -320.763,9025.23C-417.404,9000.76 -504.176,8925.26 -543.461,8796.21Z" style="fill:none;stroke:rgb(223,175,15);stroke-width:29.17px;"/>
                        <path d="M-543.461,8796.21L-385.169,8670.29L-219.634,8822.88L-105.35,8733.22L35.119,8845.69C-33.208,9012.84 -182.292,9060.28 -320.763,9025.23C-417.404,9000.76 -504.176,8925.26 -543.461,8796.21Z" style="fill:rgb(223,175,15);"/>
                    </g>
                </g>
                <g id="Sun" transform="matrix(1,0,0,1,58.0163,-62.9329)">
                    <clipPath id="_clip2">
                        <circle cx="666.897" cy="8713.87" r="303.146"/>
                    </clipPath>
                    <g clip-path="url(#_clip2)">
                        <g transform="matrix(1,0,0,1,892.613,3.33477)">
                            <path d="M-209.469,8559.53C-211.333,8559.46 -213.199,8559.46 -215.062,8559.53L-213.974,8587.6C-215.914,8587.68 -217.846,8587.88 -219.759,8588.21L-224.53,8560.53C-226.368,8560.85 -228.193,8561.23 -230.001,8561.69L-223.101,8588.92C-224.983,8589.4 -226.83,8590 -228.633,8590.72L-239.055,8564.63C-240.787,8565.33 -242.492,8566.09 -244.165,8566.91L-231.755,8592.11C-233.496,8592.97 -235.178,8593.94 -236.792,8595.02L-252.41,8571.67C-253.96,8572.71 -255.47,8573.8 -256.935,8574.96L-239.556,8597.02C-241.081,8598.23 -242.525,8599.53 -243.878,8600.92L-264.01,8581.33C-265.311,8582.66 -266.559,8584.05 -267.753,8585.48L-246.165,8603.46C-247.407,8604.95 -248.549,8606.52 -249.584,8608.16L-273.348,8593.18C-274.343,8594.76 -275.276,8596.38 -276.145,8598.03L-251.292,8611.12C-252.197,8612.84 -252.987,8614.61 -253.658,8616.43L-280.017,8606.73C-280.662,8608.48 -281.238,8610.25 -281.746,8612.05L-254.714,8619.68C-255.242,8621.55 -255.646,8623.45 -255.923,8625.37L-283.725,8621.36C-283.992,8623.2 -284.187,8625.06 -284.31,8626.92L-256.281,8628.77C-256.409,8630.71 -256.409,8632.65 -256.281,8634.59L-284.31,8636.44C-284.187,8638.3 -283.992,8640.16 -283.725,8642L-255.923,8637.99C-255.646,8639.91 -255.242,8641.81 -254.714,8643.68L-281.746,8651.32C-281.238,8653.11 -280.662,8654.89 -280.017,8656.64L-253.658,8646.93C-252.987,8648.75 -252.197,8650.52 -251.292,8652.24L-276.145,8665.33C-275.276,8666.98 -274.343,8668.6 -273.348,8670.18L-249.584,8655.2C-248.549,8656.84 -247.407,8658.41 -246.165,8659.91L-267.753,8677.88C-266.559,8679.31 -265.311,8680.7 -264.01,8682.03L-243.878,8662.44C-242.525,8663.84 -241.081,8665.14 -239.556,8666.34L-256.935,8688.41C-255.47,8689.56 -253.96,8690.66 -252.41,8691.69L-236.792,8668.34C-235.178,8669.42 -233.496,8670.4 -231.755,8671.25L-244.165,8696.45C-242.492,8697.28 -240.787,8698.04 -239.055,8698.73L-228.633,8672.64C-226.83,8673.36 -224.983,8673.96 -223.101,8674.44L-230.001,8701.67C-228.193,8702.13 -226.368,8702.52 -224.53,8702.83L-219.759,8675.15C-217.846,8675.48 -215.914,8675.68 -213.974,8675.76L-215.062,8703.83C-213.199,8703.9 -211.333,8703.9 -209.469,8703.83L-210.557,8675.76C-208.618,8675.68 -206.685,8675.48 -204.773,8675.15L-200.001,8702.83C-198.163,8702.52 -196.338,8702.13 -194.53,8701.67L-201.43,8674.44C-199.549,8673.96 -197.701,8673.36 -195.899,8672.64L-185.476,8698.73C-183.744,8698.04 -182.039,8697.28 -180.366,8696.45L-192.777,8671.25C-191.035,8670.4 -189.353,8669.42 -187.74,8668.34L-172.121,8691.69C-170.571,8690.66 -169.061,8689.56 -167.596,8688.41L-184.975,8666.34C-183.45,8665.14 -182.006,8663.84 -180.653,8662.44L-160.521,8682.03C-159.221,8680.7 -157.972,8679.31 -156.779,8677.88L-178.366,8659.91C-177.124,8658.41 -175.982,8656.84 -174.947,8655.2L-151.183,8670.18C-150.188,8668.6 -149.256,8666.98 -148.386,8665.33L-173.239,8652.24C-172.334,8650.52 -171.544,8648.75 -170.873,8646.93L-144.514,8656.64C-143.869,8654.89 -143.293,8653.11 -142.786,8651.32L-169.817,8643.68C-169.289,8641.81 -168.885,8639.91 -168.608,8637.99L-140.806,8642C-140.54,8640.16 -140.345,8638.3 -140.222,8636.44L-168.251,8634.59C-168.123,8632.65 -168.123,8630.71 -168.251,8628.77L-140.222,8626.92C-140.345,8625.06 -140.54,8623.2 -140.806,8621.36L-168.608,8625.37C-168.885,8623.45 -169.289,8621.55 -169.817,8619.68L-142.786,8612.05C-143.293,8610.25 -143.869,8608.48 -144.514,8606.73L-170.873,8616.43C-171.544,8614.61 -172.334,8612.84 -173.239,8611.12L-148.386,8598.03C-149.256,8596.38 -150.188,8594.76 -151.183,8593.18L-174.947,8608.16C-175.982,8606.52 -177.124,8604.95 -178.366,8603.46L-156.779,8585.48C-157.972,8584.05 -159.221,8582.66 -160.521,8581.33L-180.653,8600.92C-182.006,8599.53 -183.45,8598.23 -184.975,8597.02L-167.596,8574.96C-169.061,8573.8 -170.571,8572.71 -172.121,8571.67L-187.74,8595.02C-189.353,8593.94 -191.035,8592.97 -192.777,8592.11L-180.366,8566.91C-182.039,8566.09 -183.744,8565.33 -185.476,8564.63L-195.899,8590.72C-197.701,8590 -199.549,8589.4 -201.43,8588.92L-194.53,8561.69C-196.338,8561.23 -198.163,8560.85 -200.001,8560.53L-204.773,8588.21C-206.685,8587.88 -208.618,8587.68 -210.557,8587.6L-209.469,8559.53Z" style="fill:rgb(223,175,15);"/>
                        </g>
                    </g>
                </g>
            </g>
            <g transform="matrix(0.774453,-0.0763227,0.0762001,0.775698,-809.39,2010.28)">
                <g transform="matrix(0.603728,0.79719,-0.79719,0.603728,7813.82,4201.56)">
                    <text x="-319.285px" y="9960.41px" style="font-family:'Righteous-Regular', 'Righteous';font-size:175px;fill:rgb(21,18,18);">p</text>
                </g>
                <g transform="matrix(0.81152,0.584324,-0.584324,0.81152,5830.86,2037.42)">
                    <text x="-242.778px" y="10057.1px" style="font-family:'Righteous-Regular', 'Righteous';font-size:175px;fill:rgb(21,18,18);">h</text>
                </g>
                <g transform="matrix(0.949089,0.315008,-0.315008,0.949089,3181.14,562.056)">
                    <text x="-148.269px" y="10122.5px" style="font-family:'Righteous-Regular', 'Righteous';font-size:175px;fill:rgb(21,18,18);">o</text>
                </g>
                <g transform="matrix(0.999139,0.0414906,-0.0414906,0.999139,421.333,10.2092)">
                    <text x="-35.288px" y="10155.6px" style="font-family:'Righteous-Regular', 'Righteous';font-size:175px;fill:rgb(21,18,18);">t</text>
                </g>
                <g transform="matrix(0.971489,-0.237084,0.237084,0.971489,-2406.85,303.353)">
                    <text x="57.852px" y="10158.8px" style="font-family:'Righteous-Regular', 'Righteous';font-size:175px;fill:rgb(21,18,18);">o</text>
                </g>
                <g transform="matrix(0.856693,-0.515826,0.515826,0.856693,-5199.58,1539.93)">
                    <text x="171.664px" y="10127.8px" style="font-family:'Righteous-Regular', 'Righteous';font-size:175px;fill:rgb(21,18,18);">s</text>
                </g>
            </g>
        </g>
        <g id="Binoculars">
        </g>
    </g>
</svg>
