<?xml version="1.0" encoding="UTF-8" standalone="no"?>
<!DOCTYPE svg PUBLIC "-//W3C//DTD SVG 1.1//EN" "http://www.w3.org/Graphics/SVG/1.1/DTD/svg11.dtd">
<svg width="100%" height="100%" viewBox="0 0 3841 3091" version="1.1" xmlns="http://www.w3.org/2000/svg" xmlns:xlink="http://www.w3.org/1999/xlink" xml:space="preserve" xmlns:serif="http://www.serif.com/" style="fill-rule:evenodd;clip-rule:evenodd;stroke-linejoin:round;stroke-miterlimit:2;">
    <g transform="matrix(1,0,0,1,5578.83,6.39488e-14)">
        <rect id="Artboard2" x="-5578.83" y="-0" width="3840.82" height="3090.4" style="fill:none;"/>
        <clipPath id="_clip1">
            <rect id="Artboard21" serif:id="Artboard2" x="-5578.83" y="-0" width="3840.82" height="3090.4"/>
        </clipPath>
        <g clip-path="url(#_clip1)">
            <g id="Footprint" transform="matrix(1,0,0,1,-5578.66,4.49125)">
                <path d="M3840.82,-3.491L3840.82,3086.91L0,3086.91L0,0L3638.02,0L3638.02,-3.491L3840.82,-3.491Z"/>
            </g>
            <g transform="matrix(0.526825,0,0,0.526825,-2267.9,709.533)">
                <g transform="matrix(600.19,0,0,600,-3828.97,1383.08)">
                    <path d="M0.063,-0L0.063,-0.172L0.141,-0.172L0.141,-0.605L0.063,-0.605L0.063,-0.777L0.469,-0.777L0.469,-0.605L0.391,-0.605L0.391,-0.172L0.469,-0.172L0.469,-0L0.063,-0Z" style="fill:none;fill-rule:nonzero;stroke:black;stroke-width:0.05px;"/>
                </g>
                <g transform="matrix(600.19,0,0,600,-3557.69,1383.08)">
                    <path d="M1.093,-0.141L1.093,-0L0.791,-0L0.791,-0.333C0.791,-0.347 0.787,-0.359 0.778,-0.37C0.769,-0.381 0.758,-0.386 0.745,-0.386C0.721,-0.386 0.706,-0.374 0.7,-0.35C0.693,-0.327 0.69,-0.293 0.69,-0.248L0.69,-0L0.456,-0L0.456,-0.333C0.456,-0.347 0.452,-0.359 0.443,-0.37C0.434,-0.381 0.423,-0.386 0.41,-0.386C0.386,-0.386 0.371,-0.374 0.365,-0.35C0.358,-0.327 0.355,-0.293 0.355,-0.248L0.355,-0.141L0.356,-0.141L0.356,-0L0.051,-0L0.051,-0.141L0.122,-0.141L0.122,-0.372L0.051,-0.372L0.051,-0.504L0.355,-0.533L0.355,-0.46C0.378,-0.487 0.403,-0.505 0.432,-0.517C0.461,-0.528 0.493,-0.533 0.529,-0.533C0.603,-0.533 0.651,-0.502 0.674,-0.439C0.698,-0.473 0.726,-0.497 0.757,-0.511C0.788,-0.526 0.824,-0.533 0.864,-0.533C0.971,-0.533 1.025,-0.466 1.025,-0.332L1.025,-0.141L1.093,-0.141Z" style="fill:none;fill-rule:nonzero;stroke:black;stroke-width:0.05px;"/>
                </g>
                <g transform="matrix(600.19,0,0,600,-2924.49,1383.08)">
                    <path d="M0.218,0.009C0.185,0.009 0.155,0.002 0.128,-0.011C0.101,-0.024 0.079,-0.042 0.063,-0.066C0.046,-0.09 0.038,-0.118 0.038,-0.15C0.038,-0.185 0.048,-0.214 0.067,-0.237C0.086,-0.261 0.111,-0.279 0.142,-0.291C0.173,-0.302 0.207,-0.308 0.243,-0.308C0.286,-0.308 0.327,-0.302 0.366,-0.289L0.366,-0.311C0.366,-0.337 0.355,-0.357 0.333,-0.371C0.311,-0.384 0.281,-0.391 0.244,-0.391C0.22,-0.391 0.192,-0.387 0.161,-0.378C0.13,-0.369 0.104,-0.359 0.083,-0.346L0.069,-0.352L0.069,-0.494C0.108,-0.508 0.149,-0.518 0.19,-0.524C0.231,-0.53 0.269,-0.533 0.304,-0.533C0.502,-0.533 0.601,-0.477 0.601,-0.366L0.601,-0.147L0.647,-0.147L0.647,-0L0.397,-0L0.375,-0.08C0.361,-0.053 0.339,-0.031 0.31,-0.015C0.28,0.001 0.249,0.009 0.218,0.009ZM0.31,-0.116C0.321,-0.116 0.332,-0.118 0.343,-0.122C0.354,-0.125 0.362,-0.129 0.366,-0.133L0.366,-0.215C0.361,-0.216 0.354,-0.218 0.343,-0.221C0.332,-0.224 0.322,-0.225 0.314,-0.225C0.297,-0.225 0.283,-0.22 0.273,-0.209C0.262,-0.198 0.257,-0.184 0.257,-0.166C0.257,-0.153 0.262,-0.141 0.272,-0.131C0.281,-0.121 0.294,-0.116 0.31,-0.116Z" style="fill:none;fill-rule:nonzero;stroke:black;stroke-width:0.05px;"/>
                </g>
                <g transform="matrix(600.19,0,0,600,-2545.17,1383.08)">
                    <path d="M0.32,0.19C0.251,0.19 0.177,0.18 0.1,0.16L0.1,0.019C0.143,0.032 0.179,0.042 0.207,0.049C0.236,0.056 0.264,0.06 0.291,0.06C0.37,0.06 0.409,0.021 0.409,-0.057C0.391,-0.041 0.369,-0.028 0.343,-0.017C0.317,-0.006 0.288,-0 0.255,-0C0.208,-0 0.168,-0.012 0.135,-0.035C0.102,-0.059 0.078,-0.091 0.062,-0.131C0.045,-0.171 0.037,-0.215 0.037,-0.264C0.037,-0.314 0.045,-0.359 0.062,-0.4C0.079,-0.441 0.103,-0.473 0.136,-0.497C0.169,-0.521 0.208,-0.533 0.255,-0.533C0.319,-0.533 0.37,-0.505 0.409,-0.45L0.444,-0.523L0.693,-0.523L0.693,-0.372L0.646,-0.372L0.646,-0.066C0.646,0.019 0.616,0.082 0.557,0.125C0.498,0.168 0.419,0.19 0.32,0.19ZM0.347,-0.134C0.362,-0.134 0.376,-0.139 0.389,-0.148C0.402,-0.157 0.409,-0.167 0.412,-0.176L0.412,-0.354C0.406,-0.365 0.397,-0.374 0.385,-0.381C0.373,-0.387 0.359,-0.39 0.343,-0.39C0.316,-0.39 0.295,-0.379 0.279,-0.356C0.263,-0.333 0.255,-0.301 0.255,-0.261C0.255,-0.223 0.263,-0.192 0.279,-0.169C0.295,-0.146 0.318,-0.134 0.347,-0.134Z" style="fill:none;fill-rule:nonzero;stroke:black;stroke-width:0.05px;"/>
                </g>
                <g transform="matrix(600.19,0,0,600,-2138.24,1383.08)">
                    <path d="M0.328,0.009C0.267,0.009 0.215,-0.002 0.17,-0.025C0.125,-0.047 0.091,-0.079 0.067,-0.12C0.043,-0.161 0.031,-0.21 0.031,-0.265C0.031,-0.32 0.043,-0.367 0.066,-0.407C0.089,-0.448 0.122,-0.479 0.165,-0.5C0.207,-0.522 0.256,-0.533 0.313,-0.533C0.366,-0.533 0.412,-0.523 0.452,-0.502C0.492,-0.481 0.523,-0.452 0.545,-0.414C0.567,-0.376 0.578,-0.332 0.578,-0.281C0.578,-0.264 0.575,-0.247 0.57,-0.231L0.266,-0.231C0.266,-0.2 0.278,-0.176 0.301,-0.158C0.324,-0.139 0.351,-0.13 0.384,-0.13C0.409,-0.13 0.436,-0.134 0.466,-0.143C0.495,-0.152 0.525,-0.165 0.555,-0.183L0.563,-0.18L0.563,-0.049C0.53,-0.03 0.495,-0.015 0.46,-0.006C0.425,0.004 0.381,0.009 0.328,0.009ZM0.391,-0.317L0.391,-0.327C0.391,-0.35 0.386,-0.37 0.375,-0.387C0.364,-0.404 0.349,-0.412 0.328,-0.412C0.311,-0.412 0.296,-0.404 0.284,-0.387C0.272,-0.37 0.266,-0.351 0.266,-0.331L0.266,-0.317L0.391,-0.317Z" style="fill:none;fill-rule:nonzero;stroke:black;stroke-width:0.05px;"/>
                </g>
                <g transform="matrix(600.19,0,0,600,-1794.33,1383.08)">
                    <path d="M0.315,0.009C0.248,0.009 0.189,-0.009 0.138,-0.044L0.122,-0L0.031,-0L0.031,-0.193L0.14,-0.193C0.144,-0.168 0.156,-0.146 0.174,-0.127C0.194,-0.107 0.215,-0.097 0.24,-0.097C0.249,-0.097 0.258,-0.1 0.265,-0.105C0.272,-0.11 0.275,-0.119 0.275,-0.131C0.275,-0.143 0.268,-0.154 0.255,-0.164C0.241,-0.173 0.22,-0.185 0.192,-0.198C0.159,-0.215 0.131,-0.23 0.11,-0.244C0.089,-0.257 0.07,-0.275 0.055,-0.298C0.039,-0.32 0.031,-0.347 0.031,-0.378C0.031,-0.411 0.042,-0.439 0.063,-0.462C0.084,-0.485 0.111,-0.503 0.146,-0.515C0.181,-0.527 0.218,-0.533 0.259,-0.533C0.312,-0.533 0.362,-0.519 0.407,-0.491L0.419,-0.523L0.5,-0.523L0.5,-0.367L0.406,-0.367C0.398,-0.388 0.386,-0.405 0.371,-0.417C0.356,-0.429 0.338,-0.435 0.317,-0.435C0.306,-0.435 0.297,-0.433 0.291,-0.43C0.284,-0.427 0.281,-0.421 0.281,-0.412C0.282,-0.401 0.288,-0.392 0.3,-0.385C0.312,-0.378 0.332,-0.368 0.36,-0.356C0.395,-0.341 0.423,-0.327 0.446,-0.314C0.469,-0.301 0.489,-0.282 0.505,-0.258C0.523,-0.233 0.531,-0.203 0.531,-0.167C0.531,-0.129 0.521,-0.097 0.501,-0.07C0.481,-0.044 0.455,-0.024 0.422,-0.011C0.389,0.002 0.354,0.009 0.315,0.009Z" style="fill:none;fill-rule:nonzero;stroke:black;stroke-width:0.05px;"/>
                </g>
                <g transform="matrix(600.19,0,0,600,-3857.78,1983.08)">
                    <path d="M0.328,0.009C0.269,0.009 0.217,-0.002 0.172,-0.025C0.127,-0.048 0.093,-0.08 0.068,-0.121C0.043,-0.162 0.031,-0.211 0.031,-0.267C0.031,-0.318 0.041,-0.363 0.062,-0.404C0.083,-0.444 0.112,-0.475 0.151,-0.499C0.189,-0.522 0.233,-0.533 0.284,-0.533C0.313,-0.533 0.343,-0.528 0.376,-0.518C0.408,-0.507 0.428,-0.492 0.437,-0.471L0.457,-0.523L0.563,-0.523L0.563,-0.307L0.422,-0.307C0.419,-0.333 0.412,-0.353 0.399,-0.368C0.386,-0.383 0.371,-0.39 0.352,-0.39C0.324,-0.39 0.303,-0.381 0.288,-0.364C0.273,-0.346 0.266,-0.313 0.266,-0.266C0.266,-0.217 0.279,-0.184 0.304,-0.165C0.329,-0.146 0.358,-0.137 0.391,-0.137C0.414,-0.137 0.44,-0.141 0.467,-0.15C0.494,-0.158 0.519,-0.171 0.54,-0.189L0.547,-0.184L0.547,-0.048C0.547,-0.047 0.537,-0.041 0.517,-0.031C0.497,-0.021 0.471,-0.012 0.438,-0.004C0.405,0.005 0.369,0.009 0.328,0.009Z" style="fill:none;fill-rule:nonzero;stroke:black;stroke-width:0.05px;"/>
                </g>
                <g transform="matrix(600.19,0,0,600,-3521.68,1983.08)">
                    <path d="M0.333,0.009C0.274,0.009 0.223,-0.002 0.178,-0.024C0.133,-0.045 0.099,-0.077 0.074,-0.118C0.049,-0.16 0.037,-0.21 0.037,-0.267C0.037,-0.324 0.049,-0.372 0.074,-0.412C0.099,-0.452 0.133,-0.482 0.178,-0.502C0.223,-0.523 0.274,-0.533 0.333,-0.533C0.423,-0.533 0.495,-0.51 0.549,-0.464C0.603,-0.417 0.63,-0.352 0.63,-0.267C0.63,-0.21 0.618,-0.16 0.593,-0.118C0.568,-0.077 0.534,-0.045 0.489,-0.024C0.444,-0.002 0.392,0.009 0.333,0.009ZM0.333,-0.134C0.354,-0.134 0.37,-0.145 0.381,-0.166C0.391,-0.187 0.396,-0.22 0.396,-0.267C0.396,-0.31 0.391,-0.342 0.381,-0.361C0.371,-0.38 0.355,-0.39 0.333,-0.39C0.312,-0.39 0.296,-0.38 0.286,-0.361C0.276,-0.342 0.271,-0.31 0.271,-0.267C0.271,-0.22 0.276,-0.187 0.286,-0.166C0.297,-0.145 0.312,-0.134 0.333,-0.134Z" style="fill:none;fill-rule:nonzero;stroke:black;stroke-width:0.05px;"/>
                </g>
                <g transform="matrix(600.19,0,0,600,-3151.36,1983.08)">
                    <path d="M1.093,-0.141L1.093,-0L0.791,-0L0.791,-0.333C0.791,-0.347 0.787,-0.359 0.778,-0.37C0.769,-0.381 0.758,-0.386 0.745,-0.386C0.721,-0.386 0.706,-0.374 0.7,-0.35C0.693,-0.327 0.69,-0.293 0.69,-0.248L0.69,-0L0.456,-0L0.456,-0.333C0.456,-0.347 0.452,-0.359 0.443,-0.37C0.434,-0.381 0.423,-0.386 0.41,-0.386C0.386,-0.386 0.371,-0.374 0.365,-0.35C0.358,-0.327 0.355,-0.293 0.355,-0.248L0.355,-0.141L0.356,-0.141L0.356,-0L0.051,-0L0.051,-0.141L0.122,-0.141L0.122,-0.372L0.051,-0.372L0.051,-0.504L0.355,-0.533L0.355,-0.46C0.378,-0.487 0.403,-0.505 0.432,-0.517C0.461,-0.528 0.493,-0.533 0.529,-0.533C0.603,-0.533 0.651,-0.502 0.674,-0.439C0.698,-0.473 0.726,-0.497 0.757,-0.511C0.788,-0.526 0.824,-0.533 0.864,-0.533C0.971,-0.533 1.025,-0.466 1.025,-0.332L1.025,-0.141L1.093,-0.141Z" style="fill:none;fill-rule:nonzero;stroke:black;stroke-width:0.05px;"/>
                </g>
                <g transform="matrix(600.19,0,0,600,-2518.16,1983.08)">
                    <path d="M0.222,-0.574C0.181,-0.574 0.148,-0.584 0.122,-0.603C0.095,-0.622 0.082,-0.65 0.082,-0.686C0.082,-0.722 0.095,-0.749 0.122,-0.768C0.148,-0.787 0.182,-0.796 0.223,-0.796C0.264,-0.796 0.298,-0.787 0.324,-0.769C0.35,-0.75 0.363,-0.723 0.363,-0.686C0.363,-0.65 0.35,-0.622 0.323,-0.603C0.296,-0.584 0.263,-0.574 0.222,-0.574ZM0.042,-0L0.042,-0.147L0.105,-0.147L0.105,-0.372L0.042,-0.372L0.042,-0.492L0.339,-0.523L0.339,-0.147L0.402,-0.147L0.402,-0L0.042,-0Z" style="fill:none;fill-rule:nonzero;stroke:black;stroke-width:0.05px;"/>
                </g>
                <g transform="matrix(600.19,0,0,600,-2287.69,1983.08)">
                    <path d="M0.758,-0.141L0.758,-0L0.456,-0L0.456,-0.333C0.456,-0.347 0.452,-0.359 0.443,-0.37C0.434,-0.381 0.423,-0.386 0.41,-0.386C0.386,-0.386 0.371,-0.374 0.365,-0.35C0.358,-0.327 0.355,-0.293 0.355,-0.248L0.355,-0.141L0.356,-0.141L0.356,-0L0.051,-0L0.051,-0.141L0.122,-0.141L0.122,-0.372L0.051,-0.372L0.051,-0.504L0.355,-0.533L0.355,-0.46C0.378,-0.487 0.403,-0.505 0.432,-0.517C0.461,-0.528 0.493,-0.533 0.529,-0.533C0.636,-0.533 0.69,-0.466 0.69,-0.332L0.69,-0.141L0.758,-0.141Z" style="fill:none;fill-rule:nonzero;stroke:black;stroke-width:0.05px;"/>
                </g>
                <g transform="matrix(600.19,0,0,600,-1854.95,1983.08)">
                    <path d="M0.32,0.19C0.251,0.19 0.177,0.18 0.1,0.16L0.1,0.019C0.143,0.032 0.179,0.042 0.207,0.049C0.236,0.056 0.264,0.06 0.291,0.06C0.37,0.06 0.409,0.021 0.409,-0.057C0.391,-0.041 0.369,-0.028 0.343,-0.017C0.317,-0.006 0.288,-0 0.255,-0C0.208,-0 0.168,-0.012 0.135,-0.035C0.102,-0.059 0.078,-0.091 0.062,-0.131C0.045,-0.171 0.037,-0.215 0.037,-0.264C0.037,-0.314 0.045,-0.359 0.062,-0.4C0.079,-0.441 0.103,-0.473 0.136,-0.497C0.169,-0.521 0.208,-0.533 0.255,-0.533C0.319,-0.533 0.37,-0.505 0.409,-0.45L0.444,-0.523L0.693,-0.523L0.693,-0.372L0.646,-0.372L0.646,-0.066C0.646,0.019 0.616,0.082 0.557,0.125C0.498,0.168 0.419,0.19 0.32,0.19ZM0.347,-0.134C0.362,-0.134 0.376,-0.139 0.389,-0.148C0.402,-0.157 0.409,-0.167 0.412,-0.176L0.412,-0.354C0.406,-0.365 0.397,-0.374 0.385,-0.381C0.373,-0.387 0.359,-0.39 0.343,-0.39C0.316,-0.39 0.295,-0.379 0.279,-0.356C0.263,-0.333 0.255,-0.301 0.255,-0.261C0.255,-0.223 0.263,-0.192 0.279,-0.169C0.295,-0.146 0.318,-0.134 0.347,-0.134Z" style="fill:none;fill-rule:nonzero;stroke:black;stroke-width:0.05px;"/>
                </g>
                <g transform="matrix(600.19,0,0,600,-3398.34,2583.08)">
                    <path d="M0.315,0.009C0.248,0.009 0.189,-0.009 0.138,-0.044L0.122,-0L0.031,-0L0.031,-0.193L0.14,-0.193C0.144,-0.168 0.156,-0.146 0.174,-0.127C0.194,-0.107 0.215,-0.097 0.24,-0.097C0.249,-0.097 0.258,-0.1 0.265,-0.105C0.272,-0.11 0.275,-0.119 0.275,-0.131C0.275,-0.143 0.268,-0.154 0.255,-0.164C0.241,-0.173 0.22,-0.185 0.192,-0.198C0.159,-0.215 0.131,-0.23 0.11,-0.244C0.089,-0.257 0.07,-0.275 0.055,-0.298C0.039,-0.32 0.031,-0.347 0.031,-0.378C0.031,-0.411 0.042,-0.439 0.063,-0.462C0.084,-0.485 0.111,-0.503 0.146,-0.515C0.181,-0.527 0.218,-0.533 0.259,-0.533C0.312,-0.533 0.362,-0.519 0.407,-0.491L0.419,-0.523L0.5,-0.523L0.5,-0.367L0.406,-0.367C0.398,-0.388 0.386,-0.405 0.371,-0.417C0.356,-0.429 0.338,-0.435 0.317,-0.435C0.306,-0.435 0.297,-0.433 0.291,-0.43C0.284,-0.427 0.281,-0.421 0.281,-0.412C0.282,-0.401 0.288,-0.392 0.3,-0.385C0.312,-0.378 0.332,-0.368 0.36,-0.356C0.395,-0.341 0.423,-0.327 0.446,-0.314C0.469,-0.301 0.489,-0.282 0.505,-0.258C0.523,-0.233 0.531,-0.203 0.531,-0.167C0.531,-0.129 0.521,-0.097 0.501,-0.07C0.481,-0.044 0.455,-0.024 0.422,-0.011C0.389,0.002 0.354,0.009 0.315,0.009Z" style="fill:none;fill-rule:nonzero;stroke:black;stroke-width:0.05px;"/>
                </g>
                <g transform="matrix(600.19,0,0,600,-3080.84,2583.08)">
                    <path d="M0.333,0.009C0.274,0.009 0.223,-0.002 0.178,-0.024C0.133,-0.045 0.099,-0.077 0.074,-0.118C0.049,-0.16 0.037,-0.21 0.037,-0.267C0.037,-0.324 0.049,-0.372 0.074,-0.412C0.099,-0.452 0.133,-0.482 0.178,-0.502C0.223,-0.523 0.274,-0.533 0.333,-0.533C0.423,-0.533 0.495,-0.51 0.549,-0.464C0.603,-0.417 0.63,-0.352 0.63,-0.267C0.63,-0.21 0.618,-0.16 0.593,-0.118C0.568,-0.077 0.534,-0.045 0.489,-0.024C0.444,-0.002 0.392,0.009 0.333,0.009ZM0.333,-0.134C0.354,-0.134 0.37,-0.145 0.381,-0.166C0.391,-0.187 0.396,-0.22 0.396,-0.267C0.396,-0.31 0.391,-0.342 0.381,-0.361C0.371,-0.38 0.355,-0.39 0.333,-0.39C0.312,-0.39 0.296,-0.38 0.286,-0.361C0.276,-0.342 0.271,-0.31 0.271,-0.267C0.271,-0.22 0.276,-0.187 0.286,-0.166C0.297,-0.145 0.312,-0.134 0.333,-0.134Z" style="fill:none;fill-rule:nonzero;stroke:black;stroke-width:0.05px;"/>
                </g>
                <g transform="matrix(600.19,0,0,600,-2710.52,2583.08)">
                    <path d="M0.333,0.009C0.274,0.009 0.223,-0.002 0.178,-0.024C0.133,-0.045 0.099,-0.077 0.074,-0.118C0.049,-0.16 0.037,-0.21 0.037,-0.267C0.037,-0.324 0.049,-0.372 0.074,-0.412C0.099,-0.452 0.133,-0.482 0.178,-0.502C0.223,-0.523 0.274,-0.533 0.333,-0.533C0.423,-0.533 0.495,-0.51 0.549,-0.464C0.603,-0.417 0.63,-0.352 0.63,-0.267C0.63,-0.21 0.618,-0.16 0.593,-0.118C0.568,-0.077 0.534,-0.045 0.489,-0.024C0.444,-0.002 0.392,0.009 0.333,0.009ZM0.333,-0.134C0.354,-0.134 0.37,-0.145 0.381,-0.166C0.391,-0.187 0.396,-0.22 0.396,-0.267C0.396,-0.31 0.391,-0.342 0.381,-0.361C0.371,-0.38 0.355,-0.39 0.333,-0.39C0.312,-0.39 0.296,-0.38 0.286,-0.361C0.276,-0.342 0.271,-0.31 0.271,-0.267C0.271,-0.22 0.276,-0.187 0.286,-0.166C0.297,-0.145 0.312,-0.134 0.333,-0.134Z" style="fill:none;fill-rule:nonzero;stroke:black;stroke-width:0.05px;"/>
                </g>
                <g transform="matrix(600.19,0,0,600,-2340.2,2583.08)">
                    <path d="M0.758,-0.141L0.758,-0L0.456,-0L0.456,-0.333C0.456,-0.347 0.452,-0.359 0.443,-0.37C0.434,-0.381 0.423,-0.386 0.41,-0.386C0.386,-0.386 0.371,-0.374 0.365,-0.35C0.358,-0.327 0.355,-0.293 0.355,-0.248L0.355,-0.141L0.356,-0.141L0.356,-0L0.051,-0L0.051,-0.141L0.122,-0.141L0.122,-0.372L0.051,-0.372L0.051,-0.504L0.355,-0.533L0.355,-0.46C0.378,-0.487 0.403,-0.505 0.432,-0.517C0.461,-0.528 0.493,-0.533 0.529,-0.533C0.636,-0.533 0.69,-0.466 0.69,-0.332L0.69,-0.141L0.758,-0.141Z" style="fill:none;fill-rule:nonzero;stroke:black;stroke-width:0.05px;"/>
                </g>
                <g transform="matrix(600.19,0,0,600,-3828.97,1383.08)">
                    <path d="M0.063,-0L0.063,-0.172L0.141,-0.172L0.141,-0.605L0.063,-0.605L0.063,-0.777L0.469,-0.777L0.469,-0.605L0.391,-0.605L0.391,-0.172L0.469,-0.172L0.469,-0L0.063,-0Z" style="fill:white;fill-rule:nonzero;"/>
                </g>
                <g transform="matrix(600.19,0,0,600,-3557.69,1383.08)">
                    <path d="M1.093,-0.141L1.093,-0L0.791,-0L0.791,-0.333C0.791,-0.347 0.787,-0.359 0.778,-0.37C0.769,-0.381 0.758,-0.386 0.745,-0.386C0.721,-0.386 0.706,-0.374 0.7,-0.35C0.693,-0.327 0.69,-0.293 0.69,-0.248L0.69,-0L0.456,-0L0.456,-0.333C0.456,-0.347 0.452,-0.359 0.443,-0.37C0.434,-0.381 0.423,-0.386 0.41,-0.386C0.386,-0.386 0.371,-0.374 0.365,-0.35C0.358,-0.327 0.355,-0.293 0.355,-0.248L0.355,-0.141L0.356,-0.141L0.356,-0L0.051,-0L0.051,-0.141L0.122,-0.141L0.122,-0.372L0.051,-0.372L0.051,-0.504L0.355,-0.533L0.355,-0.46C0.378,-0.487 0.403,-0.505 0.432,-0.517C0.461,-0.528 0.493,-0.533 0.529,-0.533C0.603,-0.533 0.651,-0.502 0.674,-0.439C0.698,-0.473 0.726,-0.497 0.757,-0.511C0.788,-0.526 0.824,-0.533 0.864,-0.533C0.971,-0.533 1.025,-0.466 1.025,-0.332L1.025,-0.141L1.093,-0.141Z" style="fill:white;fill-rule:nonzero;"/>
                </g>
                <g transform="matrix(600.19,0,0,600,-2924.49,1383.08)">
                    <path d="M0.218,0.009C0.185,0.009 0.155,0.002 0.128,-0.011C0.101,-0.024 0.079,-0.042 0.063,-0.066C0.046,-0.09 0.038,-0.118 0.038,-0.15C0.038,-0.185 0.048,-0.214 0.067,-0.237C0.086,-0.261 0.111,-0.279 0.142,-0.291C0.173,-0.302 0.207,-0.308 0.243,-0.308C0.286,-0.308 0.327,-0.302 0.366,-0.289L0.366,-0.311C0.366,-0.337 0.355,-0.357 0.333,-0.371C0.311,-0.384 0.281,-0.391 0.244,-0.391C0.22,-0.391 0.192,-0.387 0.161,-0.378C0.13,-0.369 0.104,-0.359 0.083,-0.346L0.069,-0.352L0.069,-0.494C0.108,-0.508 0.149,-0.518 0.19,-0.524C0.231,-0.53 0.269,-0.533 0.304,-0.533C0.502,-0.533 0.601,-0.477 0.601,-0.366L0.601,-0.147L0.647,-0.147L0.647,-0L0.397,-0L0.375,-0.08C0.361,-0.053 0.339,-0.031 0.31,-0.015C0.28,0.001 0.249,0.009 0.218,0.009ZM0.31,-0.116C0.321,-0.116 0.332,-0.118 0.343,-0.122C0.354,-0.125 0.362,-0.129 0.366,-0.133L0.366,-0.215C0.361,-0.216 0.354,-0.218 0.343,-0.221C0.332,-0.224 0.322,-0.225 0.314,-0.225C0.297,-0.225 0.283,-0.22 0.273,-0.209C0.262,-0.198 0.257,-0.184 0.257,-0.166C0.257,-0.153 0.262,-0.141 0.272,-0.131C0.281,-0.121 0.294,-0.116 0.31,-0.116Z" style="fill:white;fill-rule:nonzero;"/>
                </g>
                <g transform="matrix(600.19,0,0,600,-2545.17,1383.08)">
                    <path d="M0.32,0.19C0.251,0.19 0.177,0.18 0.1,0.16L0.1,0.019C0.143,0.032 0.179,0.042 0.207,0.049C0.236,0.056 0.264,0.06 0.291,0.06C0.37,0.06 0.409,0.021 0.409,-0.057C0.391,-0.041 0.369,-0.028 0.343,-0.017C0.317,-0.006 0.288,-0 0.255,-0C0.208,-0 0.168,-0.012 0.135,-0.035C0.102,-0.059 0.078,-0.091 0.062,-0.131C0.045,-0.171 0.037,-0.215 0.037,-0.264C0.037,-0.314 0.045,-0.359 0.062,-0.4C0.079,-0.441 0.103,-0.473 0.136,-0.497C0.169,-0.521 0.208,-0.533 0.255,-0.533C0.319,-0.533 0.37,-0.505 0.409,-0.45L0.444,-0.523L0.693,-0.523L0.693,-0.372L0.646,-0.372L0.646,-0.066C0.646,0.019 0.616,0.082 0.557,0.125C0.498,0.168 0.419,0.19 0.32,0.19ZM0.347,-0.134C0.362,-0.134 0.376,-0.139 0.389,-0.148C0.402,-0.157 0.409,-0.167 0.412,-0.176L0.412,-0.354C0.406,-0.365 0.397,-0.374 0.385,-0.381C0.373,-0.387 0.359,-0.39 0.343,-0.39C0.316,-0.39 0.295,-0.379 0.279,-0.356C0.263,-0.333 0.255,-0.301 0.255,-0.261C0.255,-0.223 0.263,-0.192 0.279,-0.169C0.295,-0.146 0.318,-0.134 0.347,-0.134Z" style="fill:white;fill-rule:nonzero;"/>
                </g>
                <g transform="matrix(600.19,0,0,600,-2138.24,1383.08)">
                    <path d="M0.328,0.009C0.267,0.009 0.215,-0.002 0.17,-0.025C0.125,-0.047 0.091,-0.079 0.067,-0.12C0.043,-0.161 0.031,-0.21 0.031,-0.265C0.031,-0.32 0.043,-0.367 0.066,-0.407C0.089,-0.448 0.122,-0.479 0.165,-0.5C0.207,-0.522 0.256,-0.533 0.313,-0.533C0.366,-0.533 0.412,-0.523 0.452,-0.502C0.492,-0.481 0.523,-0.452 0.545,-0.414C0.567,-0.376 0.578,-0.332 0.578,-0.281C0.578,-0.264 0.575,-0.247 0.57,-0.231L0.266,-0.231C0.266,-0.2 0.278,-0.176 0.301,-0.158C0.324,-0.139 0.351,-0.13 0.384,-0.13C0.409,-0.13 0.436,-0.134 0.466,-0.143C0.495,-0.152 0.525,-0.165 0.555,-0.183L0.563,-0.18L0.563,-0.049C0.53,-0.03 0.495,-0.015 0.46,-0.006C0.425,0.004 0.381,0.009 0.328,0.009ZM0.391,-0.317L0.391,-0.327C0.391,-0.35 0.386,-0.37 0.375,-0.387C0.364,-0.404 0.349,-0.412 0.328,-0.412C0.311,-0.412 0.296,-0.404 0.284,-0.387C0.272,-0.37 0.266,-0.351 0.266,-0.331L0.266,-0.317L0.391,-0.317Z" style="fill:white;fill-rule:nonzero;"/>
                </g>
                <g transform="matrix(600.19,0,0,600,-1794.33,1383.08)">
                    <path d="M0.315,0.009C0.248,0.009 0.189,-0.009 0.138,-0.044L0.122,-0L0.031,-0L0.031,-0.193L0.14,-0.193C0.144,-0.168 0.156,-0.146 0.174,-0.127C0.194,-0.107 0.215,-0.097 0.24,-0.097C0.249,-0.097 0.258,-0.1 0.265,-0.105C0.272,-0.11 0.275,-0.119 0.275,-0.131C0.275,-0.143 0.268,-0.154 0.255,-0.164C0.241,-0.173 0.22,-0.185 0.192,-0.198C0.159,-0.215 0.131,-0.23 0.11,-0.244C0.089,-0.257 0.07,-0.275 0.055,-0.298C0.039,-0.32 0.031,-0.347 0.031,-0.378C0.031,-0.411 0.042,-0.439 0.063,-0.462C0.084,-0.485 0.111,-0.503 0.146,-0.515C0.181,-0.527 0.218,-0.533 0.259,-0.533C0.312,-0.533 0.362,-0.519 0.407,-0.491L0.419,-0.523L0.5,-0.523L0.5,-0.367L0.406,-0.367C0.398,-0.388 0.386,-0.405 0.371,-0.417C0.356,-0.429 0.338,-0.435 0.317,-0.435C0.306,-0.435 0.297,-0.433 0.291,-0.43C0.284,-0.427 0.281,-0.421 0.281,-0.412C0.282,-0.401 0.288,-0.392 0.3,-0.385C0.312,-0.378 0.332,-0.368 0.36,-0.356C0.395,-0.341 0.423,-0.327 0.446,-0.314C0.469,-0.301 0.489,-0.282 0.505,-0.258C0.523,-0.233 0.531,-0.203 0.531,-0.167C0.531,-0.129 0.521,-0.097 0.501,-0.07C0.481,-0.044 0.455,-0.024 0.422,-0.011C0.389,0.002 0.354,0.009 0.315,0.009Z" style="fill:white;fill-rule:nonzero;"/>
                </g>
                <g transform="matrix(600.19,0,0,600,-3857.78,1983.08)">
                    <path d="M0.328,0.009C0.269,0.009 0.217,-0.002 0.172,-0.025C0.127,-0.048 0.093,-0.08 0.068,-0.121C0.043,-0.162 0.031,-0.211 0.031,-0.267C0.031,-0.318 0.041,-0.363 0.062,-0.404C0.083,-0.444 0.112,-0.475 0.151,-0.499C0.189,-0.522 0.233,-0.533 0.284,-0.533C0.313,-0.533 0.343,-0.528 0.376,-0.518C0.408,-0.507 0.428,-0.492 0.437,-0.471L0.457,-0.523L0.563,-0.523L0.563,-0.307L0.422,-0.307C0.419,-0.333 0.412,-0.353 0.399,-0.368C0.386,-0.383 0.371,-0.39 0.352,-0.39C0.324,-0.39 0.303,-0.381 0.288,-0.364C0.273,-0.346 0.266,-0.313 0.266,-0.266C0.266,-0.217 0.279,-0.184 0.304,-0.165C0.329,-0.146 0.358,-0.137 0.391,-0.137C0.414,-0.137 0.44,-0.141 0.467,-0.15C0.494,-0.158 0.519,-0.171 0.54,-0.189L0.547,-0.184L0.547,-0.048C0.547,-0.047 0.537,-0.041 0.517,-0.031C0.497,-0.021 0.471,-0.012 0.438,-0.004C0.405,0.005 0.369,0.009 0.328,0.009Z" style="fill:white;fill-rule:nonzero;"/>
                </g>
                <g transform="matrix(600.19,0,0,600,-3521.68,1983.08)">
                    <path d="M0.333,0.009C0.274,0.009 0.223,-0.002 0.178,-0.024C0.133,-0.045 0.099,-0.077 0.074,-0.118C0.049,-0.16 0.037,-0.21 0.037,-0.267C0.037,-0.324 0.049,-0.372 0.074,-0.412C0.099,-0.452 0.133,-0.482 0.178,-0.502C0.223,-0.523 0.274,-0.533 0.333,-0.533C0.423,-0.533 0.495,-0.51 0.549,-0.464C0.603,-0.417 0.63,-0.352 0.63,-0.267C0.63,-0.21 0.618,-0.16 0.593,-0.118C0.568,-0.077 0.534,-0.045 0.489,-0.024C0.444,-0.002 0.392,0.009 0.333,0.009ZM0.333,-0.134C0.354,-0.134 0.37,-0.145 0.381,-0.166C0.391,-0.187 0.396,-0.22 0.396,-0.267C0.396,-0.31 0.391,-0.342 0.381,-0.361C0.371,-0.38 0.355,-0.39 0.333,-0.39C0.312,-0.39 0.296,-0.38 0.286,-0.361C0.276,-0.342 0.271,-0.31 0.271,-0.267C0.271,-0.22 0.276,-0.187 0.286,-0.166C0.297,-0.145 0.312,-0.134 0.333,-0.134Z" style="fill:white;fill-rule:nonzero;"/>
                </g>
                <g transform="matrix(600.19,0,0,600,-3151.36,1983.08)">
                    <path d="M1.093,-0.141L1.093,-0L0.791,-0L0.791,-0.333C0.791,-0.347 0.787,-0.359 0.778,-0.37C0.769,-0.381 0.758,-0.386 0.745,-0.386C0.721,-0.386 0.706,-0.374 0.7,-0.35C0.693,-0.327 0.69,-0.293 0.69,-0.248L0.69,-0L0.456,-0L0.456,-0.333C0.456,-0.347 0.452,-0.359 0.443,-0.37C0.434,-0.381 0.423,-0.386 0.41,-0.386C0.386,-0.386 0.371,-0.374 0.365,-0.35C0.358,-0.327 0.355,-0.293 0.355,-0.248L0.355,-0.141L0.356,-0.141L0.356,-0L0.051,-0L0.051,-0.141L0.122,-0.141L0.122,-0.372L0.051,-0.372L0.051,-0.504L0.355,-0.533L0.355,-0.46C0.378,-0.487 0.403,-0.505 0.432,-0.517C0.461,-0.528 0.493,-0.533 0.529,-0.533C0.603,-0.533 0.651,-0.502 0.674,-0.439C0.698,-0.473 0.726,-0.497 0.757,-0.511C0.788,-0.526 0.824,-0.533 0.864,-0.533C0.971,-0.533 1.025,-0.466 1.025,-0.332L1.025,-0.141L1.093,-0.141Z" style="fill:white;fill-rule:nonzero;"/>
                </g>
                <g transform="matrix(600.19,0,0,600,-2518.16,1983.08)">
                    <path d="M0.222,-0.574C0.181,-0.574 0.148,-0.584 0.122,-0.603C0.095,-0.622 0.082,-0.65 0.082,-0.686C0.082,-0.722 0.095,-0.749 0.122,-0.768C0.148,-0.787 0.182,-0.796 0.223,-0.796C0.264,-0.796 0.298,-0.787 0.324,-0.769C0.35,-0.75 0.363,-0.723 0.363,-0.686C0.363,-0.65 0.35,-0.622 0.323,-0.603C0.296,-0.584 0.263,-0.574 0.222,-0.574ZM0.042,-0L0.042,-0.147L0.105,-0.147L0.105,-0.372L0.042,-0.372L0.042,-0.492L0.339,-0.523L0.339,-0.147L0.402,-0.147L0.402,-0L0.042,-0Z" style="fill:white;fill-rule:nonzero;"/>
                </g>
                <g transform="matrix(600.19,0,0,600,-2287.69,1983.08)">
                    <path d="M0.758,-0.141L0.758,-0L0.456,-0L0.456,-0.333C0.456,-0.347 0.452,-0.359 0.443,-0.37C0.434,-0.381 0.423,-0.386 0.41,-0.386C0.386,-0.386 0.371,-0.374 0.365,-0.35C0.358,-0.327 0.355,-0.293 0.355,-0.248L0.355,-0.141L0.356,-0.141L0.356,-0L0.051,-0L0.051,-0.141L0.122,-0.141L0.122,-0.372L0.051,-0.372L0.051,-0.504L0.355,-0.533L0.355,-0.46C0.378,-0.487 0.403,-0.505 0.432,-0.517C0.461,-0.528 0.493,-0.533 0.529,-0.533C0.636,-0.533 0.69,-0.466 0.69,-0.332L0.69,-0.141L0.758,-0.141Z" style="fill:white;fill-rule:nonzero;"/>
                </g>
                <g transform="matrix(600.19,0,0,600,-1854.95,1983.08)">
                    <path d="M0.32,0.19C0.251,0.19 0.177,0.18 0.1,0.16L0.1,0.019C0.143,0.032 0.179,0.042 0.207,0.049C0.236,0.056 0.264,0.06 0.291,0.06C0.37,0.06 0.409,0.021 0.409,-0.057C0.391,-0.041 0.369,-0.028 0.343,-0.017C0.317,-0.006 0.288,-0 0.255,-0C0.208,-0 0.168,-0.012 0.135,-0.035C0.102,-0.059 0.078,-0.091 0.062,-0.131C0.045,-0.171 0.037,-0.215 0.037,-0.264C0.037,-0.314 0.045,-0.359 0.062,-0.4C0.079,-0.441 0.103,-0.473 0.136,-0.497C0.169,-0.521 0.208,-0.533 0.255,-0.533C0.319,-0.533 0.37,-0.505 0.409,-0.45L0.444,-0.523L0.693,-0.523L0.693,-0.372L0.646,-0.372L0.646,-0.066C0.646,0.019 0.616,0.082 0.557,0.125C0.498,0.168 0.419,0.19 0.32,0.19ZM0.347,-0.134C0.362,-0.134 0.376,-0.139 0.389,-0.148C0.402,-0.157 0.409,-0.167 0.412,-0.176L0.412,-0.354C0.406,-0.365 0.397,-0.374 0.385,-0.381C0.373,-0.387 0.359,-0.39 0.343,-0.39C0.316,-0.39 0.295,-0.379 0.279,-0.356C0.263,-0.333 0.255,-0.301 0.255,-0.261C0.255,-0.223 0.263,-0.192 0.279,-0.169C0.295,-0.146 0.318,-0.134 0.347,-0.134Z" style="fill:white;fill-rule:nonzero;"/>
                </g>
                <g transform="matrix(600.19,0,0,600,-3398.34,2583.08)">
                    <path d="M0.315,0.009C0.248,0.009 0.189,-0.009 0.138,-0.044L0.122,-0L0.031,-0L0.031,-0.193L0.14,-0.193C0.144,-0.168 0.156,-0.146 0.174,-0.127C0.194,-0.107 0.215,-0.097 0.24,-0.097C0.249,-0.097 0.258,-0.1 0.265,-0.105C0.272,-0.11 0.275,-0.119 0.275,-0.131C0.275,-0.143 0.268,-0.154 0.255,-0.164C0.241,-0.173 0.22,-0.185 0.192,-0.198C0.159,-0.215 0.131,-0.23 0.11,-0.244C0.089,-0.257 0.07,-0.275 0.055,-0.298C0.039,-0.32 0.031,-0.347 0.031,-0.378C0.031,-0.411 0.042,-0.439 0.063,-0.462C0.084,-0.485 0.111,-0.503 0.146,-0.515C0.181,-0.527 0.218,-0.533 0.259,-0.533C0.312,-0.533 0.362,-0.519 0.407,-0.491L0.419,-0.523L0.5,-0.523L0.5,-0.367L0.406,-0.367C0.398,-0.388 0.386,-0.405 0.371,-0.417C0.356,-0.429 0.338,-0.435 0.317,-0.435C0.306,-0.435 0.297,-0.433 0.291,-0.43C0.284,-0.427 0.281,-0.421 0.281,-0.412C0.282,-0.401 0.288,-0.392 0.3,-0.385C0.312,-0.378 0.332,-0.368 0.36,-0.356C0.395,-0.341 0.423,-0.327 0.446,-0.314C0.469,-0.301 0.489,-0.282 0.505,-0.258C0.523,-0.233 0.531,-0.203 0.531,-0.167C0.531,-0.129 0.521,-0.097 0.501,-0.07C0.481,-0.044 0.455,-0.024 0.422,-0.011C0.389,0.002 0.354,0.009 0.315,0.009Z" style="fill:white;fill-rule:nonzero;"/>
                </g>
                <g transform="matrix(600.19,0,0,600,-3080.84,2583.08)">
                    <path d="M0.333,0.009C0.274,0.009 0.223,-0.002 0.178,-0.024C0.133,-0.045 0.099,-0.077 0.074,-0.118C0.049,-0.16 0.037,-0.21 0.037,-0.267C0.037,-0.324 0.049,-0.372 0.074,-0.412C0.099,-0.452 0.133,-0.482 0.178,-0.502C0.223,-0.523 0.274,-0.533 0.333,-0.533C0.423,-0.533 0.495,-0.51 0.549,-0.464C0.603,-0.417 0.63,-0.352 0.63,-0.267C0.63,-0.21 0.618,-0.16 0.593,-0.118C0.568,-0.077 0.534,-0.045 0.489,-0.024C0.444,-0.002 0.392,0.009 0.333,0.009ZM0.333,-0.134C0.354,-0.134 0.37,-0.145 0.381,-0.166C0.391,-0.187 0.396,-0.22 0.396,-0.267C0.396,-0.31 0.391,-0.342 0.381,-0.361C0.371,-0.38 0.355,-0.39 0.333,-0.39C0.312,-0.39 0.296,-0.38 0.286,-0.361C0.276,-0.342 0.271,-0.31 0.271,-0.267C0.271,-0.22 0.276,-0.187 0.286,-0.166C0.297,-0.145 0.312,-0.134 0.333,-0.134Z" style="fill:white;fill-rule:nonzero;"/>
                </g>
                <g transform="matrix(600.19,0,0,600,-2710.52,2583.08)">
                    <path d="M0.333,0.009C0.274,0.009 0.223,-0.002 0.178,-0.024C0.133,-0.045 0.099,-0.077 0.074,-0.118C0.049,-0.16 0.037,-0.21 0.037,-0.267C0.037,-0.324 0.049,-0.372 0.074,-0.412C0.099,-0.452 0.133,-0.482 0.178,-0.502C0.223,-0.523 0.274,-0.533 0.333,-0.533C0.423,-0.533 0.495,-0.51 0.549,-0.464C0.603,-0.417 0.63,-0.352 0.63,-0.267C0.63,-0.21 0.618,-0.16 0.593,-0.118C0.568,-0.077 0.534,-0.045 0.489,-0.024C0.444,-0.002 0.392,0.009 0.333,0.009ZM0.333,-0.134C0.354,-0.134 0.37,-0.145 0.381,-0.166C0.391,-0.187 0.396,-0.22 0.396,-0.267C0.396,-0.31 0.391,-0.342 0.381,-0.361C0.371,-0.38 0.355,-0.39 0.333,-0.39C0.312,-0.39 0.296,-0.38 0.286,-0.361C0.276,-0.342 0.271,-0.31 0.271,-0.267C0.271,-0.22 0.276,-0.187 0.286,-0.166C0.297,-0.145 0.312,-0.134 0.333,-0.134Z" style="fill:white;fill-rule:nonzero;"/>
                </g>
                <g transform="matrix(600.19,0,0,600,-2340.2,2583.08)">
                    <path d="M0.758,-0.141L0.758,-0L0.456,-0L0.456,-0.333C0.456,-0.347 0.452,-0.359 0.443,-0.37C0.434,-0.381 0.423,-0.386 0.41,-0.386C0.386,-0.386 0.371,-0.374 0.365,-0.35C0.358,-0.327 0.355,-0.293 0.355,-0.248L0.355,-0.141L0.356,-0.141L0.356,-0L0.051,-0L0.051,-0.141L0.122,-0.141L0.122,-0.372L0.051,-0.372L0.051,-0.504L0.355,-0.533L0.355,-0.46C0.378,-0.487 0.403,-0.505 0.432,-0.517C0.461,-0.528 0.493,-0.533 0.529,-0.533C0.636,-0.533 0.69,-0.466 0.69,-0.332L0.69,-0.141L0.758,-0.141Z" style="fill:white;fill-rule:nonzero;"/>
                </g>
            </g>
        </g>
    </g>
</svg>
